<svg xmlns="http://www.w3.org/2000/svg" xmlns:xlink="http://www.w3.org/1999/xlink" contentStyleType="text/css" data-diagram-type="SEQUENCE" height="452px" preserveAspectRatio="none" style="width:625px;height:452px;background:#FFFFFF;" version="1.1" viewBox="0 0 625 452" width="625px" zoomAndPan="magnify"><defs/><g><rect fill="#FFFFFF" height="431.4766" style="stroke:#181818;stroke-width:1.5;" width="614.6094" x="5" y="15"/><path d="M103.71,15 L103.71,25.6094 L93.71,35.6094 L5,35.6094" fill="none" style="stroke:#181818;stroke-width:1.5;"/><text fill="#000000" font-family="sans-serif" font-size="14" font-weight="bold" lengthAdjust="spacing" textLength="16.3379" x="8" y="30.5332">sd</text><text fill="#000000" font-family="sans-serif" font-size="14" lengthAdjust="spacing" textLength="68.4824" x="28.2275" y="30.5332">TagSearch</text><g><title>... Tag Management Page..</title><rect fill="#FFFFFF" height="264.2969" style="stroke:#181818;stroke-width:1;" width="10" x="175.3267" y="153.5703"/></g><g><title>... Tag Controller..</title><rect fill="#FFFFFF" height="91.0547" style="stroke:#181818;stroke-width:1;" width="10" x="381.291" y="183.9219"/></g><g><title>... Tag Repository..</title><rect fill="#FFFFFF" height="30.3516" style="stroke:#181818;stroke-width:1;" width="10" x="545.3818" y="214.2734"/></g><rect fill="none" height="120.8906" style="stroke:#000000;stroke-width:1.5;" width="299.0918" x="87.1992" y="289.9766"/><g><title>... User..</title><rect fill="#000000" fill-opacity="0.00000" height="306.6484" width="8" x="33.8413" y="121.2188"/><line style="stroke:#181818;stroke-width:0.5;stroke-dasharray:5,5;" x1="37" x2="37" y1="121.2188" y2="427.8672"/></g><g><title>... Tag Management Page..</title><rect fill="#000000" fill-opacity="0.00000" height="306.6484" width="8" x="176.3267" y="121.2188"/><line style="stroke:#181818;stroke-width:0.5;stroke-dasharray:5,5;" x1="180.1992" x2="180.1992" y1="121.2188" y2="427.8672"/></g><g><title>... Tag Controller..</title><rect fill="#000000" fill-opacity="0.00000" height="306.6484" width="8" x="382.291" y="121.2188"/><line style="stroke:#181818;stroke-width:0.5;stroke-dasharray:5,5;" x1="386.1807" x2="386.1807" y1="121.2188" y2="427.8672"/></g><g><title>... Tag Repository..</title><rect fill="#000000" fill-opacity="0.00000" height="306.6484" width="8" x="546.3818" y="121.2188"/><line style="stroke:#181818;stroke-width:0.5;stroke-dasharray:5,5;" x1="550.1543" x2="550.1543" y1="121.2188" y2="427.8672"/></g><g class="participant participant-head" data-participant="User"><text fill="#000000" font-family="sans-serif" font-size="14" font-weight="bold" lengthAdjust="spacing" textLength="39.6826" x="15" y="118.1426">: User</text><ellipse cx="37.8413" cy="52.1094" fill="#E2E2F0" rx="8" ry="8" style="stroke:#181818;stroke-width:0.5;"/><path d="M37.8413,60.1094 L37.8413,87.1094 M24.8413,68.1094 L50.8413,68.1094 M37.8413,87.1094 L24.8413,102.1094 M37.8413,87.1094 L50.8413,102.1094" fill="none" style="stroke:#181818;stroke-width:0.5;"/></g><g class="participant participant-head" data-participant="TagPage"><text fill="#000000" font-family="sans-serif" font-size="14" font-weight="bold" lengthAdjust="spacing" textLength="160.2549" x="97.1992" y="118.1426">: Tag Management Page</text><path d="M159.8267,75.6094 L159.8267,99.6094 M159.8267,87.6094 L176.8267,87.6094" fill="none" style="stroke:#181818;stroke-width:0.5;"/><ellipse cx="188.8267" cy="87.6094" fill="#E2E2F0" rx="12" ry="12" style="stroke:#181818;stroke-width:0.5;"/></g><g class="participant participant-head" data-participant="TagController"><text fill="#000000" font-family="sans-serif" font-size="14" font-weight="bold" lengthAdjust="spacing" textLength="104.2207" x="331.1807" y="118.1426">: Tag Controller</text><ellipse cx="386.291" cy="87.6094" fill="#E2E2F0" rx="12" ry="12" style="stroke:#181818;stroke-width:0.5;"/><polygon fill="#181818" points="382.291,75.6094,388.291,70.6094,386.291,75.6094,388.291,80.6094,382.291,75.6094" style="stroke:#181818;stroke-width:1;"/></g><g class="participant participant-head" data-participant="TagRepository"><text fill="#000000" font-family="sans-serif" font-size="14" font-weight="bold" lengthAdjust="spacing" textLength="110.4551" x="492.1543" y="118.1426">: Tag Repository</text><ellipse cx="550.3818" cy="87.6094" fill="#E2E2F0" rx="12" ry="12" style="stroke:#181818;stroke-width:0.5;"/><line style="stroke:#181818;stroke-width:0.5;" x1="538.3818" x2="562.3818" y1="101.6094" y2="101.6094"/></g><g><title>... Tag Management Page..</title><rect fill="#FFFFFF" height="264.2969" style="stroke:#181818;stroke-width:1;" width="10" x="175.3267" y="153.5703"/></g><g><title>... Tag Controller..</title><rect fill="#FFFFFF" height="91.0547" style="stroke:#181818;stroke-width:1;" width="10" x="381.291" y="183.9219"/></g><g><title>... Tag Repository..</title><rect fill="#FFFFFF" height="30.3516" style="stroke:#181818;stroke-width:1;" width="10" x="545.3818" y="214.2734"/></g><g class="message" data-participant-1="User" data-participant-2="TagPage"><polygon fill="#181818" points="163.3267,149.5703,173.3267,153.5703,163.3267,157.5703,167.3267,153.5703" style="stroke:#181818;stroke-width:1;"/><line style="stroke:#181818;stroke-width:1;" x1="37.8413" x2="169.3267" y1="153.5703" y2="153.5703"/><text fill="#000000" font-family="sans-serif" font-size="13" lengthAdjust="spacing" textLength="118.4854" x="44.8413" y="148.7139">searchTag(keyword)</text></g><g class="message" data-participant-1="TagPage" data-participant-2="TagController"><polygon fill="#181818" points="369.291,179.9219,379.291,183.9219,369.291,187.9219,373.291,183.9219" style="stroke:#181818;stroke-width:1;"/><line style="stroke:#181818;stroke-width:1;" x1="185.3267" x2="375.291" y1="183.9219" y2="183.9219"/><text fill="#000000" font-family="sans-serif" font-size="13" lengthAdjust="spacing" textLength="166.1753" x="192.3267" y="179.0654">processTagSearch(keyword)</text></g><g class="message" data-participant-1="TagController" data-participant-2="TagRepository"><polygon fill="#181818" points="533.3818,210.2734,543.3818,214.2734,533.3818,218.2734,537.3818,214.2734" style="stroke:#181818;stroke-width:1;"/><line style="stroke:#181818;stroke-width:1;" x1="391.291" x2="539.3818" y1="214.2734" y2="214.2734"/><text fill="#000000" font-family="sans-serif" font-size="13" lengthAdjust="spacing" textLength="135.0908" x="398.291" y="209.417">findByCriteria(keyword)</text></g><g class="message" data-participant-1="TagRepository" data-participant-2="TagController"><polygon fill="#181818" points="402.291,240.625,392.291,244.625,402.291,248.625,398.291,244.625" style="stroke:#181818;stroke-width:1;"/><line style="stroke:#181818;stroke-width:1;stroke-dasharray:2,2;" x1="396.291" x2="549.3818" y1="244.625" y2="244.625"/><text fill="#000000" font-family="sans-serif" font-size="13" lengthAdjust="spacing" textLength="124.2681" x="408.291" y="239.7686">returnResults(tagList)</text></g><g class="message" data-participant-1="TagController" data-participant-2="TagPage"><polygon fill="#181818" points="196.3267,270.9766,186.3267,274.9766,196.3267,278.9766,192.3267,274.9766" style="stroke:#181818;stroke-width:1;"/><line style="stroke:#181818;stroke-width:1;stroke-dasharray:2,2;" x1="190.3267" x2="385.291" y1="274.9766" y2="274.9766"/><text fill="#000000" font-family="sans-serif" font-size="13" lengthAdjust="spacing" textLength="124.2681" x="202.3267" y="270.1201">returnResults(tagList)</text></g><path d="M87.1992,289.9766 L147.3701,289.9766 L147.3701,298.3281 L137.3701,308.3281 L87.1992,308.3281 L87.1992,289.9766" fill="#EEEEEE" style="stroke:#000000;stroke-width:1.5;"/><rect fill="none" height="120.8906" style="stroke:#000000;stroke-width:1.5;" width="299.0918" x="87.1992" y="289.9766"/><text fill="#000000" font-family="sans-serif" font-size="13" font-weight="bold" lengthAdjust="spacing" textLength="15.1709" x="102.1992" y="304.4717">alt</text><text fill="#000000" font-family="sans-serif" font-size="11" font-weight="bold" lengthAdjust="spacing" textLength="133.2407" x="162.3701" y="303.3955">[No search results found]</text><g class="message" data-participant-1="TagPage" data-participant-2="TagPage"><line style="stroke:#181818;stroke-width:1;" x1="185.3267" x2="227.3267" y1="330.6797" y2="330.6797"/><line style="stroke:#181818;stroke-width:1;" x1="227.3267" x2="227.3267" y1="330.6797" y2="343.6797"/><line style="stroke:#181818;stroke-width:1;" x1="186.3267" x2="227.3267" y1="343.6797" y2="343.6797"/><polygon fill="#181818" points="196.3267,339.6797,186.3267,343.6797,196.3267,347.6797,192.3267,343.6797" style="stroke:#181818;stroke-width:1;"/><text fill="#000000" font-family="sans-serif" font-size="13" lengthAdjust="spacing" textLength="168.1875" x="192.3267" y="325.8232">displayError("No tags found")</text></g><line style="stroke:#000000;stroke-width:1;stroke-dasharray:2,2;" x1="87.1992" x2="386.291" y1="352.6797" y2="352.6797"/><text fill="#000000" font-family="sans-serif" font-size="11" font-weight="bold" lengthAdjust="spacing" textLength="116.7407" x="92.1992" y="364.0986">[Search results found]</text><g class="message" data-participant-1="TagPage" data-participant-2="TagPage"><line style="stroke:#181818;stroke-width:1;" x1="185.3267" x2="227.3267" y1="389.8672" y2="389.8672"/><line style="stroke:#181818;stroke-width:1;" x1="227.3267" x2="227.3267" y1="389.8672" y2="402.8672"/><line style="stroke:#181818;stroke-width:1;" x1="186.3267" x2="227.3267" y1="402.8672" y2="402.8672"/><polygon fill="#181818" points="196.3267,398.8672,186.3267,402.8672,196.3267,406.8672,192.3267,402.8672" style="stroke:#181818;stroke-width:1;"/><text fill="#000000" font-family="sans-serif" font-size="13" lengthAdjust="spacing" textLength="171.9644" x="192.3267" y="385.0107">displaySearchResults(tagList)</text></g><!--SRC=[dPB1JiCm38RlVWghfotINc073apS0A4D7i1hl2sYJIed0_hsk6ktj6D8Y9mIs__dtrPgSdudL3CQ4wqn-4hx3PEK1pWuoxWB8Mt35m2LAGWMnYpnBR8OKo35qnMsuUWjITjd5O1Fv6dFDVk4BtePYZNJlQ0CFaceSlcg3rGNh0Pp31JZqeY-vYP4ftRQN9vZ09qfNDoT- -4IusaYVS_UkVqCOkVTFEw34bzSmRcyL-R-gcyab1pZPJUtCIFBC2NqoEnHaJldxNsx4fTO7Dq6ZeQQoXStF0gde_WrnsELuYpH_j75D0VBln2lBKuMzYVOU5wg4Zw7OT4gFmdrz-ZF0DGpNUxGnRhOLDG-Y0IP5IhNHeEec0DNaN7p7s0l-k6ULNerGgVx1W00]--></g></svg>