<svg xmlns="http://www.w3.org/2000/svg" xmlns:xlink="http://www.w3.org/1999/xlink" contentStyleType="text/css" data-diagram-type="SEQUENCE" height="512px" preserveAspectRatio="none" style="width:607px;height:512px;background:#FFFFFF;" version="1.1" viewBox="0 0 607 512" width="607px" zoomAndPan="magnify"><defs/><g><rect fill="#FFFFFF" height="491.4766" style="stroke:#181818;stroke-width:1.5;" width="596.3374" x="5" y="15"/><path d="M102.917,15 L102.917,25.6094 L92.917,35.6094 L5,35.6094" fill="none" style="stroke:#181818;stroke-width:1.5;"/><text fill="#000000" font-family="sans-serif" font-size="14" font-weight="bold" lengthAdjust="spacing" textLength="16.3379" x="8" y="30.5332">sd</text><text fill="#000000" font-family="sans-serif" font-size="14" lengthAdjust="spacing" textLength="67.6895" x="28.2275" y="30.5332">CariReport</text><g><title>... ReportPage..</title><rect fill="#FFFFFF" height="324.2969" style="stroke:#181818;stroke-width:1;" width="10" x="152.9258" y="153.5703"/></g><g><title>... ReportPage..</title><rect fill="#FFFFFF" height="28" style="stroke:#181818;stroke-width:1;" width="10" x="157.9258" y="338.6797"/></g><g><title>... ReportPage..</title><rect fill="#FFFFFF" height="28" style="stroke:#181818;stroke-width:1;" width="10" x="157.9258" y="427.8672"/></g><g><title>... ReportController..</title><rect fill="#FFFFFF" height="91.0547" style="stroke:#181818;stroke-width:1;" width="10" x="374.7783" y="183.9219"/></g><g><title>... Report..</title><rect fill="#FFFFFF" height="30.3516" style="stroke:#181818;stroke-width:1;" width="10" x="555.5063" y="214.2734"/></g><rect fill="none" height="180.8906" style="stroke:#000000;stroke-width:1.5;" width="283.4146" x="101.3638" y="289.9766"/><g><title>... User..</title><rect fill="#000000" fill-opacity="0.00000" height="366.6484" width="8" x="33.8413" y="121.2188"/><line style="stroke:#181818;stroke-width:0.5;stroke-dasharray:5,5;" x1="37" x2="37" y1="121.2188" y2="487.8672"/></g><g><title>... ReportPage..</title><rect fill="#000000" fill-opacity="0.00000" height="366.6484" width="8" x="153.9258" y="121.2188"/><line style="stroke:#181818;stroke-width:0.5;stroke-dasharray:5,5;" x1="157.3638" x2="157.3638" y1="121.2188" y2="487.8672"/></g><g><title>... ReportController..</title><rect fill="#000000" fill-opacity="0.00000" height="366.6484" width="8" x="375.7783" y="121.2188"/><line style="stroke:#181818;stroke-width:0.5;stroke-dasharray:5,5;" x1="379.5024" x2="379.5024" y1="121.2188" y2="487.8672"/></g><g><title>... Report..</title><rect fill="#000000" fill-opacity="0.00000" height="366.6484" width="8" x="556.5063" y="121.2188"/><line style="stroke:#181818;stroke-width:0.5;stroke-dasharray:5,5;" x1="559.6753" x2="559.6753" y1="121.2188" y2="487.8672"/></g><g class="participant participant-head" data-participant="User"><text fill="#000000" font-family="sans-serif" font-size="14" font-weight="bold" lengthAdjust="spacing" textLength="39.6826" x="15" y="118.1426">: User</text><ellipse cx="37.8413" cy="52.1094" fill="#E2E2F0" rx="8" ry="8" style="stroke:#181818;stroke-width:0.5;"/><path d="M37.8413,60.1094 L37.8413,87.1094 M24.8413,68.1094 L50.8413,68.1094 M37.8413,87.1094 L24.8413,102.1094 M37.8413,87.1094 L50.8413,102.1094" fill="none" style="stroke:#181818;stroke-width:0.5;"/></g><g class="participant participant-head" data-participant="ReportListPage"><text fill="#000000" font-family="sans-serif" font-size="14" font-weight="bold" lengthAdjust="spacing" textLength="87.124" x="111.3638" y="118.1426">: ReportPage</text><path d="M137.4258,75.6094 L137.4258,99.6094 M137.4258,87.6094 L154.4258,87.6094" fill="none" style="stroke:#181818;stroke-width:0.5;"/><ellipse cx="166.4258" cy="87.6094" fill="#E2E2F0" rx="12" ry="12" style="stroke:#181818;stroke-width:0.5;"/></g><g class="participant participant-head" data-participant="ReportController"><text fill="#000000" font-family="sans-serif" font-size="14" font-weight="bold" lengthAdjust="spacing" textLength="120.5518" x="316.5024" y="118.1426">: ReportController</text><ellipse cx="379.7783" cy="87.6094" fill="#E2E2F0" rx="12" ry="12" style="stroke:#181818;stroke-width:0.5;"/><polygon fill="#181818" points="375.7783,75.6094,381.7783,70.6094,379.7783,75.6094,381.7783,80.6094,375.7783,75.6094" style="stroke:#181818;stroke-width:1;"/></g><g class="participant participant-head" data-participant="ReportRepository"><text fill="#000000" font-family="sans-serif" font-size="14" font-weight="bold" lengthAdjust="spacing" textLength="53.6621" x="530.6753" y="118.1426">: Report</text><ellipse cx="560.5063" cy="87.6094" fill="#E2E2F0" rx="12" ry="12" style="stroke:#181818;stroke-width:0.5;"/><line style="stroke:#181818;stroke-width:0.5;" x1="548.5063" x2="572.5063" y1="101.6094" y2="101.6094"/></g><g><title>... ReportPage..</title><rect fill="#FFFFFF" height="324.2969" style="stroke:#181818;stroke-width:1;" width="10" x="152.9258" y="153.5703"/></g><g><title>... ReportPage..</title><rect fill="#FFFFFF" height="28" style="stroke:#181818;stroke-width:1;" width="10" x="157.9258" y="338.6797"/></g><g><title>... ReportPage..</title><rect fill="#FFFFFF" height="28" style="stroke:#181818;stroke-width:1;" width="10" x="157.9258" y="427.8672"/></g><g><title>... ReportController..</title><rect fill="#FFFFFF" height="91.0547" style="stroke:#181818;stroke-width:1;" width="10" x="374.7783" y="183.9219"/></g><g><title>... Report..</title><rect fill="#FFFFFF" height="30.3516" style="stroke:#181818;stroke-width:1;" width="10" x="555.5063" y="214.2734"/></g><g class="message" data-participant-1="User" data-participant-2="ReportListPage"><polygon fill="#181818" points="140.9258,149.5703,150.9258,153.5703,140.9258,157.5703,144.9258,153.5703" style="stroke:#181818;stroke-width:1;"/><line style="stroke:#181818;stroke-width:1;" x1="37.8413" x2="146.9258" y1="153.5703" y2="153.5703"/><text fill="#000000" font-family="sans-serif" font-size="13" lengthAdjust="spacing" textLength="96.0845" x="44.8413" y="148.7139">search(keyword)</text></g><g class="message" data-participant-1="ReportListPage" data-participant-2="ReportController"><polygon fill="#181818" points="362.7783,179.9219,372.7783,183.9219,362.7783,187.9219,366.7783,183.9219" style="stroke:#181818;stroke-width:1;"/><line style="stroke:#181818;stroke-width:1;" x1="162.9258" x2="368.7783" y1="183.9219" y2="183.9219"/><text fill="#000000" font-family="sans-serif" font-size="13" lengthAdjust="spacing" textLength="123.5444" x="169.9258" y="179.0654">findReports(keyword)</text></g><g class="message" data-participant-1="ReportController" data-participant-2="ReportRepository"><polygon fill="#181818" points="543.5063,210.2734,553.5063,214.2734,543.5063,218.2734,547.5063,214.2734" style="stroke:#181818;stroke-width:1;"/><line style="stroke:#181818;stroke-width:1;" x1="384.7783" x2="549.5063" y1="214.2734" y2="214.2734"/><text fill="#000000" font-family="sans-serif" font-size="13" lengthAdjust="spacing" textLength="151.728" x="391.7783" y="209.417">getByReportKey(keyword)</text></g><g class="message" data-participant-1="ReportRepository" data-participant-2="ReportController"><polygon fill="#181818" points="395.7783,240.625,385.7783,244.625,395.7783,248.625,391.7783,244.625" style="stroke:#181818;stroke-width:1;"/><line style="stroke:#181818;stroke-width:1;stroke-dasharray:2,2;" x1="389.7783" x2="559.5063" y1="244.625" y2="244.625"/><text fill="#000000" font-family="sans-serif" font-size="13" lengthAdjust="spacing" textLength="54.1899" x="401.7783" y="239.7686">reportList</text></g><g class="message" data-participant-1="ReportController" data-participant-2="ReportListPage"><polygon fill="#181818" points="173.9258,270.9766,163.9258,274.9766,173.9258,278.9766,169.9258,274.9766" style="stroke:#181818;stroke-width:1;"/><line style="stroke:#181818;stroke-width:1;stroke-dasharray:2,2;" x1="167.9258" x2="378.7783" y1="274.9766" y2="274.9766"/><text fill="#000000" font-family="sans-serif" font-size="13" lengthAdjust="spacing" textLength="54.1899" x="179.9258" y="270.1201">reportList</text></g><path d="M101.3638,289.9766 L161.5347,289.9766 L161.5347,298.3281 L151.5347,308.3281 L101.3638,308.3281 L101.3638,289.9766" fill="#EEEEEE" style="stroke:#000000;stroke-width:1.5;"/><rect fill="none" height="180.8906" style="stroke:#000000;stroke-width:1.5;" width="283.4146" x="101.3638" y="289.9766"/><text fill="#000000" font-family="sans-serif" font-size="13" font-weight="bold" lengthAdjust="spacing" textLength="15.1709" x="116.3638" y="304.4717">alt</text><text fill="#000000" font-family="sans-serif" font-size="11" font-weight="bold" lengthAdjust="spacing" textLength="133.2407" x="176.5347" y="303.3955">[No search results found]</text><g class="message" data-participant-1="ReportListPage" data-participant-2="ReportListPage"><line style="stroke:#181818;stroke-width:1;" x1="167.9258" x2="209.9258" y1="330.6797" y2="330.6797"/><line style="stroke:#181818;stroke-width:1;" x1="209.9258" x2="209.9258" y1="330.6797" y2="343.6797"/><line style="stroke:#181818;stroke-width:1;" x1="168.9258" x2="209.9258" y1="343.6797" y2="343.6797"/><polygon fill="#181818" points="178.9258,339.6797,168.9258,343.6797,178.9258,347.6797,174.9258,343.6797" style="stroke:#181818;stroke-width:1;"/><text fill="#000000" font-family="sans-serif" font-size="13" lengthAdjust="spacing" textLength="184.0757" x="174.9258" y="325.8232">displayError("No reports found")</text></g><line style="stroke:#000000;stroke-width:1;stroke-dasharray:2,2;" x1="101.3638" x2="384.7783" y1="382.6797" y2="382.6797"/><text fill="#000000" font-family="sans-serif" font-size="11" font-weight="bold" lengthAdjust="spacing" textLength="116.7407" x="106.3638" y="394.0986">[Search results found]</text><g class="message" data-participant-1="ReportListPage" data-participant-2="ReportListPage"><line style="stroke:#181818;stroke-width:1;" x1="167.9258" x2="209.9258" y1="419.8672" y2="419.8672"/><line style="stroke:#181818;stroke-width:1;" x1="209.9258" x2="209.9258" y1="419.8672" y2="432.8672"/><line style="stroke:#181818;stroke-width:1;" x1="168.9258" x2="209.9258" y1="432.8672" y2="432.8672"/><polygon fill="#181818" points="178.9258,428.8672,168.9258,432.8672,178.9258,436.8672,174.9258,432.8672" style="stroke:#181818;stroke-width:1;"/><text fill="#000000" font-family="sans-serif" font-size="13" lengthAdjust="spacing" textLength="187.8525" x="174.9258" y="415.0107">displaySearchResults(reportList)</text></g><!--SRC=[fPB1Ri8m38RlVWghfnA95-2mmz1EcoR4j0S8ZGlHGeESi2rllxIfsjAINSYXYdxRdt-xEKlTr2pFX48u9GHk9UizNInxE6b5M5lh3_ONG5RUCXP2RF3J4GjHe7JT5GxssYZ98KLJzKuUgSz9mfjsdGYLRJnRCqtU9iaCsBaCr7ZjRnhSPBPVfwF10D1QmlNJh2rkq97awbH-KVYnh5RjHFfRUfeRX5dbm1hzH5gj6vLabqLE1e05Oi2EvYFsIFuv9FsLGfOy6NW1MTytpCDKe2YFksFqtZB_eqt7biRZk-rt7wlSrNWNNrLyCO3nv7OzQQMqknWPNfWjbqM4fTuzfLXrdDpFR6CBWqEKZ2FyUDnRGkmJeHntyv2tw0AouJy0]--></g></svg>