<svg xmlns="http://www.w3.org/2000/svg" xmlns:xlink="http://www.w3.org/1999/xlink" contentStyleType="text/css" data-diagram-type="SEQUENCE" height="512px" preserveAspectRatio="none" style="width:599px;height:512px;background:#FFFFFF;" version="1.1" viewBox="0 0 599 512" width="599px" zoomAndPan="magnify"><defs/><g><rect fill="#FFFFFF" height="491.4766" style="stroke:#181818;stroke-width:1.5;" width="588.3979" x="5" y="15"/><path d="M85.0205,15 L85.0205,25.6094 L75.0205,35.6094 L5,35.6094" fill="none" style="stroke:#181818;stroke-width:1.5;"/><text fill="#000000" font-family="sans-serif" font-size="14" font-weight="bold" lengthAdjust="spacing" textLength="16.3379" x="8" y="30.5332">sd</text><text fill="#000000" font-family="sans-serif" font-size="14" lengthAdjust="spacing" textLength="49.793" x="28.2275" y="30.5332">CariTag</text><g><title>... TagPage..</title><rect fill="#FFFFFF" height="324.2969" style="stroke:#181818;stroke-width:1;" width="10" x="175.3267" y="153.5703"/></g><g><title>... TagPage..</title><rect fill="#FFFFFF" height="28" style="stroke:#181818;stroke-width:1;" width="10" x="180.3267" y="338.6797"/></g><g><title>... TagPage..</title><rect fill="#FFFFFF" height="28" style="stroke:#181818;stroke-width:1;" width="10" x="180.3267" y="427.8672"/></g><g><title>... TagController..</title><rect fill="#FFFFFF" height="91.0547" style="stroke:#181818;stroke-width:1;" width="10" x="381.291" y="183.9219"/></g><g><title>... Tag..</title><rect fill="#FFFFFF" height="30.3516" style="stroke:#181818;stroke-width:1;" width="10" x="557.6772" y="214.2734"/></g><rect fill="none" height="180.8906" style="stroke:#000000;stroke-width:1.5;" width="257.416" x="133.875" y="289.9766"/><g><title>... User..</title><rect fill="#000000" fill-opacity="0.00000" height="366.6484" width="8" x="33.8413" y="121.2188"/><line style="stroke:#181818;stroke-width:0.5;stroke-dasharray:5,5;" x1="37" x2="37" y1="121.2188" y2="487.8672"/></g><g><title>... TagPage..</title><rect fill="#000000" fill-opacity="0.00000" height="366.6484" width="8" x="176.3267" y="121.2188"/><line style="stroke:#181818;stroke-width:0.5;stroke-dasharray:5,5;" x1="179.875" x2="179.875" y1="121.2188" y2="487.8672"/></g><g><title>... TagController..</title><rect fill="#000000" fill-opacity="0.00000" height="366.6484" width="8" x="382.291" y="121.2188"/><line style="stroke:#181818;stroke-width:0.5;stroke-dasharray:5,5;" x1="386.1255" x2="386.1255" y1="121.2188" y2="487.8672"/></g><g><title>... Tag..</title><rect fill="#000000" fill-opacity="0.00000" height="366.6484" width="8" x="558.6772" y="121.2188"/><line style="stroke:#181818;stroke-width:0.5;stroke-dasharray:5,5;" x1="561.9565" x2="561.9565" y1="121.2188" y2="487.8672"/></g><g class="participant participant-head" data-participant="User"><text fill="#000000" font-family="sans-serif" font-size="14" font-weight="bold" lengthAdjust="spacing" textLength="39.6826" x="15" y="118.1426">: User</text><ellipse cx="37.8413" cy="52.1094" fill="#E2E2F0" rx="8" ry="8" style="stroke:#181818;stroke-width:0.5;"/><path d="M37.8413,60.1094 L37.8413,87.1094 M24.8413,68.1094 L50.8413,68.1094 M37.8413,87.1094 L24.8413,102.1094 M37.8413,87.1094 L50.8413,102.1094" fill="none" style="stroke:#181818;stroke-width:0.5;"/></g><g class="participant participant-head" data-participant="TagPage"><text fill="#000000" font-family="sans-serif" font-size="14" font-weight="bold" lengthAdjust="spacing" textLength="66.9033" x="143.875" y="118.1426">: TagPage</text><path d="M159.8267,75.6094 L159.8267,99.6094 M159.8267,87.6094 L176.8267,87.6094" fill="none" style="stroke:#181818;stroke-width:0.5;"/><ellipse cx="188.8267" cy="87.6094" fill="#E2E2F0" rx="12" ry="12" style="stroke:#181818;stroke-width:0.5;"/></g><g class="participant participant-head" data-participant="TagController"><text fill="#000000" font-family="sans-serif" font-size="14" font-weight="bold" lengthAdjust="spacing" textLength="100.3311" x="333.1255" y="118.1426">: TagController</text><ellipse cx="386.291" cy="87.6094" fill="#E2E2F0" rx="12" ry="12" style="stroke:#181818;stroke-width:0.5;"/><polygon fill="#181818" points="382.291,75.6094,388.291,70.6094,386.291,75.6094,388.291,80.6094,382.291,75.6094" style="stroke:#181818;stroke-width:1;"/></g><g class="participant participant-head" data-participant="TagRepository"><text fill="#000000" font-family="sans-serif" font-size="14" font-weight="bold" lengthAdjust="spacing" textLength="33.4414" x="542.9565" y="118.1426">: Tag</text><ellipse cx="562.6772" cy="87.6094" fill="#E2E2F0" rx="12" ry="12" style="stroke:#181818;stroke-width:0.5;"/><line style="stroke:#181818;stroke-width:0.5;" x1="550.6772" x2="574.6772" y1="101.6094" y2="101.6094"/></g><g><title>... TagPage..</title><rect fill="#FFFFFF" height="324.2969" style="stroke:#181818;stroke-width:1;" width="10" x="175.3267" y="153.5703"/></g><g><title>... TagPage..</title><rect fill="#FFFFFF" height="28" style="stroke:#181818;stroke-width:1;" width="10" x="180.3267" y="338.6797"/></g><g><title>... TagPage..</title><rect fill="#FFFFFF" height="28" style="stroke:#181818;stroke-width:1;" width="10" x="180.3267" y="427.8672"/></g><g><title>... TagController..</title><rect fill="#FFFFFF" height="91.0547" style="stroke:#181818;stroke-width:1;" width="10" x="381.291" y="183.9219"/></g><g><title>... Tag..</title><rect fill="#FFFFFF" height="30.3516" style="stroke:#181818;stroke-width:1;" width="10" x="557.6772" y="214.2734"/></g><g class="message" data-participant-1="User" data-participant-2="TagPage"><polygon fill="#181818" points="163.3267,149.5703,173.3267,153.5703,163.3267,157.5703,167.3267,153.5703" style="stroke:#181818;stroke-width:1;"/><line style="stroke:#181818;stroke-width:1;" x1="37.8413" x2="169.3267" y1="153.5703" y2="153.5703"/><text fill="#000000" font-family="sans-serif" font-size="13" lengthAdjust="spacing" textLength="118.4854" x="44.8413" y="148.7139">searchTag(keyword)</text></g><g class="message" data-participant-1="TagPage" data-participant-2="TagController"><polygon fill="#181818" points="369.291,179.9219,379.291,183.9219,369.291,187.9219,373.291,183.9219" style="stroke:#181818;stroke-width:1;"/><line style="stroke:#181818;stroke-width:1;" x1="185.3267" x2="375.291" y1="183.9219" y2="183.9219"/><text fill="#000000" font-family="sans-serif" font-size="13" lengthAdjust="spacing" textLength="166.1753" x="192.3267" y="179.0654">processTagSearch(keyword)</text></g><g class="message" data-participant-1="TagController" data-participant-2="TagRepository"><polygon fill="#181818" points="545.6772,210.2734,555.6772,214.2734,545.6772,218.2734,549.6772,214.2734" style="stroke:#181818;stroke-width:1;"/><line style="stroke:#181818;stroke-width:1;" x1="391.291" x2="551.6772" y1="214.2734" y2="214.2734"/><text fill="#000000" font-family="sans-serif" font-size="13" lengthAdjust="spacing" textLength="147.3862" x="398.291" y="209.417">getByTagName(keyword)</text></g><g class="message" data-participant-1="TagRepository" data-participant-2="TagController"><polygon fill="#181818" points="402.291,240.625,392.291,244.625,402.291,248.625,398.291,244.625" style="stroke:#181818;stroke-width:1;"/><line style="stroke:#181818;stroke-width:1;stroke-dasharray:2,2;" x1="396.291" x2="561.6772" y1="244.625" y2="244.625"/><text fill="#000000" font-family="sans-serif" font-size="13" lengthAdjust="spacing" textLength="38.3018" x="408.291" y="239.7686">tagList</text></g><g class="message" data-participant-1="TagController" data-participant-2="TagPage"><polygon fill="#181818" points="196.3267,270.9766,186.3267,274.9766,196.3267,278.9766,192.3267,274.9766" style="stroke:#181818;stroke-width:1;"/><line style="stroke:#181818;stroke-width:1;stroke-dasharray:2,2;" x1="190.3267" x2="385.291" y1="274.9766" y2="274.9766"/><text fill="#000000" font-family="sans-serif" font-size="13" lengthAdjust="spacing" textLength="38.3018" x="202.3267" y="270.1201">tagList</text></g><path d="M133.875,289.9766 L194.0459,289.9766 L194.0459,298.3281 L184.0459,308.3281 L133.875,308.3281 L133.875,289.9766" fill="#EEEEEE" style="stroke:#000000;stroke-width:1.5;"/><rect fill="none" height="180.8906" style="stroke:#000000;stroke-width:1.5;" width="257.416" x="133.875" y="289.9766"/><text fill="#000000" font-family="sans-serif" font-size="13" font-weight="bold" lengthAdjust="spacing" textLength="15.1709" x="148.875" y="304.4717">alt</text><text fill="#000000" font-family="sans-serif" font-size="11" font-weight="bold" lengthAdjust="spacing" textLength="133.2407" x="209.0459" y="303.3955">[No search results found]</text><g class="message" data-participant-1="TagPage" data-participant-2="TagPage"><line style="stroke:#181818;stroke-width:1;" x1="190.3267" x2="232.3267" y1="330.6797" y2="330.6797"/><line style="stroke:#181818;stroke-width:1;" x1="232.3267" x2="232.3267" y1="330.6797" y2="343.6797"/><line style="stroke:#181818;stroke-width:1;" x1="191.3267" x2="232.3267" y1="343.6797" y2="343.6797"/><polygon fill="#181818" points="201.3267,339.6797,191.3267,343.6797,201.3267,347.6797,197.3267,343.6797" style="stroke:#181818;stroke-width:1;"/><text fill="#000000" font-family="sans-serif" font-size="13" lengthAdjust="spacing" textLength="168.1875" x="197.3267" y="325.8232">displayError("No tags found")</text></g><line style="stroke:#000000;stroke-width:1;stroke-dasharray:2,2;" x1="133.875" x2="391.291" y1="382.6797" y2="382.6797"/><text fill="#000000" font-family="sans-serif" font-size="11" font-weight="bold" lengthAdjust="spacing" textLength="116.7407" x="138.875" y="394.0986">[Search results found]</text><g class="message" data-participant-1="TagPage" data-participant-2="TagPage"><line style="stroke:#181818;stroke-width:1;" x1="190.3267" x2="232.3267" y1="419.8672" y2="419.8672"/><line style="stroke:#181818;stroke-width:1;" x1="232.3267" x2="232.3267" y1="419.8672" y2="432.8672"/><line style="stroke:#181818;stroke-width:1;" x1="191.3267" x2="232.3267" y1="432.8672" y2="432.8672"/><polygon fill="#181818" points="201.3267,428.8672,191.3267,432.8672,201.3267,436.8672,197.3267,432.8672" style="stroke:#181818;stroke-width:1;"/><text fill="#000000" font-family="sans-serif" font-size="13" lengthAdjust="spacing" textLength="171.9644" x="197.3267" y="415.0107">displaySearchResults(tagList)</text></g><!--SRC=[dL8xRiCm3Drv2iAJ8o0NoD2XGRSYA9Bs08p5E48Tow2KjhvzwK_yQToXrMG-ytr8wKAkF0bT68q9rXZSahXNok7iBEF9-tZqNm2KHI-O6BF1jy1YJ88Ksayu-cjfIUhkhr9VAEU-eQyWysKKNmmjswuk1gKP1bn65qV1iMVFbGzEezG0ZJck7suUkC709DbPw_ITwqylTjNaTXyKUKW2j_QEEPeglnAVSGWA7rgbPPb9JfWhT99ZHfNCEJxM2kvqmyjoav7cvFL2maZvimiHBFyYyJFHR3_BxEayL4JS-NwHA1okHGpw2lI60VNCbzVBMXUgWked4IzfedJrwKd9ggNTtK83pbEqC1U1yV0VyuwqxpXfF-WVpTK6xl5l]--></g></svg>