<svg xmlns="http://www.w3.org/2000/svg" xmlns:xlink="http://www.w3.org/1999/xlink" contentStyleType="text/css" data-diagram-type="SEQUENCE" height="512px" preserveAspectRatio="none" style="width:767px;height:512px;background:#FFFFFF;" version="1.1" viewBox="0 0 767 512" width="767px" zoomAndPan="magnify"><defs/><g><rect fill="#FFFFFF" height="491.4766" style="stroke:#181818;stroke-width:1.5;" width="756.5874" x="5" y="15"/><path d="M152.5596,15 L152.5596,25.6094 L142.5596,35.6094 L5,35.6094" fill="none" style="stroke:#181818;stroke-width:1.5;"/><text fill="#000000" font-family="sans-serif" font-size="14" lengthAdjust="spacing" textLength="4.9697" x="8" y="30.5332">"</text><text fill="#000000" font-family="sans-serif" font-size="14" font-weight="bold" lengthAdjust="spacing" textLength="16.3379" x="12.9697" y="30.5332">sd</text><text fill="#000000" font-family="sans-serif" font-size="14" lengthAdjust="spacing" textLength="112.3623" x="33.1973" y="30.5332">TagGroupSearch"</text><g><title>... TagGroupPage..</title><rect fill="#FFFFFF" height="324.2969" style="stroke:#181818;stroke-width:1;" width="10" x="211.4575" y="153.5703"/></g><g><title>... TagGroupPage..</title><rect fill="#FFFFFF" height="28" style="stroke:#181818;stroke-width:1;" width="10" x="216.4575" y="338.6797"/></g><g><title>... TagGroupPage..</title><rect fill="#FFFFFF" height="28" style="stroke:#181818;stroke-width:1;" width="10" x="216.4575" y="427.8672"/></g><g><title>... TagGroupController..</title><rect fill="#FFFFFF" height="91.0547" style="stroke:#181818;stroke-width:1;" width="10" x="506.8667" y="183.9219"/></g><g><title>... TagGroupRepository..</title><rect fill="#FFFFFF" height="30.3516" style="stroke:#181818;stroke-width:1;" width="10" x="668.3081" y="214.2734"/></g><rect fill="none" height="180.8906" style="stroke:#000000;stroke-width:1.5;" width="367.8574" x="149.0093" y="289.9766"/><g><title>... User..</title><rect fill="#000000" fill-opacity="0.00000" height="366.6484" width="8" x="33.8413" y="121.2188"/><line style="stroke:#181818;stroke-width:0.5;stroke-dasharray:5,5;" x1="37" x2="37" y1="121.2188" y2="487.8672"/></g><g><title>... TagGroupPage..</title><rect fill="#000000" fill-opacity="0.00000" height="366.6484" width="8" x="212.4575" y="121.2188"/><line style="stroke:#181818;stroke-width:0.5;stroke-dasharray:5,5;" x1="216.0093" x2="216.0093" y1="121.2188" y2="487.8672"/></g><g><title>... TagGroupController..</title><rect fill="#000000" fill-opacity="0.00000" height="366.6484" width="8" x="507.8667" y="121.2188"/><line style="stroke:#181818;stroke-width:0.5;stroke-dasharray:5,5;" x1="511.7046" x2="511.7046" y1="121.2188" y2="487.8672"/></g><g><title>... TagGroupRepository..</title><rect fill="#000000" fill-opacity="0.00000" height="366.6484" width="8" x="669.3081" y="121.2188"/><line style="stroke:#181818;stroke-width:0.5;stroke-dasharray:5,5;" x1="673.0288" x2="673.0288" y1="121.2188" y2="487.8672"/></g><g class="participant participant-head" data-participant="User"><text fill="#000000" font-family="sans-serif" font-size="14" font-weight="bold" lengthAdjust="spacing" textLength="39.6826" x="15" y="118.1426">: User</text><ellipse cx="37.8413" cy="52.1094" fill="#E2E2F0" rx="8" ry="8" style="stroke:#181818;stroke-width:0.5;"/><path d="M37.8413,60.1094 L37.8413,87.1094 M24.8413,68.1094 L50.8413,68.1094 M37.8413,87.1094 L24.8413,102.1094 M37.8413,87.1094 L50.8413,102.1094" fill="none" style="stroke:#181818;stroke-width:0.5;"/></g><g class="participant participant-head" data-participant="TagGroupPage"><text fill="#000000" font-family="sans-serif" font-size="14" font-weight="bold" lengthAdjust="spacing" textLength="108.8965" x="159.0093" y="118.1426">: TagGroupPage</text><path d="M195.9575,75.6094 L195.9575,99.6094 M195.9575,87.6094 L212.9575,87.6094" fill="none" style="stroke:#181818;stroke-width:0.5;"/><ellipse cx="224.9575" cy="87.6094" fill="#E2E2F0" rx="12" ry="12" style="stroke:#181818;stroke-width:0.5;"/></g><g class="participant participant-head" data-participant="TagGroupController"><text fill="#000000" font-family="sans-serif" font-size="14" font-weight="bold" lengthAdjust="spacing" textLength="142.3242" x="437.7046" y="118.1426">: TagGroupController</text><ellipse cx="511.8667" cy="87.6094" fill="#E2E2F0" rx="12" ry="12" style="stroke:#181818;stroke-width:0.5;"/><polygon fill="#181818" points="507.8667,75.6094,513.8667,70.6094,511.8667,75.6094,513.8667,80.6094,507.8667,75.6094" style="stroke:#181818;stroke-width:1;"/></g><g class="participant participant-head" data-participant="TagGroupRepository"><text fill="#000000" font-family="sans-serif" font-size="14" font-weight="bold" lengthAdjust="spacing" textLength="148.5586" x="596.0288" y="118.1426">: TagGroupRepository</text><ellipse cx="673.3081" cy="87.6094" fill="#E2E2F0" rx="12" ry="12" style="stroke:#181818;stroke-width:0.5;"/><line style="stroke:#181818;stroke-width:0.5;" x1="661.3081" x2="685.3081" y1="101.6094" y2="101.6094"/></g><g><title>... TagGroupPage..</title><rect fill="#FFFFFF" height="324.2969" style="stroke:#181818;stroke-width:1;" width="10" x="211.4575" y="153.5703"/></g><g><title>... TagGroupPage..</title><rect fill="#FFFFFF" height="28" style="stroke:#181818;stroke-width:1;" width="10" x="216.4575" y="338.6797"/></g><g><title>... TagGroupPage..</title><rect fill="#FFFFFF" height="28" style="stroke:#181818;stroke-width:1;" width="10" x="216.4575" y="427.8672"/></g><g><title>... TagGroupController..</title><rect fill="#FFFFFF" height="91.0547" style="stroke:#181818;stroke-width:1;" width="10" x="506.8667" y="183.9219"/></g><g><title>... TagGroupRepository..</title><rect fill="#FFFFFF" height="30.3516" style="stroke:#181818;stroke-width:1;" width="10" x="668.3081" y="214.2734"/></g><g class="message" data-participant-1="User" data-participant-2="TagGroupPage"><polygon fill="#181818" points="199.4575,149.5703,209.4575,153.5703,199.4575,157.5703,203.4575,153.5703" style="stroke:#181818;stroke-width:1;"/><line style="stroke:#181818;stroke-width:1;" x1="37.8413" x2="205.4575" y1="153.5703" y2="153.5703"/><text fill="#000000" font-family="sans-serif" font-size="13" lengthAdjust="spacing" textLength="154.6162" x="44.8413" y="148.7139">searchTagGroup(keyword)</text></g><g class="message" data-participant-1="TagGroupPage" data-participant-2="TagGroupController"><polygon fill="#181818" points="494.8667,179.9219,504.8667,183.9219,494.8667,187.9219,498.8667,183.9219" style="stroke:#181818;stroke-width:1;"/><line style="stroke:#181818;stroke-width:1;" x1="221.4575" x2="500.8667" y1="183.9219" y2="183.9219"/><text fill="#000000" font-family="sans-serif" font-size="13" lengthAdjust="spacing" textLength="143.7744" x="228.4575" y="179.0654">processSearch(keyword)</text></g><g class="message" data-participant-1="TagGroupController" data-participant-2="TagGroupRepository"><polygon fill="#181818" points="656.3081,210.2734,666.3081,214.2734,656.3081,218.2734,660.3081,214.2734" style="stroke:#181818;stroke-width:1;"/><line style="stroke:#181818;stroke-width:1;" x1="516.8667" x2="662.3081" y1="214.2734" y2="214.2734"/><text fill="#000000" font-family="sans-serif" font-size="13" lengthAdjust="spacing" textLength="127.8735" x="523.8667" y="209.417">findByName(keyword)</text></g><g class="message" data-participant-1="TagGroupRepository" data-participant-2="TagGroupController"><polygon fill="#181818" points="527.8667,240.625,517.8667,244.625,527.8667,248.625,523.8667,244.625" style="stroke:#181818;stroke-width:1;"/><line style="stroke:#181818;stroke-width:1;stroke-dasharray:2,2;" x1="521.8667" x2="672.3081" y1="244.625" y2="244.625"/><text fill="#000000" font-family="sans-serif" font-size="13" lengthAdjust="spacing" textLength="74.4326" x="533.8667" y="239.7686">tagGroupList</text></g><g class="message" data-participant-1="TagGroupController" data-participant-2="TagGroupPage"><polygon fill="#181818" points="232.4575,270.9766,222.4575,274.9766,232.4575,278.9766,228.4575,274.9766" style="stroke:#181818;stroke-width:1;"/><line style="stroke:#181818;stroke-width:1;stroke-dasharray:2,2;" x1="226.4575" x2="510.8667" y1="274.9766" y2="274.9766"/><text fill="#000000" font-family="sans-serif" font-size="13" lengthAdjust="spacing" textLength="74.4326" x="238.4575" y="270.1201">tagGroupList</text></g><path d="M149.0093,289.9766 L209.1802,289.9766 L209.1802,298.3281 L199.1802,308.3281 L149.0093,308.3281 L149.0093,289.9766" fill="#EEEEEE" style="stroke:#000000;stroke-width:1.5;"/><rect fill="none" height="180.8906" style="stroke:#000000;stroke-width:1.5;" width="367.8574" x="149.0093" y="289.9766"/><text fill="#000000" font-family="sans-serif" font-size="13" font-weight="bold" lengthAdjust="spacing" textLength="15.1709" x="164.0093" y="304.4717">alt</text><text fill="#000000" font-family="sans-serif" font-size="11" font-weight="bold" lengthAdjust="spacing" textLength="108.1309" x="224.1802" y="303.3955">[no tag group found]</text><g class="message" data-participant-1="TagGroupPage" data-participant-2="TagGroupPage"><line style="stroke:#181818;stroke-width:1;" x1="226.4575" x2="268.4575" y1="330.6797" y2="330.6797"/><line style="stroke:#181818;stroke-width:1;" x1="268.4575" x2="268.4575" y1="330.6797" y2="343.6797"/><line style="stroke:#181818;stroke-width:1;" x1="227.4575" x2="268.4575" y1="343.6797" y2="343.6797"/><polygon fill="#181818" points="237.4575,339.6797,227.4575,343.6797,237.4575,347.6797,233.4575,343.6797" style="stroke:#181818;stroke-width:1;"/><text fill="#000000" font-family="sans-serif" font-size="13" lengthAdjust="spacing" textLength="261.4092" x="233.4575" y="325.8232">displayError("No matching tag groups found")</text></g><line style="stroke:#000000;stroke-width:1;stroke-dasharray:2,2;" x1="149.0093" x2="516.8667" y1="382.6797" y2="382.6797"/><text fill="#000000" font-family="sans-serif" font-size="11" font-weight="bold" lengthAdjust="spacing" textLength="97.7539" x="154.0093" y="394.0986">[tag groups found]</text><g class="message" data-participant-1="TagGroupPage" data-participant-2="TagGroupPage"><line style="stroke:#181818;stroke-width:1;" x1="226.4575" x2="268.4575" y1="419.8672" y2="419.8672"/><line style="stroke:#181818;stroke-width:1;" x1="268.4575" x2="268.4575" y1="419.8672" y2="432.8672"/><line style="stroke:#181818;stroke-width:1;" x1="227.4575" x2="268.4575" y1="432.8672" y2="432.8672"/><polygon fill="#181818" points="237.4575,428.8672,227.4575,432.8672,237.4575,436.8672,233.4575,432.8672" style="stroke:#181818;stroke-width:1;"/><text fill="#000000" font-family="sans-serif" font-size="13" lengthAdjust="spacing" textLength="208.0952" x="233.4575" y="415.0107">displaySearchResults(tagGroupList)</text></g><!--SRC=[dPB1JiCm38RlVWgh5xPAUu59um02BZ2X0G-GDLuNaSLLaZ7wzYJjHjEj6nezfVxZpxyTRuGoAoisX5cUEvdd-2xA9ylRwes4BTOPh9KaN37x9Ny3YCApZNUd-E78vdc6mZL7MFBMI67hLZrWNaL9-rjf20esthBkNxvlW_eNV2e06Q_yKP45LUnKS5OVvNK2m0tEPZDy2GtZe-PT_8De72UtFMiuHTVqVWYEFgdUiPNZsBtw4fxwhK0lEw5rhWEpiboGS-rOBo2JLc40bE2xvW9-fOoyg-VX9I-mat4CG2RdhFjzy5av3v8kOGSjdmxuBs8w1A4z6eufM4OjB6DODC3mdHlylefKhjAYVh2MxIYRCsw4BzRAb1tCjRHitF26tpSg0nuRZRIZ4zeLtjfrM93RQkz6wLZ-xIZKXpFY3m00]--></g></svg>