<svg xmlns="http://www.w3.org/2000/svg" xmlns:xlink="http://www.w3.org/1999/xlink" contentStyleType="text/css" data-diagram-type="SEQUENCE" height="452px" preserveAspectRatio="none" style="width:639px;height:452px;background:#FFFFFF;" version="1.1" viewBox="0 0 639 452" width="639px" zoomAndPan="magnify"><defs/><g><rect fill="#FFFFFF" height="431.4766" style="stroke:#181818;stroke-width:1.5;" width="628.2725" x="5" y="15"/><path d="M121.6064,15 L121.6064,25.6094 L111.6064,35.6094 L5,35.6094" fill="none" style="stroke:#181818;stroke-width:1.5;"/><text fill="#000000" font-family="sans-serif" font-size="14" font-weight="bold" lengthAdjust="spacing" textLength="16.3379" x="8" y="30.5332">sd</text><text fill="#000000" font-family="sans-serif" font-size="14" lengthAdjust="spacing" textLength="86.3789" x="28.2275" y="30.5332">ReportSearch</text><g><title>... Report List Page..</title><rect fill="#FFFFFF" height="264.2969" style="stroke:#181818;stroke-width:1;" width="10" x="152.9258" y="153.5703"/></g><g><title>... Report Controller..</title><rect fill="#FFFFFF" height="91.0547" style="stroke:#181818;stroke-width:1;" width="10" x="374.7783" y="183.9219"/></g><g><title>... Report Repository..</title><rect fill="#FFFFFF" height="30.3516" style="stroke:#181818;stroke-width:1;" width="10" x="548.9346" y="214.2734"/></g><rect fill="none" height="120.8906" style="stroke:#000000;stroke-width:1.5;" width="294.749" x="85.0293" y="289.9766"/><g><title>... User..</title><rect fill="#000000" fill-opacity="0.00000" height="306.6484" width="8" x="33.8413" y="121.2188"/><line style="stroke:#181818;stroke-width:0.5;stroke-dasharray:5,5;" x1="37" x2="37" y1="121.2188" y2="427.8672"/></g><g><title>... Report List Page..</title><rect fill="#000000" fill-opacity="0.00000" height="306.6484" width="8" x="153.9258" y="121.2188"/><line style="stroke:#181818;stroke-width:0.5;stroke-dasharray:5,5;" x1="157.0293" x2="157.0293" y1="121.2188" y2="427.8672"/></g><g><title>... Report Controller..</title><rect fill="#000000" fill-opacity="0.00000" height="306.6484" width="8" x="375.7783" y="121.2188"/><line style="stroke:#181818;stroke-width:0.5;stroke-dasharray:5,5;" x1="379.5576" x2="379.5576" y1="121.2188" y2="427.8672"/></g><g><title>... Report Repository..</title><rect fill="#000000" fill-opacity="0.00000" height="306.6484" width="8" x="549.9346" y="121.2188"/><line style="stroke:#181818;stroke-width:0.5;stroke-dasharray:5,5;" x1="553.5967" x2="553.5967" y1="121.2188" y2="427.8672"/></g><g class="participant participant-head" data-participant="User"><text fill="#000000" font-family="sans-serif" font-size="14" font-weight="bold" lengthAdjust="spacing" textLength="39.6826" x="15" y="118.1426">: User</text><ellipse cx="37.8413" cy="52.1094" fill="#E2E2F0" rx="8" ry="8" style="stroke:#181818;stroke-width:0.5;"/><path d="M37.8413,60.1094 L37.8413,87.1094 M24.8413,68.1094 L50.8413,68.1094 M37.8413,87.1094 L24.8413,102.1094 M37.8413,87.1094 L50.8413,102.1094" fill="none" style="stroke:#181818;stroke-width:0.5;"/></g><g class="participant participant-head" data-participant="ReportListPage"><text fill="#000000" font-family="sans-serif" font-size="14" font-weight="bold" lengthAdjust="spacing" textLength="119.793" x="95.0293" y="118.1426">: Report List Page</text><path d="M137.4258,75.6094 L137.4258,99.6094 M137.4258,87.6094 L154.4258,87.6094" fill="none" style="stroke:#181818;stroke-width:0.5;"/><ellipse cx="166.4258" cy="87.6094" fill="#E2E2F0" rx="12" ry="12" style="stroke:#181818;stroke-width:0.5;"/></g><g class="participant participant-head" data-participant="ReportController"><text fill="#000000" font-family="sans-serif" font-size="14" font-weight="bold" lengthAdjust="spacing" textLength="124.4414" x="314.5576" y="118.1426">: Report Controller</text><ellipse cx="379.7783" cy="87.6094" fill="#E2E2F0" rx="12" ry="12" style="stroke:#181818;stroke-width:0.5;"/><polygon fill="#181818" points="375.7783,75.6094,381.7783,70.6094,379.7783,75.6094,381.7783,80.6094,375.7783,75.6094" style="stroke:#181818;stroke-width:1;"/></g><g class="participant participant-head" data-participant="ReportRepository"><text fill="#000000" font-family="sans-serif" font-size="14" font-weight="bold" lengthAdjust="spacing" textLength="130.6758" x="485.5967" y="118.1426">: Report Repository</text><ellipse cx="553.9346" cy="87.6094" fill="#E2E2F0" rx="12" ry="12" style="stroke:#181818;stroke-width:0.5;"/><line style="stroke:#181818;stroke-width:0.5;" x1="541.9346" x2="565.9346" y1="101.6094" y2="101.6094"/></g><g><title>... Report List Page..</title><rect fill="#FFFFFF" height="264.2969" style="stroke:#181818;stroke-width:1;" width="10" x="152.9258" y="153.5703"/></g><g><title>... Report Controller..</title><rect fill="#FFFFFF" height="91.0547" style="stroke:#181818;stroke-width:1;" width="10" x="374.7783" y="183.9219"/></g><g><title>... Report Repository..</title><rect fill="#FFFFFF" height="30.3516" style="stroke:#181818;stroke-width:1;" width="10" x="548.9346" y="214.2734"/></g><g class="message" data-participant-1="User" data-participant-2="ReportListPage"><polygon fill="#181818" points="140.9258,149.5703,150.9258,153.5703,140.9258,157.5703,144.9258,153.5703" style="stroke:#181818;stroke-width:1;"/><line style="stroke:#181818;stroke-width:1;" x1="37.8413" x2="146.9258" y1="153.5703" y2="153.5703"/><text fill="#000000" font-family="sans-serif" font-size="13" lengthAdjust="spacing" textLength="96.0845" x="44.8413" y="148.7139">search(keyword)</text></g><g class="message" data-participant-1="ReportListPage" data-participant-2="ReportController"><polygon fill="#181818" points="362.7783,179.9219,372.7783,183.9219,362.7783,187.9219,366.7783,183.9219" style="stroke:#181818;stroke-width:1;"/><line style="stroke:#181818;stroke-width:1;" x1="162.9258" x2="368.7783" y1="183.9219" y2="183.9219"/><text fill="#000000" font-family="sans-serif" font-size="13" lengthAdjust="spacing" textLength="123.5444" x="169.9258" y="179.0654">findReports(keyword)</text></g><g class="message" data-participant-1="ReportController" data-participant-2="ReportRepository"><polygon fill="#181818" points="536.9346,210.2734,546.9346,214.2734,536.9346,218.2734,540.9346,214.2734" style="stroke:#181818;stroke-width:1;"/><line style="stroke:#181818;stroke-width:1;" x1="384.7783" x2="542.9346" y1="214.2734" y2="214.2734"/><text fill="#000000" font-family="sans-serif" font-size="13" lengthAdjust="spacing" textLength="135.0908" x="391.7783" y="209.417">findByCriteria(keyword)</text></g><g class="message" data-participant-1="ReportRepository" data-participant-2="ReportController"><polygon fill="#181818" points="395.7783,240.625,385.7783,244.625,395.7783,248.625,391.7783,244.625" style="stroke:#181818;stroke-width:1;"/><line style="stroke:#181818;stroke-width:1;stroke-dasharray:2,2;" x1="389.7783" x2="552.9346" y1="244.625" y2="244.625"/><text fill="#000000" font-family="sans-serif" font-size="13" lengthAdjust="spacing" textLength="140.1563" x="401.7783" y="239.7686">returnResults(reportList)</text></g><g class="message" data-participant-1="ReportController" data-participant-2="ReportListPage"><polygon fill="#181818" points="173.9258,270.9766,163.9258,274.9766,173.9258,278.9766,169.9258,274.9766" style="stroke:#181818;stroke-width:1;"/><line style="stroke:#181818;stroke-width:1;stroke-dasharray:2,2;" x1="167.9258" x2="378.7783" y1="274.9766" y2="274.9766"/><text fill="#000000" font-family="sans-serif" font-size="13" lengthAdjust="spacing" textLength="140.1563" x="179.9258" y="270.1201">returnResults(reportList)</text></g><path d="M85.0293,289.9766 L145.2002,289.9766 L145.2002,298.3281 L135.2002,308.3281 L85.0293,308.3281 L85.0293,289.9766" fill="#EEEEEE" style="stroke:#000000;stroke-width:1.5;"/><rect fill="none" height="120.8906" style="stroke:#000000;stroke-width:1.5;" width="294.749" x="85.0293" y="289.9766"/><text fill="#000000" font-family="sans-serif" font-size="13" font-weight="bold" lengthAdjust="spacing" textLength="15.1709" x="100.0293" y="304.4717">alt</text><text fill="#000000" font-family="sans-serif" font-size="11" font-weight="bold" lengthAdjust="spacing" textLength="133.2407" x="160.2002" y="303.3955">[No search results found]</text><g class="message" data-participant-1="ReportListPage" data-participant-2="ReportListPage"><line style="stroke:#181818;stroke-width:1;" x1="162.9258" x2="204.9258" y1="330.6797" y2="330.6797"/><line style="stroke:#181818;stroke-width:1;" x1="204.9258" x2="204.9258" y1="330.6797" y2="343.6797"/><line style="stroke:#181818;stroke-width:1;" x1="163.9258" x2="204.9258" y1="343.6797" y2="343.6797"/><polygon fill="#181818" points="173.9258,339.6797,163.9258,343.6797,173.9258,347.6797,169.9258,343.6797" style="stroke:#181818;stroke-width:1;"/><text fill="#000000" font-family="sans-serif" font-size="13" lengthAdjust="spacing" textLength="184.0757" x="169.9258" y="325.8232">displayError("No reports found")</text></g><line style="stroke:#000000;stroke-width:1;stroke-dasharray:2,2;" x1="85.0293" x2="379.7783" y1="352.6797" y2="352.6797"/><text fill="#000000" font-family="sans-serif" font-size="11" font-weight="bold" lengthAdjust="spacing" textLength="116.7407" x="90.0293" y="364.0986">[Search results found]</text><g class="message" data-participant-1="ReportListPage" data-participant-2="ReportListPage"><line style="stroke:#181818;stroke-width:1;" x1="162.9258" x2="204.9258" y1="389.8672" y2="389.8672"/><line style="stroke:#181818;stroke-width:1;" x1="204.9258" x2="204.9258" y1="389.8672" y2="402.8672"/><line style="stroke:#181818;stroke-width:1;" x1="163.9258" x2="204.9258" y1="402.8672" y2="402.8672"/><polygon fill="#181818" points="173.9258,398.8672,163.9258,402.8672,173.9258,406.8672,169.9258,402.8672" style="stroke:#181818;stroke-width:1;"/><text fill="#000000" font-family="sans-serif" font-size="13" lengthAdjust="spacing" textLength="187.8525" x="169.9258" y="385.0107">displaySearchResults(reportList)</text></g><!--SRC=[fP9DRiCW48NtSugHLp5IBf155uswgwegKGz0pBX19H0DkArlNsnS_tjHbGtemNpp7d2JsfOiRuH2U2K4dkZkE9n9Sd65grQ4fNFXuhu1P14SOoR40TyyiH0PIjykuU8ggoJNQJSny5dxWA_odRgJIMxKHeJ2sS3EJ4gEIJCzFUc336I33jC-pUHrz5PFYWOPe369-uUP1JoWRuFkFgZ-Sgpo9gF-b87cPc5MsRC6Qv5MQgkIx3UHeoomGFJOmNo7VQoFh0EnbflaKU05PBzkc2bKR4_aAnCjSvyn1qNRz1NVQtVx1_ZuKgG9-EAwbucGjZp-mlZ30EFOUebHPwNztSZwYTdnBekmrBoZP3cGyOJd_tT8YBM855dBdB-47m00]--></g></svg>