<svg xmlns="http://www.w3.org/2000/svg" xmlns:xlink="http://www.w3.org/1999/xlink" contentStyleType="text/css" data-diagram-type="SEQUENCE" height="452px" preserveAspectRatio="none" style="width:805px;height:452px;background:#FFFFFF;" version="1.1" viewBox="0 0 805 452" width="805px" zoomAndPan="magnify"><defs/><g><rect fill="#FFFFFF" height="431.4766" style="stroke:#181818;stroke-width:1.5;" width="794.1094" x="5" y="15"/><path d="M142.6201,15 L142.6201,25.6094 L132.6201,35.6094 L5,35.6094" fill="none" style="stroke:#181818;stroke-width:1.5;"/><text fill="#000000" font-family="sans-serif" font-size="14" font-weight="bold" lengthAdjust="spacing" textLength="16.3379" x="8" y="30.5332">sd</text><text fill="#000000" font-family="sans-serif" font-size="14" lengthAdjust="spacing" textLength="107.3926" x="28.2275" y="30.5332">GroupTagSearch</text><g><title>. ....Group Tag Management Page....</title><rect fill="#FFFFFF" height="264.2969" style="stroke:#181818;stroke-width:1;" width="10" x="211.0713" y="153.5703"/></g><g><title>. ....Group Tag Controller....</title><rect fill="#FFFFFF" height="91.0547" style="stroke:#181818;stroke-width:1;" width="10" x="506.4805" y="183.9219"/></g><g><title>. ....Group Tag Repository....</title><rect fill="#FFFFFF" height="30.3516" style="stroke:#181818;stroke-width:1;" width="10" x="702.3267" y="214.2734"/></g><rect fill="none" height="120.8906" style="stroke:#000000;stroke-width:1.5;" width="411.0918" x="100.3887" y="289.9766"/><g><title>. ..User..</title><rect fill="#000000" fill-opacity="0.00000" height="306.6484" width="8" x="33.4551" y="121.2188"/><line style="stroke:#181818;stroke-width:0.5;stroke-dasharray:5,5;" x1="37" x2="37" y1="121.2188" y2="427.8672"/></g><g><title>. ....Group Tag Management Page....</title><rect fill="#000000" fill-opacity="0.00000" height="306.6484" width="8" x="212.0713" y="121.2188"/><line style="stroke:#181818;stroke-width:0.5;stroke-dasharray:5,5;" x1="215.3887" x2="215.3887" y1="121.2188" y2="427.8672"/></g><g><title>. ....Group Tag Controller....</title><rect fill="#000000" fill-opacity="0.00000" height="306.6484" width="8" x="507.4805" y="121.2188"/><line style="stroke:#181818;stroke-width:0.5;stroke-dasharray:5,5;" x1="510.8149" x2="510.8149" y1="121.2188" y2="427.8672"/></g><g><title>. ....Group Tag Repository....</title><rect fill="#000000" fill-opacity="0.00000" height="306.6484" width="8" x="703.3267" y="121.2188"/><line style="stroke:#181818;stroke-width:0.5;stroke-dasharray:5,5;" x1="706.5439" x2="706.5439" y1="121.2188" y2="427.8672"/></g><g class="participant participant-head" data-participant="User"><text fill="#000000" font-family="sans-serif" font-size="14" lengthAdjust="spacing" textLength="3.8896" x="15" y="118.1426">:</text><text fill="#000000" font-family="sans-serif" font-size="14" font-weight="bold" lengthAdjust="spacing" textLength="31.1309" x="22.7793" y="118.1426">User</text><ellipse cx="37.4551" cy="52.1094" fill="#E2E2F0" rx="8" ry="8" style="stroke:#181818;stroke-width:0.5;"/><path d="M37.4551,60.1094 L37.4551,87.1094 M24.4551,68.1094 L50.4551,68.1094 M37.4551,87.1094 L24.4551,102.1094 M37.4551,87.1094 L50.4551,102.1094" fill="none" style="stroke:#181818;stroke-width:0.5;"/></g><g class="participant participant-head" data-participant="GroupTagPage"><text fill="#000000" font-family="sans-serif" font-size="14" lengthAdjust="spacing" textLength="3.8896" x="110.3887" y="118.1426">:</text><text fill="#000000" font-family="sans-serif" font-size="14" font-style="italic" font-weight="bold" lengthAdjust="spacing" textLength="197.5859" x="118.168" y="118.1426">Group Tag Management Page</text><path d="M195.5713,75.6094 L195.5713,99.6094 M195.5713,87.6094 L212.5713,87.6094" fill="none" style="stroke:#181818;stroke-width:0.5;"/><ellipse cx="224.5713" cy="87.6094" fill="#E2E2F0" rx="12" ry="12" style="stroke:#181818;stroke-width:0.5;"/></g><g class="participant participant-head" data-participant="GroupTagController"><text fill="#000000" font-family="sans-serif" font-size="14" lengthAdjust="spacing" textLength="3.8896" x="433.8149" y="118.1426">:</text><text fill="#000000" font-family="sans-serif" font-size="14" font-style="italic" font-weight="bold" lengthAdjust="spacing" textLength="141.5518" x="441.5942" y="118.1426">Group Tag Controller</text><ellipse cx="511.4805" cy="87.6094" fill="#E2E2F0" rx="12" ry="12" style="stroke:#181818;stroke-width:0.5;"/><polygon fill="#181818" points="507.4805,75.6094,513.4805,70.6094,511.4805,75.6094,513.4805,80.6094,507.4805,75.6094" style="stroke:#181818;stroke-width:1;"/></g><g class="participant participant-head" data-participant="GroupTagRepository"><text fill="#000000" font-family="sans-serif" font-size="14" lengthAdjust="spacing" textLength="3.8896" x="626.5439" y="118.1426">:</text><text fill="#000000" font-family="sans-serif" font-size="14" font-style="italic" font-weight="bold" lengthAdjust="spacing" textLength="147.7861" x="634.3232" y="118.1426">Group Tag Repository</text><ellipse cx="707.3267" cy="87.6094" fill="#E2E2F0" rx="12" ry="12" style="stroke:#181818;stroke-width:0.5;"/><line style="stroke:#181818;stroke-width:0.5;" x1="695.3267" x2="719.3267" y1="101.6094" y2="101.6094"/></g><g><title>. ....Group Tag Management Page....</title><rect fill="#FFFFFF" height="264.2969" style="stroke:#181818;stroke-width:1;" width="10" x="211.0713" y="153.5703"/></g><g><title>. ....Group Tag Controller....</title><rect fill="#FFFFFF" height="91.0547" style="stroke:#181818;stroke-width:1;" width="10" x="506.4805" y="183.9219"/></g><g><title>. ....Group Tag Repository....</title><rect fill="#FFFFFF" height="30.3516" style="stroke:#181818;stroke-width:1;" width="10" x="702.3267" y="214.2734"/></g><g class="message" data-participant-1="User" data-participant-2="GroupTagPage"><polygon fill="#181818" points="199.0713,149.5703,209.0713,153.5703,199.0713,157.5703,203.0713,153.5703" style="stroke:#181818;stroke-width:1;"/><line style="stroke:#181818;stroke-width:1;" x1="37.4551" x2="205.0713" y1="153.5703" y2="153.5703"/><text fill="#000000" font-family="sans-serif" font-size="13" lengthAdjust="spacing" textLength="154.6162" x="44.4551" y="148.7139">searchGroupTag(keyword)</text></g><g class="message" data-participant-1="GroupTagPage" data-participant-2="GroupTagController"><polygon fill="#181818" points="494.4805,179.9219,504.4805,183.9219,494.4805,187.9219,498.4805,183.9219" style="stroke:#181818;stroke-width:1;"/><line style="stroke:#181818;stroke-width:1;" x1="221.0713" x2="500.4805" y1="183.9219" y2="183.9219"/><text fill="#000000" font-family="sans-serif" font-size="13" lengthAdjust="spacing" textLength="179.9053" x="228.0713" y="179.0654">processGroupSearch(keyword)</text></g><g class="message" data-participant-1="GroupTagController" data-participant-2="GroupTagRepository"><polygon fill="#181818" points="690.3267,210.2734,700.3267,214.2734,690.3267,218.2734,694.3267,214.2734" style="stroke:#181818;stroke-width:1;"/><line style="stroke:#181818;stroke-width:1;" x1="516.4805" x2="696.3267" y1="214.2734" y2="214.2734"/><text fill="#000000" font-family="sans-serif" font-size="13" lengthAdjust="spacing" textLength="127.8735" x="523.4805" y="209.417">findByName(keyword)</text></g><g class="message" data-participant-1="GroupTagRepository" data-participant-2="GroupTagController"><polygon fill="#181818" points="527.4805,240.625,517.4805,244.625,527.4805,248.625,523.4805,244.625" style="stroke:#181818;stroke-width:1;"/><line style="stroke:#181818;stroke-width:1;stroke-dasharray:2,2;" x1="521.4805" x2="706.3267" y1="244.625" y2="244.625"/><text fill="#000000" font-family="sans-serif" font-size="13" lengthAdjust="spacing" textLength="161.8462" x="533.4805" y="239.7686">returnResults(groupTagList)</text></g><g class="message" data-participant-1="GroupTagController" data-participant-2="GroupTagPage"><polygon fill="#181818" points="232.0713,270.9766,222.0713,274.9766,232.0713,278.9766,228.0713,274.9766" style="stroke:#181818;stroke-width:1;"/><line style="stroke:#181818;stroke-width:1;stroke-dasharray:2,2;" x1="226.0713" x2="510.4805" y1="274.9766" y2="274.9766"/><text fill="#000000" font-family="sans-serif" font-size="13" lengthAdjust="spacing" textLength="161.8462" x="238.0713" y="270.1201">returnResults(groupTagList)</text></g><path d="M100.3887,289.9766 L160.5596,289.9766 L160.5596,298.3281 L150.5596,308.3281 L100.3887,308.3281 L100.3887,289.9766" fill="#EEEEEE" style="stroke:#000000;stroke-width:1.5;"/><rect fill="none" height="120.8906" style="stroke:#000000;stroke-width:1.5;" width="411.0918" x="100.3887" y="289.9766"/><text fill="#000000" font-family="sans-serif" font-size="13" font-weight="bold" lengthAdjust="spacing" textLength="15.1709" x="115.3887" y="304.4717">alt</text><text fill="#000000" font-family="sans-serif" font-size="11" font-weight="bold" lengthAdjust="spacing" textLength="167.4224" x="175.5596" y="303.3955">[No matching group tags found]</text><g class="message" data-participant-1="GroupTagPage" data-participant-2="GroupTagPage"><line style="stroke:#181818;stroke-width:1;" x1="221.0713" x2="263.0713" y1="330.6797" y2="330.6797"/><line style="stroke:#181818;stroke-width:1;" x1="263.0713" x2="263.0713" y1="330.6797" y2="343.6797"/><line style="stroke:#181818;stroke-width:1;" x1="222.0713" x2="263.0713" y1="343.6797" y2="343.6797"/><polygon fill="#181818" points="232.0713,339.6797,222.0713,343.6797,232.0713,347.6797,228.0713,343.6797" style="stroke:#181818;stroke-width:1;"/><text fill="#000000" font-family="sans-serif" font-size="13" lengthAdjust="spacing" textLength="261.4092" x="228.0713" y="325.8232">displayError("No matching group tags found")</text></g><line style="stroke:#000000;stroke-width:1;stroke-dasharray:2,2;" x1="100.3887" x2="511.4805" y1="352.6797" y2="352.6797"/><text fill="#000000" font-family="sans-serif" font-size="11" font-weight="bold" lengthAdjust="spacing" textLength="80.6577" x="105.3887" y="364.0986">[Results found]</text><g class="message" data-participant-1="GroupTagPage" data-participant-2="GroupTagPage"><line style="stroke:#181818;stroke-width:1;" x1="221.0713" x2="263.0713" y1="389.8672" y2="389.8672"/><line style="stroke:#181818;stroke-width:1;" x1="263.0713" x2="263.0713" y1="389.8672" y2="402.8672"/><line style="stroke:#181818;stroke-width:1;" x1="222.0713" x2="263.0713" y1="402.8672" y2="402.8672"/><polygon fill="#181818" points="232.0713,398.8672,222.0713,402.8672,232.0713,406.8672,228.0713,402.8672" style="stroke:#181818;stroke-width:1;"/><text fill="#000000" font-family="sans-serif" font-size="13" lengthAdjust="spacing" textLength="209.5425" x="228.0713" y="385.0107">displaySearchResults(groupTagList)</text></g><!--SRC=[bP9DReCm48NtFiM85K6As6VHHQkgcpQgqlO04pmXLi63ngOjjw_vYI228CKho-FtlNbZbsZiIR0aI1AdamHUXElg4_CFGidEwcmqmOdP7_bFASmy2qIxSFdBaIH91EYWtQeZrrQZD7qrJJiE112yeSMSIh8UtiCcJGVPnQazL1bRBrpCrKzzeI2P2SUI2d3Z5xmFLB4peUbcfXvBIhK9OFjmrHBim7Kpk1p6tzJyikXDEmRpWvwk8wWhzOGszXcObN16pdMrViOht4b2jK2RU8nfWiV9MFtOxCEhhh0d-HSWsrlz2_bQx85SNNWNvyELL-FyHcbQSrbCC1_wdGRJ4M7XOSzGei_EnkRGYS5Zxi8N3jzJGLYtNccmryPL1JRF8Ynnj4QBDeeAHp2qUhT5__hBGIcGbjAsX7y0]--></g></svg>