<svg xmlns="http://www.w3.org/2000/svg" xmlns:xlink="http://www.w3.org/1999/xlink" contentStyleType="text/css" data-diagram-type="SEQUENCE" height="512px" preserveAspectRatio="none" style="width:627px;height:512px;background:#FFFFFF;" version="1.1" viewBox="0 0 627 512" width="627px" zoomAndPan="magnify"><defs/><g><rect fill="#FFFFFF" height="491.4766" style="stroke:#181818;stroke-width:1.5;" width="616.4849" x="5" y="15"/><path d="M136.3857,15 L136.3857,25.6094 L126.3857,35.6094 L5,35.6094" fill="none" style="stroke:#181818;stroke-width:1.5;"/><text fill="#000000" font-family="sans-serif" font-size="14" font-weight="bold" lengthAdjust="spacing" textLength="16.3379" x="8" y="30.5332">sd</text><text fill="#000000" font-family="sans-serif" font-size="14" lengthAdjust="spacing" textLength="101.1582" x="28.2275" y="30.5332">DaftarTagGroup</text><g><title>... TagGroup Page..</title><rect fill="#FFFFFF" height="324.2969" style="stroke:#181818;stroke-width:1;" width="10" x="156.5376" y="153.5703"/></g><g><title>... TagGroup Page..</title><rect fill="#FFFFFF" height="28" style="stroke:#181818;stroke-width:1;" width="10" x="161.5376" y="338.6797"/></g><g><title>... TagGroup Page..</title><rect fill="#FFFFFF" height="28" style="stroke:#181818;stroke-width:1;" width="10" x="161.5376" y="427.8672"/></g><g><title>... TagGroup Controller..</title><rect fill="#FFFFFF" height="91.0547" style="stroke:#181818;stroke-width:1;" width="10" x="419.4468" y="183.9219"/></g><g><title>... TagGroup..</title><rect fill="#FFFFFF" height="30.3516" style="stroke:#181818;stroke-width:1;" width="10" x="564.7676" y="214.2734"/></g><rect fill="none" height="180.8906" style="stroke:#000000;stroke-width:1.5;" width="337.3022" x="92.1445" y="289.9766"/><g><title>... User..</title><rect fill="#000000" fill-opacity="0.00000" height="366.6484" width="8" x="33.8413" y="121.2188"/><line style="stroke:#181818;stroke-width:0.5;stroke-dasharray:5,5;" x1="37" x2="37" y1="121.2188" y2="487.8672"/></g><g><title>... TagGroup Page..</title><rect fill="#000000" fill-opacity="0.00000" height="366.6484" width="8" x="157.5376" y="121.2188"/><line style="stroke:#181818;stroke-width:0.5;stroke-dasharray:5,5;" x1="161.1445" x2="161.1445" y1="121.2188" y2="487.8672"/></g><g><title>... TagGroup Controller..</title><rect fill="#000000" fill-opacity="0.00000" height="366.6484" width="8" x="420.4468" y="121.2188"/><line style="stroke:#181818;stroke-width:0.5;stroke-dasharray:5,5;" x1="424.3398" x2="424.3398" y1="121.2188" y2="487.8672"/></g><g><title>... TagGroup..</title><rect fill="#000000" fill-opacity="0.00000" height="366.6484" width="8" x="565.7676" y="121.2188"/><line style="stroke:#181818;stroke-width:0.5;stroke-dasharray:5,5;" x1="569.0503" x2="569.0503" y1="121.2188" y2="487.8672"/></g><g class="participant participant-head" data-participant="User"><text fill="#000000" font-family="sans-serif" font-size="14" font-weight="bold" lengthAdjust="spacing" textLength="39.6826" x="15" y="118.1426">: User</text><ellipse cx="37.8413" cy="52.1094" fill="#E2E2F0" rx="8" ry="8" style="stroke:#181818;stroke-width:0.5;"/><path d="M37.8413,60.1094 L37.8413,87.1094 M24.8413,68.1094 L50.8413,68.1094 M37.8413,87.1094 L24.8413,102.1094 M37.8413,87.1094 L50.8413,102.1094" fill="none" style="stroke:#181818;stroke-width:0.5;"/></g><g class="participant participant-head" data-participant="TagGroupManagementPage"><text fill="#000000" font-family="sans-serif" font-size="14" font-weight="bold" lengthAdjust="spacing" textLength="112.7861" x="102.1445" y="118.1426">: TagGroup Page</text><path d="M141.0376,75.6094 L141.0376,99.6094 M141.0376,87.6094 L158.0376,87.6094" fill="none" style="stroke:#181818;stroke-width:0.5;"/><ellipse cx="170.0376" cy="87.6094" fill="#E2E2F0" rx="12" ry="12" style="stroke:#181818;stroke-width:0.5;"/></g><g class="participant participant-head" data-participant="TagGroupController"><text fill="#000000" font-family="sans-serif" font-size="14" font-weight="bold" lengthAdjust="spacing" textLength="146.2139" x="348.3398" y="118.1426">: TagGroup Controller</text><ellipse cx="424.4468" cy="87.6094" fill="#E2E2F0" rx="12" ry="12" style="stroke:#181818;stroke-width:0.5;"/><polygon fill="#181818" points="420.4468,75.6094,426.4468,70.6094,424.4468,75.6094,426.4468,80.6094,420.4468,75.6094" style="stroke:#181818;stroke-width:1;"/></g><g class="participant participant-head" data-participant="TagGroupRepository"><text fill="#000000" font-family="sans-serif" font-size="14" font-weight="bold" lengthAdjust="spacing" textLength="75.4346" x="529.0503" y="118.1426">: TagGroup</text><ellipse cx="569.7676" cy="87.6094" fill="#E2E2F0" rx="12" ry="12" style="stroke:#181818;stroke-width:0.5;"/><line style="stroke:#181818;stroke-width:0.5;" x1="557.7676" x2="581.7676" y1="101.6094" y2="101.6094"/></g><g><title>... TagGroup Page..</title><rect fill="#FFFFFF" height="324.2969" style="stroke:#181818;stroke-width:1;" width="10" x="156.5376" y="153.5703"/></g><g><title>... TagGroup Page..</title><rect fill="#FFFFFF" height="28" style="stroke:#181818;stroke-width:1;" width="10" x="161.5376" y="338.6797"/></g><g><title>... TagGroup Page..</title><rect fill="#FFFFFF" height="28" style="stroke:#181818;stroke-width:1;" width="10" x="161.5376" y="427.8672"/></g><g><title>... TagGroup Controller..</title><rect fill="#FFFFFF" height="91.0547" style="stroke:#181818;stroke-width:1;" width="10" x="419.4468" y="183.9219"/></g><g><title>... TagGroup..</title><rect fill="#FFFFFF" height="30.3516" style="stroke:#181818;stroke-width:1;" width="10" x="564.7676" y="214.2734"/></g><g class="message" data-participant-1="User" data-participant-2="TagGroupManagementPage"><polygon fill="#181818" points="144.5376,149.5703,154.5376,153.5703,144.5376,157.5703,148.5376,153.5703" style="stroke:#181818;stroke-width:1;"/><line style="stroke:#181818;stroke-width:1;" x1="37.8413" x2="150.5376" y1="153.5703" y2="153.5703"/><text fill="#000000" font-family="sans-serif" font-size="13" lengthAdjust="spacing" textLength="99.6963" x="44.8413" y="148.7139">viewTagGroups()</text></g><g class="message" data-participant-1="TagGroupManagementPage" data-participant-2="TagGroupController"><polygon fill="#181818" points="407.4468,179.9219,417.4468,183.9219,407.4468,187.9219,411.4468,183.9219" style="stroke:#181818;stroke-width:1;"/><line style="stroke:#181818;stroke-width:1;" x1="166.5376" x2="413.4468" y1="183.9219" y2="183.9219"/><text fill="#000000" font-family="sans-serif" font-size="13" lengthAdjust="spacing" textLength="98.2681" x="173.5376" y="179.0654">loadTagGroups()</text></g><g class="message" data-participant-1="TagGroupController" data-participant-2="TagGroupRepository"><polygon fill="#181818" points="552.7676,210.2734,562.7676,214.2734,552.7676,218.2734,556.7676,214.2734" style="stroke:#181818;stroke-width:1;"/><line style="stroke:#181818;stroke-width:1;" x1="429.4468" x2="558.7676" y1="214.2734" y2="214.2734"/><text fill="#000000" font-family="sans-serif" font-size="13" lengthAdjust="spacing" textLength="116.3208" x="436.4468" y="209.417">fetchAllTagGroups()</text></g><g class="message" data-participant-1="TagGroupRepository" data-participant-2="TagGroupController"><polygon fill="#181818" points="440.4468,240.625,430.4468,244.625,440.4468,248.625,436.4468,244.625" style="stroke:#181818;stroke-width:1;"/><line style="stroke:#181818;stroke-width:1;stroke-dasharray:2,2;" x1="434.4468" x2="568.7676" y1="244.625" y2="244.625"/><text fill="#000000" font-family="sans-serif" font-size="13" lengthAdjust="spacing" textLength="74.4326" x="446.4468" y="239.7686">tagGroupList</text></g><g class="message" data-participant-1="TagGroupController" data-participant-2="TagGroupManagementPage"><polygon fill="#181818" points="177.5376,270.9766,167.5376,274.9766,177.5376,278.9766,173.5376,274.9766" style="stroke:#181818;stroke-width:1;"/><line style="stroke:#181818;stroke-width:1;stroke-dasharray:2,2;" x1="171.5376" x2="423.4468" y1="274.9766" y2="274.9766"/><text fill="#000000" font-family="sans-serif" font-size="13" lengthAdjust="spacing" textLength="74.4326" x="183.5376" y="270.1201">tagGroupList</text></g><path d="M92.1445,289.9766 L152.3154,289.9766 L152.3154,298.3281 L142.3154,308.3281 L92.1445,308.3281 L92.1445,289.9766" fill="#EEEEEE" style="stroke:#000000;stroke-width:1.5;"/><rect fill="none" height="180.8906" style="stroke:#000000;stroke-width:1.5;" width="337.3022" x="92.1445" y="289.9766"/><text fill="#000000" font-family="sans-serif" font-size="13" font-weight="bold" lengthAdjust="spacing" textLength="15.1709" x="107.1445" y="304.4717">alt</text><text fill="#000000" font-family="sans-serif" font-size="11" font-weight="bold" lengthAdjust="spacing" textLength="124.0615" x="167.3154" y="303.3955">[tagGroupList is empty]</text><g class="message" data-participant-1="TagGroupManagementPage" data-participant-2="TagGroupManagementPage"><line style="stroke:#181818;stroke-width:1;" x1="171.5376" x2="213.5376" y1="330.6797" y2="330.6797"/><line style="stroke:#181818;stroke-width:1;" x1="213.5376" x2="213.5376" y1="330.6797" y2="343.6797"/><line style="stroke:#181818;stroke-width:1;" x1="172.5376" x2="213.5376" y1="343.6797" y2="343.6797"/><polygon fill="#181818" points="182.5376,339.6797,172.5376,343.6797,182.5376,347.6797,178.5376,343.6797" style="stroke:#181818;stroke-width:1;"/><text fill="#000000" font-family="sans-serif" font-size="13" lengthAdjust="spacing" textLength="228.9092" x="178.5376" y="325.8232">displayMessage("No tag groups found")</text></g><line style="stroke:#000000;stroke-width:1;stroke-dasharray:2,2;" x1="92.1445" x2="429.4468" y1="382.6797" y2="382.6797"/><text fill="#000000" font-family="sans-serif" font-size="11" font-weight="bold" lengthAdjust="spacing" textLength="144.2192" x="97.1445" y="394.0986">[tagGroupList is not empty]</text><g class="message" data-participant-1="TagGroupManagementPage" data-participant-2="TagGroupManagementPage"><line style="stroke:#181818;stroke-width:1;" x1="171.5376" x2="213.5376" y1="419.8672" y2="419.8672"/><line style="stroke:#181818;stroke-width:1;" x1="213.5376" x2="213.5376" y1="419.8672" y2="432.8672"/><line style="stroke:#181818;stroke-width:1;" x1="172.5376" x2="213.5376" y1="432.8672" y2="432.8672"/><polygon fill="#181818" points="182.5376,428.8672,172.5376,432.8672,182.5376,436.8672,178.5376,432.8672" style="stroke:#181818;stroke-width:1;"/><text fill="#000000" font-family="sans-serif" font-size="13" lengthAdjust="spacing" textLength="188.5889" x="178.5376" y="415.0107">displayTagGroups(tagGroupList)</text></g><!--SRC=[hLCzRy8m4DtzAquiXQWPkZ9KCaM2gWKXIeUE5t89BeuTsGvj_dqT82NbAnt8akZUyxjtxvmCXKeCPWH1OECWW24c3iq2qv7HHSvM8YP8j7QH_cOCbquRw0H17zujcI3e0Dhj9ujqeM8qvGwjpyCCKzhJwje4bIzcf5m5igLMpcXvTEvfLvM_JMha032l8DnHmoFsd79jXJTTCdO7OHZ2Z4_v63xuT0J3vmMV3FZuXKyho1FUo1OeO5v8WeTxuEjgNEyq5KPaa9D51Mk2mNvMLaqEuUE5qQ0F6q5VDMYxlIf0iK57byBm7hWi35XX4I8o4jLduS1IJiO9_uv85fagaLresJ1pICeRaHhZgqOQkR8p2WtTGwPUDo6tN74fhsetjt169RnasksBhy8w5jE_T9kUhsscJRkP1qhtXm_20cMvAnduftqJ9yrZONE9vOIizOLkPwehVKYt2VhVpL-lJcyhtdPXAiuPzqSiafPE9b3QtMIAm-gR7MvgNyMCjTD-0000]--></g></svg>