<svg xmlns="http://www.w3.org/2000/svg" xmlns:xlink="http://www.w3.org/1999/xlink" contentStyleType="text/css" data-diagram-type="SEQUENCE" height="452px" preserveAspectRatio="none" style="width:568px;height:452px;background:#FFFFFF;" version="1.1" viewBox="0 0 568 452" width="568px" zoomAndPan="magnify"><defs/><g><rect fill="#FFFFFF" height="431.4766" style="stroke:#181818;stroke-width:1.5;" width="557.6997" x="5" y="15"/><path d="M97.4756,15 L97.4756,25.6094 L87.4756,35.6094 L5,35.6094" fill="none" style="stroke:#181818;stroke-width:1.5;"/><text fill="#000000" font-family="sans-serif" font-size="14" font-weight="bold" lengthAdjust="spacing" textLength="16.3379" x="8" y="30.5332">sd</text><text fill="#000000" font-family="sans-serif" font-size="14" lengthAdjust="spacing" textLength="62.248" x="28.2275" y="30.5332">DaftarTag</text><g><title>... TagManagementPage..</title><rect fill="#FFFFFF" height="264.2969" style="stroke:#181818;stroke-width:1;" width="10" x="144.9204" y="153.5703"/></g><g><title>... TagController..</title><rect fill="#FFFFFF" height="91.0547" style="stroke:#181818;stroke-width:1;" width="10" x="370.9688" y="183.9219"/></g><g><title>... TagRepository..</title><rect fill="#FFFFFF" height="30.3516" style="stroke:#181818;stroke-width:1;" width="10" x="490.417" y="214.2734"/></g><rect fill="none" height="120.8906" style="stroke:#000000;stroke-width:1.5;" width="315.2861" x="60.6826" y="289.9766"/><g><title>... User..</title><rect fill="#000000" fill-opacity="0.00000" height="306.6484" width="8" x="33.8413" y="121.2188"/><line style="stroke:#181818;stroke-width:0.5;stroke-dasharray:5,5;" x1="37" x2="37" y1="121.2188" y2="427.8672"/></g><g><title>... TagManagementPage..</title><rect fill="#000000" fill-opacity="0.00000" height="306.6484" width="8" x="145.9204" y="121.2188"/><line style="stroke:#181818;stroke-width:0.5;stroke-dasharray:5,5;" x1="149.6826" x2="149.6826" y1="121.2188" y2="427.8672"/></g><g><title>... TagController..</title><rect fill="#000000" fill-opacity="0.00000" height="306.6484" width="8" x="371.9688" y="121.2188"/><line style="stroke:#181818;stroke-width:0.5;stroke-dasharray:5,5;" x1="375.8032" x2="375.8032" y1="121.2188" y2="427.8672"/></g><g><title>... TagRepository..</title><rect fill="#000000" fill-opacity="0.00000" height="306.6484" width="8" x="491.417" y="121.2188"/><line style="stroke:#181818;stroke-width:0.5;stroke-dasharray:5,5;" x1="495.1343" x2="495.1343" y1="121.2188" y2="427.8672"/></g><g class="participant participant-head" data-participant="User"><text fill="#000000" font-family="sans-serif" font-size="14" font-weight="bold" lengthAdjust="spacing" textLength="39.6826" x="15" y="118.1426">: User</text><ellipse cx="37.8413" cy="52.1094" fill="#E2E2F0" rx="8" ry="8" style="stroke:#181818;stroke-width:0.5;"/><path d="M37.8413,60.1094 L37.8413,87.1094 M24.8413,68.1094 L50.8413,68.1094 M37.8413,87.1094 L24.8413,102.1094 M37.8413,87.1094 L50.8413,102.1094" fill="none" style="stroke:#181818;stroke-width:0.5;"/></g><g class="participant participant-head" data-participant="TagManagementPage"><text fill="#000000" font-family="sans-serif" font-size="14" font-weight="bold" lengthAdjust="spacing" textLength="152.4756" x="70.6826" y="118.1426">: TagManagementPage</text><path d="M129.4204,75.6094 L129.4204,99.6094 M129.4204,87.6094 L146.4204,87.6094" fill="none" style="stroke:#181818;stroke-width:0.5;"/><ellipse cx="158.4204" cy="87.6094" fill="#E2E2F0" rx="12" ry="12" style="stroke:#181818;stroke-width:0.5;"/></g><g class="participant participant-head" data-participant="TagController"><text fill="#000000" font-family="sans-serif" font-size="14" font-weight="bold" lengthAdjust="spacing" textLength="100.3311" x="322.8032" y="118.1426">: TagController</text><ellipse cx="375.9688" cy="87.6094" fill="#E2E2F0" rx="12" ry="12" style="stroke:#181818;stroke-width:0.5;"/><polygon fill="#181818" points="371.9688,75.6094,377.9688,70.6094,375.9688,75.6094,377.9688,80.6094,371.9688,75.6094" style="stroke:#181818;stroke-width:1;"/></g><g class="participant participant-head" data-participant="TagRepository"><text fill="#000000" font-family="sans-serif" font-size="14" font-weight="bold" lengthAdjust="spacing" textLength="106.5654" x="439.1343" y="118.1426">: TagRepository</text><ellipse cx="495.417" cy="87.6094" fill="#E2E2F0" rx="12" ry="12" style="stroke:#181818;stroke-width:0.5;"/><line style="stroke:#181818;stroke-width:0.5;" x1="483.417" x2="507.417" y1="101.6094" y2="101.6094"/></g><g><title>... TagManagementPage..</title><rect fill="#FFFFFF" height="264.2969" style="stroke:#181818;stroke-width:1;" width="10" x="144.9204" y="153.5703"/></g><g><title>... TagController..</title><rect fill="#FFFFFF" height="91.0547" style="stroke:#181818;stroke-width:1;" width="10" x="370.9688" y="183.9219"/></g><g><title>... TagRepository..</title><rect fill="#FFFFFF" height="30.3516" style="stroke:#181818;stroke-width:1;" width="10" x="490.417" y="214.2734"/></g><g class="message" data-participant-1="User" data-participant-2="TagManagementPage"><polygon fill="#181818" points="132.9204,149.5703,142.9204,153.5703,132.9204,157.5703,136.9204,153.5703" style="stroke:#181818;stroke-width:1;"/><line style="stroke:#181818;stroke-width:1;" x1="37.8413" x2="138.9204" y1="153.5703" y2="153.5703"/><text fill="#000000" font-family="sans-serif" font-size="13" lengthAdjust="spacing" textLength="63.5654" x="44.8413" y="148.7139">viewTags()</text></g><g class="message" data-participant-1="TagManagementPage" data-participant-2="TagController"><polygon fill="#181818" points="358.9688,179.9219,368.9688,183.9219,358.9688,187.9219,362.9688,183.9219" style="stroke:#181818;stroke-width:1;"/><line style="stroke:#181818;stroke-width:1;" x1="154.9204" x2="364.9688" y1="183.9219" y2="183.9219"/><text fill="#000000" font-family="sans-serif" font-size="13" lengthAdjust="spacing" textLength="62.1372" x="161.9204" y="179.0654">loadTags()</text></g><g class="message" data-participant-1="TagController" data-participant-2="TagRepository"><polygon fill="#181818" points="478.417,210.2734,488.417,214.2734,478.417,218.2734,482.417,214.2734" style="stroke:#181818;stroke-width:1;"/><line style="stroke:#181818;stroke-width:1;" x1="380.9688" x2="484.417" y1="214.2734" y2="214.2734"/><text fill="#000000" font-family="sans-serif" font-size="13" lengthAdjust="spacing" textLength="70.0781" x="387.9688" y="209.417">getAllTags()</text></g><g class="message" data-participant-1="TagRepository" data-participant-2="TagController"><polygon fill="#181818" points="391.9688,240.625,381.9688,244.625,391.9688,248.625,387.9688,244.625" style="stroke:#181818;stroke-width:1;"/><line style="stroke:#181818;stroke-width:1;stroke-dasharray:2,2;" x1="385.9688" x2="494.417" y1="244.625" y2="244.625"/><text fill="#000000" font-family="sans-serif" font-size="13" lengthAdjust="spacing" textLength="38.3018" x="397.9688" y="239.7686">tagList</text></g><g class="message" data-participant-1="TagController" data-participant-2="TagManagementPage"><polygon fill="#181818" points="165.9204,270.9766,155.9204,274.9766,165.9204,278.9766,161.9204,274.9766" style="stroke:#181818;stroke-width:1;"/><line style="stroke:#181818;stroke-width:1;stroke-dasharray:2,2;" x1="159.9204" x2="374.9688" y1="274.9766" y2="274.9766"/><text fill="#000000" font-family="sans-serif" font-size="13" lengthAdjust="spacing" textLength="38.3018" x="171.9204" y="270.1201">tagList</text></g><path d="M60.6826,289.9766 L120.8535,289.9766 L120.8535,298.3281 L110.8535,308.3281 L60.6826,308.3281 L60.6826,289.9766" fill="#EEEEEE" style="stroke:#000000;stroke-width:1.5;"/><rect fill="none" height="120.8906" style="stroke:#000000;stroke-width:1.5;" width="315.2861" x="60.6826" y="289.9766"/><text fill="#000000" font-family="sans-serif" font-size="13" font-weight="bold" lengthAdjust="spacing" textLength="15.1709" x="75.6826" y="304.4717">alt</text><text fill="#000000" font-family="sans-serif" font-size="11" font-weight="bold" lengthAdjust="spacing" textLength="91.0669" x="135.8535" y="303.3955">[tagList is empty]</text><g class="message" data-participant-1="TagManagementPage" data-participant-2="TagManagementPage"><line style="stroke:#181818;stroke-width:1;" x1="154.9204" x2="196.9204" y1="330.6797" y2="330.6797"/><line style="stroke:#181818;stroke-width:1;" x1="196.9204" x2="196.9204" y1="330.6797" y2="343.6797"/><line style="stroke:#181818;stroke-width:1;" x1="155.9204" x2="196.9204" y1="343.6797" y2="343.6797"/><polygon fill="#181818" points="165.9204,339.6797,155.9204,343.6797,165.9204,347.6797,161.9204,343.6797" style="stroke:#181818;stroke-width:1;"/><text fill="#000000" font-family="sans-serif" font-size="13" lengthAdjust="spacing" textLength="192.0483" x="161.9204" y="325.8232">displayMessage("No tags found")</text></g><line style="stroke:#000000;stroke-width:1;stroke-dasharray:2,2;" x1="60.6826" x2="375.9688" y1="352.6797" y2="352.6797"/><text fill="#000000" font-family="sans-serif" font-size="11" font-weight="bold" lengthAdjust="spacing" textLength="111.2246" x="65.6826" y="364.0986">[tagList is not empty]</text><g class="message" data-participant-1="TagManagementPage" data-participant-2="TagManagementPage"><line style="stroke:#181818;stroke-width:1;" x1="154.9204" x2="196.9204" y1="389.8672" y2="389.8672"/><line style="stroke:#181818;stroke-width:1;" x1="196.9204" x2="196.9204" y1="389.8672" y2="402.8672"/><line style="stroke:#181818;stroke-width:1;" x1="155.9204" x2="196.9204" y1="402.8672" y2="402.8672"/><polygon fill="#181818" points="165.9204,398.8672,155.9204,402.8672,165.9204,406.8672,161.9204,402.8672" style="stroke:#181818;stroke-width:1;"/><text fill="#000000" font-family="sans-serif" font-size="13" lengthAdjust="spacing" textLength="116.3271" x="161.9204" y="385.0107">displayTags(tagList)</text></g><!--SRC=[fPB1ReCm38RlVWgBKnkfBz33f6axhjCqRG_WDeP52WcAlMwy_KBf2XIwoxW0F_u__pQfoOKoKSreZ5XZy95AfVH65NmuorZ6gFlu3K07ZGaBOxRuBfoCAP3az0Zx-1aifRR_cgqx2bHnpK5VylrSEjFX48Ecw2-sX_xTN-WJ3RBDwT3abPieBeTgX-f10-YYuUPktXUtU7JybNLPhRkvt96K5_B1tDhpXb2PvIFP1TOeE4mjFME8cXaLwxtt2vJnG5FJPY6AKlNaHC7o7unnaXlhMUQC9oAllrNe1Bbkj0NCrwsLpNfO9usdTiSYMLWLpx43IZvm-J0LQs0lF6uHelwZpMcrPrfc1mjNmrtz-Xy0]--></g></svg>