<svg xmlns="http://www.w3.org/2000/svg" xmlns:xlink="http://www.w3.org/1999/xlink" contentStyleType="text/css" data-diagram-type="SEQUENCE" height="452px" preserveAspectRatio="none" style="width:689px;height:452px;background:#FFFFFF;" version="1.1" viewBox="0 0 689 452" width="689px" zoomAndPan="magnify"><defs/><g><rect fill="#FFFFFF" height="431.4766" style="stroke:#181818;stroke-width:1.5;" width="678.5469" x="5" y="15"/><path d="M144.1855,15 L144.1855,25.6094 L134.1855,35.6094 L5,35.6094" fill="none" style="stroke:#181818;stroke-width:1.5;"/><text fill="#000000" font-family="sans-serif" font-size="14" font-weight="bold" lengthAdjust="spacing" textLength="16.3379" x="8" y="30.5332">sd</text><text fill="#000000" font-family="sans-serif" font-size="14" lengthAdjust="spacing" textLength="108.958" x="28.2275" y="30.5332">Load Tag Groups</text><g><title>... TagGroupManagementPage..</title><rect fill="#FFFFFF" height="264.2969" style="stroke:#181818;stroke-width:1;" width="10" x="165.917" y="153.5703"/></g><g><title>... TagGroupController..</title><rect fill="#FFFFFF" height="91.0547" style="stroke:#181818;stroke-width:1;" width="10" x="428.8262" y="183.9219"/></g><g><title>... TagGroupRepository..</title><rect fill="#FFFFFF" height="30.3516" style="stroke:#181818;stroke-width:1;" width="10" x="590.2676" y="214.2734"/></g><rect fill="none" height="120.8906" style="stroke:#000000;stroke-width:1.5;" width="373.1436" x="60.6826" y="289.9766"/><g><title>... User..</title><rect fill="#000000" fill-opacity="0.00000" height="306.6484" width="8" x="33.8413" y="121.2188"/><line style="stroke:#181818;stroke-width:0.5;stroke-dasharray:5,5;" x1="37" x2="37" y1="121.2188" y2="427.8672"/></g><g><title>... TagGroupManagementPage..</title><rect fill="#000000" fill-opacity="0.00000" height="306.6484" width="8" x="166.917" y="121.2188"/><line style="stroke:#181818;stroke-width:0.5;stroke-dasharray:5,5;" x1="170.6826" x2="170.6826" y1="121.2188" y2="427.8672"/></g><g><title>... TagGroupController..</title><rect fill="#000000" fill-opacity="0.00000" height="306.6484" width="8" x="429.8262" y="121.2188"/><line style="stroke:#181818;stroke-width:0.5;stroke-dasharray:5,5;" x1="433.6641" x2="433.6641" y1="121.2188" y2="427.8672"/></g><g><title>... TagGroupRepository..</title><rect fill="#000000" fill-opacity="0.00000" height="306.6484" width="8" x="591.2676" y="121.2188"/><line style="stroke:#181818;stroke-width:0.5;stroke-dasharray:5,5;" x1="594.9883" x2="594.9883" y1="121.2188" y2="427.8672"/></g><g class="participant participant-head" data-participant="User"><text fill="#000000" font-family="sans-serif" font-size="14" font-weight="bold" lengthAdjust="spacing" textLength="39.6826" x="15" y="118.1426">: User</text><ellipse cx="37.8413" cy="52.1094" fill="#E2E2F0" rx="8" ry="8" style="stroke:#181818;stroke-width:0.5;"/><path d="M37.8413,60.1094 L37.8413,87.1094 M24.8413,68.1094 L50.8413,68.1094 M37.8413,87.1094 L24.8413,102.1094 M37.8413,87.1094 L50.8413,102.1094" fill="none" style="stroke:#181818;stroke-width:0.5;"/></g><g class="participant participant-head" data-participant="TagGroupManagementPage"><text fill="#000000" font-family="sans-serif" font-size="14" font-weight="bold" lengthAdjust="spacing" textLength="194.4688" x="70.6826" y="118.1426">: TagGroupManagementPage</text><path d="M150.417,75.6094 L150.417,99.6094 M150.417,87.6094 L167.417,87.6094" fill="none" style="stroke:#181818;stroke-width:0.5;"/><ellipse cx="179.417" cy="87.6094" fill="#E2E2F0" rx="12" ry="12" style="stroke:#181818;stroke-width:0.5;"/></g><g class="participant participant-head" data-participant="TagGroupController"><text fill="#000000" font-family="sans-serif" font-size="14" font-weight="bold" lengthAdjust="spacing" textLength="142.3242" x="359.6641" y="118.1426">: TagGroupController</text><ellipse cx="433.8262" cy="87.6094" fill="#E2E2F0" rx="12" ry="12" style="stroke:#181818;stroke-width:0.5;"/><polygon fill="#181818" points="429.8262,75.6094,435.8262,70.6094,433.8262,75.6094,435.8262,80.6094,429.8262,75.6094" style="stroke:#181818;stroke-width:1;"/></g><g class="participant participant-head" data-participant="TagGroupRepository"><text fill="#000000" font-family="sans-serif" font-size="14" font-weight="bold" lengthAdjust="spacing" textLength="148.5586" x="517.9883" y="118.1426">: TagGroupRepository</text><ellipse cx="595.2676" cy="87.6094" fill="#E2E2F0" rx="12" ry="12" style="stroke:#181818;stroke-width:0.5;"/><line style="stroke:#181818;stroke-width:0.5;" x1="583.2676" x2="607.2676" y1="101.6094" y2="101.6094"/></g><g><title>... TagGroupManagementPage..</title><rect fill="#FFFFFF" height="264.2969" style="stroke:#181818;stroke-width:1;" width="10" x="165.917" y="153.5703"/></g><g><title>... TagGroupController..</title><rect fill="#FFFFFF" height="91.0547" style="stroke:#181818;stroke-width:1;" width="10" x="428.8262" y="183.9219"/></g><g><title>... TagGroupRepository..</title><rect fill="#FFFFFF" height="30.3516" style="stroke:#181818;stroke-width:1;" width="10" x="590.2676" y="214.2734"/></g><g class="message" data-participant-1="User" data-participant-2="TagGroupManagementPage"><polygon fill="#181818" points="153.917,149.5703,163.917,153.5703,153.917,157.5703,157.917,153.5703" style="stroke:#181818;stroke-width:1;"/><line style="stroke:#181818;stroke-width:1;" x1="37.8413" x2="159.917" y1="153.5703" y2="153.5703"/><text fill="#000000" font-family="sans-serif" font-size="13" lengthAdjust="spacing" textLength="99.6963" x="44.8413" y="148.7139">viewTagGroups()</text></g><g class="message" data-participant-1="TagGroupManagementPage" data-participant-2="TagGroupController"><polygon fill="#181818" points="416.8262,179.9219,426.8262,183.9219,416.8262,187.9219,420.8262,183.9219" style="stroke:#181818;stroke-width:1;"/><line style="stroke:#181818;stroke-width:1;" x1="175.917" x2="422.8262" y1="183.9219" y2="183.9219"/><text fill="#000000" font-family="sans-serif" font-size="13" lengthAdjust="spacing" textLength="98.2681" x="182.917" y="179.0654">loadTagGroups()</text></g><g class="message" data-participant-1="TagGroupController" data-participant-2="TagGroupRepository"><polygon fill="#181818" points="578.2676,210.2734,588.2676,214.2734,578.2676,218.2734,582.2676,214.2734" style="stroke:#181818;stroke-width:1;"/><line style="stroke:#181818;stroke-width:1;" x1="438.8262" x2="584.2676" y1="214.2734" y2="214.2734"/><text fill="#000000" font-family="sans-serif" font-size="13" lengthAdjust="spacing" textLength="116.3208" x="445.8262" y="209.417">fetchAllTagGroups()</text></g><g class="message" data-participant-1="TagGroupRepository" data-participant-2="TagGroupController"><polygon fill="#181818" points="449.8262,240.625,439.8262,244.625,449.8262,248.625,445.8262,244.625" style="stroke:#181818;stroke-width:1;"/><line style="stroke:#181818;stroke-width:1;stroke-dasharray:2,2;" x1="443.8262" x2="594.2676" y1="244.625" y2="244.625"/><text fill="#000000" font-family="sans-serif" font-size="13" lengthAdjust="spacing" textLength="74.4326" x="455.8262" y="239.7686">tagGroupList</text></g><g class="message" data-participant-1="TagGroupController" data-participant-2="TagGroupManagementPage"><polygon fill="#181818" points="186.917,270.9766,176.917,274.9766,186.917,278.9766,182.917,274.9766" style="stroke:#181818;stroke-width:1;"/><line style="stroke:#181818;stroke-width:1;stroke-dasharray:2,2;" x1="180.917" x2="432.8262" y1="274.9766" y2="274.9766"/><text fill="#000000" font-family="sans-serif" font-size="13" lengthAdjust="spacing" textLength="74.4326" x="192.917" y="270.1201">tagGroupList</text></g><path d="M60.6826,289.9766 L120.8535,289.9766 L120.8535,298.3281 L110.8535,308.3281 L60.6826,308.3281 L60.6826,289.9766" fill="#EEEEEE" style="stroke:#000000;stroke-width:1.5;"/><rect fill="none" height="120.8906" style="stroke:#000000;stroke-width:1.5;" width="373.1436" x="60.6826" y="289.9766"/><text fill="#000000" font-family="sans-serif" font-size="13" font-weight="bold" lengthAdjust="spacing" textLength="15.1709" x="75.6826" y="304.4717">alt</text><text fill="#000000" font-family="sans-serif" font-size="11" font-weight="bold" lengthAdjust="spacing" textLength="124.0615" x="135.8535" y="303.3955">[tagGroupList is empty]</text><g class="message" data-participant-1="TagGroupManagementPage" data-participant-2="TagGroupManagementPage"><line style="stroke:#181818;stroke-width:1;" x1="175.917" x2="217.917" y1="330.6797" y2="330.6797"/><line style="stroke:#181818;stroke-width:1;" x1="217.917" x2="217.917" y1="330.6797" y2="343.6797"/><line style="stroke:#181818;stroke-width:1;" x1="176.917" x2="217.917" y1="343.6797" y2="343.6797"/><polygon fill="#181818" points="186.917,339.6797,176.917,343.6797,186.917,347.6797,182.917,343.6797" style="stroke:#181818;stroke-width:1;"/><text fill="#000000" font-family="sans-serif" font-size="13" lengthAdjust="spacing" textLength="228.9092" x="182.917" y="325.8232">displayMessage("No tag groups found")</text></g><line style="stroke:#000000;stroke-width:1;stroke-dasharray:2,2;" x1="60.6826" x2="433.8262" y1="352.6797" y2="352.6797"/><text fill="#000000" font-family="sans-serif" font-size="11" font-weight="bold" lengthAdjust="spacing" textLength="144.2192" x="65.6826" y="364.0986">[tagGroupList is not empty]</text><g class="message" data-participant-1="TagGroupManagementPage" data-participant-2="TagGroupManagementPage"><line style="stroke:#181818;stroke-width:1;" x1="175.917" x2="217.917" y1="389.8672" y2="389.8672"/><line style="stroke:#181818;stroke-width:1;" x1="217.917" x2="217.917" y1="389.8672" y2="402.8672"/><line style="stroke:#181818;stroke-width:1;" x1="176.917" x2="217.917" y1="402.8672" y2="402.8672"/><polygon fill="#181818" points="186.917,398.8672,176.917,402.8672,186.917,406.8672,182.917,402.8672" style="stroke:#181818;stroke-width:1;"/><text fill="#000000" font-family="sans-serif" font-size="13" lengthAdjust="spacing" textLength="188.5889" x="182.917" y="385.0107">displayTagGroups(tagGroupList)</text></g><!--SRC=[hPC_Ry8m4CLtVueJIo5gXguCbTnMWgeG8Kg7ZWSvmCMn8vz3cszV1sW9Vm8TciNHdVDxp- -S39MPEym8eeZJA8A1nHGck82UiqNEOgbIWhcrVcg_XC2PjmvQKTI5DoONHIr0thoAgIrCYgxSTWDX0nYYmGLbPFmehBlzvvjYPertLXy27hT5_IjssX01eFoHy9XoooguBO- -spU4k84uZc4a4zc7TvdquEbv8eSFilyYaweLDhmI5wXWN6Y2krkGgog0O7cXdCeW9qO3AuA7tUb5bGN4zmrdX2wi5Nt-DBdTgI9LQ_JKb4hm87NXW1KZJCbfD1-51wQSd5TXdP8kCbEYQ92icTbd5epeCEcBHce9YpE46dUVQU3EoS-MKkkBxFeKpb3Y9jD-LnmezYAbFt7hdYzDvXgxdWTgVx0V50DbkIy5XEVw94x4KyMvnd98pA7GRYMsuiDYas3u0SFrQdK4QQOJNMFzlsZl1rPN2A8c5UVoEBgetm00]--></g></svg>