<svg xmlns="http://www.w3.org/2000/svg" xmlns:xlink="http://www.w3.org/1999/xlink" contentStyleType="text/css" data-diagram-type="SEQUENCE" height="512px" preserveAspectRatio="none" style="width:487px;height:512px;background:#FFFFFF;" version="1.1" viewBox="0 0 487 512" width="487px" zoomAndPan="magnify"><defs/><g><rect fill="#FFFFFF" height="491.4766" style="stroke:#181818;stroke-width:1.5;" width="476.2539" x="5" y="15"/><path d="M97.4756,15 L97.4756,25.6094 L87.4756,35.6094 L5,35.6094" fill="none" style="stroke:#181818;stroke-width:1.5;"/><text fill="#000000" font-family="sans-serif" font-size="14" font-weight="bold" lengthAdjust="spacing" textLength="16.3379" x="8" y="30.5332">sd</text><text fill="#000000" font-family="sans-serif" font-size="14" lengthAdjust="spacing" textLength="62.248" x="28.2275" y="30.5332">DaftarTag</text><g><title>... TagPage..</title><rect fill="#FFFFFF" height="324.2969" style="stroke:#181818;stroke-width:1;" width="10" x="120.4067" y="153.5703"/></g><g><title>... TagPage..</title><rect fill="#FFFFFF" height="28" style="stroke:#181818;stroke-width:1;" width="10" x="125.4067" y="338.6797"/></g><g><title>... TagPage..</title><rect fill="#FFFFFF" height="28" style="stroke:#181818;stroke-width:1;" width="10" x="125.4067" y="427.8672"/></g><g><title>... TagController..</title><rect fill="#FFFFFF" height="91.0547" style="stroke:#181818;stroke-width:1;" width="10" x="346.4551" y="183.9219"/></g><g><title>... Tag..</title><rect fill="#FFFFFF" height="30.3516" style="stroke:#181818;stroke-width:1;" width="10" x="445.5332" y="214.2734"/></g><rect fill="none" height="180.8906" style="stroke:#000000;stroke-width:1.5;" width="277.5" x="78.9551" y="289.9766"/><g><title>... User..</title><rect fill="#000000" fill-opacity="0.00000" height="366.6484" width="8" x="33.8413" y="121.2188"/><line style="stroke:#181818;stroke-width:0.5;stroke-dasharray:5,5;" x1="37" x2="37" y1="121.2188" y2="487.8672"/></g><g><title>... TagPage..</title><rect fill="#000000" fill-opacity="0.00000" height="366.6484" width="8" x="121.4067" y="121.2188"/><line style="stroke:#181818;stroke-width:0.5;stroke-dasharray:5,5;" x1="124.9551" x2="124.9551" y1="121.2188" y2="487.8672"/></g><g><title>... TagController..</title><rect fill="#000000" fill-opacity="0.00000" height="366.6484" width="8" x="347.4551" y="121.2188"/><line style="stroke:#181818;stroke-width:0.5;stroke-dasharray:5,5;" x1="351.2896" x2="351.2896" y1="121.2188" y2="487.8672"/></g><g><title>... Tag..</title><rect fill="#000000" fill-opacity="0.00000" height="366.6484" width="8" x="446.5332" y="121.2188"/><line style="stroke:#181818;stroke-width:0.5;stroke-dasharray:5,5;" x1="449.8125" x2="449.8125" y1="121.2188" y2="487.8672"/></g><g class="participant participant-head" data-participant="User"><text fill="#000000" font-family="sans-serif" font-size="14" font-weight="bold" lengthAdjust="spacing" textLength="39.6826" x="15" y="118.1426">: User</text><ellipse cx="37.8413" cy="52.1094" fill="#E2E2F0" rx="8" ry="8" style="stroke:#181818;stroke-width:0.5;"/><path d="M37.8413,60.1094 L37.8413,87.1094 M24.8413,68.1094 L50.8413,68.1094 M37.8413,87.1094 L24.8413,102.1094 M37.8413,87.1094 L50.8413,102.1094" fill="none" style="stroke:#181818;stroke-width:0.5;"/></g><g class="participant participant-head" data-participant="TagManagementPage"><text fill="#000000" font-family="sans-serif" font-size="14" font-weight="bold" lengthAdjust="spacing" textLength="66.9033" x="88.9551" y="118.1426">: TagPage</text><path d="M104.9067,75.6094 L104.9067,99.6094 M104.9067,87.6094 L121.9067,87.6094" fill="none" style="stroke:#181818;stroke-width:0.5;"/><ellipse cx="133.9067" cy="87.6094" fill="#E2E2F0" rx="12" ry="12" style="stroke:#181818;stroke-width:0.5;"/></g><g class="participant participant-head" data-participant="TagController"><text fill="#000000" font-family="sans-serif" font-size="14" font-weight="bold" lengthAdjust="spacing" textLength="100.3311" x="298.2896" y="118.1426">: TagController</text><ellipse cx="351.4551" cy="87.6094" fill="#E2E2F0" rx="12" ry="12" style="stroke:#181818;stroke-width:0.5;"/><polygon fill="#181818" points="347.4551,75.6094,353.4551,70.6094,351.4551,75.6094,353.4551,80.6094,347.4551,75.6094" style="stroke:#181818;stroke-width:1;"/></g><g class="participant participant-head" data-participant="TagRepository"><text fill="#000000" font-family="sans-serif" font-size="14" font-weight="bold" lengthAdjust="spacing" textLength="33.4414" x="430.8125" y="118.1426">: Tag</text><ellipse cx="450.5332" cy="87.6094" fill="#E2E2F0" rx="12" ry="12" style="stroke:#181818;stroke-width:0.5;"/><line style="stroke:#181818;stroke-width:0.5;" x1="438.5332" x2="462.5332" y1="101.6094" y2="101.6094"/></g><g><title>... TagPage..</title><rect fill="#FFFFFF" height="324.2969" style="stroke:#181818;stroke-width:1;" width="10" x="120.4067" y="153.5703"/></g><g><title>... TagPage..</title><rect fill="#FFFFFF" height="28" style="stroke:#181818;stroke-width:1;" width="10" x="125.4067" y="338.6797"/></g><g><title>... TagPage..</title><rect fill="#FFFFFF" height="28" style="stroke:#181818;stroke-width:1;" width="10" x="125.4067" y="427.8672"/></g><g><title>... TagController..</title><rect fill="#FFFFFF" height="91.0547" style="stroke:#181818;stroke-width:1;" width="10" x="346.4551" y="183.9219"/></g><g><title>... Tag..</title><rect fill="#FFFFFF" height="30.3516" style="stroke:#181818;stroke-width:1;" width="10" x="445.5332" y="214.2734"/></g><g class="message" data-participant-1="User" data-participant-2="TagManagementPage"><polygon fill="#181818" points="108.4067,149.5703,118.4067,153.5703,108.4067,157.5703,112.4067,153.5703" style="stroke:#181818;stroke-width:1;"/><line style="stroke:#181818;stroke-width:1;" x1="37.8413" x2="114.4067" y1="153.5703" y2="153.5703"/><text fill="#000000" font-family="sans-serif" font-size="13" lengthAdjust="spacing" textLength="63.5654" x="44.8413" y="148.7139">viewTags()</text></g><g class="message" data-participant-1="TagManagementPage" data-participant-2="TagController"><polygon fill="#181818" points="334.4551,179.9219,344.4551,183.9219,334.4551,187.9219,338.4551,183.9219" style="stroke:#181818;stroke-width:1;"/><line style="stroke:#181818;stroke-width:1;" x1="130.4067" x2="340.4551" y1="183.9219" y2="183.9219"/><text fill="#000000" font-family="sans-serif" font-size="13" lengthAdjust="spacing" textLength="62.1372" x="137.4067" y="179.0654">loadTags()</text></g><g class="message" data-participant-1="TagController" data-participant-2="TagRepository"><polygon fill="#181818" points="433.5332,210.2734,443.5332,214.2734,433.5332,218.2734,437.5332,214.2734" style="stroke:#181818;stroke-width:1;"/><line style="stroke:#181818;stroke-width:1;" x1="356.4551" x2="439.5332" y1="214.2734" y2="214.2734"/><text fill="#000000" font-family="sans-serif" font-size="13" lengthAdjust="spacing" textLength="70.0781" x="363.4551" y="209.417">getAllTags()</text></g><g class="message" data-participant-1="TagRepository" data-participant-2="TagController"><polygon fill="#181818" points="367.4551,240.625,357.4551,244.625,367.4551,248.625,363.4551,244.625" style="stroke:#181818;stroke-width:1;"/><line style="stroke:#181818;stroke-width:1;stroke-dasharray:2,2;" x1="361.4551" x2="449.5332" y1="244.625" y2="244.625"/><text fill="#000000" font-family="sans-serif" font-size="13" lengthAdjust="spacing" textLength="38.3018" x="373.4551" y="239.7686">tagList</text></g><g class="message" data-participant-1="TagController" data-participant-2="TagManagementPage"><polygon fill="#181818" points="141.4067,270.9766,131.4067,274.9766,141.4067,278.9766,137.4067,274.9766" style="stroke:#181818;stroke-width:1;"/><line style="stroke:#181818;stroke-width:1;stroke-dasharray:2,2;" x1="135.4067" x2="350.4551" y1="274.9766" y2="274.9766"/><text fill="#000000" font-family="sans-serif" font-size="13" lengthAdjust="spacing" textLength="38.3018" x="147.4067" y="270.1201">tagList</text></g><path d="M78.9551,289.9766 L139.126,289.9766 L139.126,298.3281 L129.126,308.3281 L78.9551,308.3281 L78.9551,289.9766" fill="#EEEEEE" style="stroke:#000000;stroke-width:1.5;"/><rect fill="none" height="180.8906" style="stroke:#000000;stroke-width:1.5;" width="277.5" x="78.9551" y="289.9766"/><text fill="#000000" font-family="sans-serif" font-size="13" font-weight="bold" lengthAdjust="spacing" textLength="15.1709" x="93.9551" y="304.4717">alt</text><text fill="#000000" font-family="sans-serif" font-size="11" font-weight="bold" lengthAdjust="spacing" textLength="91.0669" x="154.126" y="303.3955">[tagList is empty]</text><g class="message" data-participant-1="TagManagementPage" data-participant-2="TagManagementPage"><line style="stroke:#181818;stroke-width:1;" x1="135.4067" x2="177.4067" y1="330.6797" y2="330.6797"/><line style="stroke:#181818;stroke-width:1;" x1="177.4067" x2="177.4067" y1="330.6797" y2="343.6797"/><line style="stroke:#181818;stroke-width:1;" x1="136.4067" x2="177.4067" y1="343.6797" y2="343.6797"/><polygon fill="#181818" points="146.4067,339.6797,136.4067,343.6797,146.4067,347.6797,142.4067,343.6797" style="stroke:#181818;stroke-width:1;"/><text fill="#000000" font-family="sans-serif" font-size="13" lengthAdjust="spacing" textLength="192.0483" x="142.4067" y="325.8232">displayMessage("No tags found")</text></g><line style="stroke:#000000;stroke-width:1;stroke-dasharray:2,2;" x1="78.9551" x2="356.4551" y1="382.6797" y2="382.6797"/><text fill="#000000" font-family="sans-serif" font-size="11" font-weight="bold" lengthAdjust="spacing" textLength="111.2246" x="83.9551" y="394.0986">[tagList is not empty]</text><g class="message" data-participant-1="TagManagementPage" data-participant-2="TagManagementPage"><line style="stroke:#181818;stroke-width:1;" x1="135.4067" x2="177.4067" y1="419.8672" y2="419.8672"/><line style="stroke:#181818;stroke-width:1;" x1="177.4067" x2="177.4067" y1="419.8672" y2="432.8672"/><line style="stroke:#181818;stroke-width:1;" x1="136.4067" x2="177.4067" y1="432.8672" y2="432.8672"/><polygon fill="#181818" points="146.4067,428.8672,136.4067,432.8672,146.4067,436.8672,142.4067,432.8672" style="stroke:#181818;stroke-width:1;"/><text fill="#000000" font-family="sans-serif" font-size="13" lengthAdjust="spacing" textLength="116.3271" x="142.4067" y="415.0107">displayTags(tagList)</text></g><!--SRC=[hPB1JiCm343l_WghfotIVc0790H7XYO47-0jRecK9bLZ1lrxt7QiBUrsWPvgntvvJbAI2tbD9QCnoHg3ZvGBrQzKmBkpZ7cCSeXV07IKM6Dcp1RV4jV6P4Yf-uL3_0YMwgPVrTOz5Nmkq6X7GUEIWxHvECOWTVINueS-zXVc90VQvcH03pKlNCNaLAe1Q3LmSpVV3RTuSlof-RHQjpEu4malMC6yjUSDAihoaUm2QwGBqvQUCQWges2vztw1CXveshHPK14gdbmIi7o3CJQvSZpBdF54vEMd2br2BYjf0FMxTcIpFQnBbQTcnobfOfKznnQOz77fmydM7Up6tRJBKxrV1UmJZnL3b3zeTbTpfls3Mx00Dok-0G00]--></g></svg>