<svg xmlns="http://www.w3.org/2000/svg" xmlns:xlink="http://www.w3.org/1999/xlink" contentStyleType="text/css" data-diagram-type="SEQUENCE" height="512px" preserveAspectRatio="none" style="width:606px;height:512px;background:#FFFFFF;" version="1.1" viewBox="0 0 606 512" width="606px" zoomAndPan="magnify"><defs/><g><rect fill="#FFFFFF" height="491.4766" style="stroke:#181818;stroke-width:1.5;" width="595.415" x="5" y="15"/><path d="M115.3721,15 L115.3721,25.6094 L105.3721,35.6094 L5,35.6094" fill="none" style="stroke:#181818;stroke-width:1.5;"/><text fill="#000000" font-family="sans-serif" font-size="14" font-weight="bold" lengthAdjust="spacing" textLength="16.3379" x="8" y="30.5332">sd</text><text fill="#000000" font-family="sans-serif" font-size="14" lengthAdjust="spacing" textLength="80.1445" x="28.2275" y="30.5332">DaftarReport</text><g><title>... ReportPage..</title><rect fill="#FFFFFF" height="346.6484" style="stroke:#181818;stroke-width:1;" width="10" x="155.7549" y="131.2188"/></g><g><title>... ReportPage..</title><rect fill="#FFFFFF" height="28" style="stroke:#181818;stroke-width:1;" width="10" x="160.7549" y="338.6797"/></g><g><title>... ReportPage..</title><rect fill="#FFFFFF" height="28" style="stroke:#181818;stroke-width:1;" width="10" x="160.7549" y="427.8672"/></g><g><title>... ReportController..</title><rect fill="#FFFFFF" height="91.0547" style="stroke:#181818;stroke-width:1;" width="10" x="438.8877" y="183.9219"/></g><g><title>... Report..</title><rect fill="#FFFFFF" height="30.3516" style="stroke:#181818;stroke-width:1;" width="10" x="554.584" y="214.2734"/></g><rect fill="none" height="180.8906" style="stroke:#000000;stroke-width:1.5;" width="344.6948" x="104.1929" y="289.9766"/><g><title>... User..</title><rect fill="#000000" fill-opacity="0.00000" height="366.6484" width="8" x="33.8413" y="121.2188"/><line style="stroke:#181818;stroke-width:0.5;stroke-dasharray:5,5;" x1="37" x2="37" y1="121.2188" y2="487.8672"/></g><g><title>... ReportPage..</title><rect fill="#000000" fill-opacity="0.00000" height="366.6484" width="8" x="156.7549" y="121.2188"/><line style="stroke:#181818;stroke-width:0.5;stroke-dasharray:5,5;" x1="160.1929" x2="160.1929" y1="121.2188" y2="487.8672"/></g><g><title>... ReportController..</title><rect fill="#000000" fill-opacity="0.00000" height="366.6484" width="8" x="439.8877" y="121.2188"/><line style="stroke:#181818;stroke-width:0.5;stroke-dasharray:5,5;" x1="443.6118" x2="443.6118" y1="121.2188" y2="487.8672"/></g><g><title>... Report..</title><rect fill="#000000" fill-opacity="0.00000" height="366.6484" width="8" x="555.584" y="121.2188"/><line style="stroke:#181818;stroke-width:0.5;stroke-dasharray:5,5;" x1="558.7529" x2="558.7529" y1="121.2188" y2="487.8672"/></g><g class="participant participant-head" data-participant="User"><text fill="#000000" font-family="sans-serif" font-size="14" font-weight="bold" lengthAdjust="spacing" textLength="39.6826" x="15" y="118.1426">: User</text><ellipse cx="37.8413" cy="52.1094" fill="#E2E2F0" rx="8" ry="8" style="stroke:#181818;stroke-width:0.5;"/><path d="M37.8413,60.1094 L37.8413,87.1094 M24.8413,68.1094 L50.8413,68.1094 M37.8413,87.1094 L24.8413,102.1094 M37.8413,87.1094 L50.8413,102.1094" fill="none" style="stroke:#181818;stroke-width:0.5;"/></g><g class="participant participant-head" data-participant="ReportPage"><text fill="#000000" font-family="sans-serif" font-size="14" font-weight="bold" lengthAdjust="spacing" textLength="87.124" x="114.1929" y="118.1426">: ReportPage</text><path d="M140.2549,75.6094 L140.2549,99.6094 M140.2549,87.6094 L157.2549,87.6094" fill="none" style="stroke:#181818;stroke-width:0.5;"/><ellipse cx="169.2549" cy="87.6094" fill="#E2E2F0" rx="12" ry="12" style="stroke:#181818;stroke-width:0.5;"/></g><g class="participant participant-head" data-participant="ReportController"><text fill="#000000" font-family="sans-serif" font-size="14" font-weight="bold" lengthAdjust="spacing" textLength="120.5518" x="380.6118" y="118.1426">: ReportController</text><ellipse cx="443.8877" cy="87.6094" fill="#E2E2F0" rx="12" ry="12" style="stroke:#181818;stroke-width:0.5;"/><polygon fill="#181818" points="439.8877,75.6094,445.8877,70.6094,443.8877,75.6094,445.8877,80.6094,439.8877,75.6094" style="stroke:#181818;stroke-width:1;"/></g><g class="participant participant-head" data-participant="ReportRepository"><text fill="#000000" font-family="sans-serif" font-size="14" font-weight="bold" lengthAdjust="spacing" textLength="53.6621" x="529.7529" y="118.1426">: Report</text><ellipse cx="559.584" cy="87.6094" fill="#E2E2F0" rx="12" ry="12" style="stroke:#181818;stroke-width:0.5;"/><line style="stroke:#181818;stroke-width:0.5;" x1="547.584" x2="571.584" y1="101.6094" y2="101.6094"/></g><g><title>... ReportPage..</title><rect fill="#FFFFFF" height="346.6484" style="stroke:#181818;stroke-width:1;" width="10" x="155.7549" y="131.2188"/></g><g><title>... ReportPage..</title><rect fill="#FFFFFF" height="28" style="stroke:#181818;stroke-width:1;" width="10" x="160.7549" y="338.6797"/></g><g><title>... ReportPage..</title><rect fill="#FFFFFF" height="28" style="stroke:#181818;stroke-width:1;" width="10" x="160.7549" y="427.8672"/></g><g><title>... ReportController..</title><rect fill="#FFFFFF" height="91.0547" style="stroke:#181818;stroke-width:1;" width="10" x="438.8877" y="183.9219"/></g><g><title>... Report..</title><rect fill="#FFFFFF" height="30.3516" style="stroke:#181818;stroke-width:1;" width="10" x="554.584" y="214.2734"/></g><g class="message" data-participant-1="User" data-participant-2="ReportPage"><polygon fill="#181818" points="143.7549,149.5703,153.7549,153.5703,143.7549,157.5703,147.7549,153.5703" style="stroke:#181818;stroke-width:1;"/><line style="stroke:#181818;stroke-width:1;" x1="37.8413" x2="149.7549" y1="153.5703" y2="153.5703"/><text fill="#000000" font-family="sans-serif" font-size="13" lengthAdjust="spacing" textLength="93.9136" x="44.8413" y="148.7139">viewReportList()</text></g><g class="message" data-participant-1="ReportPage" data-participant-2="ReportController"><polygon fill="#181818" points="426.8877,179.9219,436.8877,183.9219,426.8877,187.9219,430.8877,183.9219" style="stroke:#181818;stroke-width:1;"/><line style="stroke:#181818;stroke-width:1;" x1="165.7549" x2="432.8877" y1="183.9219" y2="183.9219"/><text fill="#000000" font-family="sans-serif" font-size="13" lengthAdjust="spacing" textLength="96.0908" x="172.7549" y="179.0654">fetchReportList()</text></g><g class="message" data-participant-1="ReportController" data-participant-2="ReportRepository"><polygon fill="#181818" points="542.584,210.2734,552.584,214.2734,542.584,218.2734,546.584,214.2734" style="stroke:#181818;stroke-width:1;"/><line style="stroke:#181818;stroke-width:1;" x1="448.8877" x2="548.584" y1="214.2734" y2="214.2734"/><text fill="#000000" font-family="sans-serif" font-size="13" lengthAdjust="spacing" textLength="86.6963" x="455.8877" y="209.417">getAllReports()</text></g><g class="message" data-participant-1="ReportRepository" data-participant-2="ReportController"><polygon fill="#181818" points="459.8877,240.625,449.8877,244.625,459.8877,248.625,455.8877,244.625" style="stroke:#181818;stroke-width:1;"/><line style="stroke:#181818;stroke-width:1;stroke-dasharray:2,2;" x1="453.8877" x2="558.584" y1="244.625" y2="244.625"/><text fill="#000000" font-family="sans-serif" font-size="13" lengthAdjust="spacing" textLength="54.1899" x="465.8877" y="239.7686">reportList</text></g><g class="message" data-participant-1="ReportController" data-participant-2="ReportPage"><polygon fill="#181818" points="176.7549,270.9766,166.7549,274.9766,176.7549,278.9766,172.7549,274.9766" style="stroke:#181818;stroke-width:1;"/><line style="stroke:#181818;stroke-width:1;stroke-dasharray:2,2;" x1="170.7549" x2="442.8877" y1="274.9766" y2="274.9766"/><text fill="#000000" font-family="sans-serif" font-size="13" lengthAdjust="spacing" textLength="54.1899" x="182.7549" y="270.1201">reportList</text></g><path d="M104.1929,289.9766 L164.3638,289.9766 L164.3638,298.3281 L154.3638,308.3281 L104.1929,308.3281 L104.1929,289.9766" fill="#EEEEEE" style="stroke:#000000;stroke-width:1.5;"/><rect fill="none" height="180.8906" style="stroke:#000000;stroke-width:1.5;" width="344.6948" x="104.1929" y="289.9766"/><text fill="#000000" font-family="sans-serif" font-size="13" font-weight="bold" lengthAdjust="spacing" textLength="15.1709" x="119.1929" y="304.4717">alt</text><text fill="#000000" font-family="sans-serif" font-size="11" font-weight="bold" lengthAdjust="spacing" textLength="116.0962" x="179.3638" y="303.3955">[No report data found]</text><g class="message" data-participant-1="ReportPage" data-participant-2="ReportPage"><line style="stroke:#181818;stroke-width:1;" x1="170.7549" x2="212.7549" y1="330.6797" y2="330.6797"/><line style="stroke:#181818;stroke-width:1;" x1="212.7549" x2="212.7549" y1="330.6797" y2="343.6797"/><line style="stroke:#181818;stroke-width:1;" x1="171.7549" x2="212.7549" y1="343.6797" y2="343.6797"/><polygon fill="#181818" points="181.7549,339.6797,171.7549,343.6797,181.7549,347.6797,177.7549,343.6797" style="stroke:#181818;stroke-width:1;"/><text fill="#000000" font-family="sans-serif" font-size="13" lengthAdjust="spacing" textLength="249.1328" x="177.7549" y="325.8232">displayMessage("No report data available")</text></g><line style="stroke:#000000;stroke-width:1;stroke-dasharray:2,2;" x1="104.1929" x2="448.8877" y1="382.6797" y2="382.6797"/><text fill="#000000" font-family="sans-serif" font-size="11" font-weight="bold" lengthAdjust="spacing" textLength="82.4839" x="109.1929" y="394.0986">[Reports found]</text><g class="message" data-participant-1="ReportPage" data-participant-2="ReportPage"><line style="stroke:#181818;stroke-width:1;" x1="170.7549" x2="212.7549" y1="419.8672" y2="419.8672"/><line style="stroke:#181818;stroke-width:1;" x1="212.7549" x2="212.7549" y1="419.8672" y2="432.8672"/><line style="stroke:#181818;stroke-width:1;" x1="171.7549" x2="212.7549" y1="432.8672" y2="432.8672"/><polygon fill="#181818" points="181.7549,428.8672,171.7549,432.8672,181.7549,436.8672,177.7549,432.8672" style="stroke:#181818;stroke-width:1;"/><text fill="#000000" font-family="sans-serif" font-size="13" lengthAdjust="spacing" textLength="162.5635" x="177.7549" y="415.0107">displayReportList(reportList)</text></g><!--SRC=[dP9BJiGm38RtFeNLrKoakS0ia10i0OsGE83Rk3EHCiqeCONUdlH1cpv0WYogzBVz-ukJAvcgz7HbL2fefV2HIY7_oZVd1Iv6CvREIUu-0QWGvp5JweXlWRrI6LBejf2xzqgJR_feNtsYCmyvam25gyGxcoO-z98TBPSoS2L6PkQppFORJ8HhEaXJat3Q4rf6FDmb6XwnDlpH2qyco6uFINJCdI1YHSbIN6ObYsu9CgpgHyy9DtgUMUwjxGDXxPWSRLLysARq8o1e_jbk0t0veT-SqgEI5NnnGpfg4egF9Zu8mBYsfZhuQnDkbffd3Y4AkspXGJKPIxdbRDyvRLrjgw_OkWZRyFqV_eIJNF0qW7yHn9Qm6Ve2]--></g></svg>