<svg xmlns="http://www.w3.org/2000/svg" xmlns:xlink="http://www.w3.org/1999/xlink" contentStyleType="text/css" data-diagram-type="SEQUENCE" height="317px" preserveAspectRatio="none" style="width:592px;height:317px;background:#FFFFFF;" version="1.1" viewBox="0 0 592 317" width="592px" zoomAndPan="magnify"><defs/><g><rect fill="#FFFFFF" height="296.5859" style="stroke:#181818;stroke-width:1.5;" width="581.2065" x="5" y="15"/><path d="M113.041,15 L113.041,25.6094 L103.041,35.6094 L5,35.6094" fill="none" style="stroke:#181818;stroke-width:1.5;"/><text fill="#000000" font-family="sans-serif" font-size="14" font-weight="bold" lengthAdjust="spacing" textLength="16.3379" x="8" y="30.5332">sd</text><text fill="#000000" font-family="sans-serif" font-size="14" lengthAdjust="spacing" textLength="77.8135" x="28.2275" y="30.5332">DetailReport</text><g><title>... ReportPage..</title><rect fill="#FFFFFF" height="121.4063" style="stroke:#181818;stroke-width:1;" width="10" x="185.4385" y="153.5703"/></g><g><title>... ReportController..</title><rect fill="#FFFFFF" height="91.0547" style="stroke:#181818;stroke-width:1;" width="10" x="370.4956" y="183.9219"/></g><g><title>... Report..</title><rect fill="#FFFFFF" height="30.3516" style="stroke:#181818;stroke-width:1;" width="10" x="540.3755" y="214.2734"/></g><g><title>... User..</title><rect fill="#000000" fill-opacity="0.00000" height="171.7578" width="8" x="33.8413" y="121.2188"/><line style="stroke:#181818;stroke-width:0.5;stroke-dasharray:5,5;" x1="37" x2="37" y1="121.2188" y2="292.9766"/></g><g><title>... ReportPage..</title><rect fill="#000000" fill-opacity="0.00000" height="171.7578" width="8" x="186.4385" y="121.2188"/><line style="stroke:#181818;stroke-width:0.5;stroke-dasharray:5,5;" x1="189.8765" x2="189.8765" y1="121.2188" y2="292.9766"/></g><g><title>... ReportController..</title><rect fill="#000000" fill-opacity="0.00000" height="171.7578" width="8" x="371.4956" y="121.2188"/><line style="stroke:#181818;stroke-width:0.5;stroke-dasharray:5,5;" x1="375.2197" x2="375.2197" y1="121.2188" y2="292.9766"/></g><g><title>... Report..</title><rect fill="#000000" fill-opacity="0.00000" height="171.7578" width="8" x="541.3755" y="121.2188"/><line style="stroke:#181818;stroke-width:0.5;stroke-dasharray:5,5;" x1="544.5444" x2="544.5444" y1="121.2188" y2="292.9766"/></g><g class="participant participant-head" data-participant="User"><text fill="#000000" font-family="sans-serif" font-size="14" font-weight="bold" lengthAdjust="spacing" textLength="39.6826" x="15" y="118.1426">: User</text><ellipse cx="37.8413" cy="52.1094" fill="#E2E2F0" rx="8" ry="8" style="stroke:#181818;stroke-width:0.5;"/><path d="M37.8413,60.1094 L37.8413,87.1094 M24.8413,68.1094 L50.8413,68.1094 M37.8413,87.1094 L24.8413,102.1094 M37.8413,87.1094 L50.8413,102.1094" fill="none" style="stroke:#181818;stroke-width:0.5;"/></g><g class="participant participant-head" data-participant="ReportListPage"><text fill="#000000" font-family="sans-serif" font-size="14" font-weight="bold" lengthAdjust="spacing" textLength="87.124" x="143.8765" y="118.1426">: ReportPage</text><path d="M169.9385,75.6094 L169.9385,99.6094 M169.9385,87.6094 L186.9385,87.6094" fill="none" style="stroke:#181818;stroke-width:0.5;"/><ellipse cx="198.9385" cy="87.6094" fill="#E2E2F0" rx="12" ry="12" style="stroke:#181818;stroke-width:0.5;"/></g><g class="participant participant-head" data-participant="ReportController"><text fill="#000000" font-family="sans-serif" font-size="14" font-weight="bold" lengthAdjust="spacing" textLength="120.5518" x="312.2197" y="118.1426">: ReportController</text><ellipse cx="375.4956" cy="87.6094" fill="#E2E2F0" rx="12" ry="12" style="stroke:#181818;stroke-width:0.5;"/><polygon fill="#181818" points="371.4956,75.6094,377.4956,70.6094,375.4956,75.6094,377.4956,80.6094,371.4956,75.6094" style="stroke:#181818;stroke-width:1;"/></g><g class="participant participant-head" data-participant="ReportRepository"><text fill="#000000" font-family="sans-serif" font-size="14" font-weight="bold" lengthAdjust="spacing" textLength="53.6621" x="515.5444" y="118.1426">: Report</text><ellipse cx="545.3755" cy="87.6094" fill="#E2E2F0" rx="12" ry="12" style="stroke:#181818;stroke-width:0.5;"/><line style="stroke:#181818;stroke-width:0.5;" x1="533.3755" x2="557.3755" y1="101.6094" y2="101.6094"/></g><g><title>... ReportPage..</title><rect fill="#FFFFFF" height="121.4063" style="stroke:#181818;stroke-width:1;" width="10" x="185.4385" y="153.5703"/></g><g><title>... ReportController..</title><rect fill="#FFFFFF" height="91.0547" style="stroke:#181818;stroke-width:1;" width="10" x="370.4956" y="183.9219"/></g><g><title>... Report..</title><rect fill="#FFFFFF" height="30.3516" style="stroke:#181818;stroke-width:1;" width="10" x="540.3755" y="214.2734"/></g><g class="message" data-participant-1="User" data-participant-2="ReportListPage"><polygon fill="#181818" points="173.4385,149.5703,183.4385,153.5703,173.4385,157.5703,177.4385,153.5703" style="stroke:#181818;stroke-width:1;"/><line style="stroke:#181818;stroke-width:1;" x1="37.8413" x2="179.4385" y1="153.5703" y2="153.5703"/><text fill="#000000" font-family="sans-serif" font-size="13" lengthAdjust="spacing" textLength="128.5972" x="44.8413" y="148.7139">selectReport(reportID)</text></g><g class="message" data-participant-1="ReportListPage" data-participant-2="ReportController"><polygon fill="#181818" points="358.4956,179.9219,368.4956,183.9219,358.4956,187.9219,362.4956,183.9219" style="stroke:#181818;stroke-width:1;"/><line style="stroke:#181818;stroke-width:1;" x1="195.4385" x2="364.4956" y1="183.9219" y2="183.9219"/><text fill="#000000" font-family="sans-serif" font-size="13" lengthAdjust="spacing" textLength="156.0571" x="202.4385" y="179.0654">fetchReportDetail(reportID)</text></g><g class="message" data-participant-1="ReportController" data-participant-2="ReportRepository"><polygon fill="#181818" points="528.3755,210.2734,538.3755,214.2734,528.3755,218.2734,532.3755,214.2734" style="stroke:#181818;stroke-width:1;"/><line style="stroke:#181818;stroke-width:1;" x1="380.4956" x2="534.3755" y1="214.2734" y2="214.2734"/><text fill="#000000" font-family="sans-serif" font-size="13" lengthAdjust="spacing" textLength="140.8799" x="387.4956" y="209.417">getReportByID(reportID)</text></g><g class="message" data-participant-1="ReportRepository" data-participant-2="ReportController"><polygon fill="#181818" points="391.4956,240.625,381.4956,244.625,391.4956,248.625,387.4956,244.625" style="stroke:#181818;stroke-width:1;"/><line style="stroke:#181818;stroke-width:1;stroke-dasharray:2,2;" x1="385.4956" x2="544.3755" y1="244.625" y2="244.625"/><text fill="#000000" font-family="sans-serif" font-size="13" lengthAdjust="spacing" textLength="61.4199" x="397.4956" y="239.7686">reportData</text></g><g class="message" data-participant-1="ReportController" data-participant-2="ReportListPage"><polygon fill="#181818" points="201.4385,270.9766,191.4385,274.9766,201.4385,278.9766,197.4385,274.9766" style="stroke:#181818;stroke-width:1;"/><line style="stroke:#181818;stroke-width:1;stroke-dasharray:2,2;" x1="195.4385" x2="374.4956" y1="274.9766" y2="274.9766"/><text fill="#000000" font-family="sans-serif" font-size="13" lengthAdjust="spacing" textLength="61.4199" x="207.4385" y="270.1201">reportData</text></g><!--SRC=[VP71ReCm38RlVWghXwsDn2Is6uSUDYxLLccQj0SmO6W4JQeadSRRBv2EKcXxYU6t-VB_PazIbORsZ4BOGWXCsP5illYWZOETB1XBhLscVm4eTzhWGeW4loqR8HP8jd-4J1zLGQODtV3r9rLycWd2XxIz2BbMpkXcFFmMf6R0JcLWvQIxkE1YiZkjz0PRWCuIHkl9jPYWvOPp5-IbwSicNNN1v0yvdlg42M10dcrvQCaktmKzBEysUHG7PgI1VexYwHMV_Bwsc_GsUHp_4T-ruTfAt7hdL3E-F3t7-E1B72UuPLLLHqKrAJomzMT63NLr6KNh5HQ-xr-KR4Z2p55qVGd1M4gEeE0xtkQfh_sdUxJn3kVTVyWV]--></g></svg>