<svg xmlns="http://www.w3.org/2000/svg" xmlns:xlink="http://www.w3.org/1999/xlink" contentStyleType="text/css" data-diagram-type="SEQUENCE" height="317px" preserveAspectRatio="none" style="width:491px;height:317px;background:#FFFFFF;" version="1.1" viewBox="0 0 491 317" width="491px" zoomAndPan="magnify"><defs/><g><rect fill="#FFFFFF" height="296.5859" style="stroke:#181818;stroke-width:1.5;" width="480.0771" x="5" y="15"/><path d="M95.1445,15 L95.1445,25.6094 L85.1445,35.6094 L5,35.6094" fill="none" style="stroke:#181818;stroke-width:1.5;"/><text fill="#000000" font-family="sans-serif" font-size="14" font-weight="bold" lengthAdjust="spacing" textLength="16.3379" x="8" y="30.5332">sd</text><text fill="#000000" font-family="sans-serif" font-size="14" lengthAdjust="spacing" textLength="59.917" x="28.2275" y="30.5332">DetailTag</text><g><title>... TagPage..</title><rect fill="#FFFFFF" height="121.4063" style="stroke:#181818;stroke-width:1;" width="10" x="152.9321" y="153.5703"/></g><g><title>... TagController..</title><rect fill="#FFFFFF" height="91.0547" style="stroke:#181818;stroke-width:1;" width="10" x="311.9829" y="183.9219"/></g><g><title>... Tag..</title><rect fill="#FFFFFF" height="30.3516" style="stroke:#181818;stroke-width:1;" width="10" x="449.3564" y="214.2734"/></g><g><title>... User..</title><rect fill="#000000" fill-opacity="0.00000" height="171.7578" width="8" x="33.8413" y="121.2188"/><line style="stroke:#181818;stroke-width:0.5;stroke-dasharray:5,5;" x1="37" x2="37" y1="121.2188" y2="292.9766"/></g><g><title>... TagPage..</title><rect fill="#000000" fill-opacity="0.00000" height="171.7578" width="8" x="153.9321" y="121.2188"/><line style="stroke:#181818;stroke-width:0.5;stroke-dasharray:5,5;" x1="157.4805" x2="157.4805" y1="121.2188" y2="292.9766"/></g><g><title>... TagController..</title><rect fill="#000000" fill-opacity="0.00000" height="171.7578" width="8" x="312.9829" y="121.2188"/><line style="stroke:#181818;stroke-width:0.5;stroke-dasharray:5,5;" x1="316.8174" x2="316.8174" y1="121.2188" y2="292.9766"/></g><g><title>... Tag..</title><rect fill="#000000" fill-opacity="0.00000" height="171.7578" width="8" x="450.3564" y="121.2188"/><line style="stroke:#181818;stroke-width:0.5;stroke-dasharray:5,5;" x1="453.6357" x2="453.6357" y1="121.2188" y2="292.9766"/></g><g class="participant participant-head" data-participant="User"><text fill="#000000" font-family="sans-serif" font-size="14" font-weight="bold" lengthAdjust="spacing" textLength="39.6826" x="15" y="118.1426">: User</text><ellipse cx="37.8413" cy="52.1094" fill="#E2E2F0" rx="8" ry="8" style="stroke:#181818;stroke-width:0.5;"/><path d="M37.8413,60.1094 L37.8413,87.1094 M24.8413,68.1094 L50.8413,68.1094 M37.8413,87.1094 L24.8413,102.1094 M37.8413,87.1094 L50.8413,102.1094" fill="none" style="stroke:#181818;stroke-width:0.5;"/></g><g class="participant participant-head" data-participant="TagPage"><text fill="#000000" font-family="sans-serif" font-size="14" font-weight="bold" lengthAdjust="spacing" textLength="66.9033" x="121.4805" y="118.1426">: TagPage</text><path d="M137.4321,75.6094 L137.4321,99.6094 M137.4321,87.6094 L154.4321,87.6094" fill="none" style="stroke:#181818;stroke-width:0.5;"/><ellipse cx="166.4321" cy="87.6094" fill="#E2E2F0" rx="12" ry="12" style="stroke:#181818;stroke-width:0.5;"/></g><g class="participant participant-head" data-participant="TagController"><text fill="#000000" font-family="sans-serif" font-size="14" font-weight="bold" lengthAdjust="spacing" textLength="100.3311" x="263.8174" y="118.1426">: TagController</text><ellipse cx="316.9829" cy="87.6094" fill="#E2E2F0" rx="12" ry="12" style="stroke:#181818;stroke-width:0.5;"/><polygon fill="#181818" points="312.9829,75.6094,318.9829,70.6094,316.9829,75.6094,318.9829,80.6094,312.9829,75.6094" style="stroke:#181818;stroke-width:1;"/></g><g class="participant participant-head" data-participant="TagRepository"><text fill="#000000" font-family="sans-serif" font-size="14" font-weight="bold" lengthAdjust="spacing" textLength="33.4414" x="434.6357" y="118.1426">: Tag</text><ellipse cx="454.3564" cy="87.6094" fill="#E2E2F0" rx="12" ry="12" style="stroke:#181818;stroke-width:0.5;"/><line style="stroke:#181818;stroke-width:0.5;" x1="442.3564" x2="466.3564" y1="101.6094" y2="101.6094"/></g><g><title>... TagPage..</title><rect fill="#FFFFFF" height="121.4063" style="stroke:#181818;stroke-width:1;" width="10" x="152.9321" y="153.5703"/></g><g><title>... TagController..</title><rect fill="#FFFFFF" height="91.0547" style="stroke:#181818;stroke-width:1;" width="10" x="311.9829" y="183.9219"/></g><g><title>... Tag..</title><rect fill="#FFFFFF" height="30.3516" style="stroke:#181818;stroke-width:1;" width="10" x="449.3564" y="214.2734"/></g><g class="message" data-participant-1="User" data-participant-2="TagPage"><polygon fill="#181818" points="140.9321,149.5703,150.9321,153.5703,140.9321,157.5703,144.9321,153.5703" style="stroke:#181818;stroke-width:1;"/><line style="stroke:#181818;stroke-width:1;" x1="37.8413" x2="146.9321" y1="153.5703" y2="153.5703"/><text fill="#000000" font-family="sans-serif" font-size="13" lengthAdjust="spacing" textLength="96.0908" x="44.8413" y="148.7139">selectTag(tagID)</text></g><g class="message" data-participant-1="TagPage" data-participant-2="TagController"><polygon fill="#181818" points="299.9829,179.9219,309.9829,183.9219,299.9829,187.9219,303.9829,183.9219" style="stroke:#181818;stroke-width:1;"/><line style="stroke:#181818;stroke-width:1;" x1="162.9321" x2="305.9829" y1="183.9219" y2="183.9219"/><text fill="#000000" font-family="sans-serif" font-size="13" lengthAdjust="spacing" textLength="130.0508" x="169.9321" y="179.0654">fetchTagDetails(tagID)</text></g><g class="message" data-participant-1="TagController" data-participant-2="TagRepository"><polygon fill="#181818" points="437.3564,210.2734,447.3564,214.2734,437.3564,218.2734,441.3564,214.2734" style="stroke:#181818;stroke-width:1;"/><line style="stroke:#181818;stroke-width:1;" x1="321.9829" x2="443.3564" y1="214.2734" y2="214.2734"/><text fill="#000000" font-family="sans-serif" font-size="13" lengthAdjust="spacing" textLength="108.3735" x="328.9829" y="209.417">getTagByID(tagID)</text></g><g class="message" data-participant-1="TagRepository" data-participant-2="TagController"><polygon fill="#181818" points="332.9829,240.625,322.9829,244.625,332.9829,248.625,328.9829,244.625" style="stroke:#181818;stroke-width:1;"/><line style="stroke:#181818;stroke-width:1;stroke-dasharray:2,2;" x1="326.9829" x2="453.3564" y1="244.625" y2="244.625"/><text fill="#000000" font-family="sans-serif" font-size="13" lengthAdjust="spacing" textLength="45.5317" x="338.9829" y="239.7686">tagData</text></g><g class="message" data-participant-1="TagController" data-participant-2="TagPage"><polygon fill="#181818" points="168.9321,270.9766,158.9321,274.9766,168.9321,278.9766,164.9321,274.9766" style="stroke:#181818;stroke-width:1;"/><line style="stroke:#181818;stroke-width:1;stroke-dasharray:2,2;" x1="162.9321" x2="315.9829" y1="274.9766" y2="274.9766"/><text fill="#000000" font-family="sans-serif" font-size="13" lengthAdjust="spacing" textLength="45.5317" x="174.9321" y="270.1201">tagData</text></g><!--SRC=[VP0z3i8m38Ltdy9YWaXSe0C3T65320xWjcw9L1gK64HlJqBwYogsE7xlyxFlf9lIqfrHALSeXIaBwVf25IBSTC5O6YEPUGDGBiRYIga4huwjKYiaztr2PfvDGRQDNMy-KSMTeAiWDurOKm-IGwphWJJx0sv4omWSDMT-6ATzb1OW3CVjhf-12JgkEHTVhuMgOxe9gVMBX8SSq8kZRnpftILBVlEVyGXkYJ6927Dxv8tnFA_Y46NV7jCbr7IJkNExaCq3KXA2Wlymfd5cTrbsJvVvQGNV1m00]--></g></svg>