<svg xmlns="http://www.w3.org/2000/svg" xmlns:xlink="http://www.w3.org/1999/xlink" contentStyleType="text/css" data-diagram-type="SEQUENCE" height="360px" preserveAspectRatio="none" style="width:671px;height:360px;background:#FFFFFF;" version="1.1" viewBox="0 0 671 360" width="671px" zoomAndPan="magnify"><defs/><g><rect fill="#FFFFFF" height="339.9375" style="stroke:#181818;stroke-width:1.5;" width="660.0571" x="5" y="15"/><path d="M134.0547,15 L134.0547,25.6094 L124.0547,35.6094 L5,35.6094" fill="none" style="stroke:#181818;stroke-width:1.5;"/><text fill="#000000" font-family="sans-serif" font-size="14" font-weight="bold" lengthAdjust="spacing" textLength="16.3379" x="8" y="30.5332">sd</text><text fill="#000000" font-family="sans-serif" font-size="14" lengthAdjust="spacing" textLength="98.8271" x="28.2275" y="30.5332">DetailTagGroup</text><g><title>... TagGroupPage..</title><rect fill="#FFFFFF" height="173.7578" style="stroke:#181818;stroke-width:1;" width="10" x="225.1938" y="153.5703"/></g><g><title>... TagGroupPage..</title><rect fill="#FFFFFF" height="14" style="stroke:#181818;stroke-width:1;" width="10" x="230.1938" y="313.3281"/></g><g><title>... TagGroupController..</title><rect fill="#FFFFFF" height="91.0547" style="stroke:#181818;stroke-width:1;" width="10" x="456.5063" y="183.9219"/></g><g><title>... TagGroup..</title><rect fill="#FFFFFF" height="30.3516" style="stroke:#181818;stroke-width:1;" width="10" x="608.3398" y="214.2734"/></g><g><title>... User..</title><rect fill="#000000" fill-opacity="0.00000" height="215.1094" width="8" x="33.8413" y="121.2188"/><line style="stroke:#181818;stroke-width:0.5;stroke-dasharray:5,5;" x1="37" x2="37" y1="121.2188" y2="336.3281"/></g><g><title>... TagGroupPage..</title><rect fill="#000000" fill-opacity="0.00000" height="215.1094" width="8" x="226.1938" y="121.2188"/><line style="stroke:#181818;stroke-width:0.5;stroke-dasharray:5,5;" x1="229.7456" x2="229.7456" y1="121.2188" y2="336.3281"/></g><g><title>... TagGroupController..</title><rect fill="#000000" fill-opacity="0.00000" height="215.1094" width="8" x="457.5063" y="121.2188"/><line style="stroke:#181818;stroke-width:0.5;stroke-dasharray:5,5;" x1="461.3442" x2="461.3442" y1="121.2188" y2="336.3281"/></g><g><title>... TagGroup..</title><rect fill="#000000" fill-opacity="0.00000" height="215.1094" width="8" x="609.3398" y="121.2188"/><line style="stroke:#181818;stroke-width:0.5;stroke-dasharray:5,5;" x1="612.6226" x2="612.6226" y1="121.2188" y2="336.3281"/></g><g class="participant participant-head" data-participant="User"><text fill="#000000" font-family="sans-serif" font-size="14" font-weight="bold" lengthAdjust="spacing" textLength="39.6826" x="15" y="118.1426">: User</text><ellipse cx="37.8413" cy="52.1094" fill="#E2E2F0" rx="8" ry="8" style="stroke:#181818;stroke-width:0.5;"/><path d="M37.8413,60.1094 L37.8413,87.1094 M24.8413,68.1094 L50.8413,68.1094 M37.8413,87.1094 L24.8413,102.1094 M37.8413,87.1094 L50.8413,102.1094" fill="none" style="stroke:#181818;stroke-width:0.5;"/></g><g class="participant participant-head" data-participant="TagGroupDetailPage"><text fill="#000000" font-family="sans-serif" font-size="14" font-weight="bold" lengthAdjust="spacing" textLength="108.8965" x="172.7456" y="118.1426">: TagGroupPage</text><path d="M209.6938,75.6094 L209.6938,99.6094 M209.6938,87.6094 L226.6938,87.6094" fill="none" style="stroke:#181818;stroke-width:0.5;"/><ellipse cx="238.6938" cy="87.6094" fill="#E2E2F0" rx="12" ry="12" style="stroke:#181818;stroke-width:0.5;"/></g><g class="participant participant-head" data-participant="TagGroupController"><text fill="#000000" font-family="sans-serif" font-size="14" font-weight="bold" lengthAdjust="spacing" textLength="142.3242" x="387.3442" y="118.1426">: TagGroupController</text><ellipse cx="461.5063" cy="87.6094" fill="#E2E2F0" rx="12" ry="12" style="stroke:#181818;stroke-width:0.5;"/><polygon fill="#181818" points="457.5063,75.6094,463.5063,70.6094,461.5063,75.6094,463.5063,80.6094,457.5063,75.6094" style="stroke:#181818;stroke-width:1;"/></g><g class="participant participant-head" data-participant="TagGroupRepository"><text fill="#000000" font-family="sans-serif" font-size="14" font-weight="bold" lengthAdjust="spacing" textLength="75.4346" x="572.6226" y="118.1426">: TagGroup</text><ellipse cx="613.3398" cy="87.6094" fill="#E2E2F0" rx="12" ry="12" style="stroke:#181818;stroke-width:0.5;"/><line style="stroke:#181818;stroke-width:0.5;" x1="601.3398" x2="625.3398" y1="101.6094" y2="101.6094"/></g><g><title>... TagGroupPage..</title><rect fill="#FFFFFF" height="173.7578" style="stroke:#181818;stroke-width:1;" width="10" x="225.1938" y="153.5703"/></g><g><title>... TagGroupPage..</title><rect fill="#FFFFFF" height="14" style="stroke:#181818;stroke-width:1;" width="10" x="230.1938" y="313.3281"/></g><g><title>... TagGroupController..</title><rect fill="#FFFFFF" height="91.0547" style="stroke:#181818;stroke-width:1;" width="10" x="456.5063" y="183.9219"/></g><g><title>... TagGroup..</title><rect fill="#FFFFFF" height="30.3516" style="stroke:#181818;stroke-width:1;" width="10" x="608.3398" y="214.2734"/></g><g class="message" data-participant-1="User" data-participant-2="TagGroupDetailPage"><polygon fill="#181818" points="213.1938,149.5703,223.1938,153.5703,213.1938,157.5703,217.1938,153.5703" style="stroke:#181818;stroke-width:1;"/><line style="stroke:#181818;stroke-width:1;" x1="37.8413" x2="219.1938" y1="153.5703" y2="153.5703"/><text fill="#000000" font-family="sans-serif" font-size="13" lengthAdjust="spacing" textLength="168.3525" x="44.8413" y="148.7139">selectTagGroup(tagGroupID)</text></g><g class="message" data-participant-1="TagGroupDetailPage" data-participant-2="TagGroupController"><polygon fill="#181818" points="444.5063,179.9219,454.5063,183.9219,444.5063,187.9219,448.5063,183.9219" style="stroke:#181818;stroke-width:1;"/><line style="stroke:#181818;stroke-width:1;" x1="235.1938" x2="450.5063" y1="183.9219" y2="183.9219"/><text fill="#000000" font-family="sans-serif" font-size="13" lengthAdjust="spacing" textLength="202.3125" x="242.1938" y="179.0654">fetchTagGroupDetails(tagGroupID)</text></g><g class="message" data-participant-1="TagGroupController" data-participant-2="TagGroupRepository"><polygon fill="#181818" points="596.3398,210.2734,606.3398,214.2734,596.3398,218.2734,600.3398,214.2734" style="stroke:#181818;stroke-width:1;"/><line style="stroke:#181818;stroke-width:1;" x1="466.5063" x2="602.3398" y1="214.2734" y2="214.2734"/><text fill="#000000" font-family="sans-serif" font-size="13" lengthAdjust="spacing" textLength="122.8335" x="473.5063" y="209.417">findById(tagGroupID)</text></g><g class="message" data-participant-1="TagGroupRepository" data-participant-2="TagGroupController"><polygon fill="#181818" points="477.5063,240.625,467.5063,244.625,477.5063,248.625,473.5063,244.625" style="stroke:#181818;stroke-width:1;"/><line style="stroke:#181818;stroke-width:1;stroke-dasharray:2,2;" x1="471.5063" x2="612.3398" y1="244.625" y2="244.625"/><text fill="#000000" font-family="sans-serif" font-size="13" lengthAdjust="spacing" textLength="81.6626" x="483.5063" y="239.7686">tagGroupData</text></g><g class="message" data-participant-1="TagGroupController" data-participant-2="TagGroupDetailPage"><polygon fill="#181818" points="246.1938,270.9766,236.1938,274.9766,246.1938,278.9766,242.1938,274.9766" style="stroke:#181818;stroke-width:1;"/><line style="stroke:#181818;stroke-width:1;stroke-dasharray:2,2;" x1="240.1938" x2="460.5063" y1="274.9766" y2="274.9766"/><text fill="#000000" font-family="sans-serif" font-size="13" lengthAdjust="spacing" textLength="81.6626" x="252.1938" y="270.1201">tagGroupData</text></g><g class="message" data-participant-1="TagGroupDetailPage" data-participant-2="TagGroupDetailPage"><line style="stroke:#181818;stroke-width:1;" x1="235.1938" x2="282.1938" y1="300.3281" y2="300.3281"/><line style="stroke:#181818;stroke-width:1;" x1="282.1938" x2="282.1938" y1="300.3281" y2="313.3281"/><line style="stroke:#181818;stroke-width:1;" x1="241.1938" x2="282.1938" y1="313.3281" y2="313.3281"/><polygon fill="#181818" points="251.1938,309.3281,241.1938,313.3281,251.1938,317.3281,247.1938,313.3281" style="stroke:#181818;stroke-width:1;"/><text fill="#000000" font-family="sans-serif" font-size="13" lengthAdjust="spacing" textLength="167.6353" x="247.1938" y="295.4717">renderDetails(tagGroupData)</text></g><!--SRC=[XP9BJiCm48RtFiMe6y1IBz052wY4kgiGFS0qdgGMgHti2IAtnyw3s2LjTzQyld_czncrAHsU2QJqIahO4gEkFx1wSxPjn4ahWj9QFjeV8R1Wws0bvGOEdfoKAq3VFyNHjaQXwuRirB_7YiQgAJG0Oa8Krh2pTTxoEWJhl_7_4u8CQ-uWRxmeVwV6UXtqTa8yz1h1Kqq5Uq1WhA2ALL0wUuR3JlG5w-S5cR0P6wVK8u-FtVOfdaH_8zFIVe7R3t3qrP8FODNd_00jvdqMe8cKUV4WfIGkJdczloqekLiGb0n3_-c3jkbCmMO72Xd50ZYHCnysoj56lNGxTLj2xaKom16tplWSc-JNryumuRQnKT4TOjAQ4e4jDD6efOMl_OLxvFpSe_z6aPlj3zZMtxKzemuZBlsE6cv_mLy0]--></g></svg>