<svg xmlns="http://www.w3.org/2000/svg" xmlns:xlink="http://www.w3.org/1999/xlink" contentStyleType="text/css" data-diagram-type="SEQUENCE" height="573px" preserveAspectRatio="none" style="width:661px;height:573px;background:#FFFFFF;" version="1.1" viewBox="0 0 661 573" width="661px" zoomAndPan="magnify"><defs/><g><rect fill="#FFFFFF" height="552.1797" style="stroke:#181818;stroke-width:1.5;" width="650.3901" x="5" y="15"/><path d="M117.7168,15 L117.7168,25.6094 L107.7168,35.6094 L5,35.6094" fill="none" style="stroke:#181818;stroke-width:1.5;"/><text fill="#000000" font-family="sans-serif" font-size="14" font-weight="bold" lengthAdjust="spacing" textLength="16.3379" x="8" y="30.5332">sd</text><text fill="#000000" font-family="sans-serif" font-size="14" lengthAdjust="spacing" textLength="82.4893" x="28.2275" y="30.5332">HapusReport</text><g><title>... Report Page..</title><rect fill="#FFFFFF" height="363" style="stroke:#181818;stroke-width:1;" width="10" x="212.6558" y="153.5703"/></g><g><title>... Report Page..</title><rect fill="#FFFFFF" height="28" style="stroke:#181818;stroke-width:1;" width="10" x="217.6558" y="191.9219"/></g><g><title>... Report Page..</title><rect fill="#FFFFFF" height="28" style="stroke:#181818;stroke-width:1;" width="10" x="217.6558" y="488.5703"/></g><g><title>... ReportController..</title><rect fill="#FFFFFF" height="91.0547" style="stroke:#181818;stroke-width:1;" width="10" x="406.3311" y="359.1641"/></g><g><title>... Report..</title><rect fill="#FFFFFF" height="30.3516" style="stroke:#181818;stroke-width:1;" width="10" x="593.5591" y="389.5156"/></g><rect fill="none" height="289.6484" style="stroke:#000000;stroke-width:1.5;" width="618.3901" x="20" y="241.9219"/><g><title>... User..</title><rect fill="#000000" fill-opacity="0.00000" height="427.3516" width="8" x="48.8413" y="121.2188"/><line style="stroke:#181818;stroke-width:0.5;stroke-dasharray:5,5;" x1="52" x2="52" y1="121.2188" y2="548.5703"/></g><g><title>... Report Page..</title><rect fill="#000000" fill-opacity="0.00000" height="427.3516" width="8" x="213.6558" y="121.2188"/><line style="stroke:#181818;stroke-width:0.5;stroke-dasharray:5,5;" x1="217.1489" x2="217.1489" y1="121.2188" y2="548.5703"/></g><g><title>... ReportController..</title><rect fill="#000000" fill-opacity="0.00000" height="427.3516" width="8" x="407.3311" y="121.2188"/><line style="stroke:#181818;stroke-width:0.5;stroke-dasharray:5,5;" x1="411.0552" x2="411.0552" y1="121.2188" y2="548.5703"/></g><g><title>... Report..</title><rect fill="#000000" fill-opacity="0.00000" height="427.3516" width="8" x="594.5591" y="121.2188"/><line style="stroke:#181818;stroke-width:0.5;stroke-dasharray:5,5;" x1="597.728" x2="597.728" y1="121.2188" y2="548.5703"/></g><g class="participant participant-head" data-participant="User"><text fill="#000000" font-family="sans-serif" font-size="14" font-weight="bold" lengthAdjust="spacing" textLength="39.6826" x="30" y="118.1426">: User</text><ellipse cx="52.8413" cy="52.1094" fill="#E2E2F0" rx="8" ry="8" style="stroke:#181818;stroke-width:0.5;"/><path d="M52.8413,60.1094 L52.8413,87.1094 M39.8413,68.1094 L65.8413,68.1094 M52.8413,87.1094 L39.8413,102.1094 M52.8413,87.1094 L65.8413,102.1094" fill="none" style="stroke:#181818;stroke-width:0.5;"/></g><g class="participant participant-head" data-participant="ReportListPage"><text fill="#000000" font-family="sans-serif" font-size="14" font-weight="bold" lengthAdjust="spacing" textLength="91.0137" x="169.1489" y="118.1426">: Report Page</text><path d="M197.1558,75.6094 L197.1558,99.6094 M197.1558,87.6094 L214.1558,87.6094" fill="none" style="stroke:#181818;stroke-width:0.5;"/><ellipse cx="226.1558" cy="87.6094" fill="#E2E2F0" rx="12" ry="12" style="stroke:#181818;stroke-width:0.5;"/></g><g class="participant participant-head" data-participant="ReportController"><text fill="#000000" font-family="sans-serif" font-size="14" font-weight="bold" lengthAdjust="spacing" textLength="120.5518" x="348.0552" y="118.1426">: ReportController</text><ellipse cx="411.3311" cy="87.6094" fill="#E2E2F0" rx="12" ry="12" style="stroke:#181818;stroke-width:0.5;"/><polygon fill="#181818" points="407.3311,75.6094,413.3311,70.6094,411.3311,75.6094,413.3311,80.6094,407.3311,75.6094" style="stroke:#181818;stroke-width:1;"/></g><g class="participant participant-head" data-participant="ReportRepository"><text fill="#000000" font-family="sans-serif" font-size="14" font-weight="bold" lengthAdjust="spacing" textLength="53.6621" x="568.728" y="118.1426">: Report</text><ellipse cx="598.5591" cy="87.6094" fill="#E2E2F0" rx="12" ry="12" style="stroke:#181818;stroke-width:0.5;"/><line style="stroke:#181818;stroke-width:0.5;" x1="586.5591" x2="610.5591" y1="101.6094" y2="101.6094"/></g><g><title>... Report Page..</title><rect fill="#FFFFFF" height="363" style="stroke:#181818;stroke-width:1;" width="10" x="212.6558" y="153.5703"/></g><g><title>... Report Page..</title><rect fill="#FFFFFF" height="28" style="stroke:#181818;stroke-width:1;" width="10" x="217.6558" y="191.9219"/></g><g><title>... Report Page..</title><rect fill="#FFFFFF" height="28" style="stroke:#181818;stroke-width:1;" width="10" x="217.6558" y="488.5703"/></g><g><title>... ReportController..</title><rect fill="#FFFFFF" height="91.0547" style="stroke:#181818;stroke-width:1;" width="10" x="406.3311" y="359.1641"/></g><g><title>... Report..</title><rect fill="#FFFFFF" height="30.3516" style="stroke:#181818;stroke-width:1;" width="10" x="593.5591" y="389.5156"/></g><g class="message" data-participant-1="User" data-participant-2="ReportListPage"><polygon fill="#181818" points="200.6558,149.5703,210.6558,153.5703,200.6558,157.5703,204.6558,153.5703" style="stroke:#181818;stroke-width:1;"/><line style="stroke:#181818;stroke-width:1;" x1="52.8413" x2="206.6558" y1="153.5703" y2="153.5703"/><text fill="#000000" font-family="sans-serif" font-size="13" lengthAdjust="spacing" textLength="118.4727" x="59.8413" y="148.7139">clickDelete(reportID)</text></g><g class="message" data-participant-1="ReportListPage" data-participant-2="ReportListPage"><line style="stroke:#181818;stroke-width:1;" x1="227.6558" x2="269.6558" y1="183.9219" y2="183.9219"/><line style="stroke:#181818;stroke-width:1;" x1="269.6558" x2="269.6558" y1="183.9219" y2="196.9219"/><line style="stroke:#181818;stroke-width:1;" x1="228.6558" x2="269.6558" y1="196.9219" y2="196.9219"/><polygon fill="#181818" points="238.6558,192.9219,228.6558,196.9219,238.6558,200.9219,234.6558,196.9219" style="stroke:#181818;stroke-width:1;"/><text fill="#000000" font-family="sans-serif" font-size="13" lengthAdjust="spacing" textLength="159.6753" x="234.6558" y="179.0654">displayConfirmationDialog()</text></g><path d="M20,241.9219 L80.1709,241.9219 L80.1709,250.2734 L70.1709,260.2734 L20,260.2734 L20,241.9219" fill="#EEEEEE" style="stroke:#000000;stroke-width:1.5;"/><rect fill="none" height="289.6484" style="stroke:#000000;stroke-width:1.5;" width="618.3901" x="20" y="241.9219"/><text fill="#000000" font-family="sans-serif" font-size="13" font-weight="bold" lengthAdjust="spacing" textLength="15.1709" x="35" y="256.417">alt</text><text fill="#000000" font-family="sans-serif" font-size="11" font-weight="bold" lengthAdjust="spacing" textLength="75.2061" x="95.1709" y="255.3408">[User cancels]</text><g class="message" data-participant-1="User" data-participant-2="ReportListPage"><polygon fill="#181818" points="200.6558,278.625,210.6558,282.625,200.6558,286.625,204.6558,282.625" style="stroke:#181818;stroke-width:1;"/><line style="stroke:#181818;stroke-width:1;" x1="52.8413" x2="206.6558" y1="282.625" y2="282.625"/><text fill="#000000" font-family="sans-serif" font-size="13" lengthAdjust="spacing" textLength="83.8145" x="59.8413" y="277.7686">cancelDelete()</text></g><line style="stroke:#000000;stroke-width:1;stroke-dasharray:2,2;" x1="20" x2="638.3901" y1="291.625" y2="291.625"/><text fill="#000000" font-family="sans-serif" font-size="11" font-weight="bold" lengthAdjust="spacing" textLength="81.2969" x="25" y="303.0439">[User confirms]</text><g class="message" data-participant-1="User" data-participant-2="ReportListPage"><polygon fill="#181818" points="200.6558,324.8125,210.6558,328.8125,200.6558,332.8125,204.6558,328.8125" style="stroke:#181818;stroke-width:1;"/><line style="stroke:#181818;stroke-width:1;" x1="52.8413" x2="206.6558" y1="328.8125" y2="328.8125"/><text fill="#000000" font-family="sans-serif" font-size="13" lengthAdjust="spacing" textLength="135.8145" x="59.8413" y="323.9561">confirmDelete(reportID)</text></g><g class="message" data-participant-1="ReportListPage" data-participant-2="ReportController"><polygon fill="#181818" points="394.3311,355.1641,404.3311,359.1641,394.3311,363.1641,398.3311,359.1641" style="stroke:#181818;stroke-width:1;"/><line style="stroke:#181818;stroke-width:1;" x1="222.6558" x2="400.3311" y1="359.1641" y2="359.1641"/><text fill="#000000" font-family="sans-serif" font-size="13" lengthAdjust="spacing" textLength="130.0571" x="229.6558" y="354.3076">deleteReport(reportID)</text></g><g class="message" data-participant-1="ReportController" data-participant-2="ReportRepository"><polygon fill="#181818" points="581.5591,385.5156,591.5591,389.5156,581.5591,393.5156,585.5591,389.5156" style="stroke:#181818;stroke-width:1;"/><line style="stroke:#181818;stroke-width:1;" x1="416.3311" x2="587.5591" y1="389.5156" y2="389.5156"/><text fill="#000000" font-family="sans-serif" font-size="13" lengthAdjust="spacing" textLength="158.228" x="423.3311" y="384.6592">deleteReportByID(reportID)</text></g><g class="message" data-participant-1="ReportRepository" data-participant-2="ReportController"><polygon fill="#181818" points="427.3311,415.8672,417.3311,419.8672,427.3311,423.8672,423.3311,419.8672" style="stroke:#181818;stroke-width:1;"/><line style="stroke:#181818;stroke-width:1;stroke-dasharray:2,2;" x1="421.3311" x2="597.5591" y1="419.8672" y2="419.8672"/><text fill="#000000" font-family="sans-serif" font-size="13" lengthAdjust="spacing" textLength="72.2744" x="433.3311" y="415.0107">deleteStatus</text></g><g class="message" data-participant-1="ReportController" data-participant-2="ReportListPage"><polygon fill="#181818" points="233.6558,446.2188,223.6558,450.2188,233.6558,454.2188,229.6558,450.2188" style="stroke:#181818;stroke-width:1;"/><line style="stroke:#181818;stroke-width:1;stroke-dasharray:2,2;" x1="227.6558" x2="410.3311" y1="450.2188" y2="450.2188"/><text fill="#000000" font-family="sans-serif" font-size="13" lengthAdjust="spacing" textLength="72.2744" x="239.6558" y="445.3623">deleteStatus</text></g><g class="message" data-participant-1="ReportListPage" data-participant-2="ReportListPage"><line style="stroke:#181818;stroke-width:1;" x1="227.6558" x2="269.6558" y1="480.5703" y2="480.5703"/><line style="stroke:#181818;stroke-width:1;" x1="269.6558" x2="269.6558" y1="480.5703" y2="493.5703"/><line style="stroke:#181818;stroke-width:1;" x1="228.6558" x2="269.6558" y1="493.5703" y2="493.5703"/><polygon fill="#181818" points="238.6558,489.5703,228.6558,493.5703,238.6558,497.5703,234.6558,493.5703" style="stroke:#181818;stroke-width:1;"/><text fill="#000000" font-family="sans-serif" font-size="13" lengthAdjust="spacing" textLength="65.0254" x="234.6558" y="475.7139">reloadList()</text></g><!--SRC=[XLB1ReCm3BtdAwAUQAJ-G0yxR1nMQOTfqpx09QQBbYOeCTFu-n6284s1SeYGxVUUd-qhA5Cxk28NmaiX-2iqhV_0nZfYtqeYhwsbi_rZ32goZk-4EF8lZqw87GS__BApROq4ryLiHFDtkE1O52DlobC8iieQSbQdrIynf2VUFCpGaA8RXPlAy7hLTzWn5dhYXwTCbXzvfLNrKw96mi8DoLEv3yRKBn3cRR8ClyGebMyqT7sVjN9N86LDgK3RIx7EAt5L4JGD4-KLc0grPxp_rkqCHQEVFMCz04TuxESHFbRT3II0rhpF6mdk1sHCPFZCOhB8X3uXcmJcHMO2pzsft1P9Rs0MIGWFMpO-2QYD4xlRq39pslxYSJpaNHxBviKvr1Pa21IBGvYEQL5mFhNjD1hv3m00]--></g></svg>