<svg xmlns="http://www.w3.org/2000/svg" xmlns:xlink="http://www.w3.org/1999/xlink" contentStyleType="text/css" data-diagram-type="SEQUENCE" height="573px" preserveAspectRatio="none" style="width:705px;height:573px;background:#FFFFFF;" version="1.1" viewBox="0 0 705 573" width="705px" zoomAndPan="magnify"><defs/><g><rect fill="#FFFFFF" height="552.1797" style="stroke:#181818;stroke-width:1.5;" width="694.3047" x="5" y="15"/><path d="M130.9443,15 L130.9443,25.6094 L120.9443,35.6094 L5,35.6094" fill="none" style="stroke:#181818;stroke-width:1.5;"/><text fill="#000000" font-family="sans-serif" font-size="14" font-weight="bold" lengthAdjust="spacing" textLength="16.3379" x="8" y="30.5332">sd</text><text fill="#000000" font-family="sans-serif" font-size="14" lengthAdjust="spacing" textLength="95.7168" x="28.2275" y="30.5332">HapusGrubTag</text><g><title>... TagGroupManagementPage..</title><rect fill="#FFFFFF" height="129.0547" style="stroke:#181818;stroke-width:1;" width="10" x="227.8984" y="153.5703"/></g><g><title>... TagGroupManagementPage..</title><rect fill="#FFFFFF" height="28" style="stroke:#181818;stroke-width:1;" width="10" x="232.8984" y="191.9219"/></g><g><title>... TagGroupManagementPage..</title><rect fill="#FFFFFF" height="30.3516" style="stroke:#181818;stroke-width:1;" width="10" x="227.8984" y="328.8125"/></g><g><title>... TagGroupManagementPage..</title><rect fill="#FFFFFF" height="66.3516" style="stroke:#181818;stroke-width:1;" width="10" x="227.8984" y="450.2188"/></g><g><title>... TagGroupManagementPage..</title><rect fill="#FFFFFF" height="28" style="stroke:#181818;stroke-width:1;" width="10" x="232.8984" y="488.5703"/></g><g><title>... TagGroupController..</title><rect fill="#FFFFFF" height="91.0547" style="stroke:#181818;stroke-width:1;" width="10" x="421.5737" y="359.1641"/></g><g><title>... TagGroupRepository..</title><rect fill="#FFFFFF" height="30.3516" style="stroke:#181818;stroke-width:1;" width="10" x="590.0254" y="389.5156"/></g><rect fill="none" height="289.6484" style="stroke:#000000;stroke-width:1.5;" width="662.3047" x="20" y="241.9219"/><g><title>... User..</title><rect fill="#000000" fill-opacity="0.00000" height="427.3516" width="8" x="48.8413" y="121.2188"/><line style="stroke:#181818;stroke-width:0.5;stroke-dasharray:5,5;" x1="52" x2="52" y1="121.2188" y2="548.5703"/></g><g><title>... TagGroupManagementPage..</title><rect fill="#000000" fill-opacity="0.00000" height="427.3516" width="8" x="228.8984" y="121.2188"/><line style="stroke:#181818;stroke-width:0.5;stroke-dasharray:5,5;" x1="232.6641" x2="232.6641" y1="121.2188" y2="548.5703"/></g><g><title>... TagGroupController..</title><rect fill="#000000" fill-opacity="0.00000" height="427.3516" width="8" x="422.5737" y="121.2188"/><line style="stroke:#181818;stroke-width:0.5;stroke-dasharray:5,5;" x1="426.4116" x2="426.4116" y1="121.2188" y2="548.5703"/></g><g><title>... TagGroupRepository..</title><rect fill="#000000" fill-opacity="0.00000" height="427.3516" width="8" x="591.0254" y="121.2188"/><line style="stroke:#181818;stroke-width:0.5;stroke-dasharray:5,5;" x1="594.7461" x2="594.7461" y1="121.2188" y2="548.5703"/></g><g class="participant participant-head" data-participant="User"><text fill="#000000" font-family="sans-serif" font-size="14" font-weight="bold" lengthAdjust="spacing" textLength="39.6826" x="30" y="118.1426">: User</text><ellipse cx="52.8413" cy="52.1094" fill="#E2E2F0" rx="8" ry="8" style="stroke:#181818;stroke-width:0.5;"/><path d="M52.8413,60.1094 L52.8413,87.1094 M39.8413,68.1094 L65.8413,68.1094 M52.8413,87.1094 L39.8413,102.1094 M52.8413,87.1094 L65.8413,102.1094" fill="none" style="stroke:#181818;stroke-width:0.5;"/></g><g class="participant participant-head" data-participant="TagGroupPage"><text fill="#000000" font-family="sans-serif" font-size="14" font-weight="bold" lengthAdjust="spacing" textLength="194.4688" x="132.6641" y="118.1426">: TagGroupManagementPage</text><path d="M212.3984,75.6094 L212.3984,99.6094 M212.3984,87.6094 L229.3984,87.6094" fill="none" style="stroke:#181818;stroke-width:0.5;"/><ellipse cx="241.3984" cy="87.6094" fill="#E2E2F0" rx="12" ry="12" style="stroke:#181818;stroke-width:0.5;"/></g><g class="participant participant-head" data-participant="TagGroupController"><text fill="#000000" font-family="sans-serif" font-size="14" font-weight="bold" lengthAdjust="spacing" textLength="142.3242" x="352.4116" y="118.1426">: TagGroupController</text><ellipse cx="426.5737" cy="87.6094" fill="#E2E2F0" rx="12" ry="12" style="stroke:#181818;stroke-width:0.5;"/><polygon fill="#181818" points="422.5737,75.6094,428.5737,70.6094,426.5737,75.6094,428.5737,80.6094,422.5737,75.6094" style="stroke:#181818;stroke-width:1;"/></g><g class="participant participant-head" data-participant="TagGroupRepository"><text fill="#000000" font-family="sans-serif" font-size="14" font-weight="bold" lengthAdjust="spacing" textLength="148.5586" x="517.7461" y="118.1426">: TagGroupRepository</text><ellipse cx="595.0254" cy="87.6094" fill="#E2E2F0" rx="12" ry="12" style="stroke:#181818;stroke-width:0.5;"/><line style="stroke:#181818;stroke-width:0.5;" x1="583.0254" x2="607.0254" y1="101.6094" y2="101.6094"/></g><g><title>... TagGroupManagementPage..</title><rect fill="#FFFFFF" height="129.0547" style="stroke:#181818;stroke-width:1;" width="10" x="227.8984" y="153.5703"/></g><g><title>... TagGroupManagementPage..</title><rect fill="#FFFFFF" height="28" style="stroke:#181818;stroke-width:1;" width="10" x="232.8984" y="191.9219"/></g><g><title>... TagGroupManagementPage..</title><rect fill="#FFFFFF" height="30.3516" style="stroke:#181818;stroke-width:1;" width="10" x="227.8984" y="328.8125"/></g><g><title>... TagGroupManagementPage..</title><rect fill="#FFFFFF" height="66.3516" style="stroke:#181818;stroke-width:1;" width="10" x="227.8984" y="450.2188"/></g><g><title>... TagGroupManagementPage..</title><rect fill="#FFFFFF" height="28" style="stroke:#181818;stroke-width:1;" width="10" x="232.8984" y="488.5703"/></g><g><title>... TagGroupController..</title><rect fill="#FFFFFF" height="91.0547" style="stroke:#181818;stroke-width:1;" width="10" x="421.5737" y="359.1641"/></g><g><title>... TagGroupRepository..</title><rect fill="#FFFFFF" height="30.3516" style="stroke:#181818;stroke-width:1;" width="10" x="590.0254" y="389.5156"/></g><g class="message" data-participant-1="User" data-participant-2="TagGroupPage"><polygon fill="#181818" points="215.8984,149.5703,225.8984,153.5703,215.8984,157.5703,219.8984,153.5703" style="stroke:#181818;stroke-width:1;"/><line style="stroke:#181818;stroke-width:1;" x1="52.8413" x2="221.8984" y1="153.5703" y2="153.5703"/><text fill="#000000" font-family="sans-serif" font-size="13" lengthAdjust="spacing" textLength="138.7153" x="59.8413" y="148.7139">clickDelete(tagGroupID)</text></g><g class="message" data-participant-1="TagGroupPage" data-participant-2="TagGroupPage"><line style="stroke:#181818;stroke-width:1;" x1="242.8984" x2="284.8984" y1="183.9219" y2="183.9219"/><line style="stroke:#181818;stroke-width:1;" x1="284.8984" x2="284.8984" y1="183.9219" y2="196.9219"/><line style="stroke:#181818;stroke-width:1;" x1="243.8984" x2="284.8984" y1="196.9219" y2="196.9219"/><polygon fill="#181818" points="253.8984,192.9219,243.8984,196.9219,253.8984,200.9219,249.8984,196.9219" style="stroke:#181818;stroke-width:1;"/><text fill="#000000" font-family="sans-serif" font-size="13" lengthAdjust="spacing" textLength="159.6753" x="249.8984" y="179.0654">displayConfirmationDialog()</text></g><path d="M20,241.9219 L80.1709,241.9219 L80.1709,250.2734 L70.1709,260.2734 L20,260.2734 L20,241.9219" fill="#EEEEEE" style="stroke:#000000;stroke-width:1.5;"/><rect fill="none" height="289.6484" style="stroke:#000000;stroke-width:1.5;" width="662.3047" x="20" y="241.9219"/><text fill="#000000" font-family="sans-serif" font-size="13" font-weight="bold" lengthAdjust="spacing" textLength="15.1709" x="35" y="256.417">alt</text><text fill="#000000" font-family="sans-serif" font-size="11" font-weight="bold" lengthAdjust="spacing" textLength="75.2061" x="95.1709" y="255.3408">[User cancels]</text><g class="message" data-participant-1="User" data-participant-2="TagGroupPage"><polygon fill="#181818" points="220.8984,278.625,230.8984,282.625,220.8984,286.625,224.8984,282.625" style="stroke:#181818;stroke-width:1;"/><line style="stroke:#181818;stroke-width:1;" x1="52.8413" x2="226.8984" y1="282.625" y2="282.625"/><text fill="#000000" font-family="sans-serif" font-size="13" lengthAdjust="spacing" textLength="83.8145" x="59.8413" y="277.7686">cancelDelete()</text></g><line style="stroke:#000000;stroke-width:1;stroke-dasharray:2,2;" x1="20" x2="682.3047" y1="291.625" y2="291.625"/><text fill="#000000" font-family="sans-serif" font-size="11" font-weight="bold" lengthAdjust="spacing" textLength="81.2969" x="25" y="303.0439">[User confirms]</text><g class="message" data-participant-1="User" data-participant-2="TagGroupPage"><polygon fill="#181818" points="215.8984,324.8125,225.8984,328.8125,215.8984,332.8125,219.8984,328.8125" style="stroke:#181818;stroke-width:1;"/><line style="stroke:#181818;stroke-width:1;" x1="52.8413" x2="221.8984" y1="328.8125" y2="328.8125"/><text fill="#000000" font-family="sans-serif" font-size="13" lengthAdjust="spacing" textLength="156.0571" x="59.8413" y="323.9561">confirmDelete(tagGroupID)</text></g><g class="message" data-participant-1="TagGroupPage" data-participant-2="TagGroupController"><polygon fill="#181818" points="409.5737,355.1641,419.5737,359.1641,409.5737,363.1641,413.5737,359.1641" style="stroke:#181818;stroke-width:1;"/><line style="stroke:#181818;stroke-width:1;" x1="232.8984" x2="415.5737" y1="359.1641" y2="359.1641"/><text fill="#000000" font-family="sans-serif" font-size="13" lengthAdjust="spacing" textLength="147.4116" x="239.8984" y="354.3076">deleteGroup(tagGroupID)</text></g><g class="message" data-participant-1="TagGroupController" data-participant-2="TagGroupRepository"><polygon fill="#181818" points="578.0254,385.5156,588.0254,389.5156,578.0254,393.5156,582.0254,389.5156" style="stroke:#181818;stroke-width:1;"/><line style="stroke:#181818;stroke-width:1;" x1="431.5737" x2="584.0254" y1="389.5156" y2="389.5156"/><text fill="#000000" font-family="sans-serif" font-size="13" lengthAdjust="spacing" textLength="139.4517" x="438.5737" y="384.6592">deleteByID(tagGroupID)</text></g><g class="message" data-participant-1="TagGroupRepository" data-participant-2="TagGroupController"><polygon fill="#181818" points="442.5737,415.8672,432.5737,419.8672,442.5737,423.8672,438.5737,419.8672" style="stroke:#181818;stroke-width:1;"/><line style="stroke:#181818;stroke-width:1;stroke-dasharray:2,2;" x1="436.5737" x2="594.0254" y1="419.8672" y2="419.8672"/><text fill="#000000" font-family="sans-serif" font-size="13" lengthAdjust="spacing" textLength="72.2744" x="448.5737" y="415.0107">deleteStatus</text></g><g class="message" data-participant-1="TagGroupController" data-participant-2="TagGroupPage"><polygon fill="#181818" points="248.8984,446.2188,238.8984,450.2188,248.8984,454.2188,244.8984,450.2188" style="stroke:#181818;stroke-width:1;"/><line style="stroke:#181818;stroke-width:1;stroke-dasharray:2,2;" x1="242.8984" x2="425.5737" y1="450.2188" y2="450.2188"/><text fill="#000000" font-family="sans-serif" font-size="13" lengthAdjust="spacing" textLength="72.2744" x="254.8984" y="445.3623">deleteStatus</text></g><g class="message" data-participant-1="TagGroupPage" data-participant-2="TagGroupPage"><line style="stroke:#181818;stroke-width:1;" x1="242.8984" x2="284.8984" y1="480.5703" y2="480.5703"/><line style="stroke:#181818;stroke-width:1;" x1="284.8984" x2="284.8984" y1="480.5703" y2="493.5703"/><line style="stroke:#181818;stroke-width:1;" x1="243.8984" x2="284.8984" y1="493.5703" y2="493.5703"/><polygon fill="#181818" points="253.8984,489.5703,243.8984,493.5703,253.8984,497.5703,249.8984,493.5703" style="stroke:#181818;stroke-width:1;"/><text fill="#000000" font-family="sans-serif" font-size="13" lengthAdjust="spacing" textLength="65.0254" x="249.8984" y="475.7139">reloadList()</text></g><!--SRC=[ZL9BRiCW4Drp2fHLWfGBPD55Qocjr4fLFmUOc4cAYi62SLNVlXYx2OwDMs-mU3FlCqm5oXmTLCY5y588VWzru_UkERp1YNqeYVneBHtiDsDGadLy9SIEltjqGgmu-FZB3hOn4bpRew5rxsnJFu614rPew3cSG_qls5snqXfoLe_RxlfBVPQO0YnmAhgIUy7QUXKyjbTz5u2npYxVteniy1qljIe_2zH8kAO1UYWsNMRr1OHZsspKFMMJojSQsk3tg5m5fAmf56XxMkSO9MQKG5CSCI_1bAWzu-7BXOWbGufDhCpo1YeSY7kNoynzpSo0OjUyHeVa1dLvocvSaJRUZxYN0ipA9WioKa_K4W-NjJXxk6qVYec5YKowJwbCGhXTplfAG8tF1Spnfp5cbkuVpCc0yk-s-723c4DjGJugJ-lD7okGNS4b48ty0G00]--></g></svg>