<svg xmlns="http://www.w3.org/2000/svg" xmlns:xlink="http://www.w3.org/1999/xlink" contentStyleType="text/css" data-diagram-type="SEQUENCE" height="769px" preserveAspectRatio="none" style="width:882px;height:769px;background:#FFFFFF;" version="1.1" viewBox="0 0 882 769" width="882px" zoomAndPan="magnify"><defs/><g><rect fill="#FFFFFF" height="748.125" style="stroke:#181818;stroke-width:1.5;" width="871.0059" x="5" y="15"/><path d="M152.5596,15 L152.5596,25.6094 L142.5596,35.6094 L5,35.6094" fill="none" style="stroke:#181818;stroke-width:1.5;"/><text fill="#000000" font-family="sans-serif" font-size="14" lengthAdjust="spacing" textLength="4.9697" x="8" y="30.5332">"</text><text fill="#000000" font-family="sans-serif" font-size="14" font-weight="bold" lengthAdjust="spacing" textLength="16.3379" x="12.9697" y="30.5332">sd</text><text fill="#000000" font-family="sans-serif" font-size="14" lengthAdjust="spacing" textLength="112.3623" x="33.1973" y="30.5332">Hapus TagGroup"</text><g><title>... TagGroup Page..</title><rect fill="#FFFFFF" height="581.9453" style="stroke:#181818;stroke-width:1;" width="10" x="311.4023" y="153.5703"/></g><g><title>... TagGroup Page..</title><rect fill="#FFFFFF" height="28" style="stroke:#181818;stroke-width:1;" width="10" x="316.4023" y="191.9219"/></g><g><title>... TagGroup Page..</title><rect fill="#FFFFFF" height="30.3516" style="stroke:#181818;stroke-width:1;" width="10" x="316.4023" y="402.5156"/></g><g><title>... TagGroup Page..</title><rect fill="#FFFFFF" height="203.5938" style="stroke:#181818;stroke-width:1;" width="10" x="316.4023" y="523.9219"/></g><g><title>... TagGroup Controller..</title><rect fill="#FFFFFF" height="91.0547" style="stroke:#181818;stroke-width:1;" width="10" x="590.0815" y="432.8672"/></g><g><title>... TagGroup..</title><rect fill="#FFFFFF" height="30.3516" style="stroke:#181818;stroke-width:1;" width="10" x="803.2886" y="463.2188"/></g><rect fill="none" height="485.5938" style="stroke:#000000;stroke-width:1.5;" width="839.0059" x="20" y="241.9219"/><rect fill="none" height="181.5938" style="stroke:#000000;stroke-width:1.5;" width="565.0815" x="30" y="538.9219"/><g><title>... User..</title><rect fill="#000000" fill-opacity="0.00000" height="623.2969" width="8" x="58.8413" y="121.2188"/><line style="stroke:#181818;stroke-width:0.5;stroke-dasharray:5,5;" x1="62" x2="62" y1="121.2188" y2="744.5156"/></g><g><title>... TagGroup Page..</title><rect fill="#000000" fill-opacity="0.00000" height="623.2969" width="8" x="312.4023" y="121.2188"/><line style="stroke:#181818;stroke-width:0.5;stroke-dasharray:5,5;" x1="316.0093" x2="316.0093" y1="121.2188" y2="744.5156"/></g><g><title>... TagGroup Controller..</title><rect fill="#000000" fill-opacity="0.00000" height="623.2969" width="8" x="591.0815" y="121.2188"/><line style="stroke:#181818;stroke-width:0.5;stroke-dasharray:5,5;" x1="594.9746" x2="594.9746" y1="121.2188" y2="744.5156"/></g><g><title>... TagGroup..</title><rect fill="#000000" fill-opacity="0.00000" height="623.2969" width="8" x="804.2886" y="121.2188"/><line style="stroke:#181818;stroke-width:0.5;stroke-dasharray:5,5;" x1="807.5713" x2="807.5713" y1="121.2188" y2="744.5156"/></g><g class="participant participant-head" data-participant="User"><text fill="#000000" font-family="sans-serif" font-size="14" font-weight="bold" lengthAdjust="spacing" textLength="39.6826" x="40" y="118.1426">: User</text><ellipse cx="62.8413" cy="52.1094" fill="#E2E2F0" rx="8" ry="8" style="stroke:#181818;stroke-width:0.5;"/><path d="M62.8413,60.1094 L62.8413,87.1094 M49.8413,68.1094 L75.8413,68.1094 M62.8413,87.1094 L49.8413,102.1094 M62.8413,87.1094 L75.8413,102.1094" fill="none" style="stroke:#181818;stroke-width:0.5;"/></g><g class="participant participant-head" data-participant="TagGroupPage"><text fill="#000000" font-family="sans-serif" font-size="14" font-weight="bold" lengthAdjust="spacing" textLength="112.7861" x="257.0093" y="118.1426">: TagGroup Page</text><path d="M295.9023,75.6094 L295.9023,99.6094 M295.9023,87.6094 L312.9023,87.6094" fill="none" style="stroke:#181818;stroke-width:0.5;"/><ellipse cx="324.9023" cy="87.6094" fill="#E2E2F0" rx="12" ry="12" style="stroke:#181818;stroke-width:0.5;"/></g><g class="participant participant-head" data-participant="TagGroupController"><text fill="#000000" font-family="sans-serif" font-size="14" font-weight="bold" lengthAdjust="spacing" textLength="146.2139" x="518.9746" y="118.1426">: TagGroup Controller</text><ellipse cx="595.0815" cy="87.6094" fill="#E2E2F0" rx="12" ry="12" style="stroke:#181818;stroke-width:0.5;"/><polygon fill="#181818" points="591.0815,75.6094,597.0815,70.6094,595.0815,75.6094,597.0815,80.6094,591.0815,75.6094" style="stroke:#181818;stroke-width:1;"/></g><g class="participant participant-head" data-participant="TagGroupRepository"><text fill="#000000" font-family="sans-serif" font-size="14" font-weight="bold" lengthAdjust="spacing" textLength="75.4346" x="767.5713" y="118.1426">: TagGroup</text><ellipse cx="808.2886" cy="87.6094" fill="#E2E2F0" rx="12" ry="12" style="stroke:#181818;stroke-width:0.5;"/><line style="stroke:#181818;stroke-width:0.5;" x1="796.2886" x2="820.2886" y1="101.6094" y2="101.6094"/></g><g><title>... TagGroup Page..</title><rect fill="#FFFFFF" height="581.9453" style="stroke:#181818;stroke-width:1;" width="10" x="311.4023" y="153.5703"/></g><g><title>... TagGroup Page..</title><rect fill="#FFFFFF" height="28" style="stroke:#181818;stroke-width:1;" width="10" x="316.4023" y="191.9219"/></g><g><title>... TagGroup Page..</title><rect fill="#FFFFFF" height="30.3516" style="stroke:#181818;stroke-width:1;" width="10" x="316.4023" y="402.5156"/></g><g><title>... TagGroup Page..</title><rect fill="#FFFFFF" height="203.5938" style="stroke:#181818;stroke-width:1;" width="10" x="316.4023" y="523.9219"/></g><g><title>... TagGroup Controller..</title><rect fill="#FFFFFF" height="91.0547" style="stroke:#181818;stroke-width:1;" width="10" x="590.0815" y="432.8672"/></g><g><title>... TagGroup..</title><rect fill="#FFFFFF" height="30.3516" style="stroke:#181818;stroke-width:1;" width="10" x="803.2886" y="463.2188"/></g><g class="message" data-participant-1="User" data-participant-2="TagGroupPage"><polygon fill="#181818" points="299.4023,149.5703,309.4023,153.5703,299.4023,157.5703,303.4023,153.5703" style="stroke:#181818;stroke-width:1;"/><line style="stroke:#181818;stroke-width:1;" x1="62.8413" x2="305.4023" y1="153.5703" y2="153.5703"/><text fill="#000000" font-family="sans-serif" font-size="13" lengthAdjust="spacing" textLength="138.7153" x="69.8413" y="148.7139">clickDelete(tagGroupID)</text></g><g class="message" data-participant-1="TagGroupPage" data-participant-2="TagGroupPage"><line style="stroke:#181818;stroke-width:1;" x1="326.4023" x2="368.4023" y1="183.9219" y2="183.9219"/><line style="stroke:#181818;stroke-width:1;" x1="368.4023" x2="368.4023" y1="183.9219" y2="196.9219"/><line style="stroke:#181818;stroke-width:1;" x1="327.4023" x2="368.4023" y1="196.9219" y2="196.9219"/><polygon fill="#181818" points="337.4023,192.9219,327.4023,196.9219,337.4023,200.9219,333.4023,196.9219" style="stroke:#181818;stroke-width:1;"/><text fill="#000000" font-family="sans-serif" font-size="13" lengthAdjust="spacing" textLength="149.5571" x="333.4023" y="179.0654">showConfirmationDialog()</text></g><path d="M20,241.9219 L80.1709,241.9219 L80.1709,250.2734 L70.1709,260.2734 L20,260.2734 L20,241.9219" fill="#EEEEEE" style="stroke:#000000;stroke-width:1.5;"/><rect fill="none" height="485.5938" style="stroke:#000000;stroke-width:1.5;" width="839.0059" x="20" y="241.9219"/><text fill="#000000" font-family="sans-serif" font-size="13" font-weight="bold" lengthAdjust="spacing" textLength="15.1709" x="35" y="256.417">alt</text><text fill="#000000" font-family="sans-serif" font-size="11" font-weight="bold" lengthAdjust="spacing" textLength="73.9814" x="95.1709" y="255.3408">[user cancels]</text><g class="message" data-participant-1="User" data-participant-2="TagGroupPage"><polygon fill="#181818" points="299.4023,278.625,309.4023,282.625,299.4023,286.625,303.4023,282.625" style="stroke:#181818;stroke-width:1;"/><line style="stroke:#181818;stroke-width:1;" x1="62.8413" x2="305.4023" y1="282.625" y2="282.625"/><text fill="#000000" font-family="sans-serif" font-size="13" lengthAdjust="spacing" textLength="83.8145" x="69.8413" y="277.7686">cancelDelete()</text></g><g class="message" data-participant-1="TagGroupPage" data-participant-2="TagGroupPage"><line style="stroke:#181818;stroke-width:1;" x1="321.4023" x2="363.4023" y1="312.9766" y2="312.9766"/><line style="stroke:#181818;stroke-width:1;" x1="363.4023" x2="363.4023" y1="312.9766" y2="325.9766"/><line style="stroke:#181818;stroke-width:1;" x1="322.4023" x2="363.4023" y1="325.9766" y2="325.9766"/><polygon fill="#181818" points="332.4023,321.9766,322.4023,325.9766,332.4023,329.9766,328.4023,325.9766" style="stroke:#181818;stroke-width:1;"/><text fill="#000000" font-family="sans-serif" font-size="13" lengthAdjust="spacing" textLength="75.8608" x="328.4023" y="308.1201">closeDialog()</text></g><g class="message" data-participant-1="TagGroupPage" data-participant-2="User"><polygon fill="#181818" points="73.8413,352.3281,63.8413,356.3281,73.8413,360.3281,69.8413,356.3281" style="stroke:#181818;stroke-width:1;"/><line style="stroke:#181818;stroke-width:1;stroke-dasharray:2,2;" x1="67.8413" x2="310.4023" y1="356.3281" y2="356.3281"/><text fill="#000000" font-family="sans-serif" font-size="13" lengthAdjust="spacing" textLength="197.1011" x="79.8413" y="351.4717">showMessage("Delete cancelled")</text></g><line style="stroke:#000000;stroke-width:1;stroke-dasharray:2,2;" x1="20" x2="859.0059" y1="365.3281" y2="365.3281"/><text fill="#000000" font-family="sans-serif" font-size="11" font-weight="bold" lengthAdjust="spacing" textLength="80.0723" x="25" y="376.7471">[user confirms]</text><g class="message" data-participant-1="User" data-participant-2="TagGroupPage"><polygon fill="#181818" points="304.4023,398.5156,314.4023,402.5156,304.4023,406.5156,308.4023,402.5156" style="stroke:#181818;stroke-width:1;"/><line style="stroke:#181818;stroke-width:1;" x1="62.8413" x2="310.4023" y1="402.5156" y2="402.5156"/><text fill="#000000" font-family="sans-serif" font-size="13" lengthAdjust="spacing" textLength="156.0571" x="69.8413" y="397.6592">confirmDelete(tagGroupID)</text></g><g class="message" data-participant-1="TagGroupPage" data-participant-2="TagGroupController"><polygon fill="#181818" points="578.0815,428.8672,588.0815,432.8672,578.0815,436.8672,582.0815,432.8672" style="stroke:#181818;stroke-width:1;"/><line style="stroke:#181818;stroke-width:1;" x1="321.4023" x2="584.0815" y1="432.8672" y2="432.8672"/><text fill="#000000" font-family="sans-serif" font-size="13" lengthAdjust="spacing" textLength="169.8125" x="328.4023" y="428.0107">deleteTagGroup(tagGroupID)</text></g><g class="message" data-participant-1="TagGroupController" data-participant-2="TagGroupRepository"><polygon fill="#181818" points="791.2886,459.2188,801.2886,463.2188,791.2886,467.2188,795.2886,463.2188" style="stroke:#181818;stroke-width:1;"/><line style="stroke:#181818;stroke-width:1;" x1="600.0815" x2="797.2886" y1="463.2188" y2="463.2188"/><text fill="#000000" font-family="sans-serif" font-size="13" lengthAdjust="spacing" textLength="137.2935" x="607.0815" y="458.3623">deleteById(tagGroupID)</text></g><g class="message" data-participant-1="TagGroupRepository" data-participant-2="TagGroupController"><polygon fill="#181818" points="611.0815,489.5703,601.0815,493.5703,611.0815,497.5703,607.0815,493.5703" style="stroke:#181818;stroke-width:1;"/><line style="stroke:#181818;stroke-width:1;stroke-dasharray:2,2;" x1="605.0815" x2="807.2886" y1="493.5703" y2="493.5703"/><text fill="#000000" font-family="sans-serif" font-size="13" lengthAdjust="spacing" textLength="179.207" x="617.0815" y="488.7139">deleteResult(success:Boolean)</text></g><g class="message" data-participant-1="TagGroupController" data-participant-2="TagGroupPage"><polygon fill="#181818" points="337.4023,519.9219,327.4023,523.9219,337.4023,527.9219,333.4023,523.9219" style="stroke:#181818;stroke-width:1;"/><line style="stroke:#181818;stroke-width:1;stroke-dasharray:2,2;" x1="331.4023" x2="594.0815" y1="523.9219" y2="523.9219"/><text fill="#000000" font-family="sans-serif" font-size="13" lengthAdjust="spacing" textLength="179.207" x="343.4023" y="519.0654">deleteResult(success:Boolean)</text></g><path d="M30,538.9219 L90.1709,538.9219 L90.1709,547.2734 L80.1709,557.2734 L30,557.2734 L30,538.9219" fill="#EEEEEE" style="stroke:#000000;stroke-width:1.5;"/><rect fill="none" height="181.5938" style="stroke:#000000;stroke-width:1.5;" width="565.0815" x="30" y="538.9219"/><text fill="#000000" font-family="sans-serif" font-size="13" font-weight="bold" lengthAdjust="spacing" textLength="15.1709" x="45" y="553.417">alt</text><text fill="#000000" font-family="sans-serif" font-size="11" font-weight="bold" lengthAdjust="spacing" textLength="70.9038" x="105.1709" y="552.3408">[delete failed]</text><g class="message" data-participant-1="TagGroupPage" data-participant-2="TagGroupPage"><line style="stroke:#181818;stroke-width:1;" x1="326.4023" x2="368.4023" y1="579.625" y2="579.625"/><line style="stroke:#181818;stroke-width:1;" x1="368.4023" x2="368.4023" y1="579.625" y2="592.625"/><line style="stroke:#181818;stroke-width:1;" x1="327.4023" x2="368.4023" y1="592.625" y2="592.625"/><polygon fill="#181818" points="337.4023,588.625,327.4023,592.625,337.4023,596.625,333.4023,592.625" style="stroke:#181818;stroke-width:1;"/><text fill="#000000" font-family="sans-serif" font-size="13" lengthAdjust="spacing" textLength="234.6792" x="333.4023" y="574.7686">displayError("Failed to delete tag group")</text></g><g class="message" data-participant-1="TagGroupPage" data-participant-2="User"><polygon fill="#181818" points="73.8413,618.9766,63.8413,622.9766,73.8413,626.9766,69.8413,622.9766" style="stroke:#181818;stroke-width:1;"/><line style="stroke:#181818;stroke-width:1;stroke-dasharray:2,2;" x1="67.8413" x2="315.4023" y1="622.9766" y2="622.9766"/><text fill="#000000" font-family="sans-serif" font-size="13" lengthAdjust="spacing" textLength="224.561" x="79.8413" y="618.1201">showError("Failed to delete tag group")</text></g><line style="stroke:#000000;stroke-width:1;stroke-dasharray:2,2;" x1="30" x2="595.0815" y1="631.9766" y2="631.9766"/><text fill="#000000" font-family="sans-serif" font-size="11" font-weight="bold" lengthAdjust="spacing" textLength="99.0376" x="35" y="643.3955">[delete succeeded]</text><g class="message" data-participant-1="TagGroupPage" data-participant-2="TagGroupPage"><line style="stroke:#181818;stroke-width:1;" x1="326.4023" x2="368.4023" y1="669.1641" y2="669.1641"/><line style="stroke:#181818;stroke-width:1;" x1="368.4023" x2="368.4023" y1="669.1641" y2="682.1641"/><line style="stroke:#181818;stroke-width:1;" x1="327.4023" x2="368.4023" y1="682.1641" y2="682.1641"/><polygon fill="#181818" points="337.4023,678.1641,327.4023,682.1641,337.4023,686.1641,333.4023,682.1641" style="stroke:#181818;stroke-width:1;"/><text fill="#000000" font-family="sans-serif" font-size="13" lengthAdjust="spacing" textLength="65.0254" x="333.4023" y="664.3076">reloadList()</text></g><g class="message" data-participant-1="TagGroupPage" data-participant-2="User"><polygon fill="#181818" points="73.8413,708.5156,63.8413,712.5156,73.8413,716.5156,69.8413,712.5156" style="stroke:#181818;stroke-width:1;"/><line style="stroke:#181818;stroke-width:1;stroke-dasharray:2,2;" x1="67.8413" x2="315.4023" y1="712.5156" y2="712.5156"/><text fill="#000000" font-family="sans-serif" font-size="13" lengthAdjust="spacing" textLength="206.5083" x="79.8413" y="707.6592">showMessage("Tag group deleted")</text></g><!--SRC=[dLHBReCm4Dtx51OhWfGBPD55cduYjL8LfGUOs1DYrM6GRTfo-nhp2OIGH6M5F3FlCtvm19Nj3HoHHqbYPPBmLyWBoxUGlXWgyeWTb4I-9t8x-cKCX2DJzIxufqMJ91476rxPZefCWYdhQWl0Fo35fgqzguwOeCmPqcVTZ_Mfxg3Rogd0C7FAbNmuUTQ-mPoiybfBnYfrVFumeESBBhGINolKw31sJMczcbKMrJSu7CfbW-ancZtGZzUuL-O8Jb6sKg0fZQVW94xGW7Qyg0GBo0HgoxX_fXo4biR2B7JUK2aqMUoaZGVyHE2g_RoZjVuuZcgAXa-ZZ6RCIyD6QEtwkjAwvyAsgw69LLppSug3HvS1jYsDuATsVP6wbxE1W1vXJyOfPfsCPRcMjntsyjbdwU7DhxlTe2sqYsqXXB-bnP988sIJXllVmvIjyRNzYwgtmHkNMsMzfk1xK3vNuVIE64jbSmtbap5aukWvp797BPZVFa_3tsisWJZC-Rqu8VDDBMm3vVsQ3Me2-QQiY-zJrNrzsrP6morREPcycczV_mC0]--></g></svg>