<svg xmlns="http://www.w3.org/2000/svg" xmlns:xlink="http://www.w3.org/1999/xlink" contentStyleType="text/css" data-diagram-type="SEQUENCE" height="573px" preserveAspectRatio="none" style="width:612px;height:573px;background:#FFFFFF;" version="1.1" viewBox="0 0 612 573" width="612px" zoomAndPan="magnify"><defs/><g><rect fill="#FFFFFF" height="552.1797" style="stroke:#181818;stroke-width:1.5;" width="601.0464" x="5" y="15"/><path d="M99.8203,15 L99.8203,25.6094 L89.8203,35.6094 L5,35.6094" fill="none" style="stroke:#181818;stroke-width:1.5;"/><text fill="#000000" font-family="sans-serif" font-size="14" font-weight="bold" lengthAdjust="spacing" textLength="16.3379" x="8" y="30.5332">sd</text><text fill="#000000" font-family="sans-serif" font-size="14" lengthAdjust="spacing" textLength="64.5928" x="28.2275" y="30.5332">HapusTag</text><g><title>... TagManagementPage..</title><rect fill="#FFFFFF" height="129.0547" style="stroke:#181818;stroke-width:1;" width="10" x="191.7676" y="153.5703"/></g><g><title>... TagManagementPage..</title><rect fill="#FFFFFF" height="28" style="stroke:#181818;stroke-width:1;" width="10" x="196.7676" y="191.9219"/></g><g><title>... TagManagementPage..</title><rect fill="#FFFFFF" height="30.3516" style="stroke:#181818;stroke-width:1;" width="10" x="191.7676" y="328.8125"/></g><g><title>... TagManagementPage..</title><rect fill="#FFFFFF" height="66.3516" style="stroke:#181818;stroke-width:1;" width="10" x="191.7676" y="450.2188"/></g><g><title>... TagManagementPage..</title><rect fill="#FFFFFF" height="28" style="stroke:#181818;stroke-width:1;" width="10" x="196.7676" y="488.5703"/></g><g><title>... TagController..</title><rect fill="#FFFFFF" height="91.0547" style="stroke:#181818;stroke-width:1;" width="10" x="385.4429" y="359.1641"/></g><g><title>... TagRepository..</title><rect fill="#FFFFFF" height="30.3516" style="stroke:#181818;stroke-width:1;" width="10" x="517.7637" y="389.5156"/></g><rect fill="none" height="289.6484" style="stroke:#000000;stroke-width:1.5;" width="569.0464" x="20" y="241.9219"/><g><title>... User..</title><rect fill="#000000" fill-opacity="0.00000" height="427.3516" width="8" x="48.8413" y="121.2188"/><line style="stroke:#181818;stroke-width:0.5;stroke-dasharray:5,5;" x1="52" x2="52" y1="121.2188" y2="548.5703"/></g><g><title>... TagManagementPage..</title><rect fill="#000000" fill-opacity="0.00000" height="427.3516" width="8" x="192.7676" y="121.2188"/><line style="stroke:#181818;stroke-width:0.5;stroke-dasharray:5,5;" x1="196.5298" x2="196.5298" y1="121.2188" y2="548.5703"/></g><g><title>... TagController..</title><rect fill="#000000" fill-opacity="0.00000" height="427.3516" width="8" x="386.4429" y="121.2188"/><line style="stroke:#181818;stroke-width:0.5;stroke-dasharray:5,5;" x1="390.2773" x2="390.2773" y1="121.2188" y2="548.5703"/></g><g><title>... TagRepository..</title><rect fill="#000000" fill-opacity="0.00000" height="427.3516" width="8" x="518.7637" y="121.2188"/><line style="stroke:#181818;stroke-width:0.5;stroke-dasharray:5,5;" x1="522.481" x2="522.481" y1="121.2188" y2="548.5703"/></g><g class="participant participant-head" data-participant="User"><text fill="#000000" font-family="sans-serif" font-size="14" font-weight="bold" lengthAdjust="spacing" textLength="39.6826" x="30" y="118.1426">: User</text><ellipse cx="52.8413" cy="52.1094" fill="#E2E2F0" rx="8" ry="8" style="stroke:#181818;stroke-width:0.5;"/><path d="M52.8413,60.1094 L52.8413,87.1094 M39.8413,68.1094 L65.8413,68.1094 M52.8413,87.1094 L39.8413,102.1094 M52.8413,87.1094 L65.8413,102.1094" fill="none" style="stroke:#181818;stroke-width:0.5;"/></g><g class="participant participant-head" data-participant="TagPage"><text fill="#000000" font-family="sans-serif" font-size="14" font-weight="bold" lengthAdjust="spacing" textLength="152.4756" x="117.5298" y="118.1426">: TagManagementPage</text><path d="M176.2676,75.6094 L176.2676,99.6094 M176.2676,87.6094 L193.2676,87.6094" fill="none" style="stroke:#181818;stroke-width:0.5;"/><ellipse cx="205.2676" cy="87.6094" fill="#E2E2F0" rx="12" ry="12" style="stroke:#181818;stroke-width:0.5;"/></g><g class="participant participant-head" data-participant="TagController"><text fill="#000000" font-family="sans-serif" font-size="14" font-weight="bold" lengthAdjust="spacing" textLength="100.3311" x="337.2773" y="118.1426">: TagController</text><ellipse cx="390.4429" cy="87.6094" fill="#E2E2F0" rx="12" ry="12" style="stroke:#181818;stroke-width:0.5;"/><polygon fill="#181818" points="386.4429,75.6094,392.4429,70.6094,390.4429,75.6094,392.4429,80.6094,386.4429,75.6094" style="stroke:#181818;stroke-width:1;"/></g><g class="participant participant-head" data-participant="TagRepository"><text fill="#000000" font-family="sans-serif" font-size="14" font-weight="bold" lengthAdjust="spacing" textLength="106.5654" x="466.481" y="118.1426">: TagRepository</text><ellipse cx="522.7637" cy="87.6094" fill="#E2E2F0" rx="12" ry="12" style="stroke:#181818;stroke-width:0.5;"/><line style="stroke:#181818;stroke-width:0.5;" x1="510.7637" x2="534.7637" y1="101.6094" y2="101.6094"/></g><g><title>... TagManagementPage..</title><rect fill="#FFFFFF" height="129.0547" style="stroke:#181818;stroke-width:1;" width="10" x="191.7676" y="153.5703"/></g><g><title>... TagManagementPage..</title><rect fill="#FFFFFF" height="28" style="stroke:#181818;stroke-width:1;" width="10" x="196.7676" y="191.9219"/></g><g><title>... TagManagementPage..</title><rect fill="#FFFFFF" height="30.3516" style="stroke:#181818;stroke-width:1;" width="10" x="191.7676" y="328.8125"/></g><g><title>... TagManagementPage..</title><rect fill="#FFFFFF" height="66.3516" style="stroke:#181818;stroke-width:1;" width="10" x="191.7676" y="450.2188"/></g><g><title>... TagManagementPage..</title><rect fill="#FFFFFF" height="28" style="stroke:#181818;stroke-width:1;" width="10" x="196.7676" y="488.5703"/></g><g><title>... TagController..</title><rect fill="#FFFFFF" height="91.0547" style="stroke:#181818;stroke-width:1;" width="10" x="385.4429" y="359.1641"/></g><g><title>... TagRepository..</title><rect fill="#FFFFFF" height="30.3516" style="stroke:#181818;stroke-width:1;" width="10" x="517.7637" y="389.5156"/></g><g class="message" data-participant-1="User" data-participant-2="TagPage"><polygon fill="#181818" points="179.7676,149.5703,189.7676,153.5703,179.7676,157.5703,183.7676,153.5703" style="stroke:#181818;stroke-width:1;"/><line style="stroke:#181818;stroke-width:1;" x1="52.8413" x2="185.7676" y1="153.5703" y2="153.5703"/><text fill="#000000" font-family="sans-serif" font-size="13" lengthAdjust="spacing" textLength="102.5845" x="59.8413" y="148.7139">clickDelete(tagID)</text></g><g class="message" data-participant-1="TagPage" data-participant-2="TagPage"><line style="stroke:#181818;stroke-width:1;" x1="206.7676" x2="248.7676" y1="183.9219" y2="183.9219"/><line style="stroke:#181818;stroke-width:1;" x1="248.7676" x2="248.7676" y1="183.9219" y2="196.9219"/><line style="stroke:#181818;stroke-width:1;" x1="207.7676" x2="248.7676" y1="196.9219" y2="196.9219"/><polygon fill="#181818" points="217.7676,192.9219,207.7676,196.9219,217.7676,200.9219,213.7676,196.9219" style="stroke:#181818;stroke-width:1;"/><text fill="#000000" font-family="sans-serif" font-size="13" lengthAdjust="spacing" textLength="159.6753" x="213.7676" y="179.0654">displayConfirmationDialog()</text></g><path d="M20,241.9219 L80.1709,241.9219 L80.1709,250.2734 L70.1709,260.2734 L20,260.2734 L20,241.9219" fill="#EEEEEE" style="stroke:#000000;stroke-width:1.5;"/><rect fill="none" height="289.6484" style="stroke:#000000;stroke-width:1.5;" width="569.0464" x="20" y="241.9219"/><text fill="#000000" font-family="sans-serif" font-size="13" font-weight="bold" lengthAdjust="spacing" textLength="15.1709" x="35" y="256.417">alt</text><text fill="#000000" font-family="sans-serif" font-size="11" font-weight="bold" lengthAdjust="spacing" textLength="75.2061" x="95.1709" y="255.3408">[User cancels]</text><g class="message" data-participant-1="User" data-participant-2="TagPage"><polygon fill="#181818" points="184.7676,278.625,194.7676,282.625,184.7676,286.625,188.7676,282.625" style="stroke:#181818;stroke-width:1;"/><line style="stroke:#181818;stroke-width:1;" x1="52.8413" x2="190.7676" y1="282.625" y2="282.625"/><text fill="#000000" font-family="sans-serif" font-size="13" lengthAdjust="spacing" textLength="83.8145" x="59.8413" y="277.7686">cancelDelete()</text></g><line style="stroke:#000000;stroke-width:1;stroke-dasharray:2,2;" x1="20" x2="589.0464" y1="291.625" y2="291.625"/><text fill="#000000" font-family="sans-serif" font-size="11" font-weight="bold" lengthAdjust="spacing" textLength="81.2969" x="25" y="303.0439">[User confirms]</text><g class="message" data-participant-1="User" data-participant-2="TagPage"><polygon fill="#181818" points="179.7676,324.8125,189.7676,328.8125,179.7676,332.8125,183.7676,328.8125" style="stroke:#181818;stroke-width:1;"/><line style="stroke:#181818;stroke-width:1;" x1="52.8413" x2="185.7676" y1="328.8125" y2="328.8125"/><text fill="#000000" font-family="sans-serif" font-size="13" lengthAdjust="spacing" textLength="119.9263" x="59.8413" y="323.9561">confirmDelete(tagID)</text></g><g class="message" data-participant-1="TagPage" data-participant-2="TagController"><polygon fill="#181818" points="373.4429,355.1641,383.4429,359.1641,373.4429,363.1641,377.4429,359.1641" style="stroke:#181818;stroke-width:1;"/><line style="stroke:#181818;stroke-width:1;" x1="196.7676" x2="379.4429" y1="359.1641" y2="359.1641"/><text fill="#000000" font-family="sans-serif" font-size="13" lengthAdjust="spacing" textLength="97.5508" x="203.7676" y="354.3076">deleteTag(tagID)</text></g><g class="message" data-participant-1="TagController" data-participant-2="TagRepository"><polygon fill="#181818" points="505.7637,385.5156,515.7637,389.5156,505.7637,393.5156,509.7637,389.5156" style="stroke:#181818;stroke-width:1;"/><line style="stroke:#181818;stroke-width:1;" x1="395.4429" x2="511.7637" y1="389.5156" y2="389.5156"/><text fill="#000000" font-family="sans-serif" font-size="13" lengthAdjust="spacing" textLength="103.3208" x="402.4429" y="384.6592">deleteByID(tagID)</text></g><g class="message" data-participant-1="TagRepository" data-participant-2="TagController"><polygon fill="#181818" points="406.4429,415.8672,396.4429,419.8672,406.4429,423.8672,402.4429,419.8672" style="stroke:#181818;stroke-width:1;"/><line style="stroke:#181818;stroke-width:1;stroke-dasharray:2,2;" x1="400.4429" x2="521.7637" y1="419.8672" y2="419.8672"/><text fill="#000000" font-family="sans-serif" font-size="13" lengthAdjust="spacing" textLength="72.2744" x="412.4429" y="415.0107">deleteStatus</text></g><g class="message" data-participant-1="TagController" data-participant-2="TagPage"><polygon fill="#181818" points="212.7676,446.2188,202.7676,450.2188,212.7676,454.2188,208.7676,450.2188" style="stroke:#181818;stroke-width:1;"/><line style="stroke:#181818;stroke-width:1;stroke-dasharray:2,2;" x1="206.7676" x2="389.4429" y1="450.2188" y2="450.2188"/><text fill="#000000" font-family="sans-serif" font-size="13" lengthAdjust="spacing" textLength="72.2744" x="218.7676" y="445.3623">deleteStatus</text></g><g class="message" data-participant-1="TagPage" data-participant-2="TagPage"><line style="stroke:#181818;stroke-width:1;" x1="206.7676" x2="248.7676" y1="480.5703" y2="480.5703"/><line style="stroke:#181818;stroke-width:1;" x1="248.7676" x2="248.7676" y1="480.5703" y2="493.5703"/><line style="stroke:#181818;stroke-width:1;" x1="207.7676" x2="248.7676" y1="493.5703" y2="493.5703"/><polygon fill="#181818" points="217.7676,489.5703,207.7676,493.5703,217.7676,497.5703,213.7676,493.5703" style="stroke:#181818;stroke-width:1;"/><text fill="#000000" font-family="sans-serif" font-size="13" lengthAdjust="spacing" textLength="65.0254" x="213.7676" y="475.7139">reloadList()</text></g><!--SRC=[VPBDJiCm3CVlUGgB0tILXZIuxO04x022IOYF1_1QhqHDaob94NjxdBRh1ylMGzBOpj-_sAvGwgt5YY1DNPwcy8IxsdrY8RvbJh0rnc_Chn2OUMFX8asNyEN8fka5e6j-nSRKEaUxRxryTOqQ2wf8-pVUkr2sXvF8ZFRMg3xuiJshNdDY4omY_I3zJZlZ9AFiX-Z19aG0WldT8Hii8LCoArUao5FYiNXUpS9Rv0zwwfd48NnoCvTkft3FC5jfA_JIw9L4POea8f7JiIegtrG8CjGPAIU0lmXXu-qGPqrGJ8q5g9DhYKxgjUxfcqFeaMOmJfy-L3uKe55WwrWaWlPVUzI-GugHRfjeQ5gVw67_l3g5E-fnS3NB5RmOIwMJi9REOqbmUtspW4lU5eibh4aNHQsnH0qxShnkK67Oa_dyRiP9TS47BHNA0-Q8Qdwo81yUVUqYnHWFOWiO6AZYl39GkEOYCEWJarIeOzMPZk3vXAD2H_lRKTohseAhIqSEabnMDNge5UfY5fc0BhCbPJ1_vS8cPuOdDgSdxAJpFm00]--></g></svg>