<svg xmlns="http://www.w3.org/2000/svg" xmlns:xlink="http://www.w3.org/1999/xlink" contentStyleType="text/css" data-diagram-type="SEQUENCE" height="768px" preserveAspectRatio="none" style="width:746px;height:768px;background:#FFFFFF;" version="1.1" viewBox="0 0 746 768" width="746px" zoomAndPan="magnify"><defs/><g><rect fill="#FFFFFF" height="747.0703" style="stroke:#181818;stroke-width:1.5;" width="735.5884" x="5" y="15"/><path d="M138.7305,15 L138.7305,25.6094 L128.7305,35.6094 L5,35.6094" fill="none" style="stroke:#181818;stroke-width:1.5;"/><text fill="#000000" font-family="sans-serif" font-size="14" font-weight="bold" lengthAdjust="spacing" textLength="16.3379" x="8" y="30.5332">sd</text><text fill="#000000" font-family="sans-serif" font-size="14" lengthAdjust="spacing" textLength="103.5029" x="28.2275" y="30.5332">HapusTagGroup</text><g><title>... TagGroupPage..</title><rect fill="#FFFFFF" height="572.8906" style="stroke:#181818;stroke-width:1;" width="10" x="232.8984" y="153.5703"/></g><g><title>... TagGroupPage..</title><rect fill="#FFFFFF" height="28" style="stroke:#181818;stroke-width:1;" width="10" x="237.8984" y="191.9219"/></g><g><title>... TagGroupPage..</title><rect fill="#FFFFFF" height="28" style="stroke:#181818;stroke-width:1;" width="10" x="237.8984" y="320.9766"/></g><g><title>... TagGroupPage..</title><rect fill="#FFFFFF" height="28" style="stroke:#181818;stroke-width:1;" width="10" x="237.8984" y="587.2734"/></g><g><title>... TagGroupPage..</title><rect fill="#FFFFFF" height="28" style="stroke:#181818;stroke-width:1;" width="10" x="237.8984" y="676.4609"/></g><g><title>... TagGroupController..</title><rect fill="#FFFFFF" height="91.0547" style="stroke:#181818;stroke-width:1;" width="10" x="501.5776" y="432.5156"/></g><g><title>... TagGroup..</title><rect fill="#FFFFFF" height="30.3516" style="stroke:#181818;stroke-width:1;" width="10" x="667.8711" y="462.8672"/></g><rect fill="none" height="484.5391" style="stroke:#000000;stroke-width:1.5;" width="703.5884" x="20" y="241.9219"/><rect fill="none" height="180.8906" style="stroke:#000000;stroke-width:1.5;" width="341.1274" x="170.4502" y="538.5703"/><g><title>... User..</title><rect fill="#000000" fill-opacity="0.00000" height="622.2422" width="8" x="48.8413" y="121.2188"/><line style="stroke:#181818;stroke-width:0.5;stroke-dasharray:5,5;" x1="52" x2="52" y1="121.2188" y2="743.4609"/></g><g><title>... TagGroupPage..</title><rect fill="#000000" fill-opacity="0.00000" height="622.2422" width="8" x="233.8984" y="121.2188"/><line style="stroke:#181818;stroke-width:0.5;stroke-dasharray:5,5;" x1="237.4502" x2="237.4502" y1="121.2188" y2="743.4609"/></g><g><title>... TagGroupController..</title><rect fill="#000000" fill-opacity="0.00000" height="622.2422" width="8" x="502.5776" y="121.2188"/><line style="stroke:#181818;stroke-width:0.5;stroke-dasharray:5,5;" x1="506.4155" x2="506.4155" y1="121.2188" y2="743.4609"/></g><g><title>... TagGroup..</title><rect fill="#000000" fill-opacity="0.00000" height="622.2422" width="8" x="668.8711" y="121.2188"/><line style="stroke:#181818;stroke-width:0.5;stroke-dasharray:5,5;" x1="672.1538" x2="672.1538" y1="121.2188" y2="743.4609"/></g><g class="participant participant-head" data-participant="User"><text fill="#000000" font-family="sans-serif" font-size="14" font-weight="bold" lengthAdjust="spacing" textLength="39.6826" x="30" y="118.1426">: User</text><ellipse cx="52.8413" cy="52.1094" fill="#E2E2F0" rx="8" ry="8" style="stroke:#181818;stroke-width:0.5;"/><path d="M52.8413,60.1094 L52.8413,87.1094 M39.8413,68.1094 L65.8413,68.1094 M52.8413,87.1094 L39.8413,102.1094 M52.8413,87.1094 L65.8413,102.1094" fill="none" style="stroke:#181818;stroke-width:0.5;"/></g><g class="participant participant-head" data-participant="TagGroupPage"><text fill="#000000" font-family="sans-serif" font-size="14" font-weight="bold" lengthAdjust="spacing" textLength="108.8965" x="180.4502" y="118.1426">: TagGroupPage</text><path d="M217.3984,75.6094 L217.3984,99.6094 M217.3984,87.6094 L234.3984,87.6094" fill="none" style="stroke:#181818;stroke-width:0.5;"/><ellipse cx="246.3984" cy="87.6094" fill="#E2E2F0" rx="12" ry="12" style="stroke:#181818;stroke-width:0.5;"/></g><g class="participant participant-head" data-participant="TagGroupController"><text fill="#000000" font-family="sans-serif" font-size="14" font-weight="bold" lengthAdjust="spacing" textLength="142.3242" x="432.4155" y="118.1426">: TagGroupController</text><ellipse cx="506.5776" cy="87.6094" fill="#E2E2F0" rx="12" ry="12" style="stroke:#181818;stroke-width:0.5;"/><polygon fill="#181818" points="502.5776,75.6094,508.5776,70.6094,506.5776,75.6094,508.5776,80.6094,502.5776,75.6094" style="stroke:#181818;stroke-width:1;"/></g><g class="participant participant-head" data-participant="TagGroupRepository"><text fill="#000000" font-family="sans-serif" font-size="14" font-weight="bold" lengthAdjust="spacing" textLength="75.4346" x="632.1538" y="118.1426">: TagGroup</text><ellipse cx="672.8711" cy="87.6094" fill="#E2E2F0" rx="12" ry="12" style="stroke:#181818;stroke-width:0.5;"/><line style="stroke:#181818;stroke-width:0.5;" x1="660.8711" x2="684.8711" y1="101.6094" y2="101.6094"/></g><g><title>... TagGroupPage..</title><rect fill="#FFFFFF" height="572.8906" style="stroke:#181818;stroke-width:1;" width="10" x="232.8984" y="153.5703"/></g><g><title>... TagGroupPage..</title><rect fill="#FFFFFF" height="28" style="stroke:#181818;stroke-width:1;" width="10" x="237.8984" y="191.9219"/></g><g><title>... TagGroupPage..</title><rect fill="#FFFFFF" height="28" style="stroke:#181818;stroke-width:1;" width="10" x="237.8984" y="320.9766"/></g><g><title>... TagGroupPage..</title><rect fill="#FFFFFF" height="28" style="stroke:#181818;stroke-width:1;" width="10" x="237.8984" y="587.2734"/></g><g><title>... TagGroupPage..</title><rect fill="#FFFFFF" height="28" style="stroke:#181818;stroke-width:1;" width="10" x="237.8984" y="676.4609"/></g><g><title>... TagGroupController..</title><rect fill="#FFFFFF" height="91.0547" style="stroke:#181818;stroke-width:1;" width="10" x="501.5776" y="432.5156"/></g><g><title>... TagGroup..</title><rect fill="#FFFFFF" height="30.3516" style="stroke:#181818;stroke-width:1;" width="10" x="667.8711" y="462.8672"/></g><g class="message" data-participant-1="User" data-participant-2="TagGroupPage"><polygon fill="#181818" points="220.8984,149.5703,230.8984,153.5703,220.8984,157.5703,224.8984,153.5703" style="stroke:#181818;stroke-width:1;"/><line style="stroke:#181818;stroke-width:1;" x1="52.8413" x2="226.8984" y1="153.5703" y2="153.5703"/><text fill="#000000" font-family="sans-serif" font-size="13" lengthAdjust="spacing" textLength="138.7153" x="59.8413" y="148.7139">clickDelete(tagGroupID)</text></g><g class="message" data-participant-1="TagGroupPage" data-participant-2="TagGroupPage"><line style="stroke:#181818;stroke-width:1;" x1="247.8984" x2="289.8984" y1="183.9219" y2="183.9219"/><line style="stroke:#181818;stroke-width:1;" x1="289.8984" x2="289.8984" y1="183.9219" y2="196.9219"/><line style="stroke:#181818;stroke-width:1;" x1="248.8984" x2="289.8984" y1="196.9219" y2="196.9219"/><polygon fill="#181818" points="258.8984,192.9219,248.8984,196.9219,258.8984,200.9219,254.8984,196.9219" style="stroke:#181818;stroke-width:1;"/><text fill="#000000" font-family="sans-serif" font-size="13" lengthAdjust="spacing" textLength="149.5571" x="254.8984" y="179.0654">showConfirmationDialog()</text></g><path d="M20,241.9219 L80.1709,241.9219 L80.1709,250.2734 L70.1709,260.2734 L20,260.2734 L20,241.9219" fill="#EEEEEE" style="stroke:#000000;stroke-width:1.5;"/><rect fill="none" height="484.5391" style="stroke:#000000;stroke-width:1.5;" width="703.5884" x="20" y="241.9219"/><text fill="#000000" font-family="sans-serif" font-size="13" font-weight="bold" lengthAdjust="spacing" textLength="15.1709" x="35" y="256.417">alt</text><text fill="#000000" font-family="sans-serif" font-size="11" font-weight="bold" lengthAdjust="spacing" textLength="73.9814" x="95.1709" y="255.3408">[user cancels]</text><g class="message" data-participant-1="User" data-participant-2="TagGroupPage"><polygon fill="#181818" points="220.8984,278.625,230.8984,282.625,220.8984,286.625,224.8984,282.625" style="stroke:#181818;stroke-width:1;"/><line style="stroke:#181818;stroke-width:1;" x1="52.8413" x2="226.8984" y1="282.625" y2="282.625"/><text fill="#000000" font-family="sans-serif" font-size="13" lengthAdjust="spacing" textLength="83.8145" x="59.8413" y="277.7686">cancelDelete()</text></g><g class="message" data-participant-1="TagGroupPage" data-participant-2="TagGroupPage"><line style="stroke:#181818;stroke-width:1;" x1="247.8984" x2="289.8984" y1="312.9766" y2="312.9766"/><line style="stroke:#181818;stroke-width:1;" x1="289.8984" x2="289.8984" y1="312.9766" y2="325.9766"/><line style="stroke:#181818;stroke-width:1;" x1="248.8984" x2="289.8984" y1="325.9766" y2="325.9766"/><polygon fill="#181818" points="258.8984,321.9766,248.8984,325.9766,258.8984,329.9766,254.8984,325.9766" style="stroke:#181818;stroke-width:1;"/><text fill="#000000" font-family="sans-serif" font-size="13" lengthAdjust="spacing" textLength="75.8608" x="254.8984" y="308.1201">closeDialog()</text></g><line style="stroke:#000000;stroke-width:1;stroke-dasharray:2,2;" x1="20" x2="723.5884" y1="364.9766" y2="364.9766"/><text fill="#000000" font-family="sans-serif" font-size="11" font-weight="bold" lengthAdjust="spacing" textLength="80.0723" x="25" y="376.3955">[user confirms]</text><g class="message" data-participant-1="User" data-participant-2="TagGroupPage"><polygon fill="#181818" points="220.8984,398.1641,230.8984,402.1641,220.8984,406.1641,224.8984,402.1641" style="stroke:#181818;stroke-width:1;"/><line style="stroke:#181818;stroke-width:1;" x1="52.8413" x2="226.8984" y1="402.1641" y2="402.1641"/><text fill="#000000" font-family="sans-serif" font-size="13" lengthAdjust="spacing" textLength="156.0571" x="59.8413" y="397.3076">confirmDelete(tagGroupID)</text></g><g class="message" data-participant-1="TagGroupPage" data-participant-2="TagGroupController"><polygon fill="#181818" points="489.5776,428.5156,499.5776,432.5156,489.5776,436.5156,493.5776,432.5156" style="stroke:#181818;stroke-width:1;"/><line style="stroke:#181818;stroke-width:1;" x1="242.8984" x2="495.5776" y1="432.5156" y2="432.5156"/><text fill="#000000" font-family="sans-serif" font-size="13" lengthAdjust="spacing" textLength="169.8125" x="249.8984" y="427.6592">deleteTagGroup(tagGroupID)</text></g><g class="message" data-participant-1="TagGroupController" data-participant-2="TagGroupRepository"><polygon fill="#181818" points="655.8711,458.8672,665.8711,462.8672,655.8711,466.8672,659.8711,462.8672" style="stroke:#181818;stroke-width:1;"/><line style="stroke:#181818;stroke-width:1;" x1="511.5776" x2="661.8711" y1="462.8672" y2="462.8672"/><text fill="#000000" font-family="sans-serif" font-size="13" lengthAdjust="spacing" textLength="137.2935" x="518.5776" y="458.0107">deleteById(tagGroupID)</text></g><g class="message" data-participant-1="TagGroupRepository" data-participant-2="TagGroupController"><polygon fill="#181818" points="522.5776,489.2188,512.5776,493.2188,522.5776,497.2188,518.5776,493.2188" style="stroke:#181818;stroke-width:1;"/><line style="stroke:#181818;stroke-width:1;stroke-dasharray:2,2;" x1="516.5776" x2="671.8711" y1="493.2188" y2="493.2188"/><text fill="#000000" font-family="sans-serif" font-size="13" lengthAdjust="spacing" textLength="72.2744" x="528.5776" y="488.3623">deleteStatus</text></g><g class="message" data-participant-1="TagGroupController" data-participant-2="TagGroupPage"><polygon fill="#181818" points="253.8984,519.5703,243.8984,523.5703,253.8984,527.5703,249.8984,523.5703" style="stroke:#181818;stroke-width:1;"/><line style="stroke:#181818;stroke-width:1;stroke-dasharray:2,2;" x1="247.8984" x2="505.5776" y1="523.5703" y2="523.5703"/><text fill="#000000" font-family="sans-serif" font-size="13" lengthAdjust="spacing" textLength="72.2744" x="259.8984" y="518.7139">deleteStatus</text></g><path d="M170.4502,538.5703 L230.6211,538.5703 L230.6211,546.9219 L220.6211,556.9219 L170.4502,556.9219 L170.4502,538.5703" fill="#EEEEEE" style="stroke:#000000;stroke-width:1.5;"/><rect fill="none" height="180.8906" style="stroke:#000000;stroke-width:1.5;" width="341.1274" x="170.4502" y="538.5703"/><text fill="#000000" font-family="sans-serif" font-size="13" font-weight="bold" lengthAdjust="spacing" textLength="15.1709" x="185.4502" y="553.0654">alt</text><text fill="#000000" font-family="sans-serif" font-size="11" font-weight="bold" lengthAdjust="spacing" textLength="70.9038" x="245.6211" y="551.9893">[delete failed]</text><g class="message" data-participant-1="TagGroupPage" data-participant-2="TagGroupPage"><line style="stroke:#181818;stroke-width:1;" x1="247.8984" x2="289.8984" y1="579.2734" y2="579.2734"/><line style="stroke:#181818;stroke-width:1;" x1="289.8984" x2="289.8984" y1="579.2734" y2="592.2734"/><line style="stroke:#181818;stroke-width:1;" x1="248.8984" x2="289.8984" y1="592.2734" y2="592.2734"/><polygon fill="#181818" points="258.8984,588.2734,248.8984,592.2734,258.8984,596.2734,254.8984,592.2734" style="stroke:#181818;stroke-width:1;"/><text fill="#000000" font-family="sans-serif" font-size="13" lengthAdjust="spacing" textLength="234.6792" x="254.8984" y="574.417">displayError("Failed to delete tag group")</text></g><line style="stroke:#000000;stroke-width:1;stroke-dasharray:2,2;" x1="170.4502" x2="511.5776" y1="631.2734" y2="631.2734"/><text fill="#000000" font-family="sans-serif" font-size="11" font-weight="bold" lengthAdjust="spacing" textLength="99.0376" x="175.4502" y="642.6924">[delete succeeded]</text><g class="message" data-participant-1="TagGroupPage" data-participant-2="TagGroupPage"><line style="stroke:#181818;stroke-width:1;" x1="247.8984" x2="289.8984" y1="668.4609" y2="668.4609"/><line style="stroke:#181818;stroke-width:1;" x1="289.8984" x2="289.8984" y1="668.4609" y2="681.4609"/><line style="stroke:#181818;stroke-width:1;" x1="248.8984" x2="289.8984" y1="681.4609" y2="681.4609"/><polygon fill="#181818" points="258.8984,677.4609,248.8984,681.4609,258.8984,685.4609,254.8984,681.4609" style="stroke:#181818;stroke-width:1;"/><text fill="#000000" font-family="sans-serif" font-size="13" lengthAdjust="spacing" textLength="65.0254" x="254.8984" y="663.6045">reloadList()</text></g><!--SRC=[fPDBReCm48RtFiM85R7K2sJHHPi-8dLHzN60YJqGguwDRDEMsnS38P044gciq3p- -MRusQ4ocSCT0UTUSWxFM9J-0_CdPyk2RPKaoAmD6_lB68fW7IISB-7Ja-Cy0VJDAzlOqaXqLPlTzxzYJbtLCCI4DS5PFIw-RuEw5pvDC391XGh6ZKVbRrHOhshIYh781ZUte-cm1A6L-5gHfa1fw5BhrI8kgBunq9YMZRfFrVpM_jICcN8x3CgQbK9jytHAJjB46DG1oWWiq0ZIda7zJ6tGb7GhB9hA2vH2MqyzMcmuZn4pKuWr57M8xRxpZ6tDcJlFyXu-TwqXc-PzQYHoTeM1LqP31gA3KGUhzAFkghMyF6RWiU6KWTxD_4Rl0KFffuuzjF3K5gVtlaRv-3xHSsqVPAWqoIPwXPsayeN6wi4vwzBaiUc5OFTYzGKXZ-N9ebUSzjkSvsAkyLsdx4iXYEJrf8wqHVcYV4Z_oG8jZ97pFucHVm00]--></g></svg>