<svg xmlns="http://www.w3.org/2000/svg" xmlns:xlink="http://www.w3.org/1999/xlink" contentStyleType="text/css" data-diagram-type="SEQUENCE" height="1020px" preserveAspectRatio="none" style="width:778px;height:1020px;background:#FFFFFF;" version="1.1" viewBox="0 0 778 1020" width="778px" zoomAndPan="magnify"><defs/><g><rect fill="#FFFFFF" height="999.3438" style="stroke:#181818;stroke-width:1.5;" width="767.9937" x="5" y="15"/><path d="M69.4824,15 L69.4824,25.6094 L59.4824,35.6094 L5,35.6094" fill="none" style="stroke:#181818;stroke-width:1.5;"/><text fill="#000000" font-family="sans-serif" font-size="14" font-weight="bold" lengthAdjust="spacing" textLength="16.3379" x="8" y="30.5332">sd</text><text fill="#000000" font-family="sans-serif" font-size="14" lengthAdjust="spacing" textLength="34.2549" x="28.2275" y="30.5332">Login</text><g><title>... LoginForm..</title><rect fill="#FFFFFF" height="165.0547" style="stroke:#181818;stroke-width:1;" width="10" x="244.5229" y="153.5703"/></g><g><title>... LoginForm..</title><rect fill="#FFFFFF" height="28" style="stroke:#181818;stroke-width:1;" width="10" x="249.5229" y="191.9219"/></g><g><title>... LoginForm..</title><rect fill="#FFFFFF" height="28" style="stroke:#181818;stroke-width:1;" width="10" x="249.5229" y="290.625"/></g><g><title>... LoginForm..</title><rect fill="#FFFFFF" height="286.4609" style="stroke:#181818;stroke-width:1;" width="10" x="244.5229" y="362.9766"/></g><g><title>... LoginForm..</title><rect fill="#FFFFFF" height="28" style="stroke:#181818;stroke-width:1;" width="10" x="249.5229" y="401.3281"/></g><g><title>... LoginForm..</title><rect fill="#FFFFFF" height="28" style="stroke:#181818;stroke-width:1;" width="10" x="249.5229" y="621.4375"/></g><g><title>... LoginForm..</title><rect fill="#FFFFFF" height="284.1094" style="stroke:#181818;stroke-width:1;" width="10" x="244.5229" y="702.625"/></g><g><title>... LoginForm..</title><rect fill="#FFFFFF" height="28" style="stroke:#181818;stroke-width:1;" width="10" x="249.5229" y="740.9766"/></g><g><title>... LoginForm..</title><rect fill="#FFFFFF" height="28" style="stroke:#181818;stroke-width:1;" width="10" x="249.5229" y="935.7344"/></g><g><title>... LoginController..</title><rect fill="#FFFFFF" height="116.4063" style="stroke:#181818;stroke-width:1;" width="10" x="516.7822" y="466.6797"/></g><g><title>... LoginController..</title><rect fill="#FFFFFF" height="91.0547" style="stroke:#181818;stroke-width:1;" width="10" x="516.7822" y="806.3281"/></g><g><title>... UserRepository..</title><rect fill="#FFFFFF" height="30.3516" style="stroke:#181818;stroke-width:1;" width="10" x="681.5903" y="497.0313"/></g><g><title>... UserRepository..</title><rect fill="#FFFFFF" height="30.3516" style="stroke:#181818;stroke-width:1;" width="10" x="681.5903" y="836.6797"/></g><rect fill="none" height="91.7031" style="stroke:#000000;stroke-width:1.5;" width="314.4717" x="195.6987" y="241.9219"/><rect fill="none" height="436.3516" style="stroke:#000000;stroke-width:1.5;" width="735.9937" x="20" y="542.3828"/><g><title>... User..</title><rect fill="#000000" fill-opacity="0.00000" height="874.5156" width="8" x="48.8413" y="121.2188"/><line style="stroke:#181818;stroke-width:0.5;stroke-dasharray:5,5;" x1="52" x2="52" y1="121.2188" y2="995.7344"/></g><g><title>... LoginForm..</title><rect fill="#000000" fill-opacity="0.00000" height="874.5156" width="8" x="245.5229" y="121.2188"/><line style="stroke:#181818;stroke-width:0.5;stroke-dasharray:5,5;" x1="248.6987" x2="248.6987" y1="121.2188" y2="995.7344"/></g><g><title>... LoginController..</title><rect fill="#000000" fill-opacity="0.00000" height="874.5156" width="8" x="517.7822" y="121.2188"/><line style="stroke:#181818;stroke-width:0.5;stroke-dasharray:5,5;" x1="521.0132" x2="521.0132" y1="121.2188" y2="995.7344"/></g><g><title>... UserRepository..</title><rect fill="#000000" fill-opacity="0.00000" height="874.5156" width="8" x="682.5903" y="121.2188"/><line style="stroke:#181818;stroke-width:0.5;stroke-dasharray:5,5;" x1="686.187" x2="686.187" y1="121.2188" y2="995.7344"/></g><g class="participant participant-head" data-participant="User"><text fill="#000000" font-family="sans-serif" font-size="14" font-weight="bold" lengthAdjust="spacing" textLength="39.6826" x="30" y="118.1426">: User</text><ellipse cx="52.8413" cy="52.1094" fill="#E2E2F0" rx="8" ry="8" style="stroke:#181818;stroke-width:0.5;"/><path d="M52.8413,60.1094 L52.8413,87.1094 M39.8413,68.1094 L65.8413,68.1094 M52.8413,87.1094 L39.8413,102.1094 M52.8413,87.1094 L65.8413,102.1094" fill="none" style="stroke:#181818;stroke-width:0.5;"/></g><g class="participant participant-head" data-participant="LoginForm"><text fill="#000000" font-family="sans-serif" font-size="14" font-weight="bold" lengthAdjust="spacing" textLength="81.6484" x="205.6987" y="118.1426">: LoginForm</text><path d="M229.0229,75.6094 L229.0229,99.6094 M229.0229,87.6094 L246.0229,87.6094" fill="none" style="stroke:#181818;stroke-width:0.5;"/><ellipse cx="258.0229" cy="87.6094" fill="#E2E2F0" rx="12" ry="12" style="stroke:#181818;stroke-width:0.5;"/></g><g class="participant participant-head" data-participant="LoginController"><text fill="#000000" font-family="sans-serif" font-size="14" font-weight="bold" lengthAdjust="spacing" textLength="113.5381" x="462.0132" y="118.1426">: LoginController</text><ellipse cx="521.7822" cy="87.6094" fill="#E2E2F0" rx="12" ry="12" style="stroke:#181818;stroke-width:0.5;"/><polygon fill="#181818" points="517.7822,75.6094,523.7822,70.6094,521.7822,75.6094,523.7822,80.6094,517.7822,75.6094" style="stroke:#181818;stroke-width:1;"/></g><g class="participant participant-head" data-participant="UserRepository"><text fill="#000000" font-family="sans-serif" font-size="14" font-weight="bold" lengthAdjust="spacing" textLength="112.8066" x="627.187" y="118.1426">: UserRepository</text><ellipse cx="686.5903" cy="87.6094" fill="#E2E2F0" rx="12" ry="12" style="stroke:#181818;stroke-width:0.5;"/><line style="stroke:#181818;stroke-width:0.5;" x1="674.5903" x2="698.5903" y1="101.6094" y2="101.6094"/></g><g><title>... LoginForm..</title><rect fill="#FFFFFF" height="165.0547" style="stroke:#181818;stroke-width:1;" width="10" x="244.5229" y="153.5703"/></g><g><title>... LoginForm..</title><rect fill="#FFFFFF" height="28" style="stroke:#181818;stroke-width:1;" width="10" x="249.5229" y="191.9219"/></g><g><title>... LoginForm..</title><rect fill="#FFFFFF" height="28" style="stroke:#181818;stroke-width:1;" width="10" x="249.5229" y="290.625"/></g><g><title>... LoginForm..</title><rect fill="#FFFFFF" height="286.4609" style="stroke:#181818;stroke-width:1;" width="10" x="244.5229" y="362.9766"/></g><g><title>... LoginForm..</title><rect fill="#FFFFFF" height="28" style="stroke:#181818;stroke-width:1;" width="10" x="249.5229" y="401.3281"/></g><g><title>... LoginForm..</title><rect fill="#FFFFFF" height="28" style="stroke:#181818;stroke-width:1;" width="10" x="249.5229" y="621.4375"/></g><g><title>... LoginForm..</title><rect fill="#FFFFFF" height="284.1094" style="stroke:#181818;stroke-width:1;" width="10" x="244.5229" y="702.625"/></g><g><title>... LoginForm..</title><rect fill="#FFFFFF" height="28" style="stroke:#181818;stroke-width:1;" width="10" x="249.5229" y="740.9766"/></g><g><title>... LoginForm..</title><rect fill="#FFFFFF" height="28" style="stroke:#181818;stroke-width:1;" width="10" x="249.5229" y="935.7344"/></g><g><title>... LoginController..</title><rect fill="#FFFFFF" height="116.4063" style="stroke:#181818;stroke-width:1;" width="10" x="516.7822" y="466.6797"/></g><g><title>... LoginController..</title><rect fill="#FFFFFF" height="91.0547" style="stroke:#181818;stroke-width:1;" width="10" x="516.7822" y="806.3281"/></g><g><title>... UserRepository..</title><rect fill="#FFFFFF" height="30.3516" style="stroke:#181818;stroke-width:1;" width="10" x="681.5903" y="497.0313"/></g><g><title>... UserRepository..</title><rect fill="#FFFFFF" height="30.3516" style="stroke:#181818;stroke-width:1;" width="10" x="681.5903" y="836.6797"/></g><g class="message" data-participant-1="User" data-participant-2="LoginForm"><polygon fill="#181818" points="232.5229,149.5703,242.5229,153.5703,232.5229,157.5703,236.5229,153.5703" style="stroke:#181818;stroke-width:1;"/><line style="stroke:#181818;stroke-width:1;" x1="52.8413" x2="238.5229" y1="153.5703" y2="153.5703"/><text fill="#000000" font-family="sans-serif" font-size="13" lengthAdjust="spacing" textLength="172.6816" x="59.8413" y="148.7139">submitLogin(email, password)</text></g><g class="message" data-participant-1="LoginForm" data-participant-2="LoginForm"><line style="stroke:#181818;stroke-width:1;" x1="259.5229" x2="301.5229" y1="183.9219" y2="183.9219"/><line style="stroke:#181818;stroke-width:1;" x1="301.5229" x2="301.5229" y1="183.9219" y2="196.9219"/><line style="stroke:#181818;stroke-width:1;" x1="260.5229" x2="301.5229" y1="196.9219" y2="196.9219"/><polygon fill="#181818" points="270.5229,192.9219,260.5229,196.9219,270.5229,200.9219,266.5229,196.9219" style="stroke:#181818;stroke-width:1;"/><text fill="#000000" font-family="sans-serif" font-size="13" lengthAdjust="spacing" textLength="177.7217" x="266.5229" y="179.0654">validateForm(email, password)</text></g><path d="M195.6987,241.9219 L260.9097,241.9219 L260.9097,250.2734 L250.9097,260.2734 L195.6987,260.2734 L195.6987,241.9219" fill="#EEEEEE" style="stroke:#000000;stroke-width:1.5;"/><rect fill="none" height="91.7031" style="stroke:#000000;stroke-width:1.5;" width="314.4717" x="195.6987" y="241.9219"/><text fill="#000000" font-family="sans-serif" font-size="13" font-weight="bold" lengthAdjust="spacing" textLength="20.2109" x="210.6987" y="256.417">opt</text><text fill="#000000" font-family="sans-serif" font-size="11" font-weight="bold" lengthAdjust="spacing" textLength="71.5107" x="275.9097" y="255.3408">[fields empty]</text><g class="message" data-participant-1="LoginForm" data-participant-2="LoginForm"><line style="stroke:#181818;stroke-width:1;" x1="259.5229" x2="301.5229" y1="282.625" y2="282.625"/><line style="stroke:#181818;stroke-width:1;" x1="301.5229" x2="301.5229" y1="282.625" y2="295.625"/><line style="stroke:#181818;stroke-width:1;" x1="260.5229" x2="301.5229" y1="295.625" y2="295.625"/><polygon fill="#181818" points="270.5229,291.625,260.5229,295.625,270.5229,299.625,266.5229,295.625" style="stroke:#181818;stroke-width:1;"/><text fill="#000000" font-family="sans-serif" font-size="13" lengthAdjust="spacing" textLength="221.6475" x="266.5229" y="277.7686">displayError("Fields cannot be empty")</text></g><g class="message" data-participant-1="User" data-participant-2="LoginForm"><polygon fill="#181818" points="232.5229,358.9766,242.5229,362.9766,232.5229,366.9766,236.5229,362.9766" style="stroke:#181818;stroke-width:1;"/><line style="stroke:#181818;stroke-width:1;" x1="52.8413" x2="238.5229" y1="362.9766" y2="362.9766"/><text fill="#000000" font-family="sans-serif" font-size="13" lengthAdjust="spacing" textLength="172.6816" x="59.8413" y="358.1201">submitLogin(email, password)</text></g><g class="message" data-participant-1="LoginForm" data-participant-2="LoginForm"><line style="stroke:#181818;stroke-width:1;" x1="259.5229" x2="301.5229" y1="393.3281" y2="393.3281"/><line style="stroke:#181818;stroke-width:1;" x1="301.5229" x2="301.5229" y1="393.3281" y2="406.3281"/><line style="stroke:#181818;stroke-width:1;" x1="260.5229" x2="301.5229" y1="406.3281" y2="406.3281"/><polygon fill="#181818" points="270.5229,402.3281,260.5229,406.3281,270.5229,410.3281,266.5229,406.3281" style="stroke:#181818;stroke-width:1;"/><text fill="#000000" font-family="sans-serif" font-size="13" lengthAdjust="spacing" textLength="177.7217" x="266.5229" y="388.4717">validateForm(email, password)</text></g><g class="message" data-participant-1="LoginForm" data-participant-2="LoginController"><polygon fill="#181818" points="504.7822,462.6797,514.7822,466.6797,504.7822,470.6797,508.7822,466.6797" style="stroke:#181818;stroke-width:1;"/><line style="stroke:#181818;stroke-width:1;" x1="254.5229" x2="510.7822" y1="466.6797" y2="466.6797"/><text fill="#000000" font-family="sans-serif" font-size="13" lengthAdjust="spacing" textLength="200.8652" x="261.5229" y="461.8232">authenticateUser(email, password)</text></g><g class="message" data-participant-1="LoginController" data-participant-2="UserRepository"><polygon fill="#181818" points="669.5903,493.0313,679.5903,497.0313,669.5903,501.0313,673.5903,497.0313" style="stroke:#181818;stroke-width:1;"/><line style="stroke:#181818;stroke-width:1;" x1="526.7822" x2="675.5903" y1="497.0313" y2="497.0313"/><text fill="#000000" font-family="sans-serif" font-size="13" lengthAdjust="spacing" textLength="135.8081" x="533.7822" y="492.1748">findUserByEmail(email)</text></g><g class="message" data-participant-1="UserRepository" data-participant-2="LoginController"><polygon fill="#181818" points="537.7822,523.3828,527.7822,527.3828,537.7822,531.3828,533.7822,527.3828" style="stroke:#181818;stroke-width:1;"/><line style="stroke:#181818;stroke-width:1;stroke-dasharray:2,2;" x1="531.7822" x2="685.5903" y1="527.3828" y2="527.3828"/><text fill="#000000" font-family="sans-serif" font-size="13" lengthAdjust="spacing" textLength="52.749" x="543.7822" y="522.5264">userData</text></g><path d="M20,542.3828 L80.1709,542.3828 L80.1709,550.7344 L70.1709,560.7344 L20,560.7344 L20,542.3828" fill="#EEEEEE" style="stroke:#000000;stroke-width:1.5;"/><rect fill="none" height="436.3516" style="stroke:#000000;stroke-width:1.5;" width="735.9937" x="20" y="542.3828"/><text fill="#000000" font-family="sans-serif" font-size="13" font-weight="bold" lengthAdjust="spacing" textLength="15.1709" x="35" y="556.8779">alt</text><text fill="#000000" font-family="sans-serif" font-size="11" font-weight="bold" lengthAdjust="spacing" textLength="207.1846" x="95.1709" y="555.8018">[user not found or password mismatch]</text><g class="message" data-participant-1="LoginController" data-participant-2="LoginForm"><polygon fill="#181818" points="265.5229,579.0859,255.5229,583.0859,265.5229,587.0859,261.5229,583.0859" style="stroke:#181818;stroke-width:1;"/><line style="stroke:#181818;stroke-width:1;" x1="259.5229" x2="520.7822" y1="583.0859" y2="583.0859"/><text fill="#000000" font-family="sans-serif" font-size="13" lengthAdjust="spacing" textLength="238.2593" x="271.5229" y="578.2295">reportFailure("Invalid email or password")</text></g><g class="message" data-participant-1="LoginForm" data-participant-2="LoginForm"><line style="stroke:#181818;stroke-width:1;" x1="259.5229" x2="301.5229" y1="613.4375" y2="613.4375"/><line style="stroke:#181818;stroke-width:1;" x1="301.5229" x2="301.5229" y1="613.4375" y2="626.4375"/><line style="stroke:#181818;stroke-width:1;" x1="260.5229" x2="301.5229" y1="626.4375" y2="626.4375"/><polygon fill="#181818" points="270.5229,622.4375,260.5229,626.4375,270.5229,630.4375,266.5229,626.4375" style="stroke:#181818;stroke-width:1;"/><text fill="#000000" font-family="sans-serif" font-size="13" lengthAdjust="spacing" textLength="233.9175" x="266.5229" y="608.5811">displayError("Invalid email or password")</text></g><line style="stroke:#000000;stroke-width:1;stroke-dasharray:2,2;" x1="20" x2="755.9937" y1="665.4375" y2="665.4375"/><text fill="#000000" font-family="sans-serif" font-size="11" font-weight="bold" lengthAdjust="spacing" textLength="142.4146" x="25" y="676.8564">[authentication successful]</text><g class="message" data-participant-1="User" data-participant-2="LoginForm"><polygon fill="#181818" points="232.5229,698.625,242.5229,702.625,232.5229,706.625,236.5229,702.625" style="stroke:#181818;stroke-width:1;"/><line style="stroke:#181818;stroke-width:1;" x1="52.8413" x2="238.5229" y1="702.625" y2="702.625"/><text fill="#000000" font-family="sans-serif" font-size="13" lengthAdjust="spacing" textLength="172.6816" x="59.8413" y="697.7686">submitLogin(email, password)</text></g><g class="message" data-participant-1="LoginForm" data-participant-2="LoginForm"><line style="stroke:#181818;stroke-width:1;" x1="259.5229" x2="301.5229" y1="732.9766" y2="732.9766"/><line style="stroke:#181818;stroke-width:1;" x1="301.5229" x2="301.5229" y1="732.9766" y2="745.9766"/><line style="stroke:#181818;stroke-width:1;" x1="260.5229" x2="301.5229" y1="745.9766" y2="745.9766"/><polygon fill="#181818" points="270.5229,741.9766,260.5229,745.9766,270.5229,749.9766,266.5229,745.9766" style="stroke:#181818;stroke-width:1;"/><text fill="#000000" font-family="sans-serif" font-size="13" lengthAdjust="spacing" textLength="177.7217" x="266.5229" y="728.1201">validateForm(email, password)</text></g><g class="message" data-participant-1="LoginForm" data-participant-2="LoginController"><polygon fill="#181818" points="504.7822,802.3281,514.7822,806.3281,504.7822,810.3281,508.7822,806.3281" style="stroke:#181818;stroke-width:1;"/><line style="stroke:#181818;stroke-width:1;" x1="254.5229" x2="510.7822" y1="806.3281" y2="806.3281"/><text fill="#000000" font-family="sans-serif" font-size="13" lengthAdjust="spacing" textLength="200.8652" x="261.5229" y="801.4717">authenticateUser(email, password)</text></g><g class="message" data-participant-1="LoginController" data-participant-2="UserRepository"><polygon fill="#181818" points="669.5903,832.6797,679.5903,836.6797,669.5903,840.6797,673.5903,836.6797" style="stroke:#181818;stroke-width:1;"/><line style="stroke:#181818;stroke-width:1;" x1="526.7822" x2="675.5903" y1="836.6797" y2="836.6797"/><text fill="#000000" font-family="sans-serif" font-size="13" lengthAdjust="spacing" textLength="135.8081" x="533.7822" y="831.8232">findUserByEmail(email)</text></g><g class="message" data-participant-1="UserRepository" data-participant-2="LoginController"><polygon fill="#181818" points="537.7822,863.0313,527.7822,867.0313,537.7822,871.0313,533.7822,867.0313" style="stroke:#181818;stroke-width:1;"/><line style="stroke:#181818;stroke-width:1;stroke-dasharray:2,2;" x1="531.7822" x2="685.5903" y1="867.0313" y2="867.0313"/><text fill="#000000" font-family="sans-serif" font-size="13" lengthAdjust="spacing" textLength="52.749" x="543.7822" y="862.1748">userData</text></g><g class="message" data-participant-1="LoginController" data-participant-2="LoginForm"><polygon fill="#181818" points="265.5229,893.3828,255.5229,897.3828,265.5229,901.3828,261.5229,897.3828" style="stroke:#181818;stroke-width:1;"/><line style="stroke:#181818;stroke-width:1;" x1="259.5229" x2="520.7822" y1="897.3828" y2="897.3828"/><text fill="#000000" font-family="sans-serif" font-size="13" lengthAdjust="spacing" textLength="169.7871" x="271.5229" y="892.5264">reportSuccess(userData.role)</text></g><g class="message" data-participant-1="LoginForm" data-participant-2="LoginForm"><line style="stroke:#181818;stroke-width:1;" x1="259.5229" x2="301.5229" y1="927.7344" y2="927.7344"/><line style="stroke:#181818;stroke-width:1;" x1="301.5229" x2="301.5229" y1="927.7344" y2="940.7344"/><line style="stroke:#181818;stroke-width:1;" x1="260.5229" x2="301.5229" y1="940.7344" y2="940.7344"/><polygon fill="#181818" points="270.5229,936.7344,260.5229,940.7344,270.5229,944.7344,266.5229,940.7344" style="stroke:#181818;stroke-width:1;"/><text fill="#000000" font-family="sans-serif" font-size="13" lengthAdjust="spacing" textLength="208.8125" x="266.5229" y="922.8779">redirectToDashboard(userData.role)</text></g><!--SRC=[xLLDZvim4BtxLumuD5dKNIdjBOSUihkHghQNVlo00G_5Yh6HRRRbttSCcq0fH4dLKxLSmEEPzsR6Rqo5oXGEAu8qzJ9DuQFzhemGfP84XRKXip-5m3nO1qcQRk6R9vUc2Q3lFaLc6oFHjVrk5xsthdfsEQr5RarmLe_SxdkBFk5Dh89CKA4TQ3zJRRtYJDfH0eDHYBY6stS3Asp1DrcbGcTPKuLAluOQlVzXdRo9TQad33JAKmp14wGdr4goSrnU12Lf3b_OEa2XI4iFLDMX5S3F8gjKljROFZfdtJhPzt4v6cC3PDGZ93STnWmRMsUpMBAJaHtKrPrSveU_REWPnAMIPgW6EJ4XDg6CeievCbPu2Ub8ZmF529M9VfSXynJAo6ZSjO-HeAUPW4-q6_TMyC4wEdW5dvGFU21uUxVPm2j-lTbiOOSQFHe-TTVK2DmvF9tLYFvsjlI6dHwE4QF-JKUepsEdxG5MgCCAb56iGSwA3WrdPZMLVpIcAqo7ZWIYC8juAG1V6SVEGgLyXI4lEz-5FewruJWd5_RSjyRHEdblEh50ryanyBFqvrGnFRahnkmIkWK9djNdsKtIdiOILTRmpEKvULyq-cKibmxt_v_AgsRcIo-PzH7xZftf7qs98waSvU6hVK1VPXQTNEAvLYFyv_a5]--></g></svg>