<svg xmlns="http://www.w3.org/2000/svg" xmlns:xlink="http://www.w3.org/1999/xlink" contentStyleType="text/css" data-diagram-type="SEQUENCE" height="1101px" preserveAspectRatio="none" style="width:1461px;height:1101px;background:#FFFFFF;" version="1.1" viewBox="0 0 1461 1101" width="1461px" zoomAndPan="magnify"><defs/><g><rect fill="#FFFFFF" height="1080.6406" style="stroke:#181818;stroke-width:1.5;" width="1450.7075" x="5" y="15"/><path d="M79.4219,15 L79.4219,25.6094 L69.4219,35.6094 L5,35.6094" fill="none" style="stroke:#181818;stroke-width:1.5;"/><text fill="#000000" font-family="sans-serif" font-size="14" lengthAdjust="spacing" textLength="4.9697" x="8" y="30.5332">"</text><text fill="#000000" font-family="sans-serif" font-size="14" font-weight="bold" lengthAdjust="spacing" textLength="16.3379" x="12.9697" y="30.5332">sd</text><text fill="#000000" font-family="sans-serif" font-size="14" lengthAdjust="spacing" textLength="39.2246" x="33.1973" y="30.5332">Login"</text><g><title>... LoginForm..</title><rect fill="#FFFFFF" height="172.4063" style="stroke:#181818;stroke-width:1;" width="10" x="305.6406" y="153.5703"/></g><g><title>... LoginForm..</title><rect fill="#FFFFFF" height="28" style="stroke:#181818;stroke-width:1;" width="10" x="310.6406" y="191.9219"/></g><g><title>... AuthController .toNextJsHandler...</title><rect fill="#FFFFFF" height="177.1094" style="stroke:#181818;stroke-width:1;" width="10" x="562.0518" y="377.3281"/></g><g><title>... better-auth .service...</title><rect fill="#FFFFFF" height="116.4063" style="stroke:#181818;stroke-width:1;" width="10" x="790.4507" y="407.6797"/></g><g><title>... better-auth .service...</title><rect fill="#FFFFFF" height="60.7031" style="stroke:#181818;stroke-width:1;" width="10" x="790.4507" y="682.3281"/></g><g><title>... prismaAdapter .UserRepository...</title><rect fill="#FFFFFF" height="30.3516" style="stroke:#181818;stroke-width:1;" width="10" x="1106.4531" y="438.0313"/></g><g><title>... SessionService .internal...</title><rect fill="#FFFFFF" height="30.3516" style="stroke:#181818;stroke-width:1;" width="10" x="1322.7871" y="893.2734"/></g><rect fill="none" height="106.0547" style="stroke:#000000;stroke-width:1.5;" width="536.2881" x="30" y="241.9219"/><rect fill="none" height="576.6484" style="stroke:#000000;stroke-width:1.5;" width="1418.7075" x="20" y="483.3828"/><rect fill="none" height="350.7031" style="stroke:#000000;stroke-width:1.5;" width="1398.7075" x="30" y="702.3281"/><g><title>... User..</title><rect fill="#000000" fill-opacity="0.00000" height="955.8125" width="8" x="58.8413" y="121.2188"/><line style="stroke:#181818;stroke-width:0.5;stroke-dasharray:5,5;" x1="62" x2="62" y1="121.2188" y2="1077.0313"/></g><g><title>... LoginForm..</title><rect fill="#000000" fill-opacity="0.00000" height="955.8125" width="8" x="306.6406" y="121.2188"/><line style="stroke:#181818;stroke-width:0.5;stroke-dasharray:5,5;" x1="309.8164" x2="309.8164" y1="121.2188" y2="1077.0313"/></g><g><title>... AuthController .toNextJsHandler...</title><rect fill="#000000" fill-opacity="0.00000" height="955.8125" width="8" x="563.0518" y="121.2188"/><line style="stroke:#181818;stroke-width:0.5;stroke-dasharray:5,5;" x1="566.1587" x2="566.1587" y1="121.2188" y2="1077.0313"/></g><g><title>... better-auth .service...</title><rect fill="#000000" fill-opacity="0.00000" height="955.8125" width="8" x="791.4507" y="121.2188"/><line style="stroke:#181818;stroke-width:0.5;stroke-dasharray:5,5;" x1="794.8784" x2="794.8784" y1="121.2188" y2="1077.0313"/></g><g><title>... prismaAdapter .UserRepository...</title><rect fill="#000000" fill-opacity="0.00000" height="955.8125" width="8" x="1107.4531" y="121.2188"/><line style="stroke:#181818;stroke-width:0.5;stroke-dasharray:5,5;" x1="1111.0396" x2="1111.0396" y1="121.2188" y2="1077.0313"/></g><g><title>... SessionService .internal...</title><rect fill="#000000" fill-opacity="0.00000" height="955.8125" width="8" x="1323.7871" y="121.2188"/><line style="stroke:#181818;stroke-width:0.5;stroke-dasharray:5,5;" x1="1326.8667" x2="1326.8667" y1="121.2188" y2="1077.0313"/></g><g class="participant participant-head" data-participant="User"><text fill="#000000" font-family="sans-serif" font-size="14" font-weight="bold" lengthAdjust="spacing" textLength="39.6826" x="40" y="118.1426">: User</text><ellipse cx="62.8413" cy="52.1094" fill="#E2E2F0" rx="8" ry="8" style="stroke:#181818;stroke-width:0.5;"/><path d="M62.8413,60.1094 L62.8413,87.1094 M49.8413,68.1094 L75.8413,68.1094 M62.8413,87.1094 L49.8413,102.1094 M62.8413,87.1094 L75.8413,102.1094" fill="none" style="stroke:#181818;stroke-width:0.5;"/></g><g class="participant participant-head" data-participant="LoginForm"><text fill="#000000" font-family="sans-serif" font-size="14" font-weight="bold" lengthAdjust="spacing" textLength="81.6484" x="266.8164" y="118.1426">: LoginForm</text><path d="M290.1406,75.6094 L290.1406,99.6094 M290.1406,87.6094 L307.1406,87.6094" fill="none" style="stroke:#181818;stroke-width:0.5;"/><ellipse cx="319.1406" cy="87.6094" fill="#E2E2F0" rx="12" ry="12" style="stroke:#181818;stroke-width:0.5;"/></g><g class="participant participant-head" data-participant="AuthController"><text fill="#000000" font-family="sans-serif" font-size="14" font-weight="bold" lengthAdjust="spacing" textLength="231.7861" x="448.1587" y="118.1426">: AuthController (toNextJsHandler)</text><ellipse cx="567.0518" cy="87.6094" fill="#E2E2F0" rx="12" ry="12" style="stroke:#181818;stroke-width:0.5;"/><polygon fill="#181818" points="563.0518,75.6094,569.0518,70.6094,567.0518,75.6094,569.0518,80.6094,563.0518,75.6094" style="stroke:#181818;stroke-width:1;"/></g><g class="participant participant-head" data-participant="BetterAuthService"><text fill="#000000" font-family="sans-serif" font-size="14" font-weight="bold" lengthAdjust="spacing" textLength="143.1445" x="720.8784" y="118.1426">: better-auth (service)</text><ellipse cx="795.4507" cy="87.6094" fill="#E2E2F0" rx="12" ry="12" style="stroke:#181818;stroke-width:0.5;"/><polygon fill="#181818" points="791.4507,75.6094,797.4507,70.6094,795.4507,75.6094,797.4507,80.6094,791.4507,75.6094" style="stroke:#181818;stroke-width:1;"/></g><g class="participant participant-head" data-participant="PrismaAdapter"><text fill="#000000" font-family="sans-serif" font-size="14" font-weight="bold" lengthAdjust="spacing" textLength="224.8271" x="996.0396" y="118.1426">: prismaAdapter (UserRepository)</text><ellipse cx="1111.4531" cy="87.6094" fill="#E2E2F0" rx="12" ry="12" style="stroke:#181818;stroke-width:0.5;"/><line style="stroke:#181818;stroke-width:0.5;" x1="1099.4531" x2="1123.4531" y1="101.6094" y2="101.6094"/></g><g class="participant participant-head" data-participant="SessionService"><text fill="#000000" font-family="sans-serif" font-size="14" font-weight="bold" lengthAdjust="spacing" textLength="175.8408" x="1236.8667" y="118.1426">: SessionService (internal)</text><ellipse cx="1327.7871" cy="87.6094" fill="#E2E2F0" rx="12" ry="12" style="stroke:#181818;stroke-width:0.5;"/><polygon fill="#181818" points="1323.7871,75.6094,1329.7871,70.6094,1327.7871,75.6094,1329.7871,80.6094,1323.7871,75.6094" style="stroke:#181818;stroke-width:1;"/></g><g><title>... LoginForm..</title><rect fill="#FFFFFF" height="172.4063" style="stroke:#181818;stroke-width:1;" width="10" x="305.6406" y="153.5703"/></g><g><title>... LoginForm..</title><rect fill="#FFFFFF" height="28" style="stroke:#181818;stroke-width:1;" width="10" x="310.6406" y="191.9219"/></g><g><title>... AuthController .toNextJsHandler...</title><rect fill="#FFFFFF" height="177.1094" style="stroke:#181818;stroke-width:1;" width="10" x="562.0518" y="377.3281"/></g><g><title>... better-auth .service...</title><rect fill="#FFFFFF" height="116.4063" style="stroke:#181818;stroke-width:1;" width="10" x="790.4507" y="407.6797"/></g><g><title>... better-auth .service...</title><rect fill="#FFFFFF" height="60.7031" style="stroke:#181818;stroke-width:1;" width="10" x="790.4507" y="682.3281"/></g><g><title>... prismaAdapter .UserRepository...</title><rect fill="#FFFFFF" height="30.3516" style="stroke:#181818;stroke-width:1;" width="10" x="1106.4531" y="438.0313"/></g><g><title>... SessionService .internal...</title><rect fill="#FFFFFF" height="30.3516" style="stroke:#181818;stroke-width:1;" width="10" x="1322.7871" y="893.2734"/></g><g class="message" data-participant-1="User" data-participant-2="LoginForm"><polygon fill="#181818" points="293.6406,149.5703,303.6406,153.5703,293.6406,157.5703,297.6406,153.5703" style="stroke:#181818;stroke-width:1;"/><line style="stroke:#181818;stroke-width:1;" x1="62.8413" x2="299.6406" y1="153.5703" y2="153.5703"/><text fill="#000000" font-family="sans-serif" font-size="13" lengthAdjust="spacing" textLength="172.6816" x="69.8413" y="148.7139">submitLogin(email, password)</text></g><g class="message" data-participant-1="LoginForm" data-participant-2="LoginForm"><line style="stroke:#181818;stroke-width:1;" x1="320.6406" x2="362.6406" y1="183.9219" y2="183.9219"/><line style="stroke:#181818;stroke-width:1;" x1="362.6406" x2="362.6406" y1="183.9219" y2="196.9219"/><line style="stroke:#181818;stroke-width:1;" x1="321.6406" x2="362.6406" y1="196.9219" y2="196.9219"/><polygon fill="#181818" points="331.6406,192.9219,321.6406,196.9219,331.6406,200.9219,327.6406,196.9219" style="stroke:#181818;stroke-width:1;"/><text fill="#000000" font-family="sans-serif" font-size="13" lengthAdjust="spacing" textLength="177.7217" x="327.6406" y="179.0654">validateForm(email, password)</text></g><path d="M30,241.9219 L95.2109,241.9219 L95.2109,250.2734 L85.2109,260.2734 L30,260.2734 L30,241.9219" fill="#EEEEEE" style="stroke:#000000;stroke-width:1.5;"/><rect fill="none" height="106.0547" style="stroke:#000000;stroke-width:1.5;" width="536.2881" x="30" y="241.9219"/><text fill="#000000" font-family="sans-serif" font-size="13" font-weight="bold" lengthAdjust="spacing" textLength="20.2109" x="45" y="256.417">opt</text><text fill="#000000" font-family="sans-serif" font-size="11" font-weight="bold" lengthAdjust="spacing" textLength="71.5107" x="110.2109" y="255.3408">[fields empty]</text><g class="message" data-participant-1="LoginForm" data-participant-2="LoginForm"><line style="stroke:#181818;stroke-width:1;" x1="315.6406" x2="357.6406" y1="282.625" y2="282.625"/><line style="stroke:#181818;stroke-width:1;" x1="357.6406" x2="357.6406" y1="282.625" y2="295.625"/><line style="stroke:#181818;stroke-width:1;" x1="316.6406" x2="357.6406" y1="295.625" y2="295.625"/><polygon fill="#181818" points="326.6406,291.625,316.6406,295.625,326.6406,299.625,322.6406,295.625" style="stroke:#181818;stroke-width:1;"/><text fill="#000000" font-family="sans-serif" font-size="13" lengthAdjust="spacing" textLength="221.6475" x="322.6406" y="277.7686">displayError("Fields cannot be empty")</text></g><g class="message" data-participant-1="LoginForm" data-participant-2="User"><polygon fill="#181818" points="73.8413,321.9766,63.8413,325.9766,73.8413,329.9766,69.8413,325.9766" style="stroke:#181818;stroke-width:1;"/><line style="stroke:#181818;stroke-width:1;stroke-dasharray:2,2;" x1="67.8413" x2="309.6406" y1="325.9766" y2="325.9766"/><text fill="#000000" font-family="sans-serif" font-size="13" lengthAdjust="spacing" textLength="211.5293" x="79.8413" y="321.1201">showError("Fields cannot be empty")</text></g><g class="message" data-participant-1="User" data-participant-2="LoginForm"><polygon fill="#181818" points="298.6406,335.9766,308.6406,339.9766,298.6406,343.9766,302.6406,339.9766" style="stroke:#181818;stroke-width:1;"/><line style="stroke:#181818;stroke-width:1;stroke-dasharray:2,2;" x1="62.8413" x2="304.6406" y1="339.9766" y2="339.9766"/></g><g class="message" data-participant-1="LoginForm" data-participant-2="AuthController"><polygon fill="#181818" points="550.0518,373.3281,560.0518,377.3281,550.0518,381.3281,554.0518,377.3281" style="stroke:#181818;stroke-width:1;"/><line style="stroke:#181818;stroke-width:1;" x1="310.6406" x2="556.0518" y1="377.3281" y2="377.3281"/><text fill="#000000" font-family="sans-serif" font-size="13" lengthAdjust="spacing" textLength="206.6289" x="317.6406" y="372.4717">submitCredentials(email, password)</text></g><g class="message" data-participant-1="AuthController" data-participant-2="BetterAuthService"><polygon fill="#181818" points="778.4507,403.6797,788.4507,407.6797,778.4507,411.6797,782.4507,407.6797" style="stroke:#181818;stroke-width:1;"/><line style="stroke:#181818;stroke-width:1;" x1="572.0518" x2="784.4507" y1="407.6797" y2="407.6797"/><text fill="#000000" font-family="sans-serif" font-size="13" lengthAdjust="spacing" textLength="199.3989" x="579.0518" y="402.8232">verifyCredentials(email, password)</text></g><g class="message" data-participant-1="BetterAuthService" data-participant-2="PrismaAdapter"><polygon fill="#181818" points="1094.4531,434.0313,1104.4531,438.0313,1094.4531,442.0313,1098.4531,438.0313" style="stroke:#181818;stroke-width:1;"/><line style="stroke:#181818;stroke-width:1;" x1="800.4507" x2="1100.4531" y1="438.0313" y2="438.0313"/><text fill="#000000" font-family="sans-serif" font-size="13" lengthAdjust="spacing" textLength="135.8081" x="807.4507" y="433.1748">findUserByEmail(email)</text></g><g class="message" data-participant-1="PrismaAdapter" data-participant-2="BetterAuthService"><polygon fill="#181818" points="811.4507,464.3828,801.4507,468.3828,811.4507,472.3828,807.4507,468.3828" style="stroke:#181818;stroke-width:1;"/><line style="stroke:#181818;stroke-width:1;stroke-dasharray:2,2;" x1="805.4507" x2="1110.4531" y1="468.3828" y2="468.3828"/><text fill="#000000" font-family="sans-serif" font-size="13" lengthAdjust="spacing" textLength="91.7681" x="817.4507" y="463.5264">userData or null</text></g><path d="M20,483.3828 L80.1709,483.3828 L80.1709,491.7344 L70.1709,501.7344 L20,501.7344 L20,483.3828" fill="#EEEEEE" style="stroke:#000000;stroke-width:1.5;"/><rect fill="none" height="576.6484" style="stroke:#000000;stroke-width:1.5;" width="1418.7075" x="20" y="483.3828"/><text fill="#000000" font-family="sans-serif" font-size="13" font-weight="bold" lengthAdjust="spacing" textLength="15.1709" x="35" y="497.8779">alt</text><text fill="#000000" font-family="sans-serif" font-size="11" font-weight="bold" lengthAdjust="spacing" textLength="84.3154" x="95.1709" y="496.8018">[user not found]</text><g class="message" data-participant-1="BetterAuthService" data-participant-2="AuthController"><polygon fill="#181818" points="583.0518,520.0859,573.0518,524.0859,583.0518,528.0859,579.0518,524.0859" style="stroke:#181818;stroke-width:1;"/><line style="stroke:#181818;stroke-width:1;stroke-dasharray:2,2;" x1="577.0518" x2="794.4507" y1="524.0859" y2="524.0859"/><text fill="#000000" font-family="sans-serif" font-size="13" lengthAdjust="spacing" textLength="161.7129" x="589.0518" y="519.2295">authFailed("user not found")</text></g><g class="message" data-participant-1="AuthController" data-participant-2="LoginForm"><polygon fill="#181818" points="321.6406,550.4375,311.6406,554.4375,321.6406,558.4375,317.6406,554.4375" style="stroke:#181818;stroke-width:1;"/><line style="stroke:#181818;stroke-width:1;" x1="315.6406" x2="566.0518" y1="554.4375" y2="554.4375"/><text fill="#000000" font-family="sans-serif" font-size="13" lengthAdjust="spacing" textLength="227.4111" x="327.6406" y="549.5811">returnError("Invalid email or password")</text></g><g class="message" data-participant-1="LoginForm" data-participant-2="LoginForm"><line style="stroke:#181818;stroke-width:1;" x1="310.6406" x2="352.6406" y1="584.7891" y2="584.7891"/><line style="stroke:#181818;stroke-width:1;" x1="352.6406" x2="352.6406" y1="584.7891" y2="597.7891"/><line style="stroke:#181818;stroke-width:1;" x1="311.6406" x2="352.6406" y1="597.7891" y2="597.7891"/><polygon fill="#181818" points="321.6406,593.7891,311.6406,597.7891,321.6406,601.7891,317.6406,597.7891" style="stroke:#181818;stroke-width:1;"/><text fill="#000000" font-family="sans-serif" font-size="13" lengthAdjust="spacing" textLength="233.9175" x="317.6406" y="579.9326">displayError("Invalid email or password")</text></g><g class="message" data-participant-1="LoginForm" data-participant-2="User"><polygon fill="#181818" points="73.8413,624.1406,63.8413,628.1406,73.8413,632.1406,69.8413,628.1406" style="stroke:#181818;stroke-width:1;"/><line style="stroke:#181818;stroke-width:1;stroke-dasharray:2,2;" x1="67.8413" x2="309.6406" y1="628.1406" y2="628.1406"/><text fill="#000000" font-family="sans-serif" font-size="13" lengthAdjust="spacing" textLength="223.7993" x="79.8413" y="623.2842">showError("Invalid email or password")</text></g><line style="stroke:#000000;stroke-width:1;stroke-dasharray:2,2;" x1="20" x2="1438.7075" y1="637.1406" y2="637.1406"/><text fill="#000000" font-family="sans-serif" font-size="11" font-weight="bold" lengthAdjust="spacing" textLength="64.1577" x="25" y="648.5596">[user found]</text><g class="message" data-participant-1="BetterAuthService" data-participant-2="BetterAuthService"><line style="stroke:#181818;stroke-width:1;" x1="795.4507" x2="842.4507" y1="669.3281" y2="669.3281"/><line style="stroke:#181818;stroke-width:1;" x1="842.4507" x2="842.4507" y1="669.3281" y2="682.3281"/><line style="stroke:#181818;stroke-width:1;" x1="801.4507" x2="842.4507" y1="682.3281" y2="682.3281"/><polygon fill="#181818" points="811.4507,678.3281,801.4507,682.3281,811.4507,686.3281,807.4507,682.3281" style="stroke:#181818;stroke-width:1;"/><text fill="#000000" font-family="sans-serif" font-size="13" lengthAdjust="spacing" textLength="302.0024" x="807.4507" y="664.4717">verifyPassword(password, userData.passwordHash)</text></g><path d="M30,702.3281 L90.1709,702.3281 L90.1709,710.6797 L80.1709,720.6797 L30,720.6797 L30,702.3281" fill="#EEEEEE" style="stroke:#000000;stroke-width:1.5;"/><rect fill="none" height="350.7031" style="stroke:#000000;stroke-width:1.5;" width="1398.7075" x="30" y="702.3281"/><text fill="#000000" font-family="sans-serif" font-size="13" font-weight="bold" lengthAdjust="spacing" textLength="15.1709" x="45" y="716.8232">alt</text><text fill="#000000" font-family="sans-serif" font-size="11" font-weight="bold" lengthAdjust="spacing" textLength="113.083" x="105.1709" y="715.7471">[password mismatch]</text><g class="message" data-participant-1="BetterAuthService" data-participant-2="AuthController"><polygon fill="#181818" points="578.0518,739.0313,568.0518,743.0313,578.0518,747.0313,574.0518,743.0313" style="stroke:#181818;stroke-width:1;"/><line style="stroke:#181818;stroke-width:1;stroke-dasharray:2,2;" x1="572.0518" x2="794.4507" y1="743.0313" y2="743.0313"/><text fill="#000000" font-family="sans-serif" font-size="13" lengthAdjust="spacing" textLength="166.7656" x="584.0518" y="738.1748">authFailed("bad credentials")</text></g><g class="message" data-participant-1="AuthController" data-participant-2="LoginForm"><polygon fill="#181818" points="321.6406,769.3828,311.6406,773.3828,321.6406,777.3828,317.6406,773.3828" style="stroke:#181818;stroke-width:1;"/><line style="stroke:#181818;stroke-width:1;" x1="315.6406" x2="566.0518" y1="773.3828" y2="773.3828"/><text fill="#000000" font-family="sans-serif" font-size="13" lengthAdjust="spacing" textLength="227.4111" x="327.6406" y="768.5264">returnError("Invalid email or password")</text></g><g class="message" data-participant-1="LoginForm" data-participant-2="LoginForm"><line style="stroke:#181818;stroke-width:1;" x1="310.6406" x2="352.6406" y1="803.7344" y2="803.7344"/><line style="stroke:#181818;stroke-width:1;" x1="352.6406" x2="352.6406" y1="803.7344" y2="816.7344"/><line style="stroke:#181818;stroke-width:1;" x1="311.6406" x2="352.6406" y1="816.7344" y2="816.7344"/><polygon fill="#181818" points="321.6406,812.7344,311.6406,816.7344,321.6406,820.7344,317.6406,816.7344" style="stroke:#181818;stroke-width:1;"/><text fill="#000000" font-family="sans-serif" font-size="13" lengthAdjust="spacing" textLength="233.9175" x="317.6406" y="798.8779">displayError("Invalid email or password")</text></g><g class="message" data-participant-1="LoginForm" data-participant-2="User"><polygon fill="#181818" points="73.8413,843.0859,63.8413,847.0859,73.8413,851.0859,69.8413,847.0859" style="stroke:#181818;stroke-width:1;"/><line style="stroke:#181818;stroke-width:1;stroke-dasharray:2,2;" x1="67.8413" x2="309.6406" y1="847.0859" y2="847.0859"/><text fill="#000000" font-family="sans-serif" font-size="13" lengthAdjust="spacing" textLength="223.7993" x="79.8413" y="842.2295">showError("Invalid email or password")</text></g><line style="stroke:#000000;stroke-width:1;stroke-dasharray:2,2;" x1="30" x2="1428.7075" y1="856.0859" y2="856.0859"/><text fill="#000000" font-family="sans-serif" font-size="11" font-weight="bold" lengthAdjust="spacing" textLength="94.1284" x="35" y="867.5049">[password match]</text><g class="message" data-participant-1="BetterAuthService" data-participant-2="SessionService"><polygon fill="#181818" points="1310.7871,889.2734,1320.7871,893.2734,1310.7871,897.2734,1314.7871,893.2734" style="stroke:#181818;stroke-width:1;"/><line style="stroke:#181818;stroke-width:1;" x1="795.4507" x2="1316.7871" y1="893.2734" y2="893.2734"/><text fill="#000000" font-family="sans-serif" font-size="13" lengthAdjust="spacing" textLength="143.7871" x="802.4507" y="888.417">createSession(userData)</text></g><g class="message" data-participant-1="SessionService" data-participant-2="BetterAuthService"><polygon fill="#181818" points="806.4507,919.625,796.4507,923.625,806.4507,927.625,802.4507,923.625" style="stroke:#181818;stroke-width:1;"/><line style="stroke:#181818;stroke-width:1;stroke-dasharray:2,2;" x1="800.4507" x2="1326.7871" y1="923.625" y2="923.625"/><text fill="#000000" font-family="sans-serif" font-size="13" lengthAdjust="spacing" textLength="125.728" x="812.4507" y="918.7686">session(token/cookie)</text></g><g class="message" data-participant-1="BetterAuthService" data-participant-2="AuthController"><polygon fill="#181818" points="578.0518,949.9766,568.0518,953.9766,578.0518,957.9766,574.0518,953.9766" style="stroke:#181818;stroke-width:1;"/><line style="stroke:#181818;stroke-width:1;stroke-dasharray:2,2;" x1="572.0518" x2="794.4507" y1="953.9766" y2="953.9766"/><text fill="#000000" font-family="sans-serif" font-size="13" lengthAdjust="spacing" textLength="99.6963" x="584.0518" y="949.1201">success(session)</text></g><g class="message" data-participant-1="AuthController" data-participant-2="LoginForm"><polygon fill="#181818" points="321.6406,980.3281,311.6406,984.3281,321.6406,988.3281,317.6406,984.3281" style="stroke:#181818;stroke-width:1;"/><line style="stroke:#181818;stroke-width:1;" x1="315.6406" x2="566.0518" y1="984.3281" y2="984.3281"/><text fill="#000000" font-family="sans-serif" font-size="13" lengthAdjust="spacing" textLength="135.8271" x="327.6406" y="979.4717">returnSuccess(session)</text></g><g class="message" data-participant-1="LoginForm" data-participant-2="User"><polygon fill="#181818" points="73.8413,1010.6797,63.8413,1014.6797,73.8413,1018.6797,69.8413,1014.6797" style="stroke:#181818;stroke-width:1;"/><line style="stroke:#181818;stroke-width:1;stroke-dasharray:2,2;" x1="67.8413" x2="309.6406" y1="1014.6797" y2="1014.6797"/><text fill="#000000" font-family="sans-serif" font-size="13" lengthAdjust="spacing" textLength="169.7871" x="79.8413" y="1009.8232">reportSuccess(userData.role)</text></g><g class="message" data-participant-1="LoginForm" data-participant-2="User"><polygon fill="#181818" points="73.8413,1041.0313,63.8413,1045.0313,73.8413,1049.0313,69.8413,1045.0313" style="stroke:#181818;stroke-width:1;"/><line style="stroke:#181818;stroke-width:1;" x1="67.8413" x2="309.6406" y1="1045.0313" y2="1045.0313"/><text fill="#000000" font-family="sans-serif" font-size="13" lengthAdjust="spacing" textLength="126.2866" x="79.8413" y="1040.1748">redirect("/dashboard")</text></g><!--SRC=[jLR1Rjim3BthAmXVvWJDUk-XGDirw8PXA1Ri0nIBNeJAaY79RVttesGxYHqdSOekG81O9D-J-1xb55pgtF828PdFdPZFuQVvAtN2Db8WvCRujNbdZ6VUs91o0tySslay0UxYJxOsbHRSraqqLY-DBTgKxJFBZFRMg2RjhlARXsP1eONKcr_uxd-u9wu5BSpQwdvQ7sADtgDTS4g1b3RoAZFiwkvZB5IlcW13xQMleIajhNG5lnEyz84y7ECtbiP9EcJTOJpl9_MfL-YSDBh5XbHgIj5STQNzE6DVOB5OmCfpwy7aK53F8LVcBIopm0wBsrsdu0PSjIwaZoifKhgwWf8xzsQic0Kjv2ltkDTRjYiU8Bro9GKbXyT9K0B7y4tf8PUeX0CiIbypeCzHKY5TgNZzQAsnQR9iwZAkjV4aMuEGp8OO119xGSVVcBSfnQDx3G6BlhAQH1UX-GzAalo4ePI3u1JIixVtWHkx_ZzO5C4tNBaJhHjub0t02Fx0ZK4Nj3Alfp4SkfaTGX9Fpx74aKijGaVlwyU0tJ3iuVOTtgzU7DbtHNZVkET0ru6kbDhtIn-FSULZEWJbyd1BH6r6jZucGPZh9UqNHPhqKGx57sbGo3XKOj-aZKTQcttNSL0WjYYShPFXa6oezmMJS8xbt31SiCkzsKNbi17Yf0YdVFhSygGTuTNM25-xfIVkDiqsJkWIm-IBhWYAO1cVRMBaW_POSm7PRfBQPappo2VxP89NFj4ld-6Puxu9aUYTdLZdbBeTlXflWZ24sowddMjst5lcmKkpYmy0ZzrBhYNmvWNrTMRCYyJH0mxVpHVwpbLPHWXfo_S_hBQQG371M3itMFflOtq7knrSgiNPk2MtXK9Qp7oQN0kQxhNXvsqJNKEtJFZ-0m00]--></g></svg>