<svg xmlns="http://www.w3.org/2000/svg" xmlns:xlink="http://www.w3.org/1999/xlink" contentStyleType="text/css" data-diagram-type="SEQUENCE" height="1099px" preserveAspectRatio="none" style="width:1279px;height:1099px;background:#FFFFFF;" version="1.1" viewBox="0 0 1279 1099" width="1279px" zoomAndPan="magnify"><defs/><g><rect fill="#FFFFFF" height="1078.2344" style="stroke:#181818;stroke-width:1.5;" width="1268.7588" x="5" y="15"/><path d="M69.4824,15 L69.4824,25.6094 L59.4824,35.6094 L5,35.6094" fill="none" style="stroke:#181818;stroke-width:1.5;"/><text fill="#000000" font-family="sans-serif" font-size="14" font-weight="bold" lengthAdjust="spacing" textLength="16.3379" x="8" y="30.5332">sd</text><text fill="#000000" font-family="sans-serif" font-size="14" lengthAdjust="spacing" textLength="34.2549" x="28.2275" y="30.5332">Login</text><g><title>... LoginForm..</title><rect fill="#FFFFFF" height="912.0547" style="stroke:#181818;stroke-width:1;" width="10" x="229.5229" y="153.5703"/></g><g><title>... LoginForm..</title><rect fill="#FFFFFF" height="28" style="stroke:#181818;stroke-width:1;" width="10" x="234.5229" y="191.9219"/></g><g><title>... LoginForm..</title><rect fill="#FFFFFF" height="28" style="stroke:#181818;stroke-width:1;" width="10" x="234.5229" y="290.625"/></g><g><title>... LoginForm..</title><rect fill="#FFFFFF" height="28" style="stroke:#181818;stroke-width:1;" width="10" x="234.5229" y="578.4375"/></g><g><title>... LoginForm..</title><rect fill="#FFFFFF" height="28" style="stroke:#181818;stroke-width:1;" width="10" x="234.5229" y="797.0313"/></g><g><title>... LoginForm..</title><rect fill="#FFFFFF" height="28" style="stroke:#181818;stroke-width:1;" width="10" x="234.5229" y="1007.625"/></g><g><title>... AuthController ..</title><rect fill="#FFFFFF" height="606.2969" style="stroke:#181818;stroke-width:1;" width="10" x="497.4404" y="362.9766"/></g><g><title>... better-auth ..</title><rect fill="#FFFFFF" height="545.5938" style="stroke:#181818;stroke-width:1;" width="10" x="725.8394" y="393.3281"/></g><g><title>... better-auth ..</title><rect fill="#FFFFFF" height="60.7031" style="stroke:#181818;stroke-width:1;" width="10" x="730.8394" y="667.625"/></g><g><title>... User ..</title><rect fill="#FFFFFF" height="30.3516" style="stroke:#181818;stroke-width:1;" width="10" x="1061.8418" y="423.6797"/></g><g><title>... SessionController..</title><rect fill="#FFFFFF" height="30.3516" style="stroke:#181818;stroke-width:1;" width="10" x="1164.1934" y="878.2188"/></g><rect fill="none" height="91.7031" style="stroke:#000000;stroke-width:1.5;" width="273.2881" x="180.6987" y="241.9219"/><rect fill="none" height="588.5938" style="stroke:#000000;stroke-width:1.5;" width="1086.0601" x="170.6987" y="469.0313"/><rect fill="none" height="363" style="stroke:#000000;stroke-width:1.5;" width="1066.0601" x="180.6987" y="687.625"/><g><title>... User..</title><rect fill="#000000" fill-opacity="0.00000" height="953.4063" width="8" x="33.8413" y="121.2188"/><line style="stroke:#181818;stroke-width:0.5;stroke-dasharray:5,5;" x1="37" x2="37" y1="121.2188" y2="1074.625"/></g><g><title>... LoginForm..</title><rect fill="#000000" fill-opacity="0.00000" height="953.4063" width="8" x="230.5229" y="121.2188"/><line style="stroke:#181818;stroke-width:0.5;stroke-dasharray:5,5;" x1="233.6987" x2="233.6987" y1="121.2188" y2="1074.625"/></g><g><title>... AuthController ..</title><rect fill="#000000" fill-opacity="0.00000" height="953.4063" width="8" x="498.4404" y="121.2188"/><line style="stroke:#181818;stroke-width:0.5;stroke-dasharray:5,5;" x1="501.8369" x2="501.8369" y1="121.2188" y2="1074.625"/></g><g><title>... better-auth ..</title><rect fill="#000000" fill-opacity="0.00000" height="953.4063" width="8" x="726.8394" y="121.2188"/><line style="stroke:#181818;stroke-width:0.5;stroke-dasharray:5,5;" x1="730.0635" x2="730.0635" y1="121.2188" y2="1074.625"/></g><g><title>... User ..</title><rect fill="#000000" fill-opacity="0.00000" height="953.4063" width="8" x="1062.8418" y="121.2188"/><line style="stroke:#181818;stroke-width:0.5;stroke-dasharray:5,5;" x1="1066.0557" x2="1066.0557" y1="121.2188" y2="1074.625"/></g><g><title>... SessionController..</title><rect fill="#000000" fill-opacity="0.00000" height="953.4063" width="8" x="1165.1934" y="121.2188"/><line style="stroke:#181818;stroke-width:0.5;stroke-dasharray:5,5;" x1="1168.6279" x2="1168.6279" y1="121.2188" y2="1074.625"/></g><g class="participant participant-head" data-participant="User"><text fill="#000000" font-family="sans-serif" font-size="14" font-weight="bold" lengthAdjust="spacing" textLength="39.6826" x="15" y="118.1426">: User</text><ellipse cx="37.8413" cy="52.1094" fill="#E2E2F0" rx="8" ry="8" style="stroke:#181818;stroke-width:0.5;"/><path d="M37.8413,60.1094 L37.8413,87.1094 M24.8413,68.1094 L50.8413,68.1094 M37.8413,87.1094 L24.8413,102.1094 M37.8413,87.1094 L50.8413,102.1094" fill="none" style="stroke:#181818;stroke-width:0.5;"/></g><g class="participant participant-head" data-participant="LoginForm"><text fill="#000000" font-family="sans-serif" font-size="14" font-weight="bold" lengthAdjust="spacing" textLength="81.6484" x="190.6987" y="118.1426">: LoginForm</text><path d="M214.0229,75.6094 L214.0229,99.6094 M214.0229,87.6094 L231.0229,87.6094" fill="none" style="stroke:#181818;stroke-width:0.5;"/><ellipse cx="243.0229" cy="87.6094" fill="#E2E2F0" rx="12" ry="12" style="stroke:#181818;stroke-width:0.5;"/></g><g class="participant participant-head" data-participant="AuthController"><text fill="#000000" font-family="sans-serif" font-size="14" font-weight="bold" lengthAdjust="spacing" textLength="107.3174" x="443.8369" y="118.1426">: AuthController</text><ellipse cx="502.4404" cy="87.6094" fill="#E2E2F0" rx="12" ry="12" style="stroke:#181818;stroke-width:0.5;"/><polygon fill="#181818" points="498.4404,75.6094,504.4404,70.6094,502.4404,75.6094,504.4404,80.6094,498.4404,75.6094" style="stroke:#181818;stroke-width:1;"/></g><g class="participant participant-head" data-participant="BetterAuthService"><text fill="#000000" font-family="sans-serif" font-size="14" font-weight="bold" lengthAdjust="spacing" textLength="81.6621" x="685.0635" y="118.1426">: better-auth</text><ellipse cx="730.8394" cy="87.6094" fill="#E2E2F0" rx="12" ry="12" style="stroke:#181818;stroke-width:0.5;"/><polygon fill="#181818" points="726.8394,75.6094,732.8394,70.6094,730.8394,75.6094,732.8394,80.6094,726.8394,75.6094" style="stroke:#181818;stroke-width:1;"/></g><g class="participant participant-head" data-participant="PrismaAdapter"><text fill="#000000" font-family="sans-serif" font-size="14" font-weight="bold" lengthAdjust="spacing" textLength="39.6826" x="1042.0557" y="118.1426">: User</text><ellipse cx="1066.8418" cy="87.6094" fill="#E2E2F0" rx="12" ry="12" style="stroke:#181818;stroke-width:0.5;"/><line style="stroke:#181818;stroke-width:0.5;" x1="1054.8418" x2="1078.8418" y1="101.6094" y2="101.6094"/></g><g class="participant participant-head" data-participant="SessionService"><text fill="#000000" font-family="sans-serif" font-size="14" font-weight="bold" lengthAdjust="spacing" textLength="129.1309" x="1101.6279" y="118.1426">: SessionController</text><ellipse cx="1169.1934" cy="87.6094" fill="#E2E2F0" rx="12" ry="12" style="stroke:#181818;stroke-width:0.5;"/><polygon fill="#181818" points="1165.1934,75.6094,1171.1934,70.6094,1169.1934,75.6094,1171.1934,80.6094,1165.1934,75.6094" style="stroke:#181818;stroke-width:1;"/></g><g><title>... LoginForm..</title><rect fill="#FFFFFF" height="912.0547" style="stroke:#181818;stroke-width:1;" width="10" x="229.5229" y="153.5703"/></g><g><title>... LoginForm..</title><rect fill="#FFFFFF" height="28" style="stroke:#181818;stroke-width:1;" width="10" x="234.5229" y="191.9219"/></g><g><title>... LoginForm..</title><rect fill="#FFFFFF" height="28" style="stroke:#181818;stroke-width:1;" width="10" x="234.5229" y="290.625"/></g><g><title>... LoginForm..</title><rect fill="#FFFFFF" height="28" style="stroke:#181818;stroke-width:1;" width="10" x="234.5229" y="578.4375"/></g><g><title>... LoginForm..</title><rect fill="#FFFFFF" height="28" style="stroke:#181818;stroke-width:1;" width="10" x="234.5229" y="797.0313"/></g><g><title>... LoginForm..</title><rect fill="#FFFFFF" height="28" style="stroke:#181818;stroke-width:1;" width="10" x="234.5229" y="1007.625"/></g><g><title>... AuthController ..</title><rect fill="#FFFFFF" height="606.2969" style="stroke:#181818;stroke-width:1;" width="10" x="497.4404" y="362.9766"/></g><g><title>... better-auth ..</title><rect fill="#FFFFFF" height="545.5938" style="stroke:#181818;stroke-width:1;" width="10" x="725.8394" y="393.3281"/></g><g><title>... better-auth ..</title><rect fill="#FFFFFF" height="60.7031" style="stroke:#181818;stroke-width:1;" width="10" x="730.8394" y="667.625"/></g><g><title>... User ..</title><rect fill="#FFFFFF" height="30.3516" style="stroke:#181818;stroke-width:1;" width="10" x="1061.8418" y="423.6797"/></g><g><title>... SessionController..</title><rect fill="#FFFFFF" height="30.3516" style="stroke:#181818;stroke-width:1;" width="10" x="1164.1934" y="878.2188"/></g><g class="message" data-participant-1="User" data-participant-2="LoginForm"><polygon fill="#181818" points="217.5229,149.5703,227.5229,153.5703,217.5229,157.5703,221.5229,153.5703" style="stroke:#181818;stroke-width:1;"/><line style="stroke:#181818;stroke-width:1;" x1="37.8413" x2="223.5229" y1="153.5703" y2="153.5703"/><text fill="#000000" font-family="sans-serif" font-size="13" lengthAdjust="spacing" textLength="172.6816" x="44.8413" y="148.7139">submitLogin(email, password)</text></g><g class="message" data-participant-1="LoginForm" data-participant-2="LoginForm"><line style="stroke:#181818;stroke-width:1;" x1="244.5229" x2="286.5229" y1="183.9219" y2="183.9219"/><line style="stroke:#181818;stroke-width:1;" x1="286.5229" x2="286.5229" y1="183.9219" y2="196.9219"/><line style="stroke:#181818;stroke-width:1;" x1="245.5229" x2="286.5229" y1="196.9219" y2="196.9219"/><polygon fill="#181818" points="255.5229,192.9219,245.5229,196.9219,255.5229,200.9219,251.5229,196.9219" style="stroke:#181818;stroke-width:1;"/><text fill="#000000" font-family="sans-serif" font-size="13" lengthAdjust="spacing" textLength="177.7217" x="251.5229" y="179.0654">validateForm(email, password)</text></g><path d="M180.6987,241.9219 L245.9097,241.9219 L245.9097,250.2734 L235.9097,260.2734 L180.6987,260.2734 L180.6987,241.9219" fill="#EEEEEE" style="stroke:#000000;stroke-width:1.5;"/><rect fill="none" height="91.7031" style="stroke:#000000;stroke-width:1.5;" width="273.2881" x="180.6987" y="241.9219"/><text fill="#000000" font-family="sans-serif" font-size="13" font-weight="bold" lengthAdjust="spacing" textLength="20.2109" x="195.6987" y="256.417">opt</text><text fill="#000000" font-family="sans-serif" font-size="11" font-weight="bold" lengthAdjust="spacing" textLength="71.5107" x="260.9097" y="255.3408">[fields empty]</text><g class="message" data-participant-1="LoginForm" data-participant-2="LoginForm"><line style="stroke:#181818;stroke-width:1;" x1="244.5229" x2="286.5229" y1="282.625" y2="282.625"/><line style="stroke:#181818;stroke-width:1;" x1="286.5229" x2="286.5229" y1="282.625" y2="295.625"/><line style="stroke:#181818;stroke-width:1;" x1="245.5229" x2="286.5229" y1="295.625" y2="295.625"/><polygon fill="#181818" points="255.5229,291.625,245.5229,295.625,255.5229,299.625,251.5229,295.625" style="stroke:#181818;stroke-width:1;"/><text fill="#000000" font-family="sans-serif" font-size="13" lengthAdjust="spacing" textLength="180.4639" x="251.5229" y="277.7686">Error "Fields cannot be empty")</text></g><g class="message" data-participant-1="LoginForm" data-participant-2="AuthController"><polygon fill="#181818" points="485.4404,358.9766,495.4404,362.9766,485.4404,366.9766,489.4404,362.9766" style="stroke:#181818;stroke-width:1;"/><line style="stroke:#181818;stroke-width:1;" x1="239.5229" x2="491.4404" y1="362.9766" y2="362.9766"/><text fill="#000000" font-family="sans-serif" font-size="13" lengthAdjust="spacing" textLength="206.6289" x="246.5229" y="358.1201">submitCredentials(email, password)</text></g><g class="message" data-participant-1="AuthController" data-participant-2="BetterAuthService"><polygon fill="#181818" points="713.8394,389.3281,723.8394,393.3281,713.8394,397.3281,717.8394,393.3281" style="stroke:#181818;stroke-width:1;"/><line style="stroke:#181818;stroke-width:1;" x1="507.4404" x2="719.8394" y1="393.3281" y2="393.3281"/><text fill="#000000" font-family="sans-serif" font-size="13" lengthAdjust="spacing" textLength="199.3989" x="514.4404" y="388.4717">verifyCredentials(email, password)</text></g><g class="message" data-participant-1="BetterAuthService" data-participant-2="PrismaAdapter"><polygon fill="#181818" points="1049.8418,419.6797,1059.8418,423.6797,1049.8418,427.6797,1053.8418,423.6797" style="stroke:#181818;stroke-width:1;"/><line style="stroke:#181818;stroke-width:1;" x1="735.8394" x2="1055.8418" y1="423.6797" y2="423.6797"/><text fill="#000000" font-family="sans-serif" font-size="13" lengthAdjust="spacing" textLength="135.8081" x="742.8394" y="418.8232">findUserByEmail(email)</text></g><g class="message" data-participant-1="PrismaAdapter" data-participant-2="BetterAuthService"><polygon fill="#181818" points="746.8394,450.0313,736.8394,454.0313,746.8394,458.0313,742.8394,454.0313" style="stroke:#181818;stroke-width:1;"/><line style="stroke:#181818;stroke-width:1;stroke-dasharray:2,2;" x1="740.8394" x2="1065.8418" y1="454.0313" y2="454.0313"/><text fill="#000000" font-family="sans-serif" font-size="13" lengthAdjust="spacing" textLength="91.7681" x="752.8394" y="449.1748">userData or null</text></g><path d="M170.6987,469.0313 L230.8696,469.0313 L230.8696,477.3828 L220.8696,487.3828 L170.6987,487.3828 L170.6987,469.0313" fill="#EEEEEE" style="stroke:#000000;stroke-width:1.5;"/><rect fill="none" height="588.5938" style="stroke:#000000;stroke-width:1.5;" width="1086.0601" x="170.6987" y="469.0313"/><text fill="#000000" font-family="sans-serif" font-size="13" font-weight="bold" lengthAdjust="spacing" textLength="15.1709" x="185.6987" y="483.5264">alt</text><text fill="#000000" font-family="sans-serif" font-size="11" font-weight="bold" lengthAdjust="spacing" textLength="84.3154" x="245.8696" y="482.4502">[user not found]</text><g class="message" data-participant-1="BetterAuthService" data-participant-2="AuthController"><polygon fill="#181818" points="518.4404,505.7344,508.4404,509.7344,518.4404,513.7344,514.4404,509.7344" style="stroke:#181818;stroke-width:1;"/><line style="stroke:#181818;stroke-width:1;stroke-dasharray:2,2;" x1="512.4404" x2="724.8394" y1="509.7344" y2="509.7344"/><text fill="#000000" font-family="sans-serif" font-size="13" lengthAdjust="spacing" textLength="131.3647" x="524.4404" y="504.8779">Failed "user not found"</text></g><g class="message" data-participant-1="AuthController" data-participant-2="LoginForm"><polygon fill="#181818" points="250.5229,536.0859,240.5229,540.0859,250.5229,544.0859,246.5229,540.0859" style="stroke:#181818;stroke-width:1;"/><line style="stroke:#181818;stroke-width:1;stroke-dasharray:2,2;" x1="244.5229" x2="496.4404" y1="540.0859" y2="540.0859"/><text fill="#000000" font-family="sans-serif" font-size="13" lengthAdjust="spacing" textLength="188.4048" x="256.5229" y="535.2295">Error "Invalid email or password"</text></g><g class="message" data-participant-1="LoginForm" data-participant-2="LoginForm"><line style="stroke:#181818;stroke-width:1;" x1="244.5229" x2="286.5229" y1="570.4375" y2="570.4375"/><line style="stroke:#181818;stroke-width:1;" x1="286.5229" x2="286.5229" y1="570.4375" y2="583.4375"/><line style="stroke:#181818;stroke-width:1;" x1="245.5229" x2="286.5229" y1="583.4375" y2="583.4375"/><polygon fill="#181818" points="255.5229,579.4375,245.5229,583.4375,255.5229,587.4375,251.5229,583.4375" style="stroke:#181818;stroke-width:1;"/><text fill="#000000" font-family="sans-serif" font-size="13" lengthAdjust="spacing" textLength="233.9175" x="251.5229" y="565.5811">displayError("Invalid email or password")</text></g><line style="stroke:#000000;stroke-width:1;stroke-dasharray:2,2;" x1="170.6987" x2="1256.7588" y1="622.4375" y2="622.4375"/><text fill="#000000" font-family="sans-serif" font-size="11" font-weight="bold" lengthAdjust="spacing" textLength="64.1577" x="175.6987" y="633.8564">[user found]</text><g class="message" data-participant-1="BetterAuthService" data-participant-2="BetterAuthService"><line style="stroke:#181818;stroke-width:1;" x1="735.8394" x2="782.8394" y1="654.625" y2="654.625"/><line style="stroke:#181818;stroke-width:1;" x1="782.8394" x2="782.8394" y1="654.625" y2="667.625"/><line style="stroke:#181818;stroke-width:1;" x1="741.8394" x2="782.8394" y1="667.625" y2="667.625"/><polygon fill="#181818" points="751.8394,663.625,741.8394,667.625,751.8394,671.625,747.8394,667.625" style="stroke:#181818;stroke-width:1;"/><text fill="#000000" font-family="sans-serif" font-size="13" lengthAdjust="spacing" textLength="302.0024" x="747.8394" y="649.7686">verifyPassword(password, userData.passwordHash)</text></g><path d="M180.6987,687.625 L240.8696,687.625 L240.8696,695.9766 L230.8696,705.9766 L180.6987,705.9766 L180.6987,687.625" fill="#EEEEEE" style="stroke:#000000;stroke-width:1.5;"/><rect fill="none" height="363" style="stroke:#000000;stroke-width:1.5;" width="1066.0601" x="180.6987" y="687.625"/><text fill="#000000" font-family="sans-serif" font-size="13" font-weight="bold" lengthAdjust="spacing" textLength="15.1709" x="195.6987" y="702.1201">alt</text><text fill="#000000" font-family="sans-serif" font-size="11" font-weight="bold" lengthAdjust="spacing" textLength="113.083" x="255.8696" y="701.0439">[password mismatch]</text><g class="message" data-participant-1="BetterAuthService" data-participant-2="AuthController"><polygon fill="#181818" points="518.4404,724.3281,508.4404,728.3281,518.4404,732.3281,514.4404,728.3281" style="stroke:#181818;stroke-width:1;"/><line style="stroke:#181818;stroke-width:1;stroke-dasharray:2,2;" x1="512.4404" x2="724.8394" y1="728.3281" y2="728.3281"/><text fill="#000000" font-family="sans-serif" font-size="13" lengthAdjust="spacing" textLength="136.4175" x="524.4404" y="723.4717">Failed "bad credentials"</text></g><g class="message" data-participant-1="AuthController" data-participant-2="LoginForm"><polygon fill="#181818" points="250.5229,754.6797,240.5229,758.6797,250.5229,762.6797,246.5229,758.6797" style="stroke:#181818;stroke-width:1;"/><line style="stroke:#181818;stroke-width:1;stroke-dasharray:2,2;" x1="244.5229" x2="496.4404" y1="758.6797" y2="758.6797"/><text fill="#000000" font-family="sans-serif" font-size="13" lengthAdjust="spacing" textLength="138.5566" x="256.5229" y="753.8232">Error "Invalid password"</text></g><g class="message" data-participant-1="LoginForm" data-participant-2="LoginForm"><line style="stroke:#181818;stroke-width:1;" x1="244.5229" x2="286.5229" y1="789.0313" y2="789.0313"/><line style="stroke:#181818;stroke-width:1;" x1="286.5229" x2="286.5229" y1="789.0313" y2="802.0313"/><line style="stroke:#181818;stroke-width:1;" x1="245.5229" x2="286.5229" y1="802.0313" y2="802.0313"/><polygon fill="#181818" points="255.5229,798.0313,245.5229,802.0313,255.5229,806.0313,251.5229,802.0313" style="stroke:#181818;stroke-width:1;"/><text fill="#000000" font-family="sans-serif" font-size="13" lengthAdjust="spacing" textLength="184.0693" x="251.5229" y="784.1748">displayError("Invalid password")</text></g><line style="stroke:#000000;stroke-width:1;stroke-dasharray:2,2;" x1="180.6987" x2="1246.7588" y1="841.0313" y2="841.0313"/><text fill="#000000" font-family="sans-serif" font-size="11" font-weight="bold" lengthAdjust="spacing" textLength="94.1284" x="185.6987" y="852.4502">[password match]</text><g class="message" data-participant-1="BetterAuthService" data-participant-2="SessionService"><polygon fill="#181818" points="1152.1934,874.2188,1162.1934,878.2188,1152.1934,882.2188,1156.1934,878.2188" style="stroke:#181818;stroke-width:1;"/><line style="stroke:#181818;stroke-width:1;" x1="735.8394" x2="1158.1934" y1="878.2188" y2="878.2188"/><text fill="#000000" font-family="sans-serif" font-size="13" lengthAdjust="spacing" textLength="143.7871" x="742.8394" y="873.3623">createSession(userData)</text></g><g class="message" data-participant-1="SessionService" data-participant-2="BetterAuthService"><polygon fill="#181818" points="746.8394,904.5703,736.8394,908.5703,746.8394,912.5703,742.8394,908.5703" style="stroke:#181818;stroke-width:1;"/><line style="stroke:#181818;stroke-width:1;stroke-dasharray:2,2;" x1="740.8394" x2="1168.1934" y1="908.5703" y2="908.5703"/><text fill="#000000" font-family="sans-serif" font-size="13" lengthAdjust="spacing" textLength="79.4917" x="752.8394" y="903.7139">session token</text></g><g class="message" data-participant-1="BetterAuthService" data-participant-2="AuthController"><polygon fill="#181818" points="518.4404,934.9219,508.4404,938.9219,518.4404,942.9219,514.4404,938.9219" style="stroke:#181818;stroke-width:1;"/><line style="stroke:#181818;stroke-width:1;stroke-dasharray:2,2;" x1="512.4404" x2="729.8394" y1="938.9219" y2="938.9219"/><text fill="#000000" font-family="sans-serif" font-size="13" lengthAdjust="spacing" textLength="44.0781" x="524.4404" y="934.0654">session</text></g><g class="message" data-participant-1="AuthController" data-participant-2="LoginForm"><polygon fill="#181818" points="250.5229,965.2734,240.5229,969.2734,250.5229,973.2734,246.5229,969.2734" style="stroke:#181818;stroke-width:1;"/><line style="stroke:#181818;stroke-width:1;stroke-dasharray:2,2;" x1="244.5229" x2="501.4404" y1="969.2734" y2="969.2734"/><text fill="#000000" font-family="sans-serif" font-size="13" lengthAdjust="spacing" textLength="44.0781" x="256.5229" y="964.417">session</text></g><g class="message" data-participant-1="LoginForm" data-participant-2="LoginForm"><line style="stroke:#181818;stroke-width:1;" x1="244.5229" x2="286.5229" y1="999.625" y2="999.625"/><line style="stroke:#181818;stroke-width:1;" x1="286.5229" x2="286.5229" y1="999.625" y2="1012.625"/><line style="stroke:#181818;stroke-width:1;" x1="245.5229" x2="286.5229" y1="1012.625" y2="1012.625"/><polygon fill="#181818" points="255.5229,1008.625,245.5229,1012.625,255.5229,1016.625,251.5229,1012.625" style="stroke:#181818;stroke-width:1;"/><text fill="#000000" font-family="sans-serif" font-size="13" lengthAdjust="spacing" textLength="126.2866" x="251.5229" y="994.7686">redirect("/dashboard")</text></g><!--SRC=[fLN1Zfim4BtxAqPScaLBUz_3IhlfHgtKmqghVe31GsFLs97jPClVTsmW18UmIOk41EEPD-Ftdg7XKjUMDmXvxaIUmm_pIsgsbGAXDiQNvWzZlFB6GfRd3_3JeStp3BYBZwmqUosuRRlLMBmnjkbJZk-iCjfRexgqfxtVhhk0GWjzyZGwhIZHUxG5fvGX_Jc6Gj4RseEiaA7sqhSm3Zgalbhf6lua-Cwdm6_ed3HwxDkNzF41cds2eYZWpNFhmTJG46rGA_CUmYpsAXx7xS83k7tPI1yZAwHqTGyxxjoxiU8k42eFtEC9GMmiJf0EN4b1oU7rAYY1S_Xcvw6Mg8G3R7Q-PK3NnQOlrWR9Drr1nRKsdbJeIhExM3pJ9OHdswCMWSIragGIuIdbW5Wxa1wJ6H9h33okBOeWBrTkWOB4GIm18_WpqmH-qSgwlQx3kUdOEIJrcJYEUjHIY-2Iv_ObO7STJd2d3frM5nVctXFUL-uva51whzIfxbCynfMFwH1KhCEHZKhDZ3udmOPcHG7P526B42d5ypRwhgE98Muxp3jGcy6o3OLqEyNR2BDQWBdTa0oLmuwKHKAMFFFQjryDSzmVHVayXBvnjqscEpTHN2QDXY9eWdo-siQLVv2gv0AgqT7P4UU4Y_anRXVrACAn_aOv4nKNbBoiPbY9YeuKViJVO_AHf_c8CiBjmwj1ovcnaj_3i9u0NZgvhai3RtwZdjjO-lUvqGKz_dMYNwlw0cZotVtG1cHCQR7og-oBeEDH6lvVuaVjwGI7-oy0]--></g></svg>