<svg xmlns="http://www.w3.org/2000/svg" xmlns:xlink="http://www.w3.org/1999/xlink" contentStyleType="text/css" data-diagram-type="SEQUENCE" height="586px" preserveAspectRatio="none" style="width:607px;height:586px;background:#FFFFFF;" version="1.1" viewBox="0 0 607 586" width="607px" zoomAndPan="magnify"><defs/><g><rect fill="#FFFFFF" height="565.5313" style="stroke:#181818;stroke-width:1.5;" width="596.9224" x="5" y="15"/><path d="M87.9873,15 L87.9873,25.6094 L77.9873,35.6094 L5,35.6094" fill="none" style="stroke:#181818;stroke-width:1.5;"/><text fill="#000000" font-family="sans-serif" font-size="14" lengthAdjust="spacing" textLength="4.9697" x="8" y="30.5332">"</text><text fill="#000000" font-family="sans-serif" font-size="14" font-weight="bold" lengthAdjust="spacing" textLength="16.3379" x="12.9697" y="30.5332">sd</text><text fill="#000000" font-family="sans-serif" font-size="14" lengthAdjust="spacing" textLength="47.79" x="33.1973" y="30.5332">Logout"</text><g><title>... MainPage..</title><rect fill="#FFFFFF" height="399.3516" style="stroke:#181818;stroke-width:1;" width="10" x="167.8794" y="153.5703"/></g><g><title>... MainPage..</title><rect fill="#FFFFFF" height="28" style="stroke:#181818;stroke-width:1;" width="10" x="172.8794" y="191.9219"/></g><g><title>... MainPage..</title><rect fill="#FFFFFF" height="36.3516" style="stroke:#181818;stroke-width:1;" width="10" x="172.8794" y="282.625"/></g><g><title>... MainPage..</title><rect fill="#FFFFFF" height="30.3516" style="stroke:#181818;stroke-width:1;" width="10" x="172.8794" y="372.1641"/></g><g><title>... MainPage..</title><rect fill="#FFFFFF" height="36.3516" style="stroke:#181818;stroke-width:1;" width="10" x="172.8794" y="493.5703"/></g><g><title>... LogoutController..</title><rect fill="#FFFFFF" height="91.0547" style="stroke:#181818;stroke-width:1;" width="10" x="361.5547" y="402.5156"/></g><g><title>... Session..</title><rect fill="#FFFFFF" height="30.3516" style="stroke:#181818;stroke-width:1;" width="10" x="535.8018" y="432.8672"/></g><rect fill="none" height="303" style="stroke:#000000;stroke-width:1.5;" width="564.9224" x="20" y="241.9219"/><g><title>... User..</title><rect fill="#000000" fill-opacity="0.00000" height="440.7031" width="8" x="48.8413" y="121.2188"/><line style="stroke:#181818;stroke-width:0.5;stroke-dasharray:5,5;" x1="52" x2="52" y1="121.2188" y2="561.9219"/></g><g><title>... MainPage..</title><rect fill="#000000" fill-opacity="0.00000" height="440.7031" width="8" x="168.8794" y="121.2188"/><line style="stroke:#181818;stroke-width:0.5;stroke-dasharray:5,5;" x1="171.9277" x2="171.9277" y1="121.2188" y2="561.9219"/></g><g><title>... LogoutController..</title><rect fill="#000000" fill-opacity="0.00000" height="440.7031" width="8" x="362.5547" y="121.2188"/><line style="stroke:#181818;stroke-width:0.5;stroke-dasharray:5,5;" x1="366.1235" x2="366.1235" y1="121.2188" y2="561.9219"/></g><g><title>... Session..</title><rect fill="#000000" fill-opacity="0.00000" height="440.7031" width="8" x="536.8018" y="121.2188"/><line style="stroke:#181818;stroke-width:0.5;stroke-dasharray:5,5;" x1="540.6812" x2="540.6812" y1="121.2188" y2="561.9219"/></g><g class="participant participant-head" data-participant="User"><text fill="#000000" font-family="sans-serif" font-size="14" font-weight="bold" lengthAdjust="spacing" textLength="39.6826" x="30" y="118.1426">: User</text><ellipse cx="52.8413" cy="52.1094" fill="#E2E2F0" rx="8" ry="8" style="stroke:#181818;stroke-width:0.5;"/><path d="M52.8413,60.1094 L52.8413,87.1094 M39.8413,68.1094 L65.8413,68.1094 M52.8413,87.1094 L39.8413,102.1094 M52.8413,87.1094 L65.8413,102.1094" fill="none" style="stroke:#181818;stroke-width:0.5;"/></g><g class="participant participant-head" data-participant="MainPage"><text fill="#000000" font-family="sans-serif" font-size="14" font-weight="bold" lengthAdjust="spacing" textLength="73.9033" x="132.9277" y="118.1426">: MainPage</text><path d="M152.3794,75.6094 L152.3794,99.6094 M152.3794,87.6094 L169.3794,87.6094" fill="none" style="stroke:#181818;stroke-width:0.5;"/><ellipse cx="181.3794" cy="87.6094" fill="#E2E2F0" rx="12" ry="12" style="stroke:#181818;stroke-width:0.5;"/></g><g class="participant participant-head" data-participant="LogoutController"><text fill="#000000" font-family="sans-serif" font-size="14" font-weight="bold" lengthAdjust="spacing" textLength="122.8623" x="302.1235" y="118.1426">: LogoutController</text><ellipse cx="366.5547" cy="87.6094" fill="#E2E2F0" rx="12" ry="12" style="stroke:#181818;stroke-width:0.5;"/><polygon fill="#181818" points="362.5547,75.6094,368.5547,70.6094,366.5547,75.6094,368.5547,80.6094,362.5547,75.6094" style="stroke:#181818;stroke-width:1;"/></g><g class="participant participant-head" data-participant="Session"><text fill="#000000" font-family="sans-serif" font-size="14" font-weight="bold" lengthAdjust="spacing" textLength="62.2412" x="506.6812" y="118.1426">: Session</text><ellipse cx="540.8018" cy="87.6094" fill="#E2E2F0" rx="12" ry="12" style="stroke:#181818;stroke-width:0.5;"/><line style="stroke:#181818;stroke-width:0.5;" x1="528.8018" x2="552.8018" y1="101.6094" y2="101.6094"/></g><g><title>... MainPage..</title><rect fill="#FFFFFF" height="399.3516" style="stroke:#181818;stroke-width:1;" width="10" x="167.8794" y="153.5703"/></g><g><title>... MainPage..</title><rect fill="#FFFFFF" height="28" style="stroke:#181818;stroke-width:1;" width="10" x="172.8794" y="191.9219"/></g><g><title>... MainPage..</title><rect fill="#FFFFFF" height="36.3516" style="stroke:#181818;stroke-width:1;" width="10" x="172.8794" y="282.625"/></g><g><title>... MainPage..</title><rect fill="#FFFFFF" height="30.3516" style="stroke:#181818;stroke-width:1;" width="10" x="172.8794" y="372.1641"/></g><g><title>... MainPage..</title><rect fill="#FFFFFF" height="36.3516" style="stroke:#181818;stroke-width:1;" width="10" x="172.8794" y="493.5703"/></g><g><title>... LogoutController..</title><rect fill="#FFFFFF" height="91.0547" style="stroke:#181818;stroke-width:1;" width="10" x="361.5547" y="402.5156"/></g><g><title>... Session..</title><rect fill="#FFFFFF" height="30.3516" style="stroke:#181818;stroke-width:1;" width="10" x="535.8018" y="432.8672"/></g><g class="message" data-participant-1="User" data-participant-2="MainPage"><polygon fill="#181818" points="155.8794,149.5703,165.8794,153.5703,155.8794,157.5703,159.8794,153.5703" style="stroke:#181818;stroke-width:1;"/><line style="stroke:#181818;stroke-width:1;" x1="52.8413" x2="161.8794" y1="153.5703" y2="153.5703"/><text fill="#000000" font-family="sans-serif" font-size="13" lengthAdjust="spacing" textLength="73.6963" x="59.8413" y="148.7139">clickLogout()</text></g><g class="message" data-participant-1="MainPage" data-participant-2="MainPage"><line style="stroke:#181818;stroke-width:1;" x1="182.8794" x2="224.8794" y1="183.9219" y2="183.9219"/><line style="stroke:#181818;stroke-width:1;" x1="224.8794" x2="224.8794" y1="183.9219" y2="196.9219"/><line style="stroke:#181818;stroke-width:1;" x1="183.8794" x2="224.8794" y1="196.9219" y2="196.9219"/><polygon fill="#181818" points="193.8794,192.9219,183.8794,196.9219,193.8794,200.9219,189.8794,196.9219" style="stroke:#181818;stroke-width:1;"/><text fill="#000000" font-family="sans-serif" font-size="13" lengthAdjust="spacing" textLength="159.6753" x="189.8794" y="179.0654">displayConfirmationDialog()</text></g><path d="M20,241.9219 L80.1709,241.9219 L80.1709,250.2734 L70.1709,260.2734 L20,260.2734 L20,241.9219" fill="#EEEEEE" style="stroke:#000000;stroke-width:1.5;"/><rect fill="none" height="303" style="stroke:#000000;stroke-width:1.5;" width="564.9224" x="20" y="241.9219"/><text fill="#000000" font-family="sans-serif" font-size="13" font-weight="bold" lengthAdjust="spacing" textLength="15.1709" x="35" y="256.417">alt</text><text fill="#000000" font-family="sans-serif" font-size="11" font-weight="bold" lengthAdjust="spacing" textLength="75.2061" x="95.1709" y="255.3408">[User cancels]</text><g class="message" data-participant-1="User" data-participant-2="MainPage"><polygon fill="#181818" points="160.8794,278.625,170.8794,282.625,160.8794,286.625,164.8794,282.625" style="stroke:#181818;stroke-width:1;"/><line style="stroke:#181818;stroke-width:1;" x1="52.8413" x2="166.8794" y1="282.625" y2="282.625"/><text fill="#000000" font-family="sans-serif" font-size="13" lengthAdjust="spacing" textLength="85.998" x="59.8413" y="277.7686">cancelLogout()</text></g><g class="message" data-participant-1="MainPage" data-participant-2="MainPage"><line style="stroke:#181818;stroke-width:1;" x1="182.8794" x2="224.8794" y1="317.9766" y2="317.9766"/><line style="stroke:#181818;stroke-width:1;" x1="224.8794" x2="224.8794" y1="317.9766" y2="330.9766"/><line style="stroke:#181818;stroke-width:1;" x1="177.8794" x2="224.8794" y1="330.9766" y2="330.9766"/><polygon fill="#181818" points="187.8794,326.9766,177.8794,330.9766,187.8794,334.9766,183.8794,330.9766" style="stroke:#181818;stroke-width:1;"/><text fill="#000000" font-family="sans-serif" font-size="13" lengthAdjust="spacing" textLength="75.8608" x="189.8794" y="313.1201">closeDialog()</text></g><line style="stroke:#000000;stroke-width:1;stroke-dasharray:2,2;" x1="20" x2="584.9224" y1="334.9766" y2="334.9766"/><text fill="#000000" font-family="sans-serif" font-size="11" font-weight="bold" lengthAdjust="spacing" textLength="81.2969" x="25" y="346.3955">[User confirms]</text><g class="message" data-participant-1="User" data-participant-2="MainPage"><polygon fill="#181818" points="160.8794,368.1641,170.8794,372.1641,160.8794,376.1641,164.8794,372.1641" style="stroke:#181818;stroke-width:1;"/><line style="stroke:#181818;stroke-width:1;" x1="52.8413" x2="166.8794" y1="372.1641" y2="372.1641"/><text fill="#000000" font-family="sans-serif" font-size="13" lengthAdjust="spacing" textLength="91.0381" x="59.8413" y="367.3076">confirmLogout()</text></g><g class="message" data-participant-1="MainPage" data-participant-2="LogoutController"><polygon fill="#181818" points="349.5547,398.5156,359.5547,402.5156,349.5547,406.5156,353.5547,402.5156" style="stroke:#181818;stroke-width:1;"/><line style="stroke:#181818;stroke-width:1;" x1="177.8794" x2="355.5547" y1="402.5156" y2="402.5156"/><text fill="#000000" font-family="sans-serif" font-size="13" lengthAdjust="spacing" textLength="148.8589" x="184.8794" y="397.6592">processLogout(sessionId)</text></g><g class="message" data-participant-1="LogoutController" data-participant-2="Session"><polygon fill="#181818" points="523.8018,428.8672,533.8018,432.8672,523.8018,436.8672,527.8018,432.8672" style="stroke:#181818;stroke-width:1;"/><line style="stroke:#181818;stroke-width:1;" x1="371.5547" x2="529.8018" y1="432.8672" y2="432.8672"/><text fill="#000000" font-family="sans-serif" font-size="13" lengthAdjust="spacing" textLength="145.2471" x="378.5547" y="428.0107">deleteSession(sessionId)</text></g><g class="message" data-participant-1="Session" data-participant-2="LogoutController"><polygon fill="#181818" points="382.5547,459.2188,372.5547,463.2188,382.5547,467.2188,378.5547,463.2188" style="stroke:#181818;stroke-width:1;"/><line style="stroke:#181818;stroke-width:1;stroke-dasharray:2,2;" x1="376.5547" x2="539.8018" y1="463.2188" y2="463.2188"/><text fill="#000000" font-family="sans-serif" font-size="13" lengthAdjust="spacing" textLength="127.8926" x="388.5547" y="458.3623">deleteStatus(success)</text></g><g class="message" data-participant-1="LogoutController" data-participant-2="MainPage"><polygon fill="#181818" points="193.8794,489.5703,183.8794,493.5703,193.8794,497.5703,189.8794,493.5703" style="stroke:#181818;stroke-width:1;"/><line style="stroke:#181818;stroke-width:1;stroke-dasharray:2,2;" x1="187.8794" x2="365.5547" y1="493.5703" y2="493.5703"/><text fill="#000000" font-family="sans-serif" font-size="13" lengthAdjust="spacing" textLength="93.209" x="199.8794" y="488.7139">logoutSuccess()</text></g><g class="message" data-participant-1="MainPage" data-participant-2="MainPage"><line style="stroke:#181818;stroke-width:1;" x1="182.8794" x2="224.8794" y1="528.9219" y2="528.9219"/><line style="stroke:#181818;stroke-width:1;" x1="224.8794" x2="224.8794" y1="528.9219" y2="541.9219"/><line style="stroke:#181818;stroke-width:1;" x1="177.8794" x2="224.8794" y1="541.9219" y2="541.9219"/><polygon fill="#181818" points="187.8794,537.9219,177.8794,541.9219,187.8794,545.9219,183.8794,541.9219" style="stroke:#181818;stroke-width:1;"/><text fill="#000000" font-family="sans-serif" font-size="13" lengthAdjust="spacing" textLength="98.9854" x="189.8794" y="524.0654">redirectToLogin()</text></g><!--SRC=[XLFDRi8m3BxdAImki4gy08TTs0M9IPFO7Y0a1Y92Wk9q6s-__BM3fa1FZMD_FxPpuihi73yXJ9g6PDF0skvjwoVie2J2pbg_jR-CSU6jYpaB-29qJJC1JkcNRMrh97UNVFiU03_u7aj6TsJ26k-ipacPOvb3keSRXXaQh_m5Sj46YPGr9RUS69ic5K2UEq-W4mHBeVbhJmyB45g9OsQOlKG_wfjx_1SOWLP01_j34CJkb3jn7nX0AXvGMGzr2oiLdJM_BAygtbB1A8d44MAkVVOWk16eYK7unXoawzv2pAhHOlIELA4jOIyk9exA2GgmwCccxWlAzqyKfV0KKWsdO-fk6J1u2sTdHPXbDxcX_k5E1DfIKMWfBy9AthTqewjQigBlYaAYHey41JebL3g2jhA3SGjIHJaF9VNKcokyhdO-xh40UkvRcb4hek7AOFy6AWSEppO-XoqNnzJahWsrZTkHvYbiCc6z9LNpde_SeLGEHH3JKfvuu53cqQ9s9Pzs7LCVB2iQ-GS0]--></g></svg>