<svg xmlns="http://www.w3.org/2000/svg" xmlns:xlink="http://www.w3.org/1999/xlink" contentStyleType="text/css" data-diagram-type="SEQUENCE" height="512px" preserveAspectRatio="none" style="width:548px;height:512px;background:#FFFFFF;" version="1.1" viewBox="0 0 548 512" width="548px" zoomAndPan="magnify"><defs/><g><rect fill="#FFFFFF" height="491.8281" style="stroke:#181818;stroke-width:1.5;" width="537.0024" x="5" y="15"/><path d="M78.0479,15 L78.0479,25.6094 L68.0479,35.6094 L5,35.6094" fill="none" style="stroke:#181818;stroke-width:1.5;"/><text fill="#000000" font-family="sans-serif" font-size="14" font-weight="bold" lengthAdjust="spacing" textLength="16.3379" x="8" y="30.5332">sd</text><text fill="#000000" font-family="sans-serif" font-size="14" lengthAdjust="spacing" textLength="42.8203" x="28.2275" y="30.5332">Logout</text><g><title>... MainPage..</title><rect fill="#FFFFFF" height="129.0547" style="stroke:#181818;stroke-width:1;" width="10" x="162.8794" y="153.5703"/></g><g><title>... MainPage..</title><rect fill="#FFFFFF" height="28" style="stroke:#181818;stroke-width:1;" width="10" x="167.8794" y="191.9219"/></g><g><title>... MainPage..</title><rect fill="#FFFFFF" height="30.3516" style="stroke:#181818;stroke-width:1;" width="10" x="162.8794" y="328.8125"/></g><g><title>... MainPage..</title><rect fill="#FFFFFF" height="59.3516" style="stroke:#181818;stroke-width:1;" width="10" x="162.8794" y="419.8672"/></g><g><title>... MainPage..</title><rect fill="#FFFFFF" height="21" style="stroke:#181818;stroke-width:1;" width="10" x="167.8794" y="458.2188"/></g><g><title>... LogoutController..</title><rect fill="#FFFFFF" height="60.7031" style="stroke:#181818;stroke-width:1;" width="10" x="356.5547" y="359.1641"/></g><rect fill="none" height="229.2969" style="stroke:#000000;stroke-width:1.5;" width="505.0024" x="20" y="241.9219"/><g><title>... User..</title><rect fill="#000000" fill-opacity="0.00000" height="367" width="8" x="48.8413" y="121.2188"/><line style="stroke:#181818;stroke-width:0.5;stroke-dasharray:5,5;" x1="52" x2="52" y1="121.2188" y2="488.2188"/></g><g><title>... MainPage..</title><rect fill="#000000" fill-opacity="0.00000" height="367" width="8" x="163.8794" y="121.2188"/><line style="stroke:#181818;stroke-width:0.5;stroke-dasharray:5,5;" x1="166.9277" x2="166.9277" y1="121.2188" y2="488.2188"/></g><g><title>... LogoutController..</title><rect fill="#000000" fill-opacity="0.00000" height="367" width="8" x="357.5547" y="121.2188"/><line style="stroke:#181818;stroke-width:0.5;stroke-dasharray:5,5;" x1="361.1235" x2="361.1235" y1="121.2188" y2="488.2188"/></g><g><title>... Session..</title><rect fill="#000000" fill-opacity="0.00000" height="367" width="8" x="476.8818" y="121.2188"/><line style="stroke:#181818;stroke-width:0.5;stroke-dasharray:5,5;" x1="480.7612" x2="480.7612" y1="121.2188" y2="488.2188"/></g><g class="participant participant-head" data-participant="User"><text fill="#000000" font-family="sans-serif" font-size="14" font-weight="bold" lengthAdjust="spacing" textLength="39.6826" x="30" y="118.1426">: User</text><ellipse cx="52.8413" cy="52.1094" fill="#E2E2F0" rx="8" ry="8" style="stroke:#181818;stroke-width:0.5;"/><path d="M52.8413,60.1094 L52.8413,87.1094 M39.8413,68.1094 L65.8413,68.1094 M52.8413,87.1094 L39.8413,102.1094 M52.8413,87.1094 L65.8413,102.1094" fill="none" style="stroke:#181818;stroke-width:0.5;"/></g><g class="participant participant-head" data-participant="MainPage"><text fill="#000000" font-family="sans-serif" font-size="14" font-weight="bold" lengthAdjust="spacing" textLength="73.9033" x="127.9277" y="118.1426">: MainPage</text><path d="M147.3794,75.6094 L147.3794,99.6094 M147.3794,87.6094 L164.3794,87.6094" fill="none" style="stroke:#181818;stroke-width:0.5;"/><ellipse cx="176.3794" cy="87.6094" fill="#E2E2F0" rx="12" ry="12" style="stroke:#181818;stroke-width:0.5;"/></g><g class="participant participant-head" data-participant="LogoutController"><text fill="#000000" font-family="sans-serif" font-size="14" font-weight="bold" lengthAdjust="spacing" textLength="122.8623" x="297.1235" y="118.1426">: LogoutController</text><ellipse cx="361.5547" cy="87.6094" fill="#E2E2F0" rx="12" ry="12" style="stroke:#181818;stroke-width:0.5;"/><polygon fill="#181818" points="357.5547,75.6094,363.5547,70.6094,361.5547,75.6094,363.5547,80.6094,357.5547,75.6094" style="stroke:#181818;stroke-width:1;"/></g><g class="participant participant-head" data-participant="Session"><text fill="#000000" font-family="sans-serif" font-size="14" font-weight="bold" lengthAdjust="spacing" textLength="62.2412" x="446.7612" y="118.1426">: Session</text><ellipse cx="480.8818" cy="87.6094" fill="#E2E2F0" rx="12" ry="12" style="stroke:#181818;stroke-width:0.5;"/><line style="stroke:#181818;stroke-width:0.5;" x1="468.8818" x2="492.8818" y1="101.6094" y2="101.6094"/></g><g><title>... MainPage..</title><rect fill="#FFFFFF" height="129.0547" style="stroke:#181818;stroke-width:1;" width="10" x="162.8794" y="153.5703"/></g><g><title>... MainPage..</title><rect fill="#FFFFFF" height="28" style="stroke:#181818;stroke-width:1;" width="10" x="167.8794" y="191.9219"/></g><g><title>... MainPage..</title><rect fill="#FFFFFF" height="30.3516" style="stroke:#181818;stroke-width:1;" width="10" x="162.8794" y="328.8125"/></g><g><title>... MainPage..</title><rect fill="#FFFFFF" height="59.3516" style="stroke:#181818;stroke-width:1;" width="10" x="162.8794" y="419.8672"/></g><g><title>... MainPage..</title><rect fill="#FFFFFF" height="21" style="stroke:#181818;stroke-width:1;" width="10" x="167.8794" y="458.2188"/></g><g><title>... LogoutController..</title><rect fill="#FFFFFF" height="60.7031" style="stroke:#181818;stroke-width:1;" width="10" x="356.5547" y="359.1641"/></g><g class="message" data-participant-1="User" data-participant-2="MainPage"><polygon fill="#181818" points="150.8794,149.5703,160.8794,153.5703,150.8794,157.5703,154.8794,153.5703" style="stroke:#181818;stroke-width:1;"/><line style="stroke:#181818;stroke-width:1;" x1="52.8413" x2="156.8794" y1="153.5703" y2="153.5703"/><text fill="#000000" font-family="sans-serif" font-size="13" lengthAdjust="spacing" textLength="73.6963" x="59.8413" y="148.7139">clickLogout()</text></g><g class="message" data-participant-1="MainPage" data-participant-2="MainPage"><line style="stroke:#181818;stroke-width:1;" x1="177.8794" x2="219.8794" y1="183.9219" y2="183.9219"/><line style="stroke:#181818;stroke-width:1;" x1="219.8794" x2="219.8794" y1="183.9219" y2="196.9219"/><line style="stroke:#181818;stroke-width:1;" x1="178.8794" x2="219.8794" y1="196.9219" y2="196.9219"/><polygon fill="#181818" points="188.8794,192.9219,178.8794,196.9219,188.8794,200.9219,184.8794,196.9219" style="stroke:#181818;stroke-width:1;"/><text fill="#000000" font-family="sans-serif" font-size="13" lengthAdjust="spacing" textLength="159.6753" x="184.8794" y="179.0654">displayConfirmationDialog()</text></g><path d="M20,241.9219 L80.1709,241.9219 L80.1709,250.2734 L70.1709,260.2734 L20,260.2734 L20,241.9219" fill="#EEEEEE" style="stroke:#000000;stroke-width:1.5;"/><rect fill="none" height="229.2969" style="stroke:#000000;stroke-width:1.5;" width="505.0024" x="20" y="241.9219"/><text fill="#000000" font-family="sans-serif" font-size="13" font-weight="bold" lengthAdjust="spacing" textLength="15.1709" x="35" y="256.417">alt</text><text fill="#000000" font-family="sans-serif" font-size="11" font-weight="bold" lengthAdjust="spacing" textLength="75.2061" x="95.1709" y="255.3408">[User cancels]</text><g class="message" data-participant-1="User" data-participant-2="MainPage"><polygon fill="#181818" points="155.8794,278.625,165.8794,282.625,155.8794,286.625,159.8794,282.625" style="stroke:#181818;stroke-width:1;"/><line style="stroke:#181818;stroke-width:1;" x1="52.8413" x2="161.8794" y1="282.625" y2="282.625"/><text fill="#000000" font-family="sans-serif" font-size="13" lengthAdjust="spacing" textLength="85.998" x="59.8413" y="277.7686">cancelLogout()</text></g><line style="stroke:#000000;stroke-width:1;stroke-dasharray:2,2;" x1="20" x2="525.0024" y1="291.625" y2="291.625"/><text fill="#000000" font-family="sans-serif" font-size="11" font-weight="bold" lengthAdjust="spacing" textLength="81.2969" x="25" y="303.0439">[User confirms]</text><g class="message" data-participant-1="User" data-participant-2="MainPage"><polygon fill="#181818" points="150.8794,324.8125,160.8794,328.8125,150.8794,332.8125,154.8794,328.8125" style="stroke:#181818;stroke-width:1;"/><line style="stroke:#181818;stroke-width:1;" x1="52.8413" x2="156.8794" y1="328.8125" y2="328.8125"/><text fill="#000000" font-family="sans-serif" font-size="13" lengthAdjust="spacing" textLength="91.0381" x="59.8413" y="323.9561">confirmLogout()</text></g><g class="message" data-participant-1="MainPage" data-participant-2="LogoutController"><polygon fill="#181818" points="344.5547,355.1641,354.5547,359.1641,344.5547,363.1641,348.5547,359.1641" style="stroke:#181818;stroke-width:1;"/><line style="stroke:#181818;stroke-width:1;" x1="167.8794" x2="350.5547" y1="359.1641" y2="359.1641"/><text fill="#000000" font-family="sans-serif" font-size="13" lengthAdjust="spacing" textLength="93.939" x="174.8794" y="354.3076">processLogout()</text></g><g class="message" data-participant-1="LogoutController" data-participant-2="Session"><polygon fill="#181818" points="468.8818,385.5156,478.8818,389.5156,468.8818,393.5156,472.8818,389.5156" style="stroke:#181818;stroke-width:1;"/><line style="stroke:#181818;stroke-width:1;" x1="366.5547" x2="474.8818" y1="389.5156" y2="389.5156"/><text fill="#000000" font-family="sans-serif" font-size="13" lengthAdjust="spacing" textLength="90.3271" x="373.5547" y="384.6592">deleteSession()</text></g><line style="stroke:#A80036;stroke-width:2;" x1="471.8818" x2="489.8818" y1="380.5156" y2="398.5156"/><line style="stroke:#A80036;stroke-width:2;" x1="471.8818" x2="489.8818" y1="398.5156" y2="380.5156"/><g class="message" data-participant-1="LogoutController" data-participant-2="MainPage"><polygon fill="#181818" points="183.8794,415.8672,173.8794,419.8672,183.8794,423.8672,179.8794,419.8672" style="stroke:#181818;stroke-width:1;"/><line style="stroke:#181818;stroke-width:1;stroke-dasharray:2,2;" x1="177.8794" x2="360.5547" y1="419.8672" y2="419.8672"/><text fill="#000000" font-family="sans-serif" font-size="13" lengthAdjust="spacing" textLength="84.5508" x="189.8794" y="415.0107">logoutSuccess</text></g><g class="message" data-participant-1="MainPage" data-participant-2="MainPage"><line style="stroke:#181818;stroke-width:1;" x1="172.8794" x2="219.8794" y1="445.2188" y2="445.2188"/><line style="stroke:#181818;stroke-width:1;" x1="219.8794" x2="219.8794" y1="445.2188" y2="458.2188"/><line style="stroke:#181818;stroke-width:1;" x1="178.8794" x2="219.8794" y1="458.2188" y2="458.2188"/><polygon fill="#181818" points="188.8794,454.2188,178.8794,458.2188,188.8794,462.2188,184.8794,458.2188" style="stroke:#181818;stroke-width:1;"/><text fill="#000000" font-family="sans-serif" font-size="13" lengthAdjust="spacing" textLength="98.9854" x="184.8794" y="440.3623">redirectToLogin()</text></g><!--SRC=[XPB1JiCm38RlUGflbq4ba83R3aW8RcCIqk01tDJhJDEaIbB4tfwa3MLTEz5B6zlz_jzsQcIzjrWJP9ahiWnUJMbQBmvS4EoDyRdv5WAbDnQMMRQ63qSsovQ0hliKkMbrWVROPxS1zuObfOhVev16UsjKNzHBFFSXDU3EmuAqPv_0EtAEZKwbwIH4j00tZuCGh44gbbNFkhgEplaBFVrP4KFj-B-2NQFm6FJtR6lqWV_2g4mvIobeXho2NKKQBHjuKfwi3fJz6ZO9wLYWyjtOGAAMf9o0yCmrqQM7BcBLh690K0Bs8fU9VNw4d09Zz7G-vpi9eCOQ6SR_hxUHm6ItNNe59-IQT7a8RRUsGWqc_wGgxfcxoecFu2rT0bWiulP8aQSK2guIVsCiLOvXoyvZHV1mUt-t7gigRCBThgZEKN5um-1-AZeUgUhokrR6UPpFOTBn_C2JpuuO9u0M3x7_9doNhSR9HaxqBHLiIVft4yHONrmgwU87]--></g></svg>