<svg xmlns="http://www.w3.org/2000/svg" xmlns:xlink="http://www.w3.org/1999/xlink" contentStyleType="text/css" data-diagram-type="CLASS" height="1066px" preserveAspectRatio="none" style="width:1138px;height:1066px;background:#FFFFFF;" version="1.1" viewBox="0 0 1138 1066" width="1138px" zoomAndPan="magnify"><title>PDM</title><defs/><g><g class="title" data-source-line="1"><text fill="#000000" font-family="sans-serif" font-size="14" font-weight="bold" lengthAdjust="spacing" textLength="31.1104" x="546.8945" y="24.5332">PDM</text></g><!--class Report--><g class="entity" data-entity="Report" data-source-line="10" data-uid="ent0002" id="entity_Report"><rect fill="#F1F1F1" height="435.4063" rx="2.5" ry="2.5" style="stroke:#181818;stroke-width:0.5;" width="210.4268" x="7" y="45.6094"/><ellipse cx="86.9531" cy="61.6094" fill="#ADD1B2" rx="11" ry="11" style="stroke:#181818;stroke-width:1;"/><path d="M85.8125,62.4063 L85.8125,64.9063 L90.1406,64.9063 L90.1406,63.9844 Q90.1406,63.375 90.375,63.1094 Q90.625,62.8438 91,62.8438 Q91.375,62.8438 91.6094,63.1094 Q91.8438,63.375 91.8438,63.9844 L91.8438,66.6094 L83.8438,66.6094 Q83.2188,66.6094 82.9531,66.375 Q82.7031,66.1406 82.7031,65.75 Q82.7031,65.375 82.9688,65.1406 Q83.2344,64.9063 83.8438,64.9063 L84.1094,64.9063 L84.1094,58.25 L83.8438,58.25 Q83.2188,58.25 82.9531,58.0156 Q82.7031,57.7813 82.7031,57.3906 Q82.7031,57.0156 82.9531,56.7813 Q83.2188,56.5469 83.8438,56.5469 L91.4688,56.5469 L91.4688,59.1406 Q91.4688,59.75 91.2344,60.0156 Q91.0156,60.2656 90.625,60.2656 Q90.25,60.2656 90.0156,60.0156 Q89.7813,59.75 89.7813,59.1406 L89.7813,58.25 L85.8125,58.25 L85.8125,60.7031 L87.2969,60.7031 Q87.2969,60.0469 87.4219,59.8594 Q87.6875,59.4531 88.1563,59.4531 Q88.5313,59.4531 88.7656,59.7188 Q89,59.9688 89,60.5781 L89,62.5469 Q89,63.0938 88.875,63.2813 Q88.6094,63.6719 88.1563,63.6719 Q87.6875,63.6719 87.4219,63.2656 Q87.2969,63.0781 87.2969,62.4063 L85.8125,62.4063 Z " fill="#000000"/><text fill="#000000" font-family="sans-serif" font-size="14" lengthAdjust="spacing" textLength="42.0205" x="107.4531" y="67.3379">Report</text><line style="stroke:#181818;stroke-width:0.5;" x1="8" x2="216.4268" y1="77.6094" y2="77.6094"/><text fill="#000000" font-family="sans-serif" font-size="14" lengthAdjust="spacing" textLength="81.7168" x="13" y="96.1426">*id : Int &#171;PK&#187;</text><line style="stroke:#181818;stroke-width:1;" x1="8" x2="216.4268" y1="103.2188" y2="103.2188"/><text fill="#000000" font-family="sans-serif" font-size="14" lengthAdjust="spacing" textLength="151.7373" x="13" y="121.752">source_id : varchar(255)</text><text fill="#000000" font-family="sans-serif" font-size="14" lengthAdjust="spacing" textLength="176.6611" x="13" y="139.3613">generated_by : varchar(255)</text><text fill="#000000" font-family="sans-serif" font-size="14" lengthAdjust="spacing" textLength="143.958" x="13" y="156.9707">*created_at : DateTime</text><text fill="#000000" font-family="sans-serif" font-size="14" lengthAdjust="spacing" textLength="126.0547" x="13" y="174.5801">name : varchar(255)</text><text fill="#000000" font-family="sans-serif" font-size="14" lengthAdjust="spacing" textLength="144.71" x="13" y="192.1895">time_stamp : DateTime</text><text fill="#000000" font-family="sans-serif" font-size="14" lengthAdjust="spacing" textLength="128.3857" x="13" y="209.7988">status : varchar(255)</text><text fill="#000000" font-family="sans-serif" font-size="14" lengthAdjust="spacing" textLength="56.7998" x="13" y="227.4082">tests : Int</text><text fill="#000000" font-family="sans-serif" font-size="14" lengthAdjust="spacing" textLength="72.3789" x="13" y="245.0176">passed : Int</text><text fill="#000000" font-family="sans-serif" font-size="14" lengthAdjust="spacing" textLength="60.7031" x="13" y="262.627">failed : Int</text><text fill="#000000" font-family="sans-serif" font-size="14" lengthAdjust="spacing" textLength="77.0615" x="13" y="280.2363">pending : Int</text><text fill="#000000" font-family="sans-serif" font-size="14" lengthAdjust="spacing" textLength="75.4893" x="13" y="297.8457">skipped : Int</text><text fill="#000000" font-family="sans-serif" font-size="14" lengthAdjust="spacing" textLength="59.1445" x="13" y="315.4551">other : Int</text><text fill="#000000" font-family="sans-serif" font-size="14" lengthAdjust="spacing" textLength="99.5791" x="13" y="333.0645">start : DateTime</text><text fill="#000000" font-family="sans-serif" font-size="14" lengthAdjust="spacing" textLength="98.8135" x="13" y="350.6738">stop : DateTime</text><text fill="#000000" font-family="sans-serif" font-size="14" lengthAdjust="spacing" textLength="63.8066" x="13" y="368.2832">suites : Int</text><text fill="#000000" font-family="sans-serif" font-size="14" lengthAdjust="spacing" textLength="157.1992" x="13" y="385.8926">app_name : varchar(255)</text><text fill="#000000" font-family="sans-serif" font-size="14" lengthAdjust="spacing" textLength="163.4199" x="13" y="403.502">build_name : varchar(255)</text><text fill="#000000" font-family="sans-serif" font-size="14" lengthAdjust="spacing" textLength="175.8682" x="13" y="421.1113">build_number : varchar(255)</text><text fill="#000000" font-family="sans-serif" font-size="14" lengthAdjust="spacing" textLength="195.3096" x="13" y="438.7207">repository_name : varchar(255)</text><text fill="#000000" font-family="sans-serif" font-size="14" lengthAdjust="spacing" textLength="176.6475" x="13" y="456.3301">branch_name : varchar(255)</text><text fill="#000000" font-family="sans-serif" font-size="14" lengthAdjust="spacing" textLength="198.4268" x="13" y="473.9395">test_environment : varchar(255)</text></g><!--class Test--><g class="entity" data-entity="Test" data-source-line="36" data-uid="ent0003" id="entity_Test"><rect fill="#F1F1F1" height="347.3594" rx="2.5" ry="2.5" style="stroke:#181818;stroke-width:0.5;" width="170.7305" x="26.5" y="540.6094"/><ellipse cx="94.0015" cy="556.6094" fill="#ADD1B2" rx="11" ry="11" style="stroke:#181818;stroke-width:1;"/><path d="M92.8608,557.4063 L92.8608,559.9063 L97.189,559.9063 L97.189,558.9844 Q97.189,558.375 97.4233,558.1094 Q97.6733,557.8438 98.0483,557.8438 Q98.4233,557.8438 98.6577,558.1094 Q98.8921,558.375 98.8921,558.9844 L98.8921,561.6094 L90.8921,561.6094 Q90.2671,561.6094 90.0015,561.375 Q89.7515,561.1406 89.7515,560.75 Q89.7515,560.375 90.0171,560.1406 Q90.2827,559.9063 90.8921,559.9063 L91.1577,559.9063 L91.1577,553.25 L90.8921,553.25 Q90.2671,553.25 90.0015,553.0156 Q89.7515,552.7813 89.7515,552.3906 Q89.7515,552.0156 90.0015,551.7813 Q90.2671,551.5469 90.8921,551.5469 L98.5171,551.5469 L98.5171,554.1406 Q98.5171,554.75 98.2827,555.0156 Q98.064,555.2656 97.6733,555.2656 Q97.2983,555.2656 97.064,555.0156 Q96.8296,554.75 96.8296,554.1406 L96.8296,553.25 L92.8608,553.25 L92.8608,555.7031 L94.3452,555.7031 Q94.3452,555.0469 94.4702,554.8594 Q94.7358,554.4531 95.2046,554.4531 Q95.5796,554.4531 95.814,554.7188 Q96.0483,554.9688 96.0483,555.5781 L96.0483,557.5469 Q96.0483,558.0938 95.9233,558.2813 Q95.6577,558.6719 95.2046,558.6719 Q94.7358,558.6719 94.4702,558.2656 Q94.3452,558.0781 94.3452,557.4063 L92.8608,557.4063 Z " fill="#000000"/><text fill="#000000" font-family="sans-serif" font-size="14" lengthAdjust="spacing" textLength="27.2275" x="114.5015" y="562.3379">Test</text><line style="stroke:#181818;stroke-width:0.5;" x1="27.5" x2="196.2305" y1="572.6094" y2="572.6094"/><text fill="#000000" font-family="sans-serif" font-size="14" lengthAdjust="spacing" textLength="81.7168" x="32.5" y="591.1426">*id : Int &#171;PK&#187;</text><text fill="#000000" font-family="sans-serif" font-size="14" lengthAdjust="spacing" textLength="125.2891" x="32.5" y="608.752">*report_id : Int &#171;FK&#187;</text><line style="stroke:#181818;stroke-width:1;" x1="27.5" x2="196.2305" y1="615.8281" y2="615.8281"/><text fill="#000000" font-family="sans-serif" font-size="14" lengthAdjust="spacing" textLength="128.3857" x="32.5" y="634.3613">status : varchar(255)</text><text fill="#000000" font-family="sans-serif" font-size="14" lengthAdjust="spacing" textLength="126.0547" x="32.5" y="651.9707">name : varchar(255)</text><text fill="#000000" font-family="sans-serif" font-size="14" lengthAdjust="spacing" textLength="77.8271" x="32.5" y="669.5801">duration : Int</text><text fill="#000000" font-family="sans-serif" font-size="14" lengthAdjust="spacing" textLength="99.5791" x="32.5" y="687.1895">start : DateTime</text><text fill="#000000" font-family="sans-serif" font-size="14" lengthAdjust="spacing" textLength="98.8135" x="32.5" y="704.7988">stop : DateTime</text><text fill="#000000" font-family="sans-serif" font-size="14" lengthAdjust="spacing" textLength="147.8408" x="32.5" y="722.4082">message : varchar(255)</text><text fill="#000000" font-family="sans-serif" font-size="14" lengthAdjust="spacing" textLength="158.7305" x="32.5" y="740.0176">raw_status : varchar(255)</text><text fill="#000000" font-family="sans-serif" font-size="14" lengthAdjust="spacing" textLength="66.1309" x="32.5" y="757.627">retries : Int</text><text fill="#000000" font-family="sans-serif" font-size="14" lengthAdjust="spacing" textLength="91.834" x="32.5" y="775.2363">flaky : Boolean</text><text fill="#000000" font-family="sans-serif" font-size="14" lengthAdjust="spacing" textLength="120.6064" x="32.5" y="792.8457">suite : varchar(255)</text><text fill="#000000" font-family="sans-serif" font-size="14" lengthAdjust="spacing" textLength="117.5029" x="32.5" y="810.4551">attachments : Json</text><text fill="#000000" font-family="sans-serif" font-size="14" lengthAdjust="spacing" textLength="79.3789" x="32.5" y="828.0645">stdout : Json</text><text fill="#000000" font-family="sans-serif" font-size="14" lengthAdjust="spacing" textLength="77.0273" x="32.5" y="845.6738">stderr : Json</text><text fill="#000000" font-family="sans-serif" font-size="14" lengthAdjust="spacing" textLength="72.3652" x="32.5" y="863.2832">extra : Json</text><text fill="#000000" font-family="sans-serif" font-size="14" lengthAdjust="spacing" textLength="145.5029" x="32.5" y="880.8926">trace_url : varchar(255)</text></g><!--class User--><g class="entity" data-entity="User" data-source-line="57" data-uid="ent0004" id="entity_User"><rect fill="#F1F1F1" height="171.2656" rx="2.5" ry="2.5" style="stroke:#181818;stroke-width:0.5;" width="182.3994" x="753" y="177.6094"/><ellipse cx="825.1704" cy="193.6094" fill="#ADD1B2" rx="11" ry="11" style="stroke:#181818;stroke-width:1;"/><path d="M824.0298,194.4063 L824.0298,196.9063 L828.3579,196.9063 L828.3579,195.9844 Q828.3579,195.375 828.5923,195.1094 Q828.8423,194.8438 829.2173,194.8438 Q829.5923,194.8438 829.8267,195.1094 Q830.061,195.375 830.061,195.9844 L830.061,198.6094 L822.061,198.6094 Q821.436,198.6094 821.1704,198.375 Q820.9204,198.1406 820.9204,197.75 Q820.9204,197.375 821.186,197.1406 Q821.4517,196.9063 822.061,196.9063 L822.3267,196.9063 L822.3267,190.25 L822.061,190.25 Q821.436,190.25 821.1704,190.0156 Q820.9204,189.7813 820.9204,189.3906 Q820.9204,189.0156 821.1704,188.7813 Q821.436,188.5469 822.061,188.5469 L829.686,188.5469 L829.686,191.1406 Q829.686,191.75 829.4517,192.0156 Q829.2329,192.2656 828.8423,192.2656 Q828.4673,192.2656 828.2329,192.0156 Q827.9985,191.75 827.9985,191.1406 L827.9985,190.25 L824.0298,190.25 L824.0298,192.7031 L825.5142,192.7031 Q825.5142,192.0469 825.6392,191.8594 Q825.9048,191.4531 826.3735,191.4531 Q826.7485,191.4531 826.9829,191.7188 Q827.2173,191.9688 827.2173,192.5781 L827.2173,194.5469 Q827.2173,195.0938 827.0923,195.2813 Q826.8267,195.6719 826.3735,195.6719 Q825.9048,195.6719 825.6392,195.2656 Q825.5142,195.0781 825.5142,194.4063 L824.0298,194.4063 Z " fill="#000000"/><text fill="#000000" font-family="sans-serif" font-size="14" lengthAdjust="spacing" textLength="29.5586" x="845.6704" y="199.3379">User</text><line style="stroke:#181818;stroke-width:0.5;" x1="754" x2="934.3994" y1="209.6094" y2="209.6094"/><text fill="#000000" font-family="sans-serif" font-size="14" lengthAdjust="spacing" textLength="145.5166" x="759" y="228.1426">*id : varchar(255) &#171;PK&#187;</text><line style="stroke:#181818;stroke-width:1;" x1="754" x2="934.3994" y1="235.2188" y2="235.2188"/><text fill="#000000" font-family="sans-serif" font-size="14" lengthAdjust="spacing" textLength="131.5029" x="759" y="253.752">*name : varchar(255)</text><text fill="#000000" font-family="sans-serif" font-size="14" lengthAdjust="spacing" textLength="170.3994" x="759" y="271.3613">*email : varchar(255) &#171;UQ&#187;</text><text fill="#000000" font-family="sans-serif" font-size="14" lengthAdjust="spacing" textLength="149.4199" x="759" y="288.9707">*emailVerified : Boolean</text><text fill="#000000" font-family="sans-serif" font-size="14" lengthAdjust="spacing" textLength="129.165" x="759" y="306.5801">image : varchar(255)</text><text fill="#000000" font-family="sans-serif" font-size="14" lengthAdjust="spacing" textLength="137.7236" x="759" y="324.1895">*createdAt : DateTime</text><text fill="#000000" font-family="sans-serif" font-size="14" lengthAdjust="spacing" textLength="141.6338" x="759" y="341.7988">*updatedAt : DateTime</text></g><!--class Session--><g class="entity" data-entity="Session" data-source-line="68" data-uid="ent0005" id="entity_Session"><rect fill="#F1F1F1" height="188.875" rx="2.5" ry="2.5" style="stroke:#181818;stroke-width:0.5;" width="184.7441" x="631.5" y="619.6094"/><ellipse cx="694.7188" cy="635.6094" fill="#ADD1B2" rx="11" ry="11" style="stroke:#181818;stroke-width:1;"/><path d="M693.5781,636.4063 L693.5781,638.9063 L697.9063,638.9063 L697.9063,637.9844 Q697.9063,637.375 698.1406,637.1094 Q698.3906,636.8438 698.7656,636.8438 Q699.1406,636.8438 699.375,637.1094 Q699.6094,637.375 699.6094,637.9844 L699.6094,640.6094 L691.6094,640.6094 Q690.9844,640.6094 690.7188,640.375 Q690.4688,640.1406 690.4688,639.75 Q690.4688,639.375 690.7344,639.1406 Q691,638.9063 691.6094,638.9063 L691.875,638.9063 L691.875,632.25 L691.6094,632.25 Q690.9844,632.25 690.7188,632.0156 Q690.4688,631.7813 690.4688,631.3906 Q690.4688,631.0156 690.7188,630.7813 Q690.9844,630.5469 691.6094,630.5469 L699.2344,630.5469 L699.2344,633.1406 Q699.2344,633.75 699,634.0156 Q698.7813,634.2656 698.3906,634.2656 Q698.0156,634.2656 697.7813,634.0156 Q697.5469,633.75 697.5469,633.1406 L697.5469,632.25 L693.5781,632.25 L693.5781,634.7031 L695.0625,634.7031 Q695.0625,634.0469 695.1875,633.8594 Q695.4531,633.4531 695.9219,633.4531 Q696.2969,633.4531 696.5313,633.7188 Q696.7656,633.9688 696.7656,634.5781 L696.7656,636.5469 Q696.7656,637.0938 696.6406,637.2813 Q696.375,637.6719 695.9219,637.6719 Q695.4531,637.6719 695.1875,637.2656 Q695.0625,637.0781 695.0625,636.4063 L693.5781,636.4063 Z " fill="#000000"/><text fill="#000000" font-family="sans-serif" font-size="14" lengthAdjust="spacing" textLength="49.8066" x="715.2188" y="641.3379">Session</text><line style="stroke:#181818;stroke-width:0.5;" x1="632.5" x2="815.2441" y1="651.6094" y2="651.6094"/><text fill="#000000" font-family="sans-serif" font-size="14" lengthAdjust="spacing" textLength="145.5166" x="637.5" y="670.1426">*id : varchar(255) &#171;PK&#187;</text><text fill="#000000" font-family="sans-serif" font-size="14" lengthAdjust="spacing" textLength="172.7441" x="637.5" y="687.752">*userId : varchar(255) &#171;FK&#187;</text><line style="stroke:#181818;stroke-width:1;" x1="632.5" x2="815.2441" y1="694.8281" y2="694.8281"/><text fill="#000000" font-family="sans-serif" font-size="14" lengthAdjust="spacing" textLength="136.1582" x="637.5" y="713.3613">*expiresAt : DateTime</text><text fill="#000000" font-family="sans-serif" font-size="14" lengthAdjust="spacing" textLength="171.1924" x="637.5" y="730.9707">*token : varchar(255) &#171;UQ&#187;</text><text fill="#000000" font-family="sans-serif" font-size="14" lengthAdjust="spacing" textLength="137.7236" x="637.5" y="748.5801">*createdAt : DateTime</text><text fill="#000000" font-family="sans-serif" font-size="14" lengthAdjust="spacing" textLength="141.6338" x="637.5" y="766.1895">*updatedAt : DateTime</text><text fill="#000000" font-family="sans-serif" font-size="14" lengthAdjust="spacing" textLength="153.2891" x="637.5" y="783.7988">ipAddress : varchar(255)</text><text fill="#000000" font-family="sans-serif" font-size="14" lengthAdjust="spacing" textLength="154.8545" x="637.5" y="801.4082">userAgent : varchar(255)</text></g><!--class Account--><g class="entity" data-entity="Account" data-source-line="80" data-uid="ent0006" id="entity_Account"><rect fill="#F1F1F1" height="276.9219" rx="2.5" ry="2.5" style="stroke:#181818;stroke-width:0.5;" width="226.7441" x="851.5" y="575.6094"/><ellipse cx="935.3291" cy="591.6094" fill="#ADD1B2" rx="11" ry="11" style="stroke:#181818;stroke-width:1;"/><path d="M934.1885,592.4063 L934.1885,594.9063 L938.5166,594.9063 L938.5166,593.9844 Q938.5166,593.375 938.751,593.1094 Q939.001,592.8438 939.376,592.8438 Q939.751,592.8438 939.9854,593.1094 Q940.2197,593.375 940.2197,593.9844 L940.2197,596.6094 L932.2197,596.6094 Q931.5947,596.6094 931.3291,596.375 Q931.0791,596.1406 931.0791,595.75 Q931.0791,595.375 931.3447,595.1406 Q931.6104,594.9063 932.2197,594.9063 L932.4854,594.9063 L932.4854,588.25 L932.2197,588.25 Q931.5947,588.25 931.3291,588.0156 Q931.0791,587.7813 931.0791,587.3906 Q931.0791,587.0156 931.3291,586.7813 Q931.5947,586.5469 932.2197,586.5469 L939.8447,586.5469 L939.8447,589.1406 Q939.8447,589.75 939.6104,590.0156 Q939.3916,590.2656 939.001,590.2656 Q938.626,590.2656 938.3916,590.0156 Q938.1572,589.75 938.1572,589.1406 L938.1572,588.25 L934.1885,588.25 L934.1885,590.7031 L935.6729,590.7031 Q935.6729,590.0469 935.7979,589.8594 Q936.0635,589.4531 936.5322,589.4531 Q936.9072,589.4531 937.1416,589.7188 Q937.376,589.9688 937.376,590.5781 L937.376,592.5469 Q937.376,593.0938 937.251,593.2813 Q936.9854,593.6719 936.5322,593.6719 Q936.0635,593.6719 935.7979,593.2656 Q935.6729,593.0781 935.6729,592.4063 L934.1885,592.4063 Z " fill="#000000"/><text fill="#000000" font-family="sans-serif" font-size="14" lengthAdjust="spacing" textLength="50.5859" x="955.8291" y="597.3379">Account</text><line style="stroke:#181818;stroke-width:0.5;" x1="852.5" x2="1077.2441" y1="607.6094" y2="607.6094"/><text fill="#000000" font-family="sans-serif" font-size="14" lengthAdjust="spacing" textLength="145.5166" x="857.5" y="626.1426">*id : varchar(255) &#171;PK&#187;</text><text fill="#000000" font-family="sans-serif" font-size="14" lengthAdjust="spacing" textLength="172.7441" x="857.5" y="643.752">*userId : varchar(255) &#171;FK&#187;</text><line style="stroke:#181818;stroke-width:1;" x1="852.5" x2="1077.2441" y1="650.8281" y2="650.8281"/><text fill="#000000" font-family="sans-serif" font-size="14" lengthAdjust="spacing" textLength="157.1924" x="857.5" y="669.3613">*accountId : varchar(255)</text><text fill="#000000" font-family="sans-serif" font-size="14" lengthAdjust="spacing" textLength="158.7373" x="857.5" y="686.9707">*providerId : varchar(255)</text><text fill="#000000" font-family="sans-serif" font-size="14" lengthAdjust="spacing" textLength="173.5166" x="857.5" y="704.5801">accessToken : varchar(255)</text><text fill="#000000" font-family="sans-serif" font-size="14" lengthAdjust="spacing" textLength="173.5166" x="857.5" y="722.1895">refreshToken : varchar(255)</text><text fill="#000000" font-family="sans-serif" font-size="14" lengthAdjust="spacing" textLength="140.8408" x="857.5" y="739.7988">idToken : varchar(255)</text><text fill="#000000" font-family="sans-serif" font-size="14" lengthAdjust="spacing" textLength="214.7441" x="857.5" y="757.4082">accessTokenExpiresAt : DateTime</text><text fill="#000000" font-family="sans-serif" font-size="14" lengthAdjust="spacing" textLength="214.7441" x="857.5" y="775.0176">refreshTokenExpiresAt : DateTime</text><text fill="#000000" font-family="sans-serif" font-size="14" lengthAdjust="spacing" textLength="128.3926" x="857.5" y="792.627">scope : varchar(255)</text><text fill="#000000" font-family="sans-serif" font-size="14" lengthAdjust="spacing" textLength="150.9512" x="857.5" y="810.2363">password : varchar(255)</text><text fill="#000000" font-family="sans-serif" font-size="14" lengthAdjust="spacing" textLength="137.7236" x="857.5" y="827.8457">*createdAt : DateTime</text><text fill="#000000" font-family="sans-serif" font-size="14" lengthAdjust="spacing" textLength="141.6338" x="857.5" y="845.4551">*updatedAt : DateTime</text></g><!--class Verification--><g class="entity" data-entity="Verification" data-source-line="97" data-uid="ent0007" id="entity_Verification"><rect fill="#F1F1F1" height="153.6563" rx="2.5" ry="2.5" style="stroke:#181818;stroke-width:0.5;" width="161.3994" x="970.5" y="186.1094"/><ellipse cx="1012.565" cy="202.1094" fill="#ADD1B2" rx="11" ry="11" style="stroke:#181818;stroke-width:1;"/><path d="M1011.4244,202.9063 L1011.4244,205.4063 L1015.7525,205.4063 L1015.7525,204.4844 Q1015.7525,203.875 1015.9869,203.6094 Q1016.2369,203.3438 1016.6119,203.3438 Q1016.9869,203.3438 1017.2213,203.6094 Q1017.4557,203.875 1017.4557,204.4844 L1017.4557,207.1094 L1009.4557,207.1094 Q1008.8307,207.1094 1008.565,206.875 Q1008.315,206.6406 1008.315,206.25 Q1008.315,205.875 1008.5807,205.6406 Q1008.8463,205.4063 1009.4557,205.4063 L1009.7213,205.4063 L1009.7213,198.75 L1009.4557,198.75 Q1008.8307,198.75 1008.565,198.5156 Q1008.315,198.2813 1008.315,197.8906 Q1008.315,197.5156 1008.565,197.2813 Q1008.8307,197.0469 1009.4557,197.0469 L1017.0807,197.0469 L1017.0807,199.6406 Q1017.0807,200.25 1016.8463,200.5156 Q1016.6275,200.7656 1016.2369,200.7656 Q1015.8619,200.7656 1015.6275,200.5156 Q1015.3932,200.25 1015.3932,199.6406 L1015.3932,198.75 L1011.4244,198.75 L1011.4244,201.2031 L1012.9088,201.2031 Q1012.9088,200.5469 1013.0338,200.3594 Q1013.2994,199.9531 1013.7682,199.9531 Q1014.1432,199.9531 1014.3775,200.2188 Q1014.6119,200.4688 1014.6119,201.0781 L1014.6119,203.0469 Q1014.6119,203.5938 1014.4869,203.7813 Q1014.2213,204.1719 1013.7682,204.1719 Q1013.2994,204.1719 1013.0338,203.7656 Q1012.9088,203.5781 1012.9088,202.9063 L1011.4244,202.9063 Z " fill="#000000"/><text fill="#000000" font-family="sans-serif" font-size="14" lengthAdjust="spacing" textLength="69.2549" x="1032.5795" y="207.8379">Verification</text><line style="stroke:#181818;stroke-width:0.5;" x1="971.5" x2="1130.8994" y1="218.1094" y2="218.1094"/><text fill="#000000" font-family="sans-serif" font-size="14" lengthAdjust="spacing" textLength="145.5166" x="976.5" y="236.6426">*id : varchar(255) &#171;PK&#187;</text><line style="stroke:#181818;stroke-width:1;" x1="971.5" x2="1130.8994" y1="243.7188" y2="243.7188"/><text fill="#000000" font-family="sans-serif" font-size="14" lengthAdjust="spacing" textLength="149.3994" x="976.5" y="262.252">*identifier : varchar(255)</text><text fill="#000000" font-family="sans-serif" font-size="14" lengthAdjust="spacing" textLength="129.9512" x="976.5" y="279.8613">*value : varchar(255)</text><text fill="#000000" font-family="sans-serif" font-size="14" lengthAdjust="spacing" textLength="136.1582" x="976.5" y="297.4707">*expiresAt : DateTime</text><text fill="#000000" font-family="sans-serif" font-size="14" lengthAdjust="spacing" textLength="137.7236" x="976.5" y="315.0801">*createdAt : DateTime</text><text fill="#000000" font-family="sans-serif" font-size="14" lengthAdjust="spacing" textLength="141.6338" x="976.5" y="332.6895">*updatedAt : DateTime</text></g><!--class TagGroup--><g class="entity" data-entity="TagGroup" data-source-line="107" data-uid="ent0008" id="entity_TagGroup"><rect fill="#F1F1F1" height="83.2188" rx="2.5" ry="2.5" style="stroke:#181818;stroke-width:0.5;" width="143.5029" x="452" y="672.6094"/><ellipse cx="488.8109" cy="688.6094" fill="#ADD1B2" rx="11" ry="11" style="stroke:#181818;stroke-width:1;"/><path d="M487.6703,689.4063 L487.6703,691.9063 L491.9984,691.9063 L491.9984,690.9844 Q491.9984,690.375 492.2328,690.1094 Q492.4828,689.8438 492.8578,689.8438 Q493.2328,689.8438 493.4672,690.1094 Q493.7016,690.375 493.7016,690.9844 L493.7016,693.6094 L485.7016,693.6094 Q485.0766,693.6094 484.8109,693.375 Q484.5609,693.1406 484.5609,692.75 Q484.5609,692.375 484.8266,692.1406 Q485.0922,691.9063 485.7016,691.9063 L485.9672,691.9063 L485.9672,685.25 L485.7016,685.25 Q485.0766,685.25 484.8109,685.0156 Q484.5609,684.7813 484.5609,684.3906 Q484.5609,684.0156 484.8109,683.7813 Q485.0766,683.5469 485.7016,683.5469 L493.3266,683.5469 L493.3266,686.1406 Q493.3266,686.75 493.0922,687.0156 Q492.8734,687.2656 492.4828,687.2656 Q492.1078,687.2656 491.8734,687.0156 Q491.6391,686.75 491.6391,686.1406 L491.6391,685.25 L487.6703,685.25 L487.6703,687.7031 L489.1547,687.7031 Q489.1547,687.0469 489.2797,686.8594 Q489.5453,686.4531 490.0141,686.4531 Q490.3891,686.4531 490.6234,686.7188 Q490.8578,686.9688 490.8578,687.5781 L490.8578,689.5469 Q490.8578,690.0938 490.7328,690.2813 Q490.4672,690.6719 490.0141,690.6719 Q489.5453,690.6719 489.2797,690.2656 Q489.1547,690.0781 489.1547,689.4063 L487.6703,689.4063 Z " fill="#000000"/><text fill="#000000" font-family="sans-serif" font-size="14" lengthAdjust="spacing" textLength="63.0342" x="507.6578" y="694.3379">TagGroup</text><line style="stroke:#181818;stroke-width:0.5;" x1="453" x2="594.5029" y1="704.6094" y2="704.6094"/><text fill="#000000" font-family="sans-serif" font-size="14" lengthAdjust="spacing" textLength="81.7168" x="458" y="723.1426">*id : Int &#171;PK&#187;</text><line style="stroke:#181818;stroke-width:1;" x1="453" x2="594.5029" y1="730.2188" y2="730.2188"/><text fill="#000000" font-family="sans-serif" font-size="14" lengthAdjust="spacing" textLength="131.5029" x="458" y="748.752">*name : varchar(255)</text></g><!--class Tag--><g class="entity" data-entity="Tag" data-source-line="113" data-uid="ent0009" id="entity_Tag"><rect fill="#F1F1F1" height="100.8281" rx="2.5" ry="2.5" style="stroke:#181818;stroke-width:0.5;" width="183.9648" x="233" y="663.6094"/><ellipse cx="308.6704" cy="679.6094" fill="#ADD1B2" rx="11" ry="11" style="stroke:#181818;stroke-width:1;"/><path d="M307.5298,680.4063 L307.5298,682.9063 L311.8579,682.9063 L311.8579,681.9844 Q311.8579,681.375 312.0923,681.1094 Q312.3423,680.8438 312.7173,680.8438 Q313.0923,680.8438 313.3267,681.1094 Q313.561,681.375 313.561,681.9844 L313.561,684.6094 L305.561,684.6094 Q304.936,684.6094 304.6704,684.375 Q304.4204,684.1406 304.4204,683.75 Q304.4204,683.375 304.686,683.1406 Q304.9517,682.9063 305.561,682.9063 L305.8267,682.9063 L305.8267,676.25 L305.561,676.25 Q304.936,676.25 304.6704,676.0156 Q304.4204,675.7813 304.4204,675.3906 Q304.4204,675.0156 304.6704,674.7813 Q304.936,674.5469 305.561,674.5469 L313.186,674.5469 L313.186,677.1406 Q313.186,677.75 312.9517,678.0156 Q312.7329,678.2656 312.3423,678.2656 Q311.9673,678.2656 311.7329,678.0156 Q311.4985,677.75 311.4985,677.1406 L311.4985,676.25 L307.5298,676.25 L307.5298,678.7031 L309.0142,678.7031 Q309.0142,678.0469 309.1392,677.8594 Q309.4048,677.4531 309.8735,677.4531 Q310.2485,677.4531 310.4829,677.7188 Q310.7173,677.9688 310.7173,678.5781 L310.7173,680.5469 Q310.7173,681.0938 310.5923,681.2813 Q310.3267,681.6719 309.8735,681.6719 Q309.4048,681.6719 309.1392,681.2656 Q309.0142,681.0781 309.0142,680.4063 L307.5298,680.4063 Z " fill="#000000"/><text fill="#000000" font-family="sans-serif" font-size="14" lengthAdjust="spacing" textLength="24.124" x="329.1704" y="685.3379">Tag</text><line style="stroke:#181818;stroke-width:0.5;" x1="234" x2="415.9648" y1="695.6094" y2="695.6094"/><text fill="#000000" font-family="sans-serif" font-size="14" lengthAdjust="spacing" textLength="81.7168" x="239" y="714.1426">*id : Int &#171;PK&#187;</text><line style="stroke:#181818;stroke-width:1;" x1="234" x2="415.9648" y1="721.2188" y2="721.2188"/><text fill="#000000" font-family="sans-serif" font-size="14" lengthAdjust="spacing" textLength="171.9648" x="239" y="739.752">*name : varchar(255) &#171;UQ&#187;</text><text fill="#000000" font-family="sans-serif" font-size="14" lengthAdjust="spacing" textLength="126.8271" x="239" y="757.3613">*color : varchar(255)</text></g><!--class _TestTags--><g class="entity" data-entity="_TestTags" data-source-line="121" data-uid="ent0010" id="entity__TestTags"><rect fill="#F1F1F1" height="111.5313" rx="2.5" ry="2.5" style="stroke:#181818;stroke-width:0.5;" width="183.9717" x="107" y="947.6094"/><ellipse cx="161.667" cy="968.9609" fill="#ADD1B2" rx="11" ry="11" style="stroke:#181818;stroke-width:1;"/><path d="M160.5264,969.7578 L160.5264,972.2578 L164.8545,972.2578 L164.8545,971.3359 Q164.8545,970.7266 165.0889,970.4609 Q165.3389,970.1953 165.7139,970.1953 Q166.0889,970.1953 166.3232,970.4609 Q166.5576,970.7266 166.5576,971.3359 L166.5576,973.9609 L158.5576,973.9609 Q157.9326,973.9609 157.667,973.7266 Q157.417,973.4922 157.417,973.1016 Q157.417,972.7266 157.6826,972.4922 Q157.9482,972.2578 158.5576,972.2578 L158.8232,972.2578 L158.8232,965.6016 L158.5576,965.6016 Q157.9326,965.6016 157.667,965.3672 Q157.417,965.1328 157.417,964.7422 Q157.417,964.3672 157.667,964.1328 Q157.9326,963.8984 158.5576,963.8984 L166.1826,963.8984 L166.1826,966.4922 Q166.1826,967.1016 165.9482,967.3672 Q165.7295,967.6172 165.3389,967.6172 Q164.9639,967.6172 164.7295,967.3672 Q164.4951,967.1016 164.4951,966.4922 L164.4951,965.6016 L160.5264,965.6016 L160.5264,968.0547 L162.0107,968.0547 Q162.0107,967.3984 162.1357,967.2109 Q162.4014,966.8047 162.8701,966.8047 Q163.2451,966.8047 163.4795,967.0703 Q163.7139,967.3203 163.7139,967.9297 L163.7139,969.8984 Q163.7139,970.4453 163.5889,970.6328 Q163.3232,971.0234 162.8701,971.0234 Q162.4014,971.0234 162.1357,970.6172 Q162.0107,970.4297 162.0107,969.7578 L160.5264,969.7578 Z " fill="#000000"/><text fill="#000000" font-family="sans-serif" font-size="12" font-style="italic" lengthAdjust="spacing" textLength="32.0273" x="199.2222" y="965.0664">&#171;join&#187;</text><text fill="#000000" font-family="sans-serif" font-size="14" lengthAdjust="spacing" textLength="66.1377" x="182.167" y="982.2363">_TestTags</text><line style="stroke:#181818;stroke-width:0.5;" x1="108" x2="289.9717" y1="990.3125" y2="990.3125"/><text fill="#000000" font-family="sans-serif" font-size="14" lengthAdjust="spacing" textLength="126.0615" x="113" y="1008.8457">*A_TestId : Int &#171;FK&#187;</text><text fill="#000000" font-family="sans-serif" font-size="14" lengthAdjust="spacing" textLength="122.958" x="113" y="1026.4551">*B_TagId : Int &#171;FK&#187;</text><line style="stroke:#181818;stroke-width:1;" x1="108" x2="289.9717" y1="1033.5313" y2="1033.5313"/><text fill="#000000" font-family="sans-serif" font-size="14" lengthAdjust="spacing" textLength="171.9717" x="113" y="1052.0645">(A_TestId, B_TagId) : &#171;PK&#187;</text></g><!--class _TagGroupsOnTags--><g class="entity" data-entity="_TagGroupsOnTags" data-source-line="128" data-uid="ent0011" id="entity__TagGroupsOnTags"><rect fill="#F1F1F1" height="111.5313" rx="2.5" ry="2.5" style="stroke:#181818;stroke-width:0.5;" width="219.7783" x="370" y="947.6094"/><ellipse cx="412.0712" cy="968.9609" fill="#ADD1B2" rx="11" ry="11" style="stroke:#181818;stroke-width:1;"/><path d="M410.9306,969.7578 L410.9306,972.2578 L415.2587,972.2578 L415.2587,971.3359 Q415.2587,970.7266 415.4931,970.4609 Q415.7431,970.1953 416.1181,970.1953 Q416.4931,970.1953 416.7274,970.4609 Q416.9618,970.7266 416.9618,971.3359 L416.9618,973.9609 L408.9618,973.9609 Q408.3368,973.9609 408.0712,973.7266 Q407.8212,973.4922 407.8212,973.1016 Q407.8212,972.7266 408.0868,972.4922 Q408.3524,972.2578 408.9618,972.2578 L409.2274,972.2578 L409.2274,965.6016 L408.9618,965.6016 Q408.3368,965.6016 408.0712,965.3672 Q407.8212,965.1328 407.8212,964.7422 Q407.8212,964.3672 408.0712,964.1328 Q408.3368,963.8984 408.9618,963.8984 L416.5868,963.8984 L416.5868,966.4922 Q416.5868,967.1016 416.3524,967.3672 Q416.1337,967.6172 415.7431,967.6172 Q415.3681,967.6172 415.1337,967.3672 Q414.8993,967.1016 414.8993,966.4922 L414.8993,965.6016 L410.9306,965.6016 L410.9306,968.0547 L412.4149,968.0547 Q412.4149,967.3984 412.5399,967.2109 Q412.8056,966.8047 413.2743,966.8047 Q413.6493,966.8047 413.8837,967.0703 Q414.1181,967.3203 414.1181,967.9297 L414.1181,969.8984 Q414.1181,970.4453 413.9931,970.6328 Q413.7274,971.0234 413.2743,971.0234 Q412.8056,971.0234 412.5399,970.6172 Q412.4149,970.4297 412.4149,969.7578 L410.9306,969.7578 Z " fill="#000000"/><text fill="#000000" font-family="sans-serif" font-size="12" font-style="italic" lengthAdjust="spacing" textLength="32.0273" x="479.8834" y="965.0664">&#171;join&#187;</text><text fill="#000000" font-family="sans-serif" font-size="14" lengthAdjust="spacing" textLength="127.6201" x="432.087" y="982.2363">_TagGroupsOnTags</text><line style="stroke:#181818;stroke-width:0.5;" x1="371" x2="588.7783" y1="990.3125" y2="990.3125"/><text fill="#000000" font-family="sans-serif" font-size="14" lengthAdjust="spacing" textLength="161.8682" x="376" y="1008.8457">*A_TagGroupId : Int &#171;FK&#187;</text><text fill="#000000" font-family="sans-serif" font-size="14" lengthAdjust="spacing" textLength="122.958" x="376" y="1026.4551">*B_TagId : Int &#171;FK&#187;</text><line style="stroke:#181818;stroke-width:1;" x1="371" x2="588.7783" y1="1033.5313" y2="1033.5313"/><text fill="#000000" font-family="sans-serif" font-size="14" lengthAdjust="spacing" textLength="207.7783" x="376" y="1052.0645">(A_TagGroupId, B_TagId) : &#171;PK&#187;</text></g><!--link Report to Test--><g class="link" data-entity-1="Report" data-entity-2="Test" data-source-line="138" data-uid="lnk12" id="link_Report_Test"><path codeLine="138" d="M112,488.6794 C112,508.7294 112,502.8594 112,522.4394" fill="none" id="Report-Test" style="stroke:#181818;stroke-width:1;"/><line style="stroke:#181818;stroke-width:1;" x1="108" x2="116" y1="484.6794" y2="484.6794"/><line style="stroke:#181818;stroke-width:1;" x1="108" x2="116" y1="487.6794" y2="487.6794"/><line style="stroke:#181818;stroke-width:1;" x1="112" x2="112" y1="488.6794" y2="480.6794"/><line style="stroke:#181818;stroke-width:1;" x1="112" x2="118" y1="532.4394" y2="540.4394"/><line style="stroke:#181818;stroke-width:1;" x1="112" x2="106" y1="532.4394" y2="540.4394"/><line style="stroke:#181818;stroke-width:1;" x1="112" x2="112" y1="532.4394" y2="540.4394"/><ellipse cx="112" cy="526.4394" fill="none" rx="4" ry="4" style="stroke:#181818;stroke-width:1;"/></g><!--link User to Session--><g class="link" data-entity-1="User" data-entity-2="Session" data-source-line="139" data-uid="lnk13" id="link_User_Session"><path codeLine="139" d="M784.75,356.7394 C784.75,434.0194 784.75,521.5194 784.75,601.4694" fill="none" id="User-Session" style="stroke:#181818;stroke-width:1;"/><line style="stroke:#181818;stroke-width:1;" x1="780.75" x2="788.75" y1="352.7394" y2="352.7394"/><line style="stroke:#181818;stroke-width:1;" x1="780.75" x2="788.75" y1="355.7394" y2="355.7394"/><line style="stroke:#181818;stroke-width:1;" x1="784.75" x2="784.75" y1="356.7394" y2="348.7394"/><line style="stroke:#181818;stroke-width:1;" x1="784.75" x2="790.75" y1="611.4694" y2="619.4694"/><line style="stroke:#181818;stroke-width:1;" x1="784.75" x2="778.75" y1="611.4694" y2="619.4694"/><line style="stroke:#181818;stroke-width:1;" x1="784.75" x2="784.75" y1="611.4694" y2="619.4694"/><ellipse cx="784.75" cy="605.4694" fill="none" rx="4" ry="4" style="stroke:#181818;stroke-width:1;"/></g><!--link User to Account--><g class="link" data-entity-1="User" data-entity-2="Account" data-source-line="140" data-uid="lnk14" id="link_User_Account"><path codeLine="140" d="M893.25,356.7394 C893.25,420.5994 893.25,483.2094 893.25,557.1694" fill="none" id="User-Account" style="stroke:#181818;stroke-width:1;"/><line style="stroke:#181818;stroke-width:1;" x1="889.25" x2="897.25" y1="352.7394" y2="352.7394"/><line style="stroke:#181818;stroke-width:1;" x1="889.25" x2="897.25" y1="355.7394" y2="355.7394"/><line style="stroke:#181818;stroke-width:1;" x1="893.25" x2="893.25" y1="356.7394" y2="348.7394"/><line style="stroke:#181818;stroke-width:1;" x1="893.25" x2="899.25" y1="567.1694" y2="575.1694"/><line style="stroke:#181818;stroke-width:1;" x1="893.25" x2="887.25" y1="567.1694" y2="575.1694"/><line style="stroke:#181818;stroke-width:1;" x1="893.25" x2="893.25" y1="567.1694" y2="575.1694"/><ellipse cx="893.25" cy="561.1694" fill="none" rx="4" ry="4" style="stroke:#181818;stroke-width:1;"/></g><!--link Test to _TestTags--><g class="link" data-entity-1="Test" data-entity-2="_TestTags" data-source-line="143" data-uid="lnk15" id="link_Test__TestTags"><path codeLine="143" d="M152.25,895.9394 C152.25,917.3194 152.25,911.8094 152.25,929.4494" fill="none" id="Test-_TestTags" style="stroke:#181818;stroke-width:1;"/><line style="stroke:#181818;stroke-width:1;" x1="148.25" x2="156.25" y1="891.9394" y2="891.9394"/><line style="stroke:#181818;stroke-width:1;" x1="148.25" x2="156.25" y1="894.9394" y2="894.9394"/><line style="stroke:#181818;stroke-width:1;" x1="152.25" x2="152.25" y1="895.9394" y2="887.9394"/><line style="stroke:#181818;stroke-width:1;" x1="152.25" x2="158.25" y1="939.4494" y2="947.4494"/><line style="stroke:#181818;stroke-width:1;" x1="152.25" x2="146.25" y1="939.4494" y2="947.4494"/><line style="stroke:#181818;stroke-width:1;" x1="152.25" x2="152.25" y1="939.4494" y2="947.4494"/><ellipse cx="152.25" cy="933.4494" fill="none" rx="4" ry="4" style="stroke:#181818;stroke-width:1;"/></g><!--link Tag to _TestTags--><g class="link" data-entity-1="Tag" data-entity-2="_TestTags" data-source-line="144" data-uid="lnk16" id="link_Tag__TestTags"><path codeLine="144" d="M262,772.8694 C262,823.9494 262,876.5394 262,929.4594" fill="none" id="Tag-_TestTags" style="stroke:#181818;stroke-width:1;"/><line style="stroke:#181818;stroke-width:1;" x1="258" x2="266" y1="768.8694" y2="768.8694"/><line style="stroke:#181818;stroke-width:1;" x1="258" x2="266" y1="771.8694" y2="771.8694"/><line style="stroke:#181818;stroke-width:1;" x1="262" x2="262" y1="772.8694" y2="764.8694"/><line style="stroke:#181818;stroke-width:1;" x1="262" x2="268" y1="939.4594" y2="947.4594"/><line style="stroke:#181818;stroke-width:1;" x1="262" x2="256" y1="939.4594" y2="947.4594"/><line style="stroke:#181818;stroke-width:1;" x1="262" x2="262" y1="939.4594" y2="947.4594"/><ellipse cx="262" cy="933.4594" fill="none" rx="4" ry="4" style="stroke:#181818;stroke-width:1;"/></g><!--link TagGroup to _TagGroupsOnTags--><g class="link" data-entity-1="TagGroup" data-entity-2="_TagGroupsOnTags" data-source-line="146" data-uid="lnk17" id="link_TagGroup__TagGroupsOnTags"><path codeLine="146" d="M521,763.8994 C521,814.3194 521,873.2894 521,929.4194" fill="none" id="TagGroup-_TagGroupsOnTags" style="stroke:#181818;stroke-width:1;"/><line style="stroke:#181818;stroke-width:1;" x1="517" x2="525" y1="759.8994" y2="759.8994"/><line style="stroke:#181818;stroke-width:1;" x1="517" x2="525" y1="762.8994" y2="762.8994"/><line style="stroke:#181818;stroke-width:1;" x1="521" x2="521" y1="763.8994" y2="755.8994"/><line style="stroke:#181818;stroke-width:1;" x1="521" x2="527" y1="939.4194" y2="947.4194"/><line style="stroke:#181818;stroke-width:1;" x1="521" x2="515" y1="939.4194" y2="947.4194"/><line style="stroke:#181818;stroke-width:1;" x1="521" x2="521" y1="939.4194" y2="947.4194"/><ellipse cx="521" cy="933.4194" fill="none" rx="4" ry="4" style="stroke:#181818;stroke-width:1;"/></g><!--link Tag to _TagGroupsOnTags--><g class="link" data-entity-1="Tag" data-entity-2="_TagGroupsOnTags" data-source-line="147" data-uid="lnk18" id="link_Tag__TagGroupsOnTags"><path codeLine="147" d="M393.5,772.8694 C393.5,823.9494 393.5,876.5394 393.5,929.4594" fill="none" id="Tag-_TagGroupsOnTags" style="stroke:#181818;stroke-width:1;"/><line style="stroke:#181818;stroke-width:1;" x1="389.5" x2="397.5" y1="768.8694" y2="768.8694"/><line style="stroke:#181818;stroke-width:1;" x1="389.5" x2="397.5" y1="771.8694" y2="771.8694"/><line style="stroke:#181818;stroke-width:1;" x1="393.5" x2="393.5" y1="772.8694" y2="764.8694"/><line style="stroke:#181818;stroke-width:1;" x1="393.5" x2="399.5" y1="939.4594" y2="947.4594"/><line style="stroke:#181818;stroke-width:1;" x1="393.5" x2="387.5" y1="939.4594" y2="947.4594"/><line style="stroke:#181818;stroke-width:1;" x1="393.5" x2="393.5" y1="939.4594" y2="947.4594"/><ellipse cx="393.5" cy="933.4594" fill="none" rx="4" ry="4" style="stroke:#181818;stroke-width:1;"/></g><!--SRC=[hLRTZzis37_tNo7SonAZ0RO1VHbw1wIuwv0EQMzjkbU3iHX7ZIq9-hXhrkv_7sN7YHBBjrtH00b2_aYAdnATS3Mo-zjbblt4bYYhoalOWMIraEZs6faoRgiOL60OVOLb1ckmWjNUUCicJd3OiKOO8QjfPdT2QZ3GNEX7WDq2LuyapJPGMuoGakpQkND6hBt3HQdaH_4tif-3QzVNr-mMDq8AElfEEk701cQMOI3sxEe3QZhgYdtD6Ci5Px-nXNJirQlxFsvkY3MRqOzLtfHOjEW3c78BPlBhovTJWYgKQC0XBzRx8PgN1biG786tz7Sb6YH0GeD3SKTWOHqq-boQM8wIDfH7wspdCL6Qqe3yI6v0r16fKVAGlPwc_6aTuSfjqPnG1yPTEg4ktVA2F3ZgWDP5Egwr5pL_6lFDkZt-0ZLK7IkSClinTGEot8w08Jy5oWTXb6oeu9SI_vpQO4MYeqsGcxP9YWXv4xV7I7dIJd5F_IAKV5wk6xGMgeGv0u_5c0C6QIYY2crgs8KkVQrKZI3x4WuLmJaejo5bGVcjLQsiuygxCngDET7unHauaKJGp7XJFv7rJnPDdFLOxc86ytGsSsoepuUgd_xiAjV2Vw4H6z4s-obqqIJpsO_i_A8akTTyo8zY-KWLehB-TpYvfwWN2JpkgHo_Q67G3jnmQeToFDvdUKz9q7FEwPX4ymGlvzNJKpClI-Mb-r4nGsTkaRXdSstKW-098w5Tov92M2Koqmx1XWBSZg22Zm2HpRjqAMB38oAsL3hHO-6cVbI6_y3kwrgyR6-M_pjHb4xIfi58NBpv0zG-EMyZVVczZg-W-jqehvz-WPFJVsxb-GRYiL6rCWdxtGRnLWd9Lh2cbMUoQ7HDouHZNB1xsciQUC7kTZPYtYxP6o9sqtRHw3qimWj3RjehElOp6RovwHoUjyXYyBJahmiINwIVd4clzO8TnAOaTmWvoalHfzU-boE77mI-mu6ZveWJNV8-T7lVP24toZJTqtSdAzhpC2n_x9roBRDB5oaT57wPlMEJzn9dJisM8FVJh5lLsBTlivdwoaByMNX0UiRX0ZxZ7IweoEmoc0tsZdQfQ1fBsD8RApy3LP1xwBTLSY8B1_NsZbNCw8SDkLcVb1DqNe1EBtp61Fu5]--></g></svg>