<svg xmlns="http://www.w3.org/2000/svg" xmlns:xlink="http://www.w3.org/1999/xlink" contentStyleType="text/css" data-diagram-type="SEQUENCE" height="1080px" preserveAspectRatio="none" style="width:913px;height:1080px;background:#FFFFFF;" version="1.1" viewBox="0 0 913 1080" width="913px" zoomAndPan="magnify"><defs/><g><rect fill="#FFFFFF" height="1059.3438" style="stroke:#181818;stroke-width:1.5;" width="902.4316" x="5" y="15"/><path d="M179.958,15 L179.958,25.6094 L169.958,35.6094 L5,35.6094" fill="none" style="stroke:#181818;stroke-width:1.5;"/><text fill="#000000" font-family="sans-serif" font-size="14" font-weight="bold" lengthAdjust="spacing" textLength="16.3379" x="8" y="30.5332">sd</text><text fill="#000000" font-family="sans-serif" font-size="14" lengthAdjust="spacing" textLength="144.7305" x="28.2275" y="30.5332">Create New Tag Group</text><g><title>... TagGroupManagementPage..</title><rect fill="#FFFFFF" height="343.1094" style="stroke:#181818;stroke-width:1;" width="10" x="305.8965" y="153.5703"/></g><g><title>... TagGroupManagementPage..</title><rect fill="#FFFFFF" height="28" style="stroke:#181818;stroke-width:1;" width="10" x="310.8965" y="191.9219"/></g><g><title>... TagGroupManagementPage..</title><rect fill="#FFFFFF" height="28" style="stroke:#181818;stroke-width:1;" width="10" x="310.8965" y="290.625"/></g><g><title>... TagGroupManagementPage..</title><rect fill="#FFFFFF" height="28" style="stroke:#181818;stroke-width:1;" width="10" x="310.8965" y="401.3281"/></g><g><title>... TagGroupManagementPage..</title><rect fill="#FFFFFF" height="96.3516" style="stroke:#181818;stroke-width:1;" width="10" x="305.8965" y="613.0859"/></g><g><title>... TagGroupManagementPage..</title><rect fill="#FFFFFF" height="28" style="stroke:#181818;stroke-width:1;" width="10" x="310.8965" y="681.4375"/></g><g><title>... TagGroupManagementPage..</title><rect fill="#FFFFFF" height="261.1094" style="stroke:#181818;stroke-width:1;" width="10" x="305.8965" y="762.625"/></g><g><title>... TagGroupManagementPage..</title><rect fill="#FFFFFF" height="28" style="stroke:#181818;stroke-width:1;" width="10" x="310.8965" y="800.9766"/></g><g><title>... TagGroupManagementPage..</title><rect fill="#FFFFFF" height="28" style="stroke:#181818;stroke-width:1;" width="10" x="310.8965" y="995.7344"/></g><g><title>... TagGroupController..</title><rect fill="#FFFFFF" height="176.4063" style="stroke:#181818;stroke-width:1;" width="10" x="598.6289" y="466.6797"/></g><g><title>... TagGroupController..</title><rect fill="#FFFFFF" height="91.0547" style="stroke:#181818;stroke-width:1;" width="10" x="598.6289" y="866.3281"/></g><g><title>... TagGroupRepository..</title><rect fill="#FFFFFF" height="30.3516" style="stroke:#181818;stroke-width:1;" width="10" x="798.1523" y="527.0313"/></g><g><title>... TagGroupRepository..</title><rect fill="#FFFFFF" height="30.3516" style="stroke:#181818;stroke-width:1;" width="10" x="798.1523" y="896.6797"/></g><rect fill="none" height="91.7031" style="stroke:#000000;stroke-width:1.5;" width="396.1772" x="200.6621" y="241.9219"/><rect fill="none" height="466.3516" style="stroke:#000000;stroke-width:1.5;" width="870.4316" x="20" y="572.3828"/><g><title>... User..</title><rect fill="#000000" fill-opacity="0.00000" height="934.5156" width="8" x="48.8413" y="121.2188"/><line style="stroke:#181818;stroke-width:0.5;stroke-dasharray:5,5;" x1="52" x2="52" y1="121.2188" y2="1055.7344"/></g><g><title>... TagGroupManagementPage..</title><rect fill="#000000" fill-opacity="0.00000" height="934.5156" width="8" x="306.8965" y="121.2188"/><line style="stroke:#181818;stroke-width:0.5;stroke-dasharray:5,5;" x1="310.6621" x2="310.6621" y1="121.2188" y2="1055.7344"/></g><g><title>... TagGroupController..</title><rect fill="#000000" fill-opacity="0.00000" height="934.5156" width="8" x="599.6289" y="121.2188"/><line style="stroke:#181818;stroke-width:0.5;stroke-dasharray:5,5;" x1="603.4668" x2="603.4668" y1="121.2188" y2="1055.7344"/></g><g><title>... TagGroupRepository..</title><rect fill="#000000" fill-opacity="0.00000" height="934.5156" width="8" x="799.1523" y="121.2188"/><line style="stroke:#181818;stroke-width:0.5;stroke-dasharray:5,5;" x1="802.873" x2="802.873" y1="121.2188" y2="1055.7344"/></g><g class="participant participant-head" data-participant="User"><text fill="#000000" font-family="sans-serif" font-size="14" font-weight="bold" lengthAdjust="spacing" textLength="39.6826" x="30" y="118.1426">: User</text><ellipse cx="52.8413" cy="52.1094" fill="#E2E2F0" rx="8" ry="8" style="stroke:#181818;stroke-width:0.5;"/><path d="M52.8413,60.1094 L52.8413,87.1094 M39.8413,68.1094 L65.8413,68.1094 M52.8413,87.1094 L39.8413,102.1094 M52.8413,87.1094 L65.8413,102.1094" fill="none" style="stroke:#181818;stroke-width:0.5;"/></g><g class="participant participant-head" data-participant="TagGroupPage"><text fill="#000000" font-family="sans-serif" font-size="14" font-weight="bold" lengthAdjust="spacing" textLength="194.4688" x="210.6621" y="118.1426">: TagGroupManagementPage</text><path d="M290.3965,75.6094 L290.3965,99.6094 M290.3965,87.6094 L307.3965,87.6094" fill="none" style="stroke:#181818;stroke-width:0.5;"/><ellipse cx="319.3965" cy="87.6094" fill="#E2E2F0" rx="12" ry="12" style="stroke:#181818;stroke-width:0.5;"/></g><g class="participant participant-head" data-participant="TagGroupController"><text fill="#000000" font-family="sans-serif" font-size="14" font-weight="bold" lengthAdjust="spacing" textLength="142.3242" x="529.4668" y="118.1426">: TagGroupController</text><ellipse cx="603.6289" cy="87.6094" fill="#E2E2F0" rx="12" ry="12" style="stroke:#181818;stroke-width:0.5;"/><polygon fill="#181818" points="599.6289,75.6094,605.6289,70.6094,603.6289,75.6094,605.6289,80.6094,599.6289,75.6094" style="stroke:#181818;stroke-width:1;"/></g><g class="participant participant-head" data-participant="TagGroupRepository"><text fill="#000000" font-family="sans-serif" font-size="14" font-weight="bold" lengthAdjust="spacing" textLength="148.5586" x="725.873" y="118.1426">: TagGroupRepository</text><ellipse cx="803.1523" cy="87.6094" fill="#E2E2F0" rx="12" ry="12" style="stroke:#181818;stroke-width:0.5;"/><line style="stroke:#181818;stroke-width:0.5;" x1="791.1523" x2="815.1523" y1="101.6094" y2="101.6094"/></g><g><title>... TagGroupManagementPage..</title><rect fill="#FFFFFF" height="343.1094" style="stroke:#181818;stroke-width:1;" width="10" x="305.8965" y="153.5703"/></g><g><title>... TagGroupManagementPage..</title><rect fill="#FFFFFF" height="28" style="stroke:#181818;stroke-width:1;" width="10" x="310.8965" y="191.9219"/></g><g><title>... TagGroupManagementPage..</title><rect fill="#FFFFFF" height="28" style="stroke:#181818;stroke-width:1;" width="10" x="310.8965" y="290.625"/></g><g><title>... TagGroupManagementPage..</title><rect fill="#FFFFFF" height="28" style="stroke:#181818;stroke-width:1;" width="10" x="310.8965" y="401.3281"/></g><g><title>... TagGroupManagementPage..</title><rect fill="#FFFFFF" height="96.3516" style="stroke:#181818;stroke-width:1;" width="10" x="305.8965" y="613.0859"/></g><g><title>... TagGroupManagementPage..</title><rect fill="#FFFFFF" height="28" style="stroke:#181818;stroke-width:1;" width="10" x="310.8965" y="681.4375"/></g><g><title>... TagGroupManagementPage..</title><rect fill="#FFFFFF" height="261.1094" style="stroke:#181818;stroke-width:1;" width="10" x="305.8965" y="762.625"/></g><g><title>... TagGroupManagementPage..</title><rect fill="#FFFFFF" height="28" style="stroke:#181818;stroke-width:1;" width="10" x="310.8965" y="800.9766"/></g><g><title>... TagGroupManagementPage..</title><rect fill="#FFFFFF" height="28" style="stroke:#181818;stroke-width:1;" width="10" x="310.8965" y="995.7344"/></g><g><title>... TagGroupController..</title><rect fill="#FFFFFF" height="176.4063" style="stroke:#181818;stroke-width:1;" width="10" x="598.6289" y="466.6797"/></g><g><title>... TagGroupController..</title><rect fill="#FFFFFF" height="91.0547" style="stroke:#181818;stroke-width:1;" width="10" x="598.6289" y="866.3281"/></g><g><title>... TagGroupRepository..</title><rect fill="#FFFFFF" height="30.3516" style="stroke:#181818;stroke-width:1;" width="10" x="798.1523" y="527.0313"/></g><g><title>... TagGroupRepository..</title><rect fill="#FFFFFF" height="30.3516" style="stroke:#181818;stroke-width:1;" width="10" x="798.1523" y="896.6797"/></g><g class="message" data-participant-1="User" data-participant-2="TagGroupPage"><polygon fill="#181818" points="293.8965,149.5703,303.8965,153.5703,293.8965,157.5703,297.8965,153.5703" style="stroke:#181818;stroke-width:1;"/><line style="stroke:#181818;stroke-width:1;" x1="52.8413" x2="299.8965" y1="153.5703" y2="153.5703"/><text fill="#000000" font-family="sans-serif" font-size="13" lengthAdjust="spacing" textLength="229.0552" x="59.8413" y="148.7139">saveTagGroup(name, description, tags)</text></g><g class="message" data-participant-1="TagGroupPage" data-participant-2="TagGroupPage"><line style="stroke:#181818;stroke-width:1;" x1="320.8965" x2="362.8965" y1="183.9219" y2="183.9219"/><line style="stroke:#181818;stroke-width:1;" x1="362.8965" x2="362.8965" y1="183.9219" y2="196.9219"/><line style="stroke:#181818;stroke-width:1;" x1="321.8965" x2="362.8965" y1="196.9219" y2="196.9219"/><polygon fill="#181818" points="331.8965,192.9219,321.8965,196.9219,331.8965,200.9219,327.8965,196.9219" style="stroke:#181818;stroke-width:1;"/><text fill="#000000" font-family="sans-serif" font-size="13" lengthAdjust="spacing" textLength="116.3145" x="327.8965" y="179.0654">validateForm(name)</text></g><path d="M200.6621,241.9219 L265.873,241.9219 L265.873,250.2734 L255.873,260.2734 L200.6621,260.2734 L200.6621,241.9219" fill="#EEEEEE" style="stroke:#000000;stroke-width:1.5;"/><rect fill="none" height="91.7031" style="stroke:#000000;stroke-width:1.5;" width="396.1772" x="200.6621" y="241.9219"/><text fill="#000000" font-family="sans-serif" font-size="13" font-weight="bold" lengthAdjust="spacing" textLength="20.2109" x="215.6621" y="256.417">opt</text><text fill="#000000" font-family="sans-serif" font-size="11" font-weight="bold" lengthAdjust="spacing" textLength="69.6685" x="280.873" y="255.3408">[form invalid]</text><g class="message" data-participant-1="TagGroupPage" data-participant-2="TagGroupPage"><line style="stroke:#181818;stroke-width:1;" x1="320.8965" x2="362.8965" y1="282.625" y2="282.625"/><line style="stroke:#181818;stroke-width:1;" x1="362.8965" x2="362.8965" y1="282.625" y2="295.625"/><line style="stroke:#181818;stroke-width:1;" x1="321.8965" x2="362.8965" y1="295.625" y2="295.625"/><polygon fill="#181818" points="331.8965,291.625,321.8965,295.625,331.8965,299.625,327.8965,295.625" style="stroke:#181818;stroke-width:1;"/><text fill="#000000" font-family="sans-serif" font-size="13" lengthAdjust="spacing" textLength="246.9429" x="327.8965" y="277.7686">displayError("Tag group name is required")</text></g><g class="message" data-participant-1="User" data-participant-2="TagGroupPage"><polygon fill="#181818" points="293.8965,358.9766,303.8965,362.9766,293.8965,366.9766,297.8965,362.9766" style="stroke:#181818;stroke-width:1;"/><line style="stroke:#181818;stroke-width:1;" x1="52.8413" x2="299.8965" y1="362.9766" y2="362.9766"/><text fill="#000000" font-family="sans-serif" font-size="13" lengthAdjust="spacing" textLength="229.0552" x="59.8413" y="358.1201">saveTagGroup(name, description, tags)</text></g><g class="message" data-participant-1="TagGroupPage" data-participant-2="TagGroupPage"><line style="stroke:#181818;stroke-width:1;" x1="320.8965" x2="362.8965" y1="393.3281" y2="393.3281"/><line style="stroke:#181818;stroke-width:1;" x1="362.8965" x2="362.8965" y1="393.3281" y2="406.3281"/><line style="stroke:#181818;stroke-width:1;" x1="321.8965" x2="362.8965" y1="406.3281" y2="406.3281"/><polygon fill="#181818" points="331.8965,402.3281,321.8965,406.3281,331.8965,410.3281,327.8965,406.3281" style="stroke:#181818;stroke-width:1;"/><text fill="#000000" font-family="sans-serif" font-size="13" lengthAdjust="spacing" textLength="116.3145" x="327.8965" y="388.4717">validateForm(name)</text></g><g class="message" data-participant-1="TagGroupPage" data-participant-2="TagGroupController"><polygon fill="#181818" points="586.6289,462.6797,596.6289,466.6797,586.6289,470.6797,590.6289,466.6797" style="stroke:#181818;stroke-width:1;"/><line style="stroke:#181818;stroke-width:1;" x1="315.8965" x2="592.6289" y1="466.6797" y2="466.6797"/><text fill="#000000" font-family="sans-serif" font-size="13" lengthAdjust="spacing" textLength="263.7324" x="322.8965" y="461.8232">createNewTagGroup(name, description, tags)</text></g><g class="message" data-participant-1="TagGroupController" data-participant-2="TagGroupRepository"><polygon fill="#181818" points="786.1523,523.0313,796.1523,527.0313,786.1523,531.0313,790.1523,527.0313" style="stroke:#181818;stroke-width:1;"/><line style="stroke:#181818;stroke-width:1;" x1="608.6289" x2="792.1523" y1="527.0313" y2="527.0313"/><text fill="#000000" font-family="sans-serif" font-size="13" lengthAdjust="spacing" textLength="170.5234" x="615.6289" y="522.1748">save(name, description, tags)</text></g><g class="message" data-participant-1="TagGroupRepository" data-participant-2="TagGroupController"><polygon fill="#181818" points="619.6289,553.3828,609.6289,557.3828,619.6289,561.3828,615.6289,557.3828" style="stroke:#181818;stroke-width:1;"/><line style="stroke:#181818;stroke-width:1;stroke-dasharray:2,2;" x1="613.6289" x2="802.1523" y1="557.3828" y2="557.3828"/><text fill="#000000" font-family="sans-serif" font-size="13" lengthAdjust="spacing" textLength="64.3145" x="625.6289" y="552.5264">saveStatus</text></g><path d="M20,572.3828 L80.1709,572.3828 L80.1709,580.7344 L70.1709,590.7344 L20,590.7344 L20,572.3828" fill="#EEEEEE" style="stroke:#000000;stroke-width:1.5;"/><rect fill="none" height="466.3516" style="stroke:#000000;stroke-width:1.5;" width="870.4316" x="20" y="572.3828"/><text fill="#000000" font-family="sans-serif" font-size="13" font-weight="bold" lengthAdjust="spacing" textLength="15.1709" x="35" y="586.8779">alt</text><text fill="#000000" font-family="sans-serif" font-size="11" font-weight="bold" lengthAdjust="spacing" textLength="156.4385" x="95.1709" y="585.8018">[existingTagGroup is not null]</text><g class="message" data-participant-1="TagGroupController" data-participant-2="TagGroupPage"><polygon fill="#181818" points="326.8965,609.0859,316.8965,613.0859,326.8965,617.0859,322.8965,613.0859" style="stroke:#181818;stroke-width:1;"/><line style="stroke:#181818;stroke-width:1;stroke-dasharray:2,2;" x1="320.8965" x2="597.6289" y1="613.0859" y2="613.0859"/><text fill="#000000" font-family="sans-serif" font-size="13" lengthAdjust="spacing" textLength="187.6875" x="332.8965" y="608.2295">error("Tag group already exists")</text></g><g class="message" data-participant-1="TagGroupPage" data-participant-2="TagGroupPage"><line style="stroke:#181818;stroke-width:1;" x1="320.8965" x2="362.8965" y1="673.4375" y2="673.4375"/><line style="stroke:#181818;stroke-width:1;" x1="362.8965" x2="362.8965" y1="673.4375" y2="686.4375"/><line style="stroke:#181818;stroke-width:1;" x1="321.8965" x2="362.8965" y1="686.4375" y2="686.4375"/><polygon fill="#181818" points="331.8965,682.4375,321.8965,686.4375,331.8965,690.4375,327.8965,686.4375" style="stroke:#181818;stroke-width:1;"/><text fill="#000000" font-family="sans-serif" font-size="13" lengthAdjust="spacing" textLength="229.5947" x="327.8965" y="668.5811">displayError("Tag group already exists")</text></g><line style="stroke:#000000;stroke-width:1;stroke-dasharray:2,2;" x1="20" x2="890.4316" y1="725.4375" y2="725.4375"/><text fill="#000000" font-family="sans-serif" font-size="11" font-weight="bold" lengthAdjust="spacing" textLength="136.2808" x="25" y="736.8564">[existingTagGroup is null]</text><g class="message" data-participant-1="User" data-participant-2="TagGroupPage"><polygon fill="#181818" points="293.8965,758.625,303.8965,762.625,293.8965,766.625,297.8965,762.625" style="stroke:#181818;stroke-width:1;"/><line style="stroke:#181818;stroke-width:1;" x1="52.8413" x2="299.8965" y1="762.625" y2="762.625"/><text fill="#000000" font-family="sans-serif" font-size="13" lengthAdjust="spacing" textLength="229.0552" x="59.8413" y="757.7686">saveTagGroup(name, description, tags)</text></g><g class="message" data-participant-1="TagGroupPage" data-participant-2="TagGroupPage"><line style="stroke:#181818;stroke-width:1;" x1="320.8965" x2="362.8965" y1="792.9766" y2="792.9766"/><line style="stroke:#181818;stroke-width:1;" x1="362.8965" x2="362.8965" y1="792.9766" y2="805.9766"/><line style="stroke:#181818;stroke-width:1;" x1="321.8965" x2="362.8965" y1="805.9766" y2="805.9766"/><polygon fill="#181818" points="331.8965,801.9766,321.8965,805.9766,331.8965,809.9766,327.8965,805.9766" style="stroke:#181818;stroke-width:1;"/><text fill="#000000" font-family="sans-serif" font-size="13" lengthAdjust="spacing" textLength="116.3145" x="327.8965" y="788.1201">validateForm(name)</text></g><g class="message" data-participant-1="TagGroupPage" data-participant-2="TagGroupController"><polygon fill="#181818" points="586.6289,862.3281,596.6289,866.3281,586.6289,870.3281,590.6289,866.3281" style="stroke:#181818;stroke-width:1;"/><line style="stroke:#181818;stroke-width:1;" x1="315.8965" x2="592.6289" y1="866.3281" y2="866.3281"/><text fill="#000000" font-family="sans-serif" font-size="13" lengthAdjust="spacing" textLength="263.7324" x="322.8965" y="861.4717">createNewTagGroup(name, description, tags)</text></g><g class="message" data-participant-1="TagGroupController" data-participant-2="TagGroupRepository"><polygon fill="#181818" points="786.1523,892.6797,796.1523,896.6797,786.1523,900.6797,790.1523,896.6797" style="stroke:#181818;stroke-width:1;"/><line style="stroke:#181818;stroke-width:1;" x1="608.6289" x2="792.1523" y1="896.6797" y2="896.6797"/><text fill="#000000" font-family="sans-serif" font-size="13" lengthAdjust="spacing" textLength="170.5234" x="615.6289" y="891.8232">save(name, description, tags)</text></g><g class="message" data-participant-1="TagGroupRepository" data-participant-2="TagGroupController"><polygon fill="#181818" points="619.6289,923.0313,609.6289,927.0313,619.6289,931.0313,615.6289,927.0313" style="stroke:#181818;stroke-width:1;"/><line style="stroke:#181818;stroke-width:1;stroke-dasharray:2,2;" x1="613.6289" x2="802.1523" y1="927.0313" y2="927.0313"/><text fill="#000000" font-family="sans-serif" font-size="13" lengthAdjust="spacing" textLength="64.3145" x="625.6289" y="922.1748">saveStatus</text></g><g class="message" data-participant-1="TagGroupController" data-participant-2="TagGroupPage"><polygon fill="#181818" points="326.8965,953.3828,316.8965,957.3828,326.8965,961.3828,322.8965,957.3828" style="stroke:#181818;stroke-width:1;"/><line style="stroke:#181818;stroke-width:1;stroke-dasharray:2,2;" x1="320.8965" x2="602.6289" y1="957.3828" y2="957.3828"/><text fill="#000000" font-family="sans-serif" font-size="13" lengthAdjust="spacing" textLength="64.3145" x="332.8965" y="952.5264">saveStatus</text></g><g class="message" data-participant-1="TagGroupPage" data-participant-2="TagGroupPage"><line style="stroke:#181818;stroke-width:1;" x1="320.8965" x2="362.8965" y1="987.7344" y2="987.7344"/><line style="stroke:#181818;stroke-width:1;" x1="362.8965" x2="362.8965" y1="987.7344" y2="1000.7344"/><line style="stroke:#181818;stroke-width:1;" x1="321.8965" x2="362.8965" y1="1000.7344" y2="1000.7344"/><polygon fill="#181818" points="331.8965,996.7344,321.8965,1000.7344,331.8965,1004.7344,327.8965,1000.7344" style="stroke:#181818;stroke-width:1;"/><text fill="#000000" font-family="sans-serif" font-size="13" lengthAdjust="spacing" textLength="65.0254" x="327.8965" y="982.8779">reloadList()</text></g><!--SRC=[tLNBRi8m4BpxArOvGGG_mA4NrFRILbKV7x3W9RNasAdjKFBtjSChv4M0dffB8gztPtPsHqbHg9N1b22EBOzZc1j2H_12F_212JmQdMViIt22bTPkeJUCuT9f0r4Sp-3JaedZ2D2MdsoXSyNH5DkeBr3cFwF2X59IxjM_T_VtmN34bbeve-LfsdnxA0yGpG3pDOMhmRrHfgtm78jQtZ70MA0BqxiJ6Z03YslQ7usKrsK2dEpIYCm9hIRWCB7Ze81O1vbEcc0djPgrroW5zraFsgHbxQv2d3e0TERy64mAGfN56FZd32eNDfDOt1kZpIWACqr2508141OCVUV248_6PRLsv13fOaLgo-CcHGSqqYBVTOJxi8whvH6NfHUy5ORnRw1LzhIFJnciaggGg50xRkzErNushOmg3gY3LifFkmG9gEyENMuFwIrDrK1GEg2Di4weP7ybB9xI3bGkPM_xpJMW-YAZz6FYnHR3HZtT7wRVGRmsh_0qo5teiWl9bM6IbjeLgwhLjzr3uZVRzRp4rndwgj4Dmht5t4CC_ZyzVA4_XzMlA3TqNGn9ZVp9ssBqLuiowAB_l_q2]--></g></svg>