<svg xmlns="http://www.w3.org/2000/svg" xmlns:xlink="http://www.w3.org/1999/xlink" contentStyleType="text/css" data-diagram-type="SEQUENCE" height="736px" preserveAspectRatio="none" style="width:898px;height:736px;background:#FFFFFF;" version="1.1" viewBox="0 0 898 736" width="898px" zoomAndPan="magnify"><defs/><g><rect fill="#FFFFFF" height="715.9375" style="stroke:#181818;stroke-width:1.5;" width="887.5371" x="5" y="15"/><path d="M163.4492,15 L163.4492,25.6094 L153.4492,35.6094 L5,35.6094" fill="none" style="stroke:#181818;stroke-width:1.5;"/><text fill="#000000" font-family="sans-serif" font-size="14" lengthAdjust="spacing" textLength="4.9697" x="8" y="30.5332">"</text><text fill="#000000" font-family="sans-serif" font-size="14" font-weight="bold" lengthAdjust="spacing" textLength="16.3379" x="12.9697" y="30.5332">sd</text><text fill="#000000" font-family="sans-serif" font-size="14" lengthAdjust="spacing" textLength="123.252" x="33.1973" y="30.5332">Tambah TagGroup"</text><g><title>... TagGroup Page..</title><rect fill="#FFFFFF" height="172.4063" style="stroke:#181818;stroke-width:1;" width="10" x="352.7505" y="153.5703"/></g><g><title>... TagGroup Page..</title><rect fill="#FFFFFF" height="28" style="stroke:#181818;stroke-width:1;" width="10" x="357.7505" y="191.9219"/></g><g><title>... Tag GroupController..</title><rect fill="#FFFFFF" height="116.4063" style="stroke:#181818;stroke-width:1;" width="10" x="633.6934" y="377.3281"/></g><g><title>... Tag Group..</title><rect fill="#FFFFFF" height="30.3516" style="stroke:#181818;stroke-width:1;" width="10" x="833.875" y="407.6797"/></g><rect fill="none" height="106.0547" style="stroke:#000000;stroke-width:1.5;" width="618.6934" x="20" y="241.9219"/><rect fill="none" height="242.2969" style="stroke:#000000;stroke-width:1.5;" width="704.8003" x="20" y="453.0313"/><g><title>... User..</title><rect fill="#000000" fill-opacity="0.00000" height="591.1094" width="8" x="48.8413" y="121.2188"/><line style="stroke:#181818;stroke-width:0.5;stroke-dasharray:5,5;" x1="52" x2="52" y1="121.2188" y2="712.3281"/></g><g><title>... TagGroup Page..</title><rect fill="#000000" fill-opacity="0.00000" height="591.1094" width="8" x="353.7505" y="121.2188"/><line style="stroke:#181818;stroke-width:0.5;stroke-dasharray:5,5;" x1="357.3574" x2="357.3574" y1="121.2188" y2="712.3281"/></g><g><title>... Tag GroupController..</title><rect fill="#000000" fill-opacity="0.00000" height="591.1094" width="8" x="634.6934" y="121.2188"/><line style="stroke:#181818;stroke-width:0.5;stroke-dasharray:5,5;" x1="638.5864" x2="638.5864" y1="121.2188" y2="712.3281"/></g><g><title>... Tag Group..</title><rect fill="#000000" fill-opacity="0.00000" height="591.1094" width="8" x="834.875" y="121.2188"/><line style="stroke:#181818;stroke-width:0.5;stroke-dasharray:5,5;" x1="838.2129" x2="838.2129" y1="121.2188" y2="712.3281"/></g><g class="participant participant-head" data-participant="User"><text fill="#000000" font-family="sans-serif" font-size="14" font-weight="bold" lengthAdjust="spacing" textLength="39.6826" x="30" y="118.1426">: User</text><ellipse cx="52.8413" cy="52.1094" fill="#E2E2F0" rx="8" ry="8" style="stroke:#181818;stroke-width:0.5;"/><path d="M52.8413,60.1094 L52.8413,87.1094 M39.8413,68.1094 L65.8413,68.1094 M52.8413,87.1094 L39.8413,102.1094 M52.8413,87.1094 L65.8413,102.1094" fill="none" style="stroke:#181818;stroke-width:0.5;"/></g><g class="participant participant-head" data-participant="TagGroupPage"><text fill="#000000" font-family="sans-serif" font-size="14" font-weight="bold" lengthAdjust="spacing" textLength="112.7861" x="298.3574" y="118.1426">: TagGroup Page</text><path d="M337.2505,75.6094 L337.2505,99.6094 M337.2505,87.6094 L354.2505,87.6094" fill="none" style="stroke:#181818;stroke-width:0.5;"/><ellipse cx="366.2505" cy="87.6094" fill="#E2E2F0" rx="12" ry="12" style="stroke:#181818;stroke-width:0.5;"/></g><g class="participant participant-head" data-participant="TagGroupController"><text fill="#000000" font-family="sans-serif" font-size="14" font-weight="bold" lengthAdjust="spacing" textLength="146.2139" x="562.5864" y="118.1426">: Tag GroupController</text><ellipse cx="638.6934" cy="87.6094" fill="#E2E2F0" rx="12" ry="12" style="stroke:#181818;stroke-width:0.5;"/><polygon fill="#181818" points="634.6934,75.6094,640.6934,70.6094,638.6934,75.6094,640.6934,80.6094,634.6934,75.6094" style="stroke:#181818;stroke-width:1;"/></g><g class="participant participant-head" data-participant="TagGroupRepository"><text fill="#000000" font-family="sans-serif" font-size="14" font-weight="bold" lengthAdjust="spacing" textLength="79.3242" x="796.2129" y="118.1426">: Tag Group</text><ellipse cx="838.875" cy="87.6094" fill="#E2E2F0" rx="12" ry="12" style="stroke:#181818;stroke-width:0.5;"/><line style="stroke:#181818;stroke-width:0.5;" x1="826.875" x2="850.875" y1="101.6094" y2="101.6094"/></g><g><title>... TagGroup Page..</title><rect fill="#FFFFFF" height="172.4063" style="stroke:#181818;stroke-width:1;" width="10" x="352.7505" y="153.5703"/></g><g><title>... TagGroup Page..</title><rect fill="#FFFFFF" height="28" style="stroke:#181818;stroke-width:1;" width="10" x="357.7505" y="191.9219"/></g><g><title>... Tag GroupController..</title><rect fill="#FFFFFF" height="116.4063" style="stroke:#181818;stroke-width:1;" width="10" x="633.6934" y="377.3281"/></g><g><title>... Tag Group..</title><rect fill="#FFFFFF" height="30.3516" style="stroke:#181818;stroke-width:1;" width="10" x="833.875" y="407.6797"/></g><g class="message" data-participant-1="User" data-participant-2="TagGroupPage"><polygon fill="#181818" points="340.7505,149.5703,350.7505,153.5703,340.7505,157.5703,344.7505,153.5703" style="stroke:#181818;stroke-width:1;"/><line style="stroke:#181818;stroke-width:1;" x1="52.8413" x2="346.7505" y1="153.5703" y2="153.5703"/><text fill="#000000" font-family="sans-serif" font-size="13" lengthAdjust="spacing" textLength="239.8843" x="59.8413" y="148.7139">submitTagGroup(name, description, tags)</text></g><g class="message" data-participant-1="TagGroupPage" data-participant-2="TagGroupPage"><line style="stroke:#181818;stroke-width:1;" x1="367.7505" x2="409.7505" y1="183.9219" y2="183.9219"/><line style="stroke:#181818;stroke-width:1;" x1="409.7505" x2="409.7505" y1="183.9219" y2="196.9219"/><line style="stroke:#181818;stroke-width:1;" x1="368.7505" x2="409.7505" y1="196.9219" y2="196.9219"/><polygon fill="#181818" points="378.7505,192.9219,368.7505,196.9219,378.7505,200.9219,374.7505,196.9219" style="stroke:#181818;stroke-width:1;"/><text fill="#000000" font-family="sans-serif" font-size="13" lengthAdjust="spacing" textLength="116.3145" x="374.7505" y="179.0654">validateForm(name)</text></g><path d="M20,241.9219 L85.2109,241.9219 L85.2109,250.2734 L75.2109,260.2734 L20,260.2734 L20,241.9219" fill="#EEEEEE" style="stroke:#000000;stroke-width:1.5;"/><rect fill="none" height="106.0547" style="stroke:#000000;stroke-width:1.5;" width="618.6934" x="20" y="241.9219"/><text fill="#000000" font-family="sans-serif" font-size="13" font-weight="bold" lengthAdjust="spacing" textLength="20.2109" x="35" y="256.417">opt</text><text fill="#000000" font-family="sans-serif" font-size="11" font-weight="bold" lengthAdjust="spacing" textLength="69.6685" x="100.2109" y="255.3408">[form invalid]</text><g class="message" data-participant-1="TagGroupPage" data-participant-2="TagGroupPage"><line style="stroke:#181818;stroke-width:1;" x1="362.7505" x2="404.7505" y1="282.625" y2="282.625"/><line style="stroke:#181818;stroke-width:1;" x1="404.7505" x2="404.7505" y1="282.625" y2="295.625"/><line style="stroke:#181818;stroke-width:1;" x1="363.7505" x2="404.7505" y1="295.625" y2="295.625"/><polygon fill="#181818" points="373.7505,291.625,363.7505,295.625,373.7505,299.625,369.7505,295.625" style="stroke:#181818;stroke-width:1;"/><text fill="#000000" font-family="sans-serif" font-size="13" lengthAdjust="spacing" textLength="246.9429" x="369.7505" y="277.7686">displayError("Tag group name is required")</text></g><g class="message" data-participant-1="TagGroupPage" data-participant-2="User"><polygon fill="#181818" points="63.8413,321.9766,53.8413,325.9766,63.8413,329.9766,59.8413,325.9766" style="stroke:#181818;stroke-width:1;"/><line style="stroke:#181818;stroke-width:1;stroke-dasharray:2,2;" x1="57.8413" x2="356.7505" y1="325.9766" y2="325.9766"/><text fill="#000000" font-family="sans-serif" font-size="13" lengthAdjust="spacing" textLength="236.8247" x="69.8413" y="321.1201">showError("Tag group name is required")</text></g><g class="message" data-participant-1="User" data-participant-2="TagGroupPage"><polygon fill="#181818" points="345.7505,335.9766,355.7505,339.9766,345.7505,343.9766,349.7505,339.9766" style="stroke:#181818;stroke-width:1;"/><line style="stroke:#181818;stroke-width:1;stroke-dasharray:2,2;" x1="52.8413" x2="351.7505" y1="339.9766" y2="339.9766"/></g><g class="message" data-participant-1="TagGroupPage" data-participant-2="TagGroupController"><polygon fill="#181818" points="621.6934,373.3281,631.6934,377.3281,621.6934,381.3281,625.6934,377.3281" style="stroke:#181818;stroke-width:1;"/><line style="stroke:#181818;stroke-width:1;" x1="357.7505" x2="627.6934" y1="377.3281" y2="377.3281"/><text fill="#000000" font-family="sans-serif" font-size="13" lengthAdjust="spacing" textLength="237.7261" x="364.7505" y="372.4717">createTagGroup(name, description, tags)</text></g><g class="message" data-participant-1="TagGroupController" data-participant-2="TagGroupRepository"><polygon fill="#181818" points="821.875,403.6797,831.875,407.6797,821.875,411.6797,825.875,407.6797" style="stroke:#181818;stroke-width:1;"/><line style="stroke:#181818;stroke-width:1;" x1="643.6934" x2="827.875" y1="407.6797" y2="407.6797"/><text fill="#000000" font-family="sans-serif" font-size="13" lengthAdjust="spacing" textLength="170.5234" x="650.6934" y="402.8232">save(name, description, tags)</text></g><g class="message" data-participant-1="TagGroupRepository" data-participant-2="TagGroupController"><polygon fill="#181818" points="654.6934,434.0313,644.6934,438.0313,654.6934,442.0313,650.6934,438.0313" style="stroke:#181818;stroke-width:1;"/><line style="stroke:#181818;stroke-width:1;stroke-dasharray:2,2;" x1="648.6934" x2="837.875" y1="438.0313" y2="438.0313"/><text fill="#000000" font-family="sans-serif" font-size="13" lengthAdjust="spacing" textLength="166.1816" x="660.6934" y="433.1748">saveResult(status, existing?)</text></g><path d="M20,453.0313 L80.1709,453.0313 L80.1709,461.3828 L70.1709,471.3828 L20,471.3828 L20,453.0313" fill="#EEEEEE" style="stroke:#000000;stroke-width:1.5;"/><rect fill="none" height="242.2969" style="stroke:#000000;stroke-width:1.5;" width="704.8003" x="20" y="453.0313"/><text fill="#000000" font-family="sans-serif" font-size="13" font-weight="bold" lengthAdjust="spacing" textLength="15.1709" x="35" y="467.5264">alt</text><text fill="#000000" font-family="sans-serif" font-size="11" font-weight="bold" lengthAdjust="spacing" textLength="133.8691" x="95.1709" y="466.4502">[tag group already exists]</text><g class="message" data-participant-1="TagGroupController" data-participant-2="TagGroupPage"><polygon fill="#181818" points="368.7505,489.7344,358.7505,493.7344,368.7505,497.7344,364.7505,493.7344" style="stroke:#181818;stroke-width:1;"/><line style="stroke:#181818;stroke-width:1;stroke-dasharray:2,2;" x1="362.7505" x2="637.6934" y1="493.7344" y2="493.7344"/><text fill="#000000" font-family="sans-serif" font-size="13" lengthAdjust="spacing" textLength="187.6875" x="374.7505" y="488.8779">error("Tag group already exists")</text></g><g class="message" data-participant-1="TagGroupPage" data-participant-2="TagGroupPage"><line style="stroke:#181818;stroke-width:1;" x1="357.7505" x2="399.7505" y1="524.0859" y2="524.0859"/><line style="stroke:#181818;stroke-width:1;" x1="399.7505" x2="399.7505" y1="524.0859" y2="537.0859"/><line style="stroke:#181818;stroke-width:1;" x1="358.7505" x2="399.7505" y1="537.0859" y2="537.0859"/><polygon fill="#181818" points="368.7505,533.0859,358.7505,537.0859,368.7505,541.0859,364.7505,537.0859" style="stroke:#181818;stroke-width:1;"/><text fill="#000000" font-family="sans-serif" font-size="13" lengthAdjust="spacing" textLength="229.5947" x="364.7505" y="519.2295">displayError("Tag group already exists")</text></g><g class="message" data-participant-1="TagGroupPage" data-participant-2="User"><polygon fill="#181818" points="63.8413,563.4375,53.8413,567.4375,63.8413,571.4375,59.8413,567.4375" style="stroke:#181818;stroke-width:1;"/><line style="stroke:#181818;stroke-width:1;stroke-dasharray:2,2;" x1="57.8413" x2="356.7505" y1="567.4375" y2="567.4375"/><text fill="#000000" font-family="sans-serif" font-size="13" lengthAdjust="spacing" textLength="219.4766" x="69.8413" y="562.5811">showError("Tag group already exists")</text></g><line style="stroke:#000000;stroke-width:1;stroke-dasharray:2,2;" x1="20" x2="724.8003" y1="576.4375" y2="576.4375"/><text fill="#000000" font-family="sans-serif" font-size="11" font-weight="bold" lengthAdjust="spacing" textLength="124.6792" x="25" y="587.8564">[new tag group created]</text><g class="message" data-participant-1="TagGroupController" data-participant-2="TagGroupPage"><polygon fill="#181818" points="368.7505,609.625,358.7505,613.625,368.7505,617.625,364.7505,613.625" style="stroke:#181818;stroke-width:1;"/><line style="stroke:#181818;stroke-width:1;stroke-dasharray:2,2;" x1="362.7505" x2="637.6934" y1="613.625" y2="613.625"/><text fill="#000000" font-family="sans-serif" font-size="13" lengthAdjust="spacing" textLength="119.9326" x="374.7505" y="608.7686">saveStatus(success)</text></g><g class="message" data-participant-1="TagGroupPage" data-participant-2="TagGroupPage"><line style="stroke:#181818;stroke-width:1;" x1="357.7505" x2="399.7505" y1="643.9766" y2="643.9766"/><line style="stroke:#181818;stroke-width:1;" x1="399.7505" x2="399.7505" y1="643.9766" y2="656.9766"/><line style="stroke:#181818;stroke-width:1;" x1="358.7505" x2="399.7505" y1="656.9766" y2="656.9766"/><polygon fill="#181818" points="368.7505,652.9766,358.7505,656.9766,368.7505,660.9766,364.7505,656.9766" style="stroke:#181818;stroke-width:1;"/><text fill="#000000" font-family="sans-serif" font-size="13" lengthAdjust="spacing" textLength="65.0254" x="364.7505" y="639.1201">reloadList()</text></g><g class="message" data-participant-1="TagGroupPage" data-participant-2="User"><polygon fill="#181818" points="63.8413,683.3281,53.8413,687.3281,63.8413,691.3281,59.8413,687.3281" style="stroke:#181818;stroke-width:1;"/><line style="stroke:#181818;stroke-width:1;stroke-dasharray:2,2;" x1="57.8413" x2="356.7505" y1="687.3281" y2="687.3281"/><text fill="#000000" font-family="sans-serif" font-size="13" lengthAdjust="spacing" textLength="280.9092" x="69.8413" y="682.4717">showMessage("Tag group created successfully")</text></g><!--SRC=[hLF1RgCm4BtxAqPSIb7w0psqXsftjT9MghBR3t3mX5WoDfsna_BtjI5f806bKPSBQCP-y-QzHosrNPEi4RAYO5KKy4_MAxc9h-eNkT1aOgCLmjevltBlGiZIEqg7x-6LaOeY0ydTfrYvO9MajkyU0E15LhW_TgYbaYYTzUJCvsdeMazzrNn27-uS6mAjrxw5avidvvVOEDQHR2j4eWTt3wFvS0ySLhNsXs9kemmBKCWbwSPhPnVWPSMtQMUzbHx7_CK8xHnzAurMyTPFHtM7FGUaS6Q0QtmKdchGjWCJ49yBKvNcniZs1v6ZF4lYL9qBYG1e1iAte0bLTZk15k4wgQ8q6xVxAiOS_zGZz85iT4m9SGE_rxqg2-1O0U-WFBewjzZH-CYh98npBbisn-ciEeYLc9Wuu74CLD97Rl6Am0p2E05tDxTjch943iRdxAKFl01yr-orhHudTno6NXgVwEozaoOgfzh-Fe-y7wvx7YWyJS4OQJu30sM_aTl9QLUbzWm13IDOt0tKwMEbhf0bMVEtyoJdK9R8_9-483HEgZ-HQtvvsUSuDvQ7w-vNWJshTJ2cJKkdFt3ch_W0]--></g></svg>