<svg xmlns="http://www.w3.org/2000/svg" xmlns:xlink="http://www.w3.org/1999/xlink" contentStyleType="text/css" data-diagram-type="SEQUENCE" height="1080px" preserveAspectRatio="none" style="width:744px;height:1080px;background:#FFFFFF;" version="1.1" viewBox="0 0 744 1080" width="744px" zoomAndPan="magnify"><defs/><g><rect fill="#FFFFFF" height="1059.3438" style="stroke:#181818;stroke-width:1.5;" width="733.063" x="5" y="15"/><path d="M137.1582,15 L137.1582,25.6094 L127.1582,35.6094 L5,35.6094" fill="none" style="stroke:#181818;stroke-width:1.5;"/><text fill="#000000" font-family="sans-serif" font-size="14" font-weight="bold" lengthAdjust="spacing" textLength="16.3379" x="8" y="30.5332">sd</text><text fill="#000000" font-family="sans-serif" font-size="14" lengthAdjust="spacing" textLength="101.9307" x="28.2275" y="30.5332">Create New Tag</text><g><title>... TagManagementPage..</title><rect fill="#FFFFFF" height="343.1094" style="stroke:#181818;stroke-width:1;" width="10" x="237.9702" y="153.5703"/></g><g><title>... TagManagementPage..</title><rect fill="#FFFFFF" height="28" style="stroke:#181818;stroke-width:1;" width="10" x="242.9702" y="191.9219"/></g><g><title>... TagManagementPage..</title><rect fill="#FFFFFF" height="28" style="stroke:#181818;stroke-width:1;" width="10" x="242.9702" y="290.625"/></g><g><title>... TagManagementPage..</title><rect fill="#FFFFFF" height="28" style="stroke:#181818;stroke-width:1;" width="10" x="242.9702" y="401.3281"/></g><g><title>... TagManagementPage..</title><rect fill="#FFFFFF" height="96.3516" style="stroke:#181818;stroke-width:1;" width="10" x="237.9702" y="613.0859"/></g><g><title>... TagManagementPage..</title><rect fill="#FFFFFF" height="28" style="stroke:#181818;stroke-width:1;" width="10" x="242.9702" y="681.4375"/></g><g><title>... TagManagementPage..</title><rect fill="#FFFFFF" height="261.1094" style="stroke:#181818;stroke-width:1;" width="10" x="237.9702" y="762.625"/></g><g><title>... TagManagementPage..</title><rect fill="#FFFFFF" height="28" style="stroke:#181818;stroke-width:1;" width="10" x="242.9702" y="800.9766"/></g><g><title>... TagManagementPage..</title><rect fill="#FFFFFF" height="28" style="stroke:#181818;stroke-width:1;" width="10" x="242.9702" y="995.7344"/></g><g><title>... TagController..</title><rect fill="#FFFFFF" height="176.4063" style="stroke:#181818;stroke-width:1;" width="10" x="482.0522" y="466.6797"/></g><g><title>... TagController..</title><rect fill="#FFFFFF" height="91.0547" style="stroke:#181818;stroke-width:1;" width="10" x="482.0522" y="866.3281"/></g><g><title>... TagRepository..</title><rect fill="#FFFFFF" height="30.3516" style="stroke:#181818;stroke-width:1;" width="10" x="649.7803" y="527.0313"/></g><g><title>... TagRepository..</title><rect fill="#FFFFFF" height="30.3516" style="stroke:#181818;stroke-width:1;" width="10" x="649.7803" y="896.6797"/></g><rect fill="none" height="91.7031" style="stroke:#000000;stroke-width:1.5;" width="338.3198" x="153.7324" y="241.9219"/><rect fill="none" height="466.3516" style="stroke:#000000;stroke-width:1.5;" width="701.063" x="20" y="572.3828"/><g><title>... User..</title><rect fill="#000000" fill-opacity="0.00000" height="934.5156" width="8" x="48.8413" y="121.2188"/><line style="stroke:#181818;stroke-width:0.5;stroke-dasharray:5,5;" x1="52" x2="52" y1="121.2188" y2="1055.7344"/></g><g><title>... TagManagementPage..</title><rect fill="#000000" fill-opacity="0.00000" height="934.5156" width="8" x="238.9702" y="121.2188"/><line style="stroke:#181818;stroke-width:0.5;stroke-dasharray:5,5;" x1="242.7324" x2="242.7324" y1="121.2188" y2="1055.7344"/></g><g><title>... TagController..</title><rect fill="#000000" fill-opacity="0.00000" height="934.5156" width="8" x="483.0522" y="121.2188"/><line style="stroke:#181818;stroke-width:0.5;stroke-dasharray:5,5;" x1="486.8867" x2="486.8867" y1="121.2188" y2="1055.7344"/></g><g><title>... TagRepository..</title><rect fill="#000000" fill-opacity="0.00000" height="934.5156" width="8" x="650.7803" y="121.2188"/><line style="stroke:#181818;stroke-width:0.5;stroke-dasharray:5,5;" x1="654.4976" x2="654.4976" y1="121.2188" y2="1055.7344"/></g><g class="participant participant-head" data-participant="User"><text fill="#000000" font-family="sans-serif" font-size="14" font-weight="bold" lengthAdjust="spacing" textLength="39.6826" x="30" y="118.1426">: User</text><ellipse cx="52.8413" cy="52.1094" fill="#E2E2F0" rx="8" ry="8" style="stroke:#181818;stroke-width:0.5;"/><path d="M52.8413,60.1094 L52.8413,87.1094 M39.8413,68.1094 L65.8413,68.1094 M52.8413,87.1094 L39.8413,102.1094 M52.8413,87.1094 L65.8413,102.1094" fill="none" style="stroke:#181818;stroke-width:0.5;"/></g><g class="participant participant-head" data-participant="TagPage"><text fill="#000000" font-family="sans-serif" font-size="14" font-weight="bold" lengthAdjust="spacing" textLength="152.4756" x="163.7324" y="118.1426">: TagManagementPage</text><path d="M222.4702,75.6094 L222.4702,99.6094 M222.4702,87.6094 L239.4702,87.6094" fill="none" style="stroke:#181818;stroke-width:0.5;"/><ellipse cx="251.4702" cy="87.6094" fill="#E2E2F0" rx="12" ry="12" style="stroke:#181818;stroke-width:0.5;"/></g><g class="participant participant-head" data-participant="TagController"><text fill="#000000" font-family="sans-serif" font-size="14" font-weight="bold" lengthAdjust="spacing" textLength="100.3311" x="433.8867" y="118.1426">: TagController</text><ellipse cx="487.0522" cy="87.6094" fill="#E2E2F0" rx="12" ry="12" style="stroke:#181818;stroke-width:0.5;"/><polygon fill="#181818" points="483.0522,75.6094,489.0522,70.6094,487.0522,75.6094,489.0522,80.6094,483.0522,75.6094" style="stroke:#181818;stroke-width:1;"/></g><g class="participant participant-head" data-participant="TagRepository"><text fill="#000000" font-family="sans-serif" font-size="14" font-weight="bold" lengthAdjust="spacing" textLength="106.5654" x="598.4976" y="118.1426">: TagRepository</text><ellipse cx="654.7803" cy="87.6094" fill="#E2E2F0" rx="12" ry="12" style="stroke:#181818;stroke-width:0.5;"/><line style="stroke:#181818;stroke-width:0.5;" x1="642.7803" x2="666.7803" y1="101.6094" y2="101.6094"/></g><g><title>... TagManagementPage..</title><rect fill="#FFFFFF" height="343.1094" style="stroke:#181818;stroke-width:1;" width="10" x="237.9702" y="153.5703"/></g><g><title>... TagManagementPage..</title><rect fill="#FFFFFF" height="28" style="stroke:#181818;stroke-width:1;" width="10" x="242.9702" y="191.9219"/></g><g><title>... TagManagementPage..</title><rect fill="#FFFFFF" height="28" style="stroke:#181818;stroke-width:1;" width="10" x="242.9702" y="290.625"/></g><g><title>... TagManagementPage..</title><rect fill="#FFFFFF" height="28" style="stroke:#181818;stroke-width:1;" width="10" x="242.9702" y="401.3281"/></g><g><title>... TagManagementPage..</title><rect fill="#FFFFFF" height="96.3516" style="stroke:#181818;stroke-width:1;" width="10" x="237.9702" y="613.0859"/></g><g><title>... TagManagementPage..</title><rect fill="#FFFFFF" height="28" style="stroke:#181818;stroke-width:1;" width="10" x="242.9702" y="681.4375"/></g><g><title>... TagManagementPage..</title><rect fill="#FFFFFF" height="261.1094" style="stroke:#181818;stroke-width:1;" width="10" x="237.9702" y="762.625"/></g><g><title>... TagManagementPage..</title><rect fill="#FFFFFF" height="28" style="stroke:#181818;stroke-width:1;" width="10" x="242.9702" y="800.9766"/></g><g><title>... TagManagementPage..</title><rect fill="#FFFFFF" height="28" style="stroke:#181818;stroke-width:1;" width="10" x="242.9702" y="995.7344"/></g><g><title>... TagController..</title><rect fill="#FFFFFF" height="176.4063" style="stroke:#181818;stroke-width:1;" width="10" x="482.0522" y="466.6797"/></g><g><title>... TagController..</title><rect fill="#FFFFFF" height="91.0547" style="stroke:#181818;stroke-width:1;" width="10" x="482.0522" y="866.3281"/></g><g><title>... TagRepository..</title><rect fill="#FFFFFF" height="30.3516" style="stroke:#181818;stroke-width:1;" width="10" x="649.7803" y="527.0313"/></g><g><title>... TagRepository..</title><rect fill="#FFFFFF" height="30.3516" style="stroke:#181818;stroke-width:1;" width="10" x="649.7803" y="896.6797"/></g><g class="message" data-participant-1="User" data-participant-2="TagPage"><polygon fill="#181818" points="225.9702,149.5703,235.9702,153.5703,225.9702,157.5703,229.9702,153.5703" style="stroke:#181818;stroke-width:1;"/><line style="stroke:#181818;stroke-width:1;" x1="52.8413" x2="231.9702" y1="153.5703" y2="153.5703"/><text fill="#000000" font-family="sans-serif" font-size="13" lengthAdjust="spacing" textLength="161.1289" x="59.8413" y="148.7139">saveTag(name, description)</text></g><g class="message" data-participant-1="TagPage" data-participant-2="TagPage"><line style="stroke:#181818;stroke-width:1;" x1="252.9702" x2="294.9702" y1="183.9219" y2="183.9219"/><line style="stroke:#181818;stroke-width:1;" x1="294.9702" x2="294.9702" y1="183.9219" y2="196.9219"/><line style="stroke:#181818;stroke-width:1;" x1="253.9702" x2="294.9702" y1="196.9219" y2="196.9219"/><polygon fill="#181818" points="263.9702,192.9219,253.9702,196.9219,263.9702,200.9219,259.9702,196.9219" style="stroke:#181818;stroke-width:1;"/><text fill="#000000" font-family="sans-serif" font-size="13" lengthAdjust="spacing" textLength="116.3145" x="259.9702" y="179.0654">validateForm(name)</text></g><path d="M153.7324,241.9219 L218.9434,241.9219 L218.9434,250.2734 L208.9434,260.2734 L153.7324,260.2734 L153.7324,241.9219" fill="#EEEEEE" style="stroke:#000000;stroke-width:1.5;"/><rect fill="none" height="91.7031" style="stroke:#000000;stroke-width:1.5;" width="338.3198" x="153.7324" y="241.9219"/><text fill="#000000" font-family="sans-serif" font-size="13" font-weight="bold" lengthAdjust="spacing" textLength="20.2109" x="168.7324" y="256.417">opt</text><text fill="#000000" font-family="sans-serif" font-size="11" font-weight="bold" lengthAdjust="spacing" textLength="69.6685" x="233.9434" y="255.3408">[form invalid]</text><g class="message" data-participant-1="TagPage" data-participant-2="TagPage"><line style="stroke:#181818;stroke-width:1;" x1="252.9702" x2="294.9702" y1="282.625" y2="282.625"/><line style="stroke:#181818;stroke-width:1;" x1="294.9702" x2="294.9702" y1="282.625" y2="295.625"/><line style="stroke:#181818;stroke-width:1;" x1="253.9702" x2="294.9702" y1="295.625" y2="295.625"/><polygon fill="#181818" points="263.9702,291.625,253.9702,295.625,263.9702,299.625,259.9702,295.625" style="stroke:#181818;stroke-width:1;"/><text fill="#000000" font-family="sans-serif" font-size="13" lengthAdjust="spacing" textLength="210.082" x="259.9702" y="277.7686">displayError("Tag name is required")</text></g><g class="message" data-participant-1="User" data-participant-2="TagPage"><polygon fill="#181818" points="225.9702,358.9766,235.9702,362.9766,225.9702,366.9766,229.9702,362.9766" style="stroke:#181818;stroke-width:1;"/><line style="stroke:#181818;stroke-width:1;" x1="52.8413" x2="231.9702" y1="362.9766" y2="362.9766"/><text fill="#000000" font-family="sans-serif" font-size="13" lengthAdjust="spacing" textLength="161.1289" x="59.8413" y="358.1201">saveTag(name, description)</text></g><g class="message" data-participant-1="TagPage" data-participant-2="TagPage"><line style="stroke:#181818;stroke-width:1;" x1="252.9702" x2="294.9702" y1="393.3281" y2="393.3281"/><line style="stroke:#181818;stroke-width:1;" x1="294.9702" x2="294.9702" y1="393.3281" y2="406.3281"/><line style="stroke:#181818;stroke-width:1;" x1="253.9702" x2="294.9702" y1="406.3281" y2="406.3281"/><polygon fill="#181818" points="263.9702,402.3281,253.9702,406.3281,263.9702,410.3281,259.9702,406.3281" style="stroke:#181818;stroke-width:1;"/><text fill="#000000" font-family="sans-serif" font-size="13" lengthAdjust="spacing" textLength="116.3145" x="259.9702" y="388.4717">validateForm(name)</text></g><g class="message" data-participant-1="TagPage" data-participant-2="TagController"><polygon fill="#181818" points="470.0522,462.6797,480.0522,466.6797,470.0522,470.6797,474.0522,466.6797" style="stroke:#181818;stroke-width:1;"/><line style="stroke:#181818;stroke-width:1;" x1="247.9702" x2="476.0522" y1="466.6797" y2="466.6797"/><text fill="#000000" font-family="sans-serif" font-size="13" lengthAdjust="spacing" textLength="195.8062" x="254.9702" y="461.8232">createNewTag(name, description)</text></g><g class="message" data-participant-1="TagController" data-participant-2="TagRepository"><polygon fill="#181818" points="637.7803,523.0313,647.7803,527.0313,637.7803,531.0313,641.7803,527.0313" style="stroke:#181818;stroke-width:1;"/><line style="stroke:#181818;stroke-width:1;" x1="492.0522" x2="643.7803" y1="527.0313" y2="527.0313"/><text fill="#000000" font-family="sans-serif" font-size="13" lengthAdjust="spacing" textLength="138.728" x="499.0522" y="522.1748">save(name, description)</text></g><g class="message" data-participant-1="TagRepository" data-participant-2="TagController"><polygon fill="#181818" points="503.0522,553.3828,493.0522,557.3828,503.0522,561.3828,499.0522,557.3828" style="stroke:#181818;stroke-width:1;"/><line style="stroke:#181818;stroke-width:1;stroke-dasharray:2,2;" x1="497.0522" x2="653.7803" y1="557.3828" y2="557.3828"/><text fill="#000000" font-family="sans-serif" font-size="13" lengthAdjust="spacing" textLength="64.3145" x="509.0522" y="552.5264">saveStatus</text></g><path d="M20,572.3828 L80.1709,572.3828 L80.1709,580.7344 L70.1709,590.7344 L20,590.7344 L20,572.3828" fill="#EEEEEE" style="stroke:#000000;stroke-width:1.5;"/><rect fill="none" height="466.3516" style="stroke:#000000;stroke-width:1.5;" width="701.063" x="20" y="572.3828"/><text fill="#000000" font-family="sans-serif" font-size="13" font-weight="bold" lengthAdjust="spacing" textLength="15.1709" x="35" y="586.8779">alt</text><text fill="#000000" font-family="sans-serif" font-size="11" font-weight="bold" lengthAdjust="spacing" textLength="123.4438" x="95.1709" y="585.8018">[existingTag is not null]</text><g class="message" data-participant-1="TagController" data-participant-2="TagPage"><polygon fill="#181818" points="258.9702,609.0859,248.9702,613.0859,258.9702,617.0859,254.9702,613.0859" style="stroke:#181818;stroke-width:1;"/><line style="stroke:#181818;stroke-width:1;stroke-dasharray:2,2;" x1="252.9702" x2="481.0522" y1="613.0859" y2="613.0859"/><text fill="#000000" font-family="sans-serif" font-size="13" lengthAdjust="spacing" textLength="150.8267" x="264.9702" y="608.2295">error("Tag already exists")</text></g><g class="message" data-participant-1="TagPage" data-participant-2="TagPage"><line style="stroke:#181818;stroke-width:1;" x1="252.9702" x2="294.9702" y1="673.4375" y2="673.4375"/><line style="stroke:#181818;stroke-width:1;" x1="294.9702" x2="294.9702" y1="673.4375" y2="686.4375"/><line style="stroke:#181818;stroke-width:1;" x1="253.9702" x2="294.9702" y1="686.4375" y2="686.4375"/><polygon fill="#181818" points="263.9702,682.4375,253.9702,686.4375,263.9702,690.4375,259.9702,686.4375" style="stroke:#181818;stroke-width:1;"/><text fill="#000000" font-family="sans-serif" font-size="13" lengthAdjust="spacing" textLength="192.7339" x="259.9702" y="668.5811">displayError("Tag already exists")</text></g><line style="stroke:#000000;stroke-width:1;stroke-dasharray:2,2;" x1="20" x2="721.063" y1="725.4375" y2="725.4375"/><text fill="#000000" font-family="sans-serif" font-size="11" font-weight="bold" lengthAdjust="spacing" textLength="103.2861" x="25" y="736.8564">[existingTag is null]</text><g class="message" data-participant-1="User" data-participant-2="TagPage"><polygon fill="#181818" points="225.9702,758.625,235.9702,762.625,225.9702,766.625,229.9702,762.625" style="stroke:#181818;stroke-width:1;"/><line style="stroke:#181818;stroke-width:1;" x1="52.8413" x2="231.9702" y1="762.625" y2="762.625"/><text fill="#000000" font-family="sans-serif" font-size="13" lengthAdjust="spacing" textLength="161.1289" x="59.8413" y="757.7686">saveTag(name, description)</text></g><g class="message" data-participant-1="TagPage" data-participant-2="TagPage"><line style="stroke:#181818;stroke-width:1;" x1="252.9702" x2="294.9702" y1="792.9766" y2="792.9766"/><line style="stroke:#181818;stroke-width:1;" x1="294.9702" x2="294.9702" y1="792.9766" y2="805.9766"/><line style="stroke:#181818;stroke-width:1;" x1="253.9702" x2="294.9702" y1="805.9766" y2="805.9766"/><polygon fill="#181818" points="263.9702,801.9766,253.9702,805.9766,263.9702,809.9766,259.9702,805.9766" style="stroke:#181818;stroke-width:1;"/><text fill="#000000" font-family="sans-serif" font-size="13" lengthAdjust="spacing" textLength="116.3145" x="259.9702" y="788.1201">validateForm(name)</text></g><g class="message" data-participant-1="TagPage" data-participant-2="TagController"><polygon fill="#181818" points="470.0522,862.3281,480.0522,866.3281,470.0522,870.3281,474.0522,866.3281" style="stroke:#181818;stroke-width:1;"/><line style="stroke:#181818;stroke-width:1;" x1="247.9702" x2="476.0522" y1="866.3281" y2="866.3281"/><text fill="#000000" font-family="sans-serif" font-size="13" lengthAdjust="spacing" textLength="195.8062" x="254.9702" y="861.4717">createNewTag(name, description)</text></g><g class="message" data-participant-1="TagController" data-participant-2="TagRepository"><polygon fill="#181818" points="637.7803,892.6797,647.7803,896.6797,637.7803,900.6797,641.7803,896.6797" style="stroke:#181818;stroke-width:1;"/><line style="stroke:#181818;stroke-width:1;" x1="492.0522" x2="643.7803" y1="896.6797" y2="896.6797"/><text fill="#000000" font-family="sans-serif" font-size="13" lengthAdjust="spacing" textLength="138.728" x="499.0522" y="891.8232">save(name, description)</text></g><g class="message" data-participant-1="TagRepository" data-participant-2="TagController"><polygon fill="#181818" points="503.0522,923.0313,493.0522,927.0313,503.0522,931.0313,499.0522,927.0313" style="stroke:#181818;stroke-width:1;"/><line style="stroke:#181818;stroke-width:1;stroke-dasharray:2,2;" x1="497.0522" x2="653.7803" y1="927.0313" y2="927.0313"/><text fill="#000000" font-family="sans-serif" font-size="13" lengthAdjust="spacing" textLength="64.3145" x="509.0522" y="922.1748">saveStatus</text></g><g class="message" data-participant-1="TagController" data-participant-2="TagPage"><polygon fill="#181818" points="258.9702,953.3828,248.9702,957.3828,258.9702,961.3828,254.9702,957.3828" style="stroke:#181818;stroke-width:1;"/><line style="stroke:#181818;stroke-width:1;stroke-dasharray:2,2;" x1="252.9702" x2="486.0522" y1="957.3828" y2="957.3828"/><text fill="#000000" font-family="sans-serif" font-size="13" lengthAdjust="spacing" textLength="64.3145" x="264.9702" y="952.5264">saveStatus</text></g><g class="message" data-participant-1="TagPage" data-participant-2="TagPage"><line style="stroke:#181818;stroke-width:1;" x1="252.9702" x2="294.9702" y1="987.7344" y2="987.7344"/><line style="stroke:#181818;stroke-width:1;" x1="294.9702" x2="294.9702" y1="987.7344" y2="1000.7344"/><line style="stroke:#181818;stroke-width:1;" x1="253.9702" x2="294.9702" y1="1000.7344" y2="1000.7344"/><polygon fill="#181818" points="263.9702,996.7344,253.9702,1000.7344,263.9702,1004.7344,259.9702,1000.7344" style="stroke:#181818;stroke-width:1;"/><text fill="#000000" font-family="sans-serif" font-size="13" lengthAdjust="spacing" textLength="65.0254" x="259.9702" y="982.8779">reloadList()</text></g><!--SRC=[rLHBRi8m4Dtx5AEim2eNOD4DQbTjLVLp08C7QicnKzjGk7t72IGEIO2egsQJU3pptdpU91VAh9t84JZtadDOE1G1uGL_u4Dis9UI26jhmzBk6HEhO1radC_XqwFZF0FXoq-sj5iZXJjKjnJwB8pOO8uclDBxw4hsU68hQuApkdPUL6TTOxPiZ41KQA3ViB1UKIg7nhknCHOJWjdzYGtcuCKEwJGnLEaTIFGhfugWh9d6cjGkbdpAZPt2MWWxePKajqVhyXAc9r9Y5ymMWVhdSb2cX610Jo-3LBxGul3Wd7MJZEmGQK1vSFYzLGvbDYsZEoJHsCEDfc8RrOx1z7eQC2QPBcupNq9VbR8ZrLr8AyLCn350MDgFh0bLnTsevTYD8SvptaHc2Nu2D-ifBXAy1n6slWvg9to6AdG0t2iVbDb47P04Z0rWjbeFLTKQ5JOI4feQAmyLdC_wYwe7rCtihC_nILEuHSMtfr3UeFROgJwjV41SLwv6By759etPa17Tli0nUbkkRCp_suoRf7yLC6d3vMawr5R89zBXv6zplEP3l-bV]--></g></svg>