<svg xmlns="http://www.w3.org/2000/svg" xmlns:xlink="http://www.w3.org/1999/xlink" contentStyleType="text/css" data-diagram-type="SEQUENCE" height="754px" preserveAspectRatio="none" style="width:682px;height:754px;background:#FFFFFF;" version="1.1" viewBox="0 0 682 754" width="682px" zoomAndPan="magnify"><defs/><g><rect fill="#FFFFFF" height="733.2344" style="stroke:#181818;stroke-width:1.5;" width="671.6113" x="5" y="15"/><path d="M106.8203,15 L106.8203,25.6094 L96.8203,35.6094 L5,35.6094" fill="none" style="stroke:#181818;stroke-width:1.5;"/><text fill="#000000" font-family="sans-serif" font-size="14" font-weight="bold" lengthAdjust="spacing" textLength="16.3379" x="8" y="30.5332">sd</text><text fill="#000000" font-family="sans-serif" font-size="14" lengthAdjust="spacing" textLength="75.4824" x="24.3379" y="30.5332">TambahTag</text><g><title>...TagPage..</title><rect fill="#FFFFFF" height="566.0547" style="stroke:#181818;stroke-width:1;" width="10" x="216.0254" y="153.5703"/></g><g><title>...TagPage..</title><rect fill="#FFFFFF" height="28" style="stroke:#181818;stroke-width:1;" width="10" x="221.0254" y="191.9219"/></g><g><title>...TagPage..</title><rect fill="#FFFFFF" height="28" style="stroke:#181818;stroke-width:1;" width="10" x="221.0254" y="290.625"/></g><g><title>...TagPage..</title><rect fill="#FFFFFF" height="28" style="stroke:#181818;stroke-width:1;" width="10" x="221.0254" y="543.0859"/></g><g><title>...TagPage..</title><rect fill="#FFFFFF" height="28" style="stroke:#181818;stroke-width:1;" width="10" x="221.0254" y="662.625"/></g><g><title>...TagController..</title><rect fill="#FFFFFF" height="324.2969" style="stroke:#181818;stroke-width:1;" width="10" x="460.1074" y="388.3281"/></g><g><title>...Tag..</title><rect fill="#FFFFFF" height="30.3516" style="stroke:#181818;stroke-width:1;" width="10" x="627.8354" y="418.6797"/></g><rect fill="none" height="91.7031" style="stroke:#000000;stroke-width:1.5;" width="293.5889" x="176.5186" y="241.9219"/><rect fill="none" height="365" style="stroke:#000000;stroke-width:1.5;" width="494.0928" x="166.5186" y="347.625"/><rect fill="none" height="241.5938" style="stroke:#000000;stroke-width:1.5;" width="349.8096" x="176.5186" y="464.0313"/><g><title>...User..</title><rect fill="#000000" fill-opacity="0.00000" height="608.4063" width="8" x="31.8965" y="121.2188"/><line style="stroke:#181818;stroke-width:0.5;stroke-dasharray:5,5;" x1="35" x2="35" y1="121.2188" y2="729.625"/></g><g><title>...TagPage..</title><rect fill="#000000" fill-opacity="0.00000" height="608.4063" width="8" x="217.0254" y="121.2188"/><line style="stroke:#181818;stroke-width:0.5;stroke-dasharray:5,5;" x1="220.5186" x2="220.5186" y1="121.2188" y2="729.625"/></g><g><title>...TagController..</title><rect fill="#000000" fill-opacity="0.00000" height="608.4063" width="8" x="461.1074" y="121.2188"/><line style="stroke:#181818;stroke-width:0.5;stroke-dasharray:5,5;" x1="464.8867" x2="464.8867" y1="121.2188" y2="729.625"/></g><g><title>...Tag..</title><rect fill="#000000" fill-opacity="0.00000" height="608.4063" width="8" x="628.8354" y="121.2188"/><line style="stroke:#181818;stroke-width:0.5;stroke-dasharray:5,5;" x1="632.0596" x2="632.0596" y1="121.2188" y2="729.625"/></g><g class="participant participant-head" data-participant="User"><text fill="#000000" font-family="sans-serif" font-size="14" font-weight="bold" lengthAdjust="spacing" textLength="35.793" x="15" y="118.1426">:User</text><ellipse cx="35.8965" cy="52.1094" fill="#E2E2F0" rx="8" ry="8" style="stroke:#181818;stroke-width:0.5;"/><path d="M35.8965,60.1094 L35.8965,87.1094 M22.8965,68.1094 L48.8965,68.1094 M35.8965,87.1094 L22.8965,102.1094 M35.8965,87.1094 L48.8965,102.1094" fill="none" style="stroke:#181818;stroke-width:0.5;"/></g><g class="participant participant-head" data-participant="TagPage"><text fill="#000000" font-family="sans-serif" font-size="14" font-weight="bold" lengthAdjust="spacing" textLength="63.0137" x="186.5186" y="118.1426">:TagPage</text><path d="M200.5254,75.6094 L200.5254,99.6094 M200.5254,87.6094 L217.5254,87.6094" fill="none" style="stroke:#181818;stroke-width:0.5;"/><ellipse cx="229.5254" cy="87.6094" fill="#E2E2F0" rx="12" ry="12" style="stroke:#181818;stroke-width:0.5;"/></g><g class="participant participant-head" data-participant="TagController"><text fill="#000000" font-family="sans-serif" font-size="14" font-weight="bold" lengthAdjust="spacing" textLength="96.4414" x="413.8867" y="118.1426">:TagController</text><ellipse cx="465.1074" cy="87.6094" fill="#E2E2F0" rx="12" ry="12" style="stroke:#181818;stroke-width:0.5;"/><polygon fill="#181818" points="461.1074,75.6094,467.1074,70.6094,465.1074,75.6094,467.1074,80.6094,461.1074,75.6094" style="stroke:#181818;stroke-width:1;"/></g><g class="participant participant-head" data-participant="TagRepository"><text fill="#000000" font-family="sans-serif" font-size="14" font-weight="bold" lengthAdjust="spacing" textLength="29.5518" x="615.0596" y="118.1426">:Tag</text><ellipse cx="632.8354" cy="87.6094" fill="#E2E2F0" rx="12" ry="12" style="stroke:#181818;stroke-width:0.5;"/><line style="stroke:#181818;stroke-width:0.5;" x1="620.8354" x2="644.8354" y1="101.6094" y2="101.6094"/></g><g><title>...TagPage..</title><rect fill="#FFFFFF" height="566.0547" style="stroke:#181818;stroke-width:1;" width="10" x="216.0254" y="153.5703"/></g><g><title>...TagPage..</title><rect fill="#FFFFFF" height="28" style="stroke:#181818;stroke-width:1;" width="10" x="221.0254" y="191.9219"/></g><g><title>...TagPage..</title><rect fill="#FFFFFF" height="28" style="stroke:#181818;stroke-width:1;" width="10" x="221.0254" y="290.625"/></g><g><title>...TagPage..</title><rect fill="#FFFFFF" height="28" style="stroke:#181818;stroke-width:1;" width="10" x="221.0254" y="543.0859"/></g><g><title>...TagPage..</title><rect fill="#FFFFFF" height="28" style="stroke:#181818;stroke-width:1;" width="10" x="221.0254" y="662.625"/></g><g><title>...TagController..</title><rect fill="#FFFFFF" height="324.2969" style="stroke:#181818;stroke-width:1;" width="10" x="460.1074" y="388.3281"/></g><g><title>...Tag..</title><rect fill="#FFFFFF" height="30.3516" style="stroke:#181818;stroke-width:1;" width="10" x="627.8354" y="418.6797"/></g><g class="message" data-participant-1="User" data-participant-2="TagPage"><polygon fill="#181818" points="204.0254,149.5703,214.0254,153.5703,204.0254,157.5703,208.0254,153.5703" style="stroke:#181818;stroke-width:1;"/><line style="stroke:#181818;stroke-width:1;" x1="35.8965" x2="210.0254" y1="153.5703" y2="153.5703"/><text fill="#000000" font-family="sans-serif" font-size="13" lengthAdjust="spacing" textLength="161.1289" x="42.8965" y="148.7139">saveTag(name, description)</text></g><g class="message" data-participant-1="TagPage" data-participant-2="TagPage"><line style="stroke:#181818;stroke-width:1;" x1="231.0254" x2="273.0254" y1="183.9219" y2="183.9219"/><line style="stroke:#181818;stroke-width:1;" x1="273.0254" x2="273.0254" y1="183.9219" y2="196.9219"/><line style="stroke:#181818;stroke-width:1;" x1="232.0254" x2="273.0254" y1="196.9219" y2="196.9219"/><polygon fill="#181818" points="242.0254,192.9219,232.0254,196.9219,242.0254,200.9219,238.0254,196.9219" style="stroke:#181818;stroke-width:1;"/><text fill="#000000" font-family="sans-serif" font-size="13" lengthAdjust="spacing" textLength="116.3145" x="238.0254" y="179.0654">validateForm(name)</text></g><path d="M176.5186,241.9219 L241.7295,241.9219 L241.7295,250.2734 L231.7295,260.2734 L176.5186,260.2734 L176.5186,241.9219" fill="#EEEEEE" style="stroke:#000000;stroke-width:1.5;"/><rect fill="none" height="91.7031" style="stroke:#000000;stroke-width:1.5;" width="293.5889" x="176.5186" y="241.9219"/><text fill="#000000" font-family="sans-serif" font-size="13" font-weight="bold" lengthAdjust="spacing" textLength="20.2109" x="191.5186" y="256.417">opt</text><text fill="#000000" font-family="sans-serif" font-size="11" font-weight="bold" lengthAdjust="spacing" textLength="156.519" x="256.7295" y="255.3408">[validationStatus == "invalid"]</text><g class="message" data-participant-1="TagPage" data-participant-2="TagPage"><line style="stroke:#181818;stroke-width:1;" x1="231.0254" x2="273.0254" y1="282.625" y2="282.625"/><line style="stroke:#181818;stroke-width:1;" x1="273.0254" x2="273.0254" y1="282.625" y2="295.625"/><line style="stroke:#181818;stroke-width:1;" x1="232.0254" x2="273.0254" y1="295.625" y2="295.625"/><polygon fill="#181818" points="242.0254,291.625,232.0254,295.625,242.0254,299.625,238.0254,295.625" style="stroke:#181818;stroke-width:1;"/><text fill="#000000" font-family="sans-serif" font-size="13" lengthAdjust="spacing" textLength="210.082" x="238.0254" y="277.7686">displayError("Tag name is required")</text></g><path d="M166.5186,347.625 L226.6895,347.625 L226.6895,355.9766 L216.6895,365.9766 L166.5186,365.9766 L166.5186,347.625" fill="#EEEEEE" style="stroke:#000000;stroke-width:1.5;"/><rect fill="none" height="365" style="stroke:#000000;stroke-width:1.5;" width="494.0928" x="166.5186" y="347.625"/><text fill="#000000" font-family="sans-serif" font-size="13" font-weight="bold" lengthAdjust="spacing" textLength="15.1709" x="181.5186" y="362.1201">alt</text><text fill="#000000" font-family="sans-serif" font-size="11" font-weight="bold" lengthAdjust="spacing" textLength="146.7437" x="241.6895" y="361.0439">[validationStatus == "valid"]</text><g class="message" data-participant-1="TagPage" data-participant-2="TagController"><polygon fill="#181818" points="448.1074,384.3281,458.1074,388.3281,448.1074,392.3281,452.1074,388.3281" style="stroke:#181818;stroke-width:1;"/><line style="stroke:#181818;stroke-width:1;" x1="226.0254" x2="454.1074" y1="388.3281" y2="388.3281"/><text fill="#000000" font-family="sans-serif" font-size="13" lengthAdjust="spacing" textLength="195.8062" x="233.0254" y="383.4717">createNewTag(name, description)</text></g><g class="message" data-participant-1="TagController" data-participant-2="TagRepository"><polygon fill="#181818" points="615.8354,414.6797,625.8354,418.6797,615.8354,422.6797,619.8354,418.6797" style="stroke:#181818;stroke-width:1;"/><line style="stroke:#181818;stroke-width:1;" x1="470.1074" x2="621.8354" y1="418.6797" y2="418.6797"/><text fill="#000000" font-family="sans-serif" font-size="13" lengthAdjust="spacing" textLength="138.728" x="477.1074" y="413.8232">save(name, description)</text></g><g class="message" data-participant-1="TagRepository" data-participant-2="TagController"><polygon fill="#181818" points="481.1074,445.0313,471.1074,449.0313,481.1074,453.0313,477.1074,449.0313" style="stroke:#181818;stroke-width:1;"/><line style="stroke:#181818;stroke-width:1;stroke-dasharray:2,2;" x1="475.1074" x2="631.8354" y1="449.0313" y2="449.0313"/><text fill="#000000" font-family="sans-serif" font-size="13" lengthAdjust="spacing" textLength="64.3145" x="487.1074" y="444.1748">saveStatus</text></g><path d="M176.5186,464.0313 L236.6895,464.0313 L236.6895,472.3828 L226.6895,482.3828 L176.5186,482.3828 L176.5186,464.0313" fill="#EEEEEE" style="stroke:#000000;stroke-width:1.5;"/><rect fill="none" height="241.5938" style="stroke:#000000;stroke-width:1.5;" width="349.8096" x="176.5186" y="464.0313"/><text fill="#000000" font-family="sans-serif" font-size="13" font-weight="bold" lengthAdjust="spacing" textLength="15.1709" x="191.5186" y="478.5264">alt</text><text fill="#000000" font-family="sans-serif" font-size="11" font-weight="bold" lengthAdjust="spacing" textLength="193.2573" x="251.6895" y="477.4502">[saveStatus == "tag_already_exists"]</text><g class="message" data-participant-1="TagController" data-participant-2="TagPage"><polygon fill="#181818" points="237.0254,500.7344,227.0254,504.7344,237.0254,508.7344,233.0254,504.7344" style="stroke:#181818;stroke-width:1;"/><line style="stroke:#181818;stroke-width:1;stroke-dasharray:2,2;" x1="231.0254" x2="459.1074" y1="504.7344" y2="504.7344"/><text fill="#000000" font-family="sans-serif" font-size="13" lengthAdjust="spacing" textLength="150.8267" x="243.0254" y="499.8779">error("Tag already exists")</text></g><g class="message" data-participant-1="TagPage" data-participant-2="TagPage"><line style="stroke:#181818;stroke-width:1;" x1="231.0254" x2="273.0254" y1="535.0859" y2="535.0859"/><line style="stroke:#181818;stroke-width:1;" x1="273.0254" x2="273.0254" y1="535.0859" y2="548.0859"/><line style="stroke:#181818;stroke-width:1;" x1="232.0254" x2="273.0254" y1="548.0859" y2="548.0859"/><polygon fill="#181818" points="242.0254,544.0859,232.0254,548.0859,242.0254,552.0859,238.0254,548.0859" style="stroke:#181818;stroke-width:1;"/><text fill="#000000" font-family="sans-serif" font-size="13" lengthAdjust="spacing" textLength="192.7339" x="238.0254" y="530.2295">displayError("Tag already exists")</text></g><line style="stroke:#000000;stroke-width:1;stroke-dasharray:2,2;" x1="176.5186" x2="526.3281" y1="587.0859" y2="587.0859"/><text fill="#000000" font-family="sans-serif" font-size="11" font-weight="bold" lengthAdjust="spacing" textLength="138.2305" x="181.5186" y="598.5049">[saveStatus == "success"]</text><g class="message" data-participant-1="TagController" data-participant-2="TagPage"><polygon fill="#181818" points="237.0254,620.2734,227.0254,624.2734,237.0254,628.2734,233.0254,624.2734" style="stroke:#181818;stroke-width:1;"/><line style="stroke:#181818;stroke-width:1;stroke-dasharray:2,2;" x1="231.0254" x2="459.1074" y1="624.2734" y2="624.2734"/><text fill="#000000" font-family="sans-serif" font-size="13" lengthAdjust="spacing" textLength="56.1895" x="243.0254" y="619.417">"success"</text></g><g class="message" data-participant-1="TagPage" data-participant-2="TagPage"><line style="stroke:#181818;stroke-width:1;" x1="231.0254" x2="273.0254" y1="654.625" y2="654.625"/><line style="stroke:#181818;stroke-width:1;" x1="273.0254" x2="273.0254" y1="654.625" y2="667.625"/><line style="stroke:#181818;stroke-width:1;" x1="232.0254" x2="273.0254" y1="667.625" y2="667.625"/><polygon fill="#181818" points="242.0254,663.625,232.0254,667.625,242.0254,671.625,238.0254,667.625" style="stroke:#181818;stroke-width:1;"/><text fill="#000000" font-family="sans-serif" font-size="13" lengthAdjust="spacing" textLength="65.0254" x="238.0254" y="649.7686">reloadList()</text></g><!--SRC=[hLJDZjCm4BxxAKQvf8tO5rXfkI3WWj0AbXD2gsaycrfrxE1nbitRCqdpswHeGVHKZsU-dycNb6ZSKy2I8CjOPza3bWSyFc2XZaOJF7aV3_v5ASoZ3v1asUqtff1b2I13-rSTVEqqXgQxbC5xBAY_xqygzou6RuUET-UZ7N4MDKKkcZZ2JIrVgF9iH4QZLCiCDsy71hW5ncUIqyw9bpUWYVDWgcYysxVQpJD66lMe5Ew9qO6MkZKQsO2MOqck8F5lpKbE737MdAg1Oq5tdelqmOUouzoWqRGgfV2nng3Xkw_Y3s0wOK1NTCH5xR2bTSQY0H61hKAcN5g0JbnP8-vJ9PC3kxZxsec4kpj8ZElAYGBvROhMHb2mUH-23xj4wj0g1yCGw6Tj0kbatqslTBV53Jlaj9eyeVrNJpAvxUcgeoaluYiF9Ae-qwyh0RYqD0jRTzV3pp3F95FY-e1T0xyac4Lrk1uYDopXY44y7YZK5VRxQTgrQQmmofCYiLvBCDEvmfcWcuqzj1BFonk7bWzj_WgDkcNtqs2tzOZ58rfPgcuUwSLmv6HitzZL8cCqXQk7W1vYVudnce3-4MCpfjlE5zTacIuzSvtdn7zXzEh4sbOWwr5_4WUx_sIWVU_MFOkFg7Ii4Nu3]--></g></svg>