<svg xmlns="http://www.w3.org/2000/svg" xmlns:xlink="http://www.w3.org/1999/xlink" contentStyleType="text/css" data-diagram-type="SEQUENCE" height="754px" preserveAspectRatio="none" style="width:776px;height:754px;background:#FFFFFF;" version="1.1" viewBox="0 0 776 754" width="776px" zoomAndPan="magnify"><defs/><g><rect fill="#FFFFFF" height="733.2344" style="stroke:#181818;stroke-width:1.5;" width="765.5996" x="5" y="15"/><path d="M145.7305,15 L145.7305,25.6094 L135.7305,35.6094 L5,35.6094" fill="none" style="stroke:#181818;stroke-width:1.5;"/><text fill="#000000" font-family="sans-serif" font-size="14" font-weight="bold" lengthAdjust="spacing" textLength="16.3379" x="8" y="30.5332">sd</text><text fill="#000000" font-family="sans-serif" font-size="14" lengthAdjust="spacing" textLength="114.3926" x="24.3379" y="30.5332">TambahTagGroup</text><g><title>...TagGroupPage..</title><rect fill="#FFFFFF" height="566.0547" style="stroke:#181818;stroke-width:1;" width="10" x="252.1563" y="153.5703"/></g><g><title>...TagGroupPage..</title><rect fill="#FFFFFF" height="28" style="stroke:#181818;stroke-width:1;" width="10" x="257.1563" y="191.9219"/></g><g><title>...TagGroupPage..</title><rect fill="#FFFFFF" height="28" style="stroke:#181818;stroke-width:1;" width="10" x="257.1563" y="290.625"/></g><g><title>...TagGroupPage..</title><rect fill="#FFFFFF" height="28" style="stroke:#181818;stroke-width:1;" width="10" x="257.1563" y="543.0859"/></g><g><title>...TagGroupPage..</title><rect fill="#FFFFFF" height="28" style="stroke:#181818;stroke-width:1;" width="10" x="257.1563" y="662.625"/></g><g><title>...TagGroupController..</title><rect fill="#FFFFFF" height="324.2969" style="stroke:#181818;stroke-width:1;" width="10" x="533.0991" y="388.3281"/></g><g><title>...TagGroup..</title><rect fill="#FFFFFF" height="30.3516" style="stroke:#181818;stroke-width:1;" width="10" x="700.8271" y="418.6797"/></g><rect fill="none" height="91.7031" style="stroke:#000000;stroke-width:1.5;" width="351.4463" x="191.6528" y="241.9219"/><rect fill="none" height="365" style="stroke:#000000;stroke-width:1.5;" width="572.9468" x="181.6528" y="347.625"/><rect fill="none" height="241.5938" style="stroke:#000000;stroke-width:1.5;" width="428.6636" x="191.6528" y="464.0313"/><g><title>...User..</title><rect fill="#000000" fill-opacity="0.00000" height="608.4063" width="8" x="31.8965" y="121.2188"/><line style="stroke:#181818;stroke-width:0.5;stroke-dasharray:5,5;" x1="35" x2="35" y1="121.2188" y2="729.625"/></g><g><title>...TagGroupPage..</title><rect fill="#000000" fill-opacity="0.00000" height="608.4063" width="8" x="253.1563" y="121.2188"/><line style="stroke:#181818;stroke-width:0.5;stroke-dasharray:5,5;" x1="256.6528" x2="256.6528" y1="121.2188" y2="729.625"/></g><g><title>...TagGroupController..</title><rect fill="#000000" fill-opacity="0.00000" height="608.4063" width="8" x="534.0991" y="121.2188"/><line style="stroke:#181818;stroke-width:0.5;stroke-dasharray:5,5;" x1="537.8818" x2="537.8818" y1="121.2188" y2="729.625"/></g><g><title>...TagGroup..</title><rect fill="#000000" fill-opacity="0.00000" height="608.4063" width="8" x="701.8271" y="121.2188"/><line style="stroke:#181818;stroke-width:0.5;stroke-dasharray:5,5;" x1="705.0547" x2="705.0547" y1="121.2188" y2="729.625"/></g><g class="participant participant-head" data-participant="User"><text fill="#000000" font-family="sans-serif" font-size="14" font-weight="bold" lengthAdjust="spacing" textLength="35.793" x="15" y="118.1426">:User</text><ellipse cx="35.8965" cy="52.1094" fill="#E2E2F0" rx="8" ry="8" style="stroke:#181818;stroke-width:0.5;"/><path d="M35.8965,60.1094 L35.8965,87.1094 M22.8965,68.1094 L48.8965,68.1094 M35.8965,87.1094 L22.8965,102.1094 M35.8965,87.1094 L48.8965,102.1094" fill="none" style="stroke:#181818;stroke-width:0.5;"/></g><g class="participant participant-head" data-participant="TagGroupPage"><text fill="#000000" font-family="sans-serif" font-size="14" font-weight="bold" lengthAdjust="spacing" textLength="105.0068" x="201.6528" y="118.1426">:TagGroupPage</text><path d="M236.6563,75.6094 L236.6563,99.6094 M236.6563,87.6094 L253.6563,87.6094" fill="none" style="stroke:#181818;stroke-width:0.5;"/><ellipse cx="265.6563" cy="87.6094" fill="#E2E2F0" rx="12" ry="12" style="stroke:#181818;stroke-width:0.5;"/></g><g class="participant participant-head" data-participant="TagGroupController"><text fill="#000000" font-family="sans-serif" font-size="14" font-weight="bold" lengthAdjust="spacing" textLength="138.4346" x="465.8818" y="118.1426">:TagGroupController</text><ellipse cx="538.0991" cy="87.6094" fill="#E2E2F0" rx="12" ry="12" style="stroke:#181818;stroke-width:0.5;"/><polygon fill="#181818" points="534.0991,75.6094,540.0991,70.6094,538.0991,75.6094,540.0991,80.6094,534.0991,75.6094" style="stroke:#181818;stroke-width:1;"/></g><g class="participant participant-head" data-participant="TagGroupRepository"><text fill="#000000" font-family="sans-serif" font-size="14" font-weight="bold" lengthAdjust="spacing" textLength="71.5449" x="667.0547" y="118.1426">:TagGroup</text><ellipse cx="705.8271" cy="87.6094" fill="#E2E2F0" rx="12" ry="12" style="stroke:#181818;stroke-width:0.5;"/><line style="stroke:#181818;stroke-width:0.5;" x1="693.8271" x2="717.8271" y1="101.6094" y2="101.6094"/></g><g><title>...TagGroupPage..</title><rect fill="#FFFFFF" height="566.0547" style="stroke:#181818;stroke-width:1;" width="10" x="252.1563" y="153.5703"/></g><g><title>...TagGroupPage..</title><rect fill="#FFFFFF" height="28" style="stroke:#181818;stroke-width:1;" width="10" x="257.1563" y="191.9219"/></g><g><title>...TagGroupPage..</title><rect fill="#FFFFFF" height="28" style="stroke:#181818;stroke-width:1;" width="10" x="257.1563" y="290.625"/></g><g><title>...TagGroupPage..</title><rect fill="#FFFFFF" height="28" style="stroke:#181818;stroke-width:1;" width="10" x="257.1563" y="543.0859"/></g><g><title>...TagGroupPage..</title><rect fill="#FFFFFF" height="28" style="stroke:#181818;stroke-width:1;" width="10" x="257.1563" y="662.625"/></g><g><title>...TagGroupController..</title><rect fill="#FFFFFF" height="324.2969" style="stroke:#181818;stroke-width:1;" width="10" x="533.0991" y="388.3281"/></g><g><title>...TagGroup..</title><rect fill="#FFFFFF" height="30.3516" style="stroke:#181818;stroke-width:1;" width="10" x="700.8271" y="418.6797"/></g><g class="message" data-participant-1="User" data-participant-2="TagGroupPage"><polygon fill="#181818" points="240.1563,149.5703,250.1563,153.5703,240.1563,157.5703,244.1563,153.5703" style="stroke:#181818;stroke-width:1;"/><line style="stroke:#181818;stroke-width:1;" x1="35.8965" x2="246.1563" y1="153.5703" y2="153.5703"/><text fill="#000000" font-family="sans-serif" font-size="13" lengthAdjust="spacing" textLength="197.2598" x="42.8965" y="148.7139">saveTagGroup(name, description)</text></g><g class="message" data-participant-1="TagGroupPage" data-participant-2="TagGroupPage"><line style="stroke:#181818;stroke-width:1;" x1="267.1563" x2="309.1563" y1="183.9219" y2="183.9219"/><line style="stroke:#181818;stroke-width:1;" x1="309.1563" x2="309.1563" y1="183.9219" y2="196.9219"/><line style="stroke:#181818;stroke-width:1;" x1="268.1563" x2="309.1563" y1="196.9219" y2="196.9219"/><polygon fill="#181818" points="278.1563,192.9219,268.1563,196.9219,278.1563,200.9219,274.1563,196.9219" style="stroke:#181818;stroke-width:1;"/><text fill="#000000" font-family="sans-serif" font-size="13" lengthAdjust="spacing" textLength="116.3145" x="274.1563" y="179.0654">validateForm(name)</text></g><path d="M191.6528,241.9219 L256.8638,241.9219 L256.8638,250.2734 L246.8638,260.2734 L191.6528,260.2734 L191.6528,241.9219" fill="#EEEEEE" style="stroke:#000000;stroke-width:1.5;"/><rect fill="none" height="91.7031" style="stroke:#000000;stroke-width:1.5;" width="351.4463" x="191.6528" y="241.9219"/><text fill="#000000" font-family="sans-serif" font-size="13" font-weight="bold" lengthAdjust="spacing" textLength="20.2109" x="206.6528" y="256.417">opt</text><text fill="#000000" font-family="sans-serif" font-size="11" font-weight="bold" lengthAdjust="spacing" textLength="156.519" x="271.8638" y="255.3408">[validationStatus == "invalid"]</text><g class="message" data-participant-1="TagGroupPage" data-participant-2="TagGroupPage"><line style="stroke:#181818;stroke-width:1;" x1="267.1563" x2="309.1563" y1="282.625" y2="282.625"/><line style="stroke:#181818;stroke-width:1;" x1="309.1563" x2="309.1563" y1="282.625" y2="295.625"/><line style="stroke:#181818;stroke-width:1;" x1="268.1563" x2="309.1563" y1="295.625" y2="295.625"/><polygon fill="#181818" points="278.1563,291.625,268.1563,295.625,278.1563,299.625,274.1563,295.625" style="stroke:#181818;stroke-width:1;"/><text fill="#000000" font-family="sans-serif" font-size="13" lengthAdjust="spacing" textLength="246.9429" x="274.1563" y="277.7686">displayError("Tag group name is required")</text></g><path d="M181.6528,347.625 L241.8237,347.625 L241.8237,355.9766 L231.8237,365.9766 L181.6528,365.9766 L181.6528,347.625" fill="#EEEEEE" style="stroke:#000000;stroke-width:1.5;"/><rect fill="none" height="365" style="stroke:#000000;stroke-width:1.5;" width="572.9468" x="181.6528" y="347.625"/><text fill="#000000" font-family="sans-serif" font-size="13" font-weight="bold" lengthAdjust="spacing" textLength="15.1709" x="196.6528" y="362.1201">alt</text><text fill="#000000" font-family="sans-serif" font-size="11" font-weight="bold" lengthAdjust="spacing" textLength="146.7437" x="256.8237" y="361.0439">[validationStatus == "valid"]</text><g class="message" data-participant-1="TagGroupPage" data-participant-2="TagGroupController"><polygon fill="#181818" points="521.0991,384.3281,531.0991,388.3281,521.0991,392.3281,525.0991,388.3281" style="stroke:#181818;stroke-width:1;"/><line style="stroke:#181818;stroke-width:1;" x1="262.1563" x2="527.0991" y1="388.3281" y2="388.3281"/><text fill="#000000" font-family="sans-serif" font-size="13" lengthAdjust="spacing" textLength="231.937" x="269.1563" y="383.4717">createNewTagGroup(name, description)</text></g><g class="message" data-participant-1="TagGroupController" data-participant-2="TagGroupRepository"><polygon fill="#181818" points="688.8271,414.6797,698.8271,418.6797,688.8271,422.6797,692.8271,418.6797" style="stroke:#181818;stroke-width:1;"/><line style="stroke:#181818;stroke-width:1;" x1="543.0991" x2="694.8271" y1="418.6797" y2="418.6797"/><text fill="#000000" font-family="sans-serif" font-size="13" lengthAdjust="spacing" textLength="138.728" x="550.0991" y="413.8232">save(name, description)</text></g><g class="message" data-participant-1="TagGroupRepository" data-participant-2="TagGroupController"><polygon fill="#181818" points="554.0991,445.0313,544.0991,449.0313,554.0991,453.0313,550.0991,449.0313" style="stroke:#181818;stroke-width:1;"/><line style="stroke:#181818;stroke-width:1;stroke-dasharray:2,2;" x1="548.0991" x2="704.8271" y1="449.0313" y2="449.0313"/><text fill="#000000" font-family="sans-serif" font-size="13" lengthAdjust="spacing" textLength="64.3145" x="560.0991" y="444.1748">saveStatus</text></g><path d="M191.6528,464.0313 L251.8237,464.0313 L251.8237,472.3828 L241.8237,482.3828 L191.6528,482.3828 L191.6528,464.0313" fill="#EEEEEE" style="stroke:#000000;stroke-width:1.5;"/><rect fill="none" height="241.5938" style="stroke:#000000;stroke-width:1.5;" width="428.6636" x="191.6528" y="464.0313"/><text fill="#000000" font-family="sans-serif" font-size="13" font-weight="bold" lengthAdjust="spacing" textLength="15.1709" x="206.6528" y="478.5264">alt</text><text fill="#000000" font-family="sans-serif" font-size="11" font-weight="bold" lengthAdjust="spacing" textLength="230.5327" x="266.8237" y="477.4502">[saveStatus == "tag_group_already_exists"]</text><g class="message" data-participant-1="TagGroupController" data-participant-2="TagGroupPage"><polygon fill="#181818" points="273.1563,500.7344,263.1563,504.7344,273.1563,508.7344,269.1563,504.7344" style="stroke:#181818;stroke-width:1;"/><line style="stroke:#181818;stroke-width:1;stroke-dasharray:2,2;" x1="267.1563" x2="532.0991" y1="504.7344" y2="504.7344"/><text fill="#000000" font-family="sans-serif" font-size="13" lengthAdjust="spacing" textLength="187.6875" x="279.1563" y="499.8779">error("Tag group already exists")</text></g><g class="message" data-participant-1="TagGroupPage" data-participant-2="TagGroupPage"><line style="stroke:#181818;stroke-width:1;" x1="267.1563" x2="309.1563" y1="535.0859" y2="535.0859"/><line style="stroke:#181818;stroke-width:1;" x1="309.1563" x2="309.1563" y1="535.0859" y2="548.0859"/><line style="stroke:#181818;stroke-width:1;" x1="268.1563" x2="309.1563" y1="548.0859" y2="548.0859"/><polygon fill="#181818" points="278.1563,544.0859,268.1563,548.0859,278.1563,552.0859,274.1563,548.0859" style="stroke:#181818;stroke-width:1;"/><text fill="#000000" font-family="sans-serif" font-size="13" lengthAdjust="spacing" textLength="229.5947" x="274.1563" y="530.2295">displayError("Tag group already exists")</text></g><line style="stroke:#000000;stroke-width:1;stroke-dasharray:2,2;" x1="191.6528" x2="620.3164" y1="587.0859" y2="587.0859"/><text fill="#000000" font-family="sans-serif" font-size="11" font-weight="bold" lengthAdjust="spacing" textLength="138.2305" x="196.6528" y="598.5049">[saveStatus == "success"]</text><g class="message" data-participant-1="TagGroupController" data-participant-2="TagGroupPage"><polygon fill="#181818" points="273.1563,620.2734,263.1563,624.2734,273.1563,628.2734,269.1563,624.2734" style="stroke:#181818;stroke-width:1;"/><line style="stroke:#181818;stroke-width:1;stroke-dasharray:2,2;" x1="267.1563" x2="532.0991" y1="624.2734" y2="624.2734"/><text fill="#000000" font-family="sans-serif" font-size="13" lengthAdjust="spacing" textLength="56.1895" x="279.1563" y="619.417">"success"</text></g><g class="message" data-participant-1="TagGroupPage" data-participant-2="TagGroupPage"><line style="stroke:#181818;stroke-width:1;" x1="267.1563" x2="309.1563" y1="654.625" y2="654.625"/><line style="stroke:#181818;stroke-width:1;" x1="309.1563" x2="309.1563" y1="654.625" y2="667.625"/><line style="stroke:#181818;stroke-width:1;" x1="268.1563" x2="309.1563" y1="667.625" y2="667.625"/><polygon fill="#181818" points="278.1563,663.625,268.1563,667.625,278.1563,671.625,274.1563,667.625" style="stroke:#181818;stroke-width:1;"/><text fill="#000000" font-family="sans-serif" font-size="13" lengthAdjust="spacing" textLength="65.0254" x="274.1563" y="649.7686">reloadList()</text></g><!--SRC=[hLNBRjim4BppAnQwo1QQ7mYGNeesbw88slHK5CPQtCY49LBb8ut-lalQiYHRSjgWEadSrypiq6vGwIUB3K5HE5aKZzXiSVU8rRqreHKx9GcUZF5Ryo84bjvOo8hYzhiZMnGPe8FuAhOcQ8csIy6- -W4hEYQDZqHfjBUcdkH-E9pLfxQN0K7QApyTSPRybLhZ58FiX8YuuERzP3JSWiDdwezMcec_0qckjAhrokXrvAYUqTCKiiZXWHnga1oibKIdGF9dGxeYLgnMU_vo7drmkPYCl8HmwE3fax5DWh0qLTByUGxt0Qs47wRrFy7H7YtgAe6fWiO8HQiQ5J0mZAWTbPm2j7TjhLYWN71bZuDfVql0uUuECgNJSIQ0drU8ICNziFjehR6hZ8DGnIX4Jg0SMFeLb2MPhLEtUJ8niaIKj1G3MwpVofOhvzd-1TV1WCoujCGWlz3lQnQQvJhoSKeOZnoD60qUp7oqxTAisNcZgz3dz1xkTTgXPHcsP4EBHmcxgAp45ZqlbrYTm4xFBm2FeDqiIHKH7vG-bS-iUNnZ1vo7XREzo0LCLoje7_RWUuiDaE9gXr5fgPorILaRh7bVijlGYtBUPQUY9V4lBKxdtZwsX6FBzMpFVxmlLtiktvehiavog7Pqhf4BPKdkJP9ShrsWRgasA3yplzL_fnT_91OI9_yUdBRGwmy0]--></g></svg>