<svg xmlns="http://www.w3.org/2000/svg" xmlns:xlink="http://www.w3.org/1999/xlink" contentStyleType="text/css" data-diagram-type="SEQUENCE" height="825px" preserveAspectRatio="none" style="width:677px;height:825px;background:#FFFFFF;" version="1.1" viewBox="0 0 677 825" width="677px" zoomAndPan="magnify"><defs/><g><rect fill="#FFFFFF" height="804.5859" style="stroke:#181818;stroke-width:1.5;" width="666.2373" x="5" y="15"/><path d="M102.7598,15 L102.7598,25.6094 L92.7598,35.6094 L5,35.6094" fill="none" style="stroke:#181818;stroke-width:1.5;"/><text fill="#000000" font-family="sans-serif" font-size="14" lengthAdjust="spacing" textLength="4.9697" x="8" y="30.5332">"</text><text fill="#000000" font-family="sans-serif" font-size="14" font-weight="bold" lengthAdjust="spacing" textLength="16.3379" x="12.9697" y="30.5332">sd</text><text fill="#000000" font-family="sans-serif" font-size="14" lengthAdjust="spacing" textLength="62.5625" x="33.1973" y="30.5332">UbahTag"</text><g><title>... TagPage..</title><rect fill="#FFFFFF" height="638.4063" style="stroke:#181818;stroke-width:1;" width="10" x="239.6011" y="153.5703"/></g><g><title>... TagPage..</title><rect fill="#FFFFFF" height="28" style="stroke:#181818;stroke-width:1;" width="10" x="244.6011" y="191.9219"/></g><g><title>... TagPage..</title><rect fill="#FFFFFF" height="28" style="stroke:#181818;stroke-width:1;" width="10" x="244.6011" y="295.625"/></g><g><title>... TagPage..</title><rect fill="#FFFFFF" height="28" style="stroke:#181818;stroke-width:1;" width="10" x="244.6011" y="394.3281"/></g><g><title>... TagPage..</title><rect fill="#FFFFFF" height="28" style="stroke:#181818;stroke-width:1;" width="10" x="244.6011" y="621.4375"/></g><g><title>... TagPage..</title><rect fill="#FFFFFF" height="28" style="stroke:#181818;stroke-width:1;" width="10" x="244.6011" y="740.9766"/></g><g><title>... TagController..</title><rect fill="#FFFFFF" height="235.9453" style="stroke:#181818;stroke-width:1;" width="10" x="468.4932" y="466.6797"/></g><g><title>... Tag..</title><rect fill="#FFFFFF" height="30.3516" style="stroke:#181818;stroke-width:1;" width="10" x="635.5166" y="497.0313"/></g><rect fill="none" height="91.7031" style="stroke:#000000;stroke-width:1.5;" width="261.561" x="198.1494" y="345.625"/><rect fill="none" height="241.5938" style="stroke:#000000;stroke-width:1.5;" width="338.5093" x="198.1494" y="542.3828"/><g><title>... User..</title><rect fill="#000000" fill-opacity="0.00000" height="679.7578" width="8" x="33.8413" y="121.2188"/><line style="stroke:#181818;stroke-width:0.5;stroke-dasharray:5,5;" x1="37" x2="37" y1="121.2188" y2="800.9766"/></g><g><title>... TagPage..</title><rect fill="#000000" fill-opacity="0.00000" height="679.7578" width="8" x="240.6011" y="121.2188"/><line style="stroke:#181818;stroke-width:0.5;stroke-dasharray:5,5;" x1="244.1494" x2="244.1494" y1="121.2188" y2="800.9766"/></g><g><title>... TagController..</title><rect fill="#000000" fill-opacity="0.00000" height="679.7578" width="8" x="469.4932" y="121.2188"/><line style="stroke:#181818;stroke-width:0.5;stroke-dasharray:5,5;" x1="473.3276" x2="473.3276" y1="121.2188" y2="800.9766"/></g><g><title>... Tag..</title><rect fill="#000000" fill-opacity="0.00000" height="679.7578" width="8" x="636.5166" y="121.2188"/><line style="stroke:#181818;stroke-width:0.5;stroke-dasharray:5,5;" x1="639.7959" x2="639.7959" y1="121.2188" y2="800.9766"/></g><g class="participant participant-head" data-participant="User"><text fill="#000000" font-family="sans-serif" font-size="14" font-weight="bold" lengthAdjust="spacing" textLength="39.6826" x="15" y="118.1426">: User</text><ellipse cx="37.8413" cy="52.1094" fill="#E2E2F0" rx="8" ry="8" style="stroke:#181818;stroke-width:0.5;"/><path d="M37.8413,60.1094 L37.8413,87.1094 M24.8413,68.1094 L50.8413,68.1094 M37.8413,87.1094 L24.8413,102.1094 M37.8413,87.1094 L50.8413,102.1094" fill="none" style="stroke:#181818;stroke-width:0.5;"/></g><g class="participant participant-head" data-participant="TagDetailPage"><text fill="#000000" font-family="sans-serif" font-size="14" font-weight="bold" lengthAdjust="spacing" textLength="66.9033" x="208.1494" y="118.1426">: TagPage</text><path d="M224.1011,75.6094 L224.1011,99.6094 M224.1011,87.6094 L241.1011,87.6094" fill="none" style="stroke:#181818;stroke-width:0.5;"/><ellipse cx="253.1011" cy="87.6094" fill="#E2E2F0" rx="12" ry="12" style="stroke:#181818;stroke-width:0.5;"/></g><g class="participant participant-head" data-participant="TagController"><text fill="#000000" font-family="sans-serif" font-size="14" font-weight="bold" lengthAdjust="spacing" textLength="100.3311" x="420.3276" y="118.1426">: TagController</text><ellipse cx="473.4932" cy="87.6094" fill="#E2E2F0" rx="12" ry="12" style="stroke:#181818;stroke-width:0.5;"/><polygon fill="#181818" points="469.4932,75.6094,475.4932,70.6094,473.4932,75.6094,475.4932,80.6094,469.4932,75.6094" style="stroke:#181818;stroke-width:1;"/></g><g class="participant participant-head" data-participant="TagRepository"><text fill="#000000" font-family="sans-serif" font-size="14" font-weight="bold" lengthAdjust="spacing" textLength="33.4414" x="620.7959" y="118.1426">: Tag</text><ellipse cx="640.5166" cy="87.6094" fill="#E2E2F0" rx="12" ry="12" style="stroke:#181818;stroke-width:0.5;"/><line style="stroke:#181818;stroke-width:0.5;" x1="628.5166" x2="652.5166" y1="101.6094" y2="101.6094"/></g><g><title>... TagPage..</title><rect fill="#FFFFFF" height="638.4063" style="stroke:#181818;stroke-width:1;" width="10" x="239.6011" y="153.5703"/></g><g><title>... TagPage..</title><rect fill="#FFFFFF" height="28" style="stroke:#181818;stroke-width:1;" width="10" x="244.6011" y="191.9219"/></g><g><title>... TagPage..</title><rect fill="#FFFFFF" height="28" style="stroke:#181818;stroke-width:1;" width="10" x="244.6011" y="295.625"/></g><g><title>... TagPage..</title><rect fill="#FFFFFF" height="28" style="stroke:#181818;stroke-width:1;" width="10" x="244.6011" y="394.3281"/></g><g><title>... TagPage..</title><rect fill="#FFFFFF" height="28" style="stroke:#181818;stroke-width:1;" width="10" x="244.6011" y="621.4375"/></g><g><title>... TagPage..</title><rect fill="#FFFFFF" height="28" style="stroke:#181818;stroke-width:1;" width="10" x="244.6011" y="740.9766"/></g><g><title>... TagController..</title><rect fill="#FFFFFF" height="235.9453" style="stroke:#181818;stroke-width:1;" width="10" x="468.4932" y="466.6797"/></g><g><title>... Tag..</title><rect fill="#FFFFFF" height="30.3516" style="stroke:#181818;stroke-width:1;" width="10" x="635.5166" y="497.0313"/></g><g class="message" data-participant-1="User" data-participant-2="TagDetailPage"><polygon fill="#181818" points="227.6011,149.5703,237.6011,153.5703,227.6011,157.5703,231.6011,153.5703" style="stroke:#181818;stroke-width:1;"/><line style="stroke:#181818;stroke-width:1;" x1="37.8413" x2="233.6011" y1="153.5703" y2="153.5703"/><text fill="#000000" font-family="sans-serif" font-size="13" lengthAdjust="spacing" textLength="56.3354" x="44.8413" y="148.7139">clickEdit()</text></g><g class="message" data-participant-1="TagDetailPage" data-participant-2="TagDetailPage"><line style="stroke:#181818;stroke-width:1;" x1="254.6011" x2="296.6011" y1="183.9219" y2="183.9219"/><line style="stroke:#181818;stroke-width:1;" x1="296.6011" x2="296.6011" y1="183.9219" y2="196.9219"/><line style="stroke:#181818;stroke-width:1;" x1="255.6011" x2="296.6011" y1="196.9219" y2="196.9219"/><polygon fill="#181818" points="265.6011,192.9219,255.6011,196.9219,265.6011,200.9219,261.6011,196.9219" style="stroke:#181818;stroke-width:1;"/><text fill="#000000" font-family="sans-serif" font-size="13" lengthAdjust="spacing" textLength="101.8545" x="261.6011" y="179.0654">displayEditForm()</text></g><g class="message" data-participant-1="User" data-participant-2="TagDetailPage"><polygon fill="#181818" points="227.6011,253.2734,237.6011,257.2734,227.6011,261.2734,231.6011,257.2734" style="stroke:#181818;stroke-width:1;"/><line style="stroke:#181818;stroke-width:1;" x1="37.8413" x2="233.6011" y1="257.2734" y2="257.2734"/><text fill="#000000" font-family="sans-serif" font-size="13" lengthAdjust="spacing" textLength="177.7598" x="44.8413" y="252.417">saveChanges(tagID, newData)</text></g><g class="message" data-participant-1="TagDetailPage" data-participant-2="TagDetailPage"><line style="stroke:#181818;stroke-width:1;" x1="254.6011" x2="296.6011" y1="287.625" y2="287.625"/><line style="stroke:#181818;stroke-width:1;" x1="296.6011" x2="296.6011" y1="287.625" y2="300.625"/><line style="stroke:#181818;stroke-width:1;" x1="255.6011" x2="296.6011" y1="300.625" y2="300.625"/><polygon fill="#181818" points="265.6011,296.625,255.6011,300.625,265.6011,304.625,261.6011,300.625" style="stroke:#181818;stroke-width:1;"/><text fill="#000000" font-family="sans-serif" font-size="13" lengthAdjust="spacing" textLength="171.2344" x="261.6011" y="282.7686">validateForm(newData.name)</text></g><path d="M198.1494,345.625 L263.3604,345.625 L263.3604,353.9766 L253.3604,363.9766 L198.1494,363.9766 L198.1494,345.625" fill="#EEEEEE" style="stroke:#000000;stroke-width:1.5;"/><rect fill="none" height="91.7031" style="stroke:#000000;stroke-width:1.5;" width="261.561" x="198.1494" y="345.625"/><text fill="#000000" font-family="sans-serif" font-size="13" font-weight="bold" lengthAdjust="spacing" textLength="20.2109" x="213.1494" y="360.1201">opt</text><text fill="#000000" font-family="sans-serif" font-size="11" font-weight="bold" lengthAdjust="spacing" textLength="69.6685" x="278.3604" y="359.0439">[form invalid]</text><g class="message" data-participant-1="TagDetailPage" data-participant-2="TagDetailPage"><line style="stroke:#181818;stroke-width:1;" x1="254.6011" x2="296.6011" y1="386.3281" y2="386.3281"/><line style="stroke:#181818;stroke-width:1;" x1="296.6011" x2="296.6011" y1="386.3281" y2="399.3281"/><line style="stroke:#181818;stroke-width:1;" x1="255.6011" x2="296.6011" y1="399.3281" y2="399.3281"/><polygon fill="#181818" points="265.6011,395.3281,255.6011,399.3281,265.6011,403.3281,261.6011,399.3281" style="stroke:#181818;stroke-width:1;"/><text fill="#000000" font-family="sans-serif" font-size="13" lengthAdjust="spacing" textLength="176.1094" x="261.6011" y="381.4717">showError("Name is required")</text></g><g class="message" data-participant-1="TagDetailPage" data-participant-2="TagController"><polygon fill="#181818" points="456.4932,462.6797,466.4932,466.6797,456.4932,470.6797,460.4932,466.6797" style="stroke:#181818;stroke-width:1;"/><line style="stroke:#181818;stroke-width:1;" x1="249.6011" x2="462.4932" y1="466.6797" y2="466.6797"/><text fill="#000000" font-family="sans-serif" font-size="13" lengthAdjust="spacing" textLength="160.4243" x="256.6011" y="461.8232">updateTag(tagID, newData)</text></g><g class="message" data-participant-1="TagController" data-participant-2="TagRepository"><polygon fill="#181818" points="623.5166,493.0313,633.5166,497.0313,623.5166,501.0313,627.5166,497.0313" style="stroke:#181818;stroke-width:1;"/><line style="stroke:#181818;stroke-width:1;" x1="478.4932" x2="629.5166" y1="497.0313" y2="497.0313"/><text fill="#000000" font-family="sans-serif" font-size="13" lengthAdjust="spacing" textLength="138.0234" x="485.4932" y="492.1748">update(tagID, newData)</text></g><g class="message" data-participant-1="TagRepository" data-participant-2="TagController"><polygon fill="#181818" points="489.4932,523.3828,479.4932,527.3828,489.4932,531.3828,485.4932,527.3828" style="stroke:#181818;stroke-width:1;"/><line style="stroke:#181818;stroke-width:1;stroke-dasharray:2,2;" x1="483.4932" x2="639.5166" y1="527.3828" y2="527.3828"/><text fill="#000000" font-family="sans-serif" font-size="13" lengthAdjust="spacing" textLength="76.6162" x="495.4932" y="522.5264">updateStatus</text></g><path d="M198.1494,542.3828 L258.3203,542.3828 L258.3203,550.7344 L248.3203,560.7344 L198.1494,560.7344 L198.1494,542.3828" fill="#EEEEEE" style="stroke:#000000;stroke-width:1.5;"/><rect fill="none" height="241.5938" style="stroke:#000000;stroke-width:1.5;" width="338.5093" x="198.1494" y="542.3828"/><text fill="#000000" font-family="sans-serif" font-size="13" font-weight="bold" lengthAdjust="spacing" textLength="15.1709" x="213.1494" y="556.8779">alt</text><text fill="#000000" font-family="sans-serif" font-size="11" font-weight="bold" lengthAdjust="spacing" textLength="111.8906" x="273.3203" y="555.8018">[name already exists]</text><g class="message" data-participant-1="TagController" data-participant-2="TagDetailPage"><polygon fill="#181818" points="260.6011,579.0859,250.6011,583.0859,260.6011,587.0859,256.6011,583.0859" style="stroke:#181818;stroke-width:1;"/><line style="stroke:#181818;stroke-width:1;stroke-dasharray:2,2;" x1="254.6011" x2="467.4932" y1="583.0859" y2="583.0859"/><text fill="#000000" font-family="sans-serif" font-size="13" lengthAdjust="spacing" textLength="158.0566" x="266.6011" y="578.2295">error "Name already exists"</text></g><g class="message" data-participant-1="TagDetailPage" data-participant-2="TagDetailPage"><line style="stroke:#181818;stroke-width:1;" x1="254.6011" x2="296.6011" y1="613.4375" y2="613.4375"/><line style="stroke:#181818;stroke-width:1;" x1="296.6011" x2="296.6011" y1="613.4375" y2="626.4375"/><line style="stroke:#181818;stroke-width:1;" x1="255.6011" x2="296.6011" y1="626.4375" y2="626.4375"/><polygon fill="#181818" points="265.6011,622.4375,255.6011,626.4375,265.6011,630.4375,261.6011,626.4375" style="stroke:#181818;stroke-width:1;"/><text fill="#000000" font-family="sans-serif" font-size="13" lengthAdjust="spacing" textLength="194.8921" x="261.6011" y="608.5811">showError("Name already exists")</text></g><line style="stroke:#000000;stroke-width:1;stroke-dasharray:2,2;" x1="198.1494" x2="536.6587" y1="665.4375" y2="665.4375"/><text fill="#000000" font-family="sans-serif" font-size="11" font-weight="bold" lengthAdjust="spacing" textLength="103.3022" x="203.1494" y="676.8564">[update successful]</text><g class="message" data-participant-1="TagController" data-participant-2="TagDetailPage"><polygon fill="#181818" points="260.6011,698.625,250.6011,702.625,260.6011,706.625,256.6011,702.625" style="stroke:#181818;stroke-width:1;"/><line style="stroke:#181818;stroke-width:1;stroke-dasharray:2,2;" x1="254.6011" x2="472.4932" y1="702.625" y2="702.625"/><text fill="#000000" font-family="sans-serif" font-size="13" lengthAdjust="spacing" textLength="96.8525" x="266.6011" y="697.7686">updatedTagData</text></g><g class="message" data-participant-1="TagDetailPage" data-participant-2="TagDetailPage"><line style="stroke:#181818;stroke-width:1;" x1="254.6011" x2="296.6011" y1="732.9766" y2="732.9766"/><line style="stroke:#181818;stroke-width:1;" x1="296.6011" x2="296.6011" y1="732.9766" y2="745.9766"/><line style="stroke:#181818;stroke-width:1;" x1="255.6011" x2="296.6011" y1="745.9766" y2="745.9766"/><polygon fill="#181818" points="265.6011,741.9766,255.6011,745.9766,265.6011,749.9766,261.6011,745.9766" style="stroke:#181818;stroke-width:1;"/><text fill="#000000" font-family="sans-serif" font-size="13" lengthAdjust="spacing" textLength="103.3335" x="261.6011" y="728.1201">reloadDetail(data)</text></g><!--SRC=[fL91KiCm3Bpx5PgSqWpb0JrmQM662yC0VO0Qgwa7nmwsqpQ_nqvAchG9P8fFjYojLjhDKQYjmPmWIXBBamJM6znzO1OnjXESOAkrs-WZOvWwRKBM0jQMJ994WBQ-ieqk5KTJDR- - -1KpEYNurueS2XbYBDNA6ItRn6NpbYrUByP8EU4gQDFFIMzKQ2iyeugnm07c3_rMi81KYlJpaGiNpm9xiKT75tnOlsO0X0jRIAm2p9Cs-JWKfx4UO_mixccvGvMHZHrcpwixK7HOeSFP169xb8BxRZMhKzszyahUm50NpWjjSX2gXcNWpvyCx4uV7etH9evUWeE41KDVfJ34eraDCT8lV8sI8SM7fp_xmlSkYp2xZrvjhWlRiHBh8pIGPnUraB_YTLpNhvwFKdntw4fxiVkkUr4w2B81IaF8Aw2ZiCx-ID3bFA01XVr3i_y-G7IRY1SW_z1HMZhj06oPfcJjjfGJnshgU0Xx4GOQTPITDAOXgP4tePZNmauVxDgXtm00]--></g></svg>