<svg xmlns="http://www.w3.org/2000/svg" xmlns:xlink="http://www.w3.org/1999/xlink" contentStyleType="text/css" data-diagram-type="SEQUENCE" height="840px" preserveAspectRatio="none" style="width:842px;height:840px;background:#FFFFFF;" version="1.1" viewBox="0 0 842 840" width="842px" zoomAndPan="magnify"><defs/><g><rect fill="#FFFFFF" height="819.6406" style="stroke:#181818;stroke-width:1.5;" width="831.855" x="5" y="15"/><path d="M136.2148,15 L136.2148,25.6094 L126.2148,35.6094 L5,35.6094" fill="none" style="stroke:#181818;stroke-width:1.5;"/><text fill="#000000" font-family="sans-serif" font-size="14" lengthAdjust="spacing" textLength="4.9697" x="8" y="30.5332">"</text><text fill="#000000" font-family="sans-serif" font-size="14" font-weight="bold" lengthAdjust="spacing" textLength="16.3379" x="12.9697" y="30.5332">sd</text><text fill="#000000" font-family="sans-serif" font-size="14" lengthAdjust="spacing" textLength="96.0176" x="33.1973" y="30.5332">Edit TagGroup"</text><g><title>... TagGroup Page..</title><rect fill="#FFFFFF" height="290.1094" style="stroke:#181818;stroke-width:1;" width="10" x="290.7319" y="153.5703"/></g><g><title>... TagGroup Page..</title><rect fill="#FFFFFF" height="28" style="stroke:#181818;stroke-width:1;" width="10" x="295.7319" y="191.9219"/></g><g><title>... TagGroup Page..</title><rect fill="#FFFFFF" height="172.4063" style="stroke:#181818;stroke-width:1;" width="10" x="295.7319" y="257.2734"/></g><g><title>... TagGroup Page..</title><rect fill="#FFFFFF" height="28" style="stroke:#181818;stroke-width:1;" width="10" x="300.7319" y="295.625"/></g><g><title>... TagGroup Controller..</title><rect fill="#FFFFFF" height="116.4063" style="stroke:#181818;stroke-width:1;" width="10" x="547.418" y="481.0313"/></g><g><title>... TagGroup..</title><rect fill="#FFFFFF" height="30.3516" style="stroke:#181818;stroke-width:1;" width="10" x="780.1377" y="511.3828"/></g><rect fill="none" height="106.0547" style="stroke:#000000;stroke-width:1.5;" width="505.9595" x="20" y="345.625"/><rect fill="none" height="242.2969" style="stroke:#000000;stroke-width:1.5;" width="618.5249" x="20" y="556.7344"/><g><title>... User..</title><rect fill="#000000" fill-opacity="0.00000" height="694.8125" width="8" x="48.8413" y="121.2188"/><line style="stroke:#181818;stroke-width:0.5;stroke-dasharray:5,5;" x1="52" x2="52" y1="121.2188" y2="816.0313"/></g><g><title>... TagGroup Page..</title><rect fill="#000000" fill-opacity="0.00000" height="694.8125" width="8" x="291.7319" y="121.2188"/><line style="stroke:#181818;stroke-width:0.5;stroke-dasharray:5,5;" x1="295.3389" x2="295.3389" y1="121.2188" y2="816.0313"/></g><g><title>... TagGroup Controller..</title><rect fill="#000000" fill-opacity="0.00000" height="694.8125" width="8" x="548.418" y="121.2188"/><line style="stroke:#181818;stroke-width:0.5;stroke-dasharray:5,5;" x1="552.311" x2="552.311" y1="121.2188" y2="816.0313"/></g><g><title>... TagGroup..</title><rect fill="#000000" fill-opacity="0.00000" height="694.8125" width="8" x="781.1377" y="121.2188"/><line style="stroke:#181818;stroke-width:0.5;stroke-dasharray:5,5;" x1="784.4204" x2="784.4204" y1="121.2188" y2="816.0313"/></g><g class="participant participant-head" data-participant="User"><text fill="#000000" font-family="sans-serif" font-size="14" font-weight="bold" lengthAdjust="spacing" textLength="39.6826" x="30" y="118.1426">: User</text><ellipse cx="52.8413" cy="52.1094" fill="#E2E2F0" rx="8" ry="8" style="stroke:#181818;stroke-width:0.5;"/><path d="M52.8413,60.1094 L52.8413,87.1094 M39.8413,68.1094 L65.8413,68.1094 M52.8413,87.1094 L39.8413,102.1094 M52.8413,87.1094 L65.8413,102.1094" fill="none" style="stroke:#181818;stroke-width:0.5;"/></g><g class="participant participant-head" data-participant="TagGroupDetailPage"><text fill="#000000" font-family="sans-serif" font-size="14" font-weight="bold" lengthAdjust="spacing" textLength="112.7861" x="236.3389" y="118.1426">: TagGroup Page</text><path d="M275.2319,75.6094 L275.2319,99.6094 M275.2319,87.6094 L292.2319,87.6094" fill="none" style="stroke:#181818;stroke-width:0.5;"/><ellipse cx="304.2319" cy="87.6094" fill="#E2E2F0" rx="12" ry="12" style="stroke:#181818;stroke-width:0.5;"/></g><g class="participant participant-head" data-participant="TagGroupController"><text fill="#000000" font-family="sans-serif" font-size="14" font-weight="bold" lengthAdjust="spacing" textLength="146.2139" x="476.311" y="118.1426">: TagGroup Controller</text><ellipse cx="552.418" cy="87.6094" fill="#E2E2F0" rx="12" ry="12" style="stroke:#181818;stroke-width:0.5;"/><polygon fill="#181818" points="548.418,75.6094,554.418,70.6094,552.418,75.6094,554.418,80.6094,548.418,75.6094" style="stroke:#181818;stroke-width:1;"/></g><g class="participant participant-head" data-participant="TagGroupRepository"><text fill="#000000" font-family="sans-serif" font-size="14" font-weight="bold" lengthAdjust="spacing" textLength="75.4346" x="744.4204" y="118.1426">: TagGroup</text><ellipse cx="785.1377" cy="87.6094" fill="#E2E2F0" rx="12" ry="12" style="stroke:#181818;stroke-width:0.5;"/><line style="stroke:#181818;stroke-width:0.5;" x1="773.1377" x2="797.1377" y1="101.6094" y2="101.6094"/></g><g><title>... TagGroup Page..</title><rect fill="#FFFFFF" height="290.1094" style="stroke:#181818;stroke-width:1;" width="10" x="290.7319" y="153.5703"/></g><g><title>... TagGroup Page..</title><rect fill="#FFFFFF" height="28" style="stroke:#181818;stroke-width:1;" width="10" x="295.7319" y="191.9219"/></g><g><title>... TagGroup Page..</title><rect fill="#FFFFFF" height="172.4063" style="stroke:#181818;stroke-width:1;" width="10" x="295.7319" y="257.2734"/></g><g><title>... TagGroup Page..</title><rect fill="#FFFFFF" height="28" style="stroke:#181818;stroke-width:1;" width="10" x="300.7319" y="295.625"/></g><g><title>... TagGroup Controller..</title><rect fill="#FFFFFF" height="116.4063" style="stroke:#181818;stroke-width:1;" width="10" x="547.418" y="481.0313"/></g><g><title>... TagGroup..</title><rect fill="#FFFFFF" height="30.3516" style="stroke:#181818;stroke-width:1;" width="10" x="780.1377" y="511.3828"/></g><g class="message" data-participant-1="User" data-participant-2="TagGroupDetailPage"><polygon fill="#181818" points="278.7319,149.5703,288.7319,153.5703,278.7319,157.5703,282.7319,153.5703" style="stroke:#181818;stroke-width:1;"/><line style="stroke:#181818;stroke-width:1;" x1="52.8413" x2="284.7319" y1="153.5703" y2="153.5703"/><text fill="#000000" font-family="sans-serif" font-size="13" lengthAdjust="spacing" textLength="56.3354" x="59.8413" y="148.7139">clickEdit()</text></g><g class="message" data-participant-1="TagGroupDetailPage" data-participant-2="TagGroupDetailPage"><line style="stroke:#181818;stroke-width:1;" x1="305.7319" x2="347.7319" y1="183.9219" y2="183.9219"/><line style="stroke:#181818;stroke-width:1;" x1="347.7319" x2="347.7319" y1="183.9219" y2="196.9219"/><line style="stroke:#181818;stroke-width:1;" x1="306.7319" x2="347.7319" y1="196.9219" y2="196.9219"/><polygon fill="#181818" points="316.7319,192.9219,306.7319,196.9219,316.7319,200.9219,312.7319,196.9219" style="stroke:#181818;stroke-width:1;"/><text fill="#000000" font-family="sans-serif" font-size="13" lengthAdjust="spacing" textLength="101.8545" x="312.7319" y="179.0654">displayEditForm()</text></g><g class="message" data-participant-1="User" data-participant-2="TagGroupDetailPage"><polygon fill="#181818" points="283.7319,253.2734,293.7319,257.2734,283.7319,261.2734,287.7319,257.2734" style="stroke:#181818;stroke-width:1;"/><line style="stroke:#181818;stroke-width:1;" x1="52.8413" x2="289.7319" y1="257.2734" y2="257.2734"/><text fill="#000000" font-family="sans-serif" font-size="13" lengthAdjust="spacing" textLength="213.8906" x="59.8413" y="252.417">saveChanges(tagGroupID, newData)</text></g><g class="message" data-participant-1="TagGroupDetailPage" data-participant-2="TagGroupDetailPage"><line style="stroke:#181818;stroke-width:1;" x1="310.7319" x2="352.7319" y1="287.625" y2="287.625"/><line style="stroke:#181818;stroke-width:1;" x1="352.7319" x2="352.7319" y1="287.625" y2="300.625"/><line style="stroke:#181818;stroke-width:1;" x1="311.7319" x2="352.7319" y1="300.625" y2="300.625"/><polygon fill="#181818" points="321.7319,296.625,311.7319,300.625,321.7319,304.625,317.7319,300.625" style="stroke:#181818;stroke-width:1;"/><text fill="#000000" font-family="sans-serif" font-size="13" lengthAdjust="spacing" textLength="171.2344" x="317.7319" y="282.7686">validateForm(newData.name)</text></g><path d="M20,345.625 L85.2109,345.625 L85.2109,353.9766 L75.2109,363.9766 L20,363.9766 L20,345.625" fill="#EEEEEE" style="stroke:#000000;stroke-width:1.5;"/><rect fill="none" height="106.0547" style="stroke:#000000;stroke-width:1.5;" width="505.9595" x="20" y="345.625"/><text fill="#000000" font-family="sans-serif" font-size="13" font-weight="bold" lengthAdjust="spacing" textLength="20.2109" x="35" y="360.1201">opt</text><text fill="#000000" font-family="sans-serif" font-size="11" font-weight="bold" lengthAdjust="spacing" textLength="69.6685" x="100.2109" y="359.0439">[form invalid]</text><g class="message" data-participant-1="TagGroupDetailPage" data-participant-2="TagGroupDetailPage"><line style="stroke:#181818;stroke-width:1;" x1="305.7319" x2="347.7319" y1="386.3281" y2="386.3281"/><line style="stroke:#181818;stroke-width:1;" x1="347.7319" x2="347.7319" y1="386.3281" y2="399.3281"/><line style="stroke:#181818;stroke-width:1;" x1="306.7319" x2="347.7319" y1="399.3281" y2="399.3281"/><polygon fill="#181818" points="316.7319,395.3281,306.7319,399.3281,316.7319,403.3281,312.7319,399.3281" style="stroke:#181818;stroke-width:1;"/><text fill="#000000" font-family="sans-serif" font-size="13" lengthAdjust="spacing" textLength="186.2275" x="312.7319" y="381.4717">displayError("Name is required")</text></g><g class="message" data-participant-1="TagGroupDetailPage" data-participant-2="User"><polygon fill="#181818" points="63.8413,425.6797,53.8413,429.6797,63.8413,433.6797,59.8413,429.6797" style="stroke:#181818;stroke-width:1;"/><line style="stroke:#181818;stroke-width:1;stroke-dasharray:2,2;" x1="57.8413" x2="289.7319" y1="429.6797" y2="429.6797"/><text fill="#000000" font-family="sans-serif" font-size="13" lengthAdjust="spacing" textLength="176.1094" x="69.8413" y="424.8232">showError("Name is required")</text></g><g class="message" data-participant-1="TagGroupDetailPage" data-participant-2="User"><polygon fill="#181818" points="63.8413,439.6797,53.8413,443.6797,63.8413,447.6797,59.8413,443.6797" style="stroke:#181818;stroke-width:1;"/><line style="stroke:#181818;stroke-width:1;stroke-dasharray:2,2;" x1="57.8413" x2="294.7319" y1="443.6797" y2="443.6797"/></g><g class="message" data-participant-1="TagGroupDetailPage" data-participant-2="TagGroupController"><polygon fill="#181818" points="535.418,477.0313,545.418,481.0313,535.418,485.0313,539.418,481.0313" style="stroke:#181818;stroke-width:1;"/><line style="stroke:#181818;stroke-width:1;" x1="295.7319" x2="541.418" y1="481.0313" y2="481.0313"/><text fill="#000000" font-family="sans-serif" font-size="13" lengthAdjust="spacing" textLength="232.686" x="302.7319" y="476.1748">updateTagGroup(tagGroupID, newData)</text></g><g class="message" data-participant-1="TagGroupController" data-participant-2="TagGroupRepository"><polygon fill="#181818" points="768.1377,507.3828,778.1377,511.3828,768.1377,515.3828,772.1377,511.3828" style="stroke:#181818;stroke-width:1;"/><line style="stroke:#181818;stroke-width:1;" x1="557.418" x2="774.1377" y1="511.3828" y2="511.3828"/><text fill="#000000" font-family="sans-serif" font-size="13" lengthAdjust="spacing" textLength="174.1543" x="564.418" y="506.5264">update(tagGroupID, newData)</text></g><g class="message" data-participant-1="TagGroupRepository" data-participant-2="TagGroupController"><polygon fill="#181818" points="568.418,537.7344,558.418,541.7344,568.418,545.7344,564.418,541.7344" style="stroke:#181818;stroke-width:1;"/><line style="stroke:#181818;stroke-width:1;stroke-dasharray:2,2;" x1="562.418" x2="784.1377" y1="541.7344" y2="541.7344"/><text fill="#000000" font-family="sans-serif" font-size="13" lengthAdjust="spacing" textLength="198.7197" x="574.418" y="536.8779">updateResult(success, duplicate?)</text></g><path d="M20,556.7344 L80.1709,556.7344 L80.1709,565.0859 L70.1709,575.0859 L20,575.0859 L20,556.7344" fill="#EEEEEE" style="stroke:#000000;stroke-width:1.5;"/><rect fill="none" height="242.2969" style="stroke:#000000;stroke-width:1.5;" width="618.5249" x="20" y="556.7344"/><text fill="#000000" font-family="sans-serif" font-size="13" font-weight="bold" lengthAdjust="spacing" textLength="15.1709" x="35" y="571.2295">alt</text><text fill="#000000" font-family="sans-serif" font-size="11" font-weight="bold" lengthAdjust="spacing" textLength="111.8906" x="95.1709" y="570.1533">[name already exists]</text><g class="message" data-participant-1="TagGroupController" data-participant-2="TagGroupDetailPage"><polygon fill="#181818" points="306.7319,593.4375,296.7319,597.4375,306.7319,601.4375,302.7319,597.4375" style="stroke:#181818;stroke-width:1;"/><line style="stroke:#181818;stroke-width:1;stroke-dasharray:2,2;" x1="300.7319" x2="551.418" y1="597.4375" y2="597.4375"/><text fill="#000000" font-family="sans-serif" font-size="13" lengthAdjust="spacing" textLength="163.103" x="312.7319" y="592.5811">error("Name already exists")</text></g><g class="message" data-participant-1="TagGroupDetailPage" data-participant-2="TagGroupDetailPage"><line style="stroke:#181818;stroke-width:1;" x1="295.7319" x2="337.7319" y1="627.7891" y2="627.7891"/><line style="stroke:#181818;stroke-width:1;" x1="337.7319" x2="337.7319" y1="627.7891" y2="640.7891"/><line style="stroke:#181818;stroke-width:1;" x1="296.7319" x2="337.7319" y1="640.7891" y2="640.7891"/><polygon fill="#181818" points="306.7319,636.7891,296.7319,640.7891,306.7319,644.7891,302.7319,640.7891" style="stroke:#181818;stroke-width:1;"/><text fill="#000000" font-family="sans-serif" font-size="13" lengthAdjust="spacing" textLength="205.0103" x="302.7319" y="622.9326">displayError("Name already exists")</text></g><g class="message" data-participant-1="TagGroupDetailPage" data-participant-2="User"><polygon fill="#181818" points="63.8413,667.1406,53.8413,671.1406,63.8413,675.1406,59.8413,671.1406" style="stroke:#181818;stroke-width:1;"/><line style="stroke:#181818;stroke-width:1;stroke-dasharray:2,2;" x1="57.8413" x2="294.7319" y1="671.1406" y2="671.1406"/><text fill="#000000" font-family="sans-serif" font-size="13" lengthAdjust="spacing" textLength="194.8921" x="69.8413" y="666.2842">showError("Name already exists")</text></g><line style="stroke:#000000;stroke-width:1;stroke-dasharray:2,2;" x1="20" x2="638.5249" y1="680.1406" y2="680.1406"/><text fill="#000000" font-family="sans-serif" font-size="11" font-weight="bold" lengthAdjust="spacing" textLength="89.8638" x="25" y="691.5596">[update success]</text><g class="message" data-participant-1="TagGroupController" data-participant-2="TagGroupDetailPage"><polygon fill="#181818" points="306.7319,713.3281,296.7319,717.3281,306.7319,721.3281,302.7319,717.3281" style="stroke:#181818;stroke-width:1;"/><line style="stroke:#181818;stroke-width:1;stroke-dasharray:2,2;" x1="300.7319" x2="551.418" y1="717.3281" y2="717.3281"/><text fill="#000000" font-family="sans-serif" font-size="13" lengthAdjust="spacing" textLength="137.3125" x="312.7319" y="712.4717">tagGroupData(updated)</text></g><g class="message" data-participant-1="TagGroupDetailPage" data-participant-2="TagGroupDetailPage"><line style="stroke:#181818;stroke-width:1;" x1="295.7319" x2="337.7319" y1="747.6797" y2="747.6797"/><line style="stroke:#181818;stroke-width:1;" x1="337.7319" x2="337.7319" y1="747.6797" y2="760.6797"/><line style="stroke:#181818;stroke-width:1;" x1="296.7319" x2="337.7319" y1="760.6797" y2="760.6797"/><polygon fill="#181818" points="306.7319,756.6797,296.7319,760.6797,306.7319,764.6797,302.7319,760.6797" style="stroke:#181818;stroke-width:1;"/><text fill="#000000" font-family="sans-serif" font-size="13" lengthAdjust="spacing" textLength="166.1943" x="302.7319" y="742.8232">reloadDetails(tagGroupData)</text></g><g class="message" data-participant-1="TagGroupDetailPage" data-participant-2="User"><polygon fill="#181818" points="63.8413,787.0313,53.8413,791.0313,63.8413,795.0313,59.8413,791.0313" style="stroke:#181818;stroke-width:1;"/><line style="stroke:#181818;stroke-width:1;stroke-dasharray:2,2;" x1="57.8413" x2="294.7319" y1="791.0313" y2="791.0313"/><text fill="#000000" font-family="sans-serif" font-size="13" lengthAdjust="spacing" textLength="210.8501" x="69.8413" y="786.1748">showMessage("Tag group updated")</text></g><!--SRC=[jLNBKkCm4BphAwPymRXWFu33SY0inG5gYuAz3zQGg5QHp4WA-CP7x1Vkbo3vGHnmp3kdb6RKqztgIPQep0tZaY0h2YUB0ewbyd29ynEseSh4Gac26slzjRqN0ajlERKUm9KZBeeCq3LVnRKDHYBNRRK7WDyufwwjFvkHHwLJGPJMUBRwsPsZzbG_3UWhwu8WuvMlOVFci_OBggnJaN4jHE88-pz7IC01b5gLVvFmV3T9L2lqD4PNZDpUXYcLgpJM2VMNvUKho98cvqwoTxYYemMQERdSTmsdipqmT3T3ZrydQOLQoOZJwEdGVvWOdazfivMF0UCbADCC410_7p2QsNAUdQSiAmTCjq4noMntAru4R7oD3YxitVJzQGsfWya7DZ6NKeWT-9EKH4LLyF3_uH-4AXdtYjdhU4TExOs-DFwmqwnUr0Rh8qPc3fYiD-U9oHkZDTYv4R3zQRKNv8BskGjbISxjWGnLtCnOE1pLEjnlr1vI504r4yeQw5uvxpOUVwXrMvfe48DDgEr96FZw-UoE3drVV5z0a7RKMGoTkUysfd_-zEvvYoM_mH4cRL6sH-kVipPiRtFYBAgBntaMMs7U_A5qT9CJQJqdr-OH]--></g></svg>