<svg xmlns="http://www.w3.org/2000/svg" xmlns:xlink="http://www.w3.org/1999/xlink" contentStyleType="text/css" data-diagram-type="SEQUENCE" height="1094px" preserveAspectRatio="none" style="width:764px;height:1094px;background:#FFFFFF;" version="1.1" viewBox="0 0 764 1094" width="764px" zoomAndPan="magnify"><defs/><g><rect fill="#FFFFFF" height="1073.0469" style="stroke:#181818;stroke-width:1.5;" width="753.9175" x="5" y="15"/><path d="M87.3652,15 L87.3652,25.6094 L77.3652,35.6094 L5,35.6094" fill="none" style="stroke:#181818;stroke-width:1.5;"/><text fill="#000000" font-family="sans-serif" font-size="14" font-weight="bold" lengthAdjust="spacing" textLength="16.3379" x="8" y="30.5332">sd</text><text fill="#000000" font-family="sans-serif" font-size="14" lengthAdjust="spacing" textLength="52.1377" x="28.2275" y="30.5332">Edit Tag</text><g><title>... TagDetailPage..</title><rect fill="#FFFFFF" height="906.8672" style="stroke:#181818;stroke-width:1;" width="10" x="254.6011" y="153.5703"/></g><g><title>... TagDetailPage..</title><rect fill="#FFFFFF" height="845.5156" style="stroke:#181818;stroke-width:1;" width="10" x="259.6011" y="191.9219"/></g><g><title>... TagDetailPage..</title><rect fill="#FFFFFF" height="28" style="stroke:#181818;stroke-width:1;" width="10" x="264.6011" y="265.625"/></g><g><title>... TagDetailPage..</title><rect fill="#FFFFFF" height="28" style="stroke:#181818;stroke-width:1;" width="10" x="264.6011" y="364.3281"/></g><g><title>... TagDetailPage..</title><rect fill="#FFFFFF" height="28" style="stroke:#181818;stroke-width:1;" width="10" x="264.6011" y="475.0313"/></g><g><title>... TagDetailPage..</title><rect fill="#FFFFFF" height="28" style="stroke:#181818;stroke-width:1;" width="10" x="264.6011" y="695.1406"/></g><g><title>... TagDetailPage..</title><rect fill="#FFFFFF" height="28" style="stroke:#181818;stroke-width:1;" width="10" x="264.6011" y="814.6797"/></g><g><title>... TagDetailPage..</title><rect fill="#FFFFFF" height="28" style="stroke:#181818;stroke-width:1;" width="10" x="264.6011" y="1009.4375"/></g><g><title>... TagController..</title><rect fill="#FFFFFF" height="116.4063" style="stroke:#181818;stroke-width:1;" width="10" x="503.6113" y="540.3828"/></g><g><title>... TagController..</title><rect fill="#FFFFFF" height="91.0547" style="stroke:#181818;stroke-width:1;" width="10" x="503.6113" y="880.0313"/></g><g><title>... TagRepository..</title><rect fill="#FFFFFF" height="30.3516" style="stroke:#181818;stroke-width:1;" width="10" x="670.6348" y="570.7344"/></g><g><title>... TagRepository..</title><rect fill="#FFFFFF" height="30.3516" style="stroke:#181818;stroke-width:1;" width="10" x="670.6348" y="910.3828"/></g><rect fill="none" height="91.7031" style="stroke:#000000;stroke-width:1.5;" width="300.7412" x="194.0874" y="315.625"/><rect fill="none" height="436.3516" style="stroke:#000000;stroke-width:1.5;" width="721.9175" x="20" y="616.0859"/><g><title>... User..</title><rect fill="#000000" fill-opacity="0.00000" height="948.2188" width="8" x="48.8413" y="121.2188"/><line style="stroke:#181818;stroke-width:0.5;stroke-dasharray:5,5;" x1="52" x2="52" y1="121.2188" y2="1069.4375"/></g><g><title>... TagDetailPage..</title><rect fill="#000000" fill-opacity="0.00000" height="948.2188" width="8" x="255.6011" y="121.2188"/><line style="stroke:#181818;stroke-width:0.5;stroke-dasharray:5,5;" x1="259.0874" x2="259.0874" y1="121.2188" y2="1069.4375"/></g><g><title>... TagController..</title><rect fill="#000000" fill-opacity="0.00000" height="948.2188" width="8" x="504.6113" y="121.2188"/><line style="stroke:#181818;stroke-width:0.5;stroke-dasharray:5,5;" x1="508.4458" x2="508.4458" y1="121.2188" y2="1069.4375"/></g><g><title>... TagRepository..</title><rect fill="#000000" fill-opacity="0.00000" height="948.2188" width="8" x="671.6348" y="121.2188"/><line style="stroke:#181818;stroke-width:0.5;stroke-dasharray:5,5;" x1="675.3521" x2="675.3521" y1="121.2188" y2="1069.4375"/></g><g class="participant participant-head" data-participant="User"><text fill="#000000" font-family="sans-serif" font-size="14" font-weight="bold" lengthAdjust="spacing" textLength="39.6826" x="30" y="118.1426">: User</text><ellipse cx="52.8413" cy="52.1094" fill="#E2E2F0" rx="8" ry="8" style="stroke:#181818;stroke-width:0.5;"/><path d="M52.8413,60.1094 L52.8413,87.1094 M39.8413,68.1094 L65.8413,68.1094 M52.8413,87.1094 L39.8413,102.1094 M52.8413,87.1094 L65.8413,102.1094" fill="none" style="stroke:#181818;stroke-width:0.5;"/></g><g class="participant participant-head" data-participant="TagDetailPage"><text fill="#000000" font-family="sans-serif" font-size="14" font-weight="bold" lengthAdjust="spacing" textLength="105.0273" x="204.0874" y="118.1426">: TagDetailPage</text><path d="M239.1011,75.6094 L239.1011,99.6094 M239.1011,87.6094 L256.1011,87.6094" fill="none" style="stroke:#181818;stroke-width:0.5;"/><ellipse cx="268.1011" cy="87.6094" fill="#E2E2F0" rx="12" ry="12" style="stroke:#181818;stroke-width:0.5;"/></g><g class="participant participant-head" data-participant="TagController"><text fill="#000000" font-family="sans-serif" font-size="14" font-weight="bold" lengthAdjust="spacing" textLength="100.3311" x="455.4458" y="118.1426">: TagController</text><ellipse cx="508.6113" cy="87.6094" fill="#E2E2F0" rx="12" ry="12" style="stroke:#181818;stroke-width:0.5;"/><polygon fill="#181818" points="504.6113,75.6094,510.6113,70.6094,508.6113,75.6094,510.6113,80.6094,504.6113,75.6094" style="stroke:#181818;stroke-width:1;"/></g><g class="participant participant-head" data-participant="TagRepository"><text fill="#000000" font-family="sans-serif" font-size="14" font-weight="bold" lengthAdjust="spacing" textLength="106.5654" x="619.3521" y="118.1426">: TagRepository</text><ellipse cx="675.6348" cy="87.6094" fill="#E2E2F0" rx="12" ry="12" style="stroke:#181818;stroke-width:0.5;"/><line style="stroke:#181818;stroke-width:0.5;" x1="663.6348" x2="687.6348" y1="101.6094" y2="101.6094"/></g><g><title>... TagDetailPage..</title><rect fill="#FFFFFF" height="906.8672" style="stroke:#181818;stroke-width:1;" width="10" x="254.6011" y="153.5703"/></g><g><title>... TagDetailPage..</title><rect fill="#FFFFFF" height="845.5156" style="stroke:#181818;stroke-width:1;" width="10" x="259.6011" y="191.9219"/></g><g><title>... TagDetailPage..</title><rect fill="#FFFFFF" height="28" style="stroke:#181818;stroke-width:1;" width="10" x="264.6011" y="265.625"/></g><g><title>... TagDetailPage..</title><rect fill="#FFFFFF" height="28" style="stroke:#181818;stroke-width:1;" width="10" x="264.6011" y="364.3281"/></g><g><title>... TagDetailPage..</title><rect fill="#FFFFFF" height="28" style="stroke:#181818;stroke-width:1;" width="10" x="264.6011" y="475.0313"/></g><g><title>... TagDetailPage..</title><rect fill="#FFFFFF" height="28" style="stroke:#181818;stroke-width:1;" width="10" x="264.6011" y="695.1406"/></g><g><title>... TagDetailPage..</title><rect fill="#FFFFFF" height="28" style="stroke:#181818;stroke-width:1;" width="10" x="264.6011" y="814.6797"/></g><g><title>... TagDetailPage..</title><rect fill="#FFFFFF" height="28" style="stroke:#181818;stroke-width:1;" width="10" x="264.6011" y="1009.4375"/></g><g><title>... TagController..</title><rect fill="#FFFFFF" height="116.4063" style="stroke:#181818;stroke-width:1;" width="10" x="503.6113" y="540.3828"/></g><g><title>... TagController..</title><rect fill="#FFFFFF" height="91.0547" style="stroke:#181818;stroke-width:1;" width="10" x="503.6113" y="880.0313"/></g><g><title>... TagRepository..</title><rect fill="#FFFFFF" height="30.3516" style="stroke:#181818;stroke-width:1;" width="10" x="670.6348" y="570.7344"/></g><g><title>... TagRepository..</title><rect fill="#FFFFFF" height="30.3516" style="stroke:#181818;stroke-width:1;" width="10" x="670.6348" y="910.3828"/></g><g class="message" data-participant-1="User" data-participant-2="TagDetailPage"><polygon fill="#181818" points="242.6011,149.5703,252.6011,153.5703,242.6011,157.5703,246.6011,153.5703" style="stroke:#181818;stroke-width:1;"/><line style="stroke:#181818;stroke-width:1;" x1="52.8413" x2="248.6011" y1="153.5703" y2="153.5703"/><text fill="#000000" font-family="sans-serif" font-size="13" lengthAdjust="spacing" textLength="56.3354" x="59.8413" y="148.7139">clickEdit()</text></g><g class="message" data-participant-1="TagDetailPage" data-participant-2="TagDetailPage"><line style="stroke:#181818;stroke-width:1;" x1="264.6011" x2="311.6011" y1="178.9219" y2="178.9219"/><line style="stroke:#181818;stroke-width:1;" x1="311.6011" x2="311.6011" y1="178.9219" y2="191.9219"/><line style="stroke:#181818;stroke-width:1;" x1="270.6011" x2="311.6011" y1="191.9219" y2="191.9219"/><polygon fill="#181818" points="280.6011,187.9219,270.6011,191.9219,280.6011,195.9219,276.6011,191.9219" style="stroke:#181818;stroke-width:1;"/><text fill="#000000" font-family="sans-serif" font-size="13" lengthAdjust="spacing" textLength="101.8545" x="276.6011" y="174.0654">displayEditForm()</text></g><g class="message" data-participant-1="User" data-participant-2="TagDetailPage"><polygon fill="#181818" points="247.6011,223.2734,257.6011,227.2734,247.6011,231.2734,251.6011,227.2734" style="stroke:#181818;stroke-width:1;"/><line style="stroke:#181818;stroke-width:1;" x1="52.8413" x2="253.6011" y1="227.2734" y2="227.2734"/><text fill="#000000" font-family="sans-serif" font-size="13" lengthAdjust="spacing" textLength="177.7598" x="59.8413" y="222.417">saveChanges(tagID, newData)</text></g><g class="message" data-participant-1="TagDetailPage" data-participant-2="TagDetailPage"><line style="stroke:#181818;stroke-width:1;" x1="274.6011" x2="316.6011" y1="257.625" y2="257.625"/><line style="stroke:#181818;stroke-width:1;" x1="316.6011" x2="316.6011" y1="257.625" y2="270.625"/><line style="stroke:#181818;stroke-width:1;" x1="275.6011" x2="316.6011" y1="270.625" y2="270.625"/><polygon fill="#181818" points="285.6011,266.625,275.6011,270.625,285.6011,274.625,281.6011,270.625" style="stroke:#181818;stroke-width:1;"/><text fill="#000000" font-family="sans-serif" font-size="13" lengthAdjust="spacing" textLength="171.2344" x="281.6011" y="252.7686">validateForm(newData.name)</text></g><path d="M194.0874,315.625 L259.2983,315.625 L259.2983,323.9766 L249.2983,333.9766 L194.0874,333.9766 L194.0874,315.625" fill="#EEEEEE" style="stroke:#000000;stroke-width:1.5;"/><rect fill="none" height="91.7031" style="stroke:#000000;stroke-width:1.5;" width="300.7412" x="194.0874" y="315.625"/><text fill="#000000" font-family="sans-serif" font-size="13" font-weight="bold" lengthAdjust="spacing" textLength="20.2109" x="209.0874" y="330.1201">opt</text><text fill="#000000" font-family="sans-serif" font-size="11" font-weight="bold" lengthAdjust="spacing" textLength="69.6685" x="274.2983" y="329.0439">[form invalid]</text><g class="message" data-participant-1="TagDetailPage" data-participant-2="TagDetailPage"><line style="stroke:#181818;stroke-width:1;" x1="274.6011" x2="316.6011" y1="356.3281" y2="356.3281"/><line style="stroke:#181818;stroke-width:1;" x1="316.6011" x2="316.6011" y1="356.3281" y2="369.3281"/><line style="stroke:#181818;stroke-width:1;" x1="275.6011" x2="316.6011" y1="369.3281" y2="369.3281"/><polygon fill="#181818" points="285.6011,365.3281,275.6011,369.3281,285.6011,373.3281,281.6011,369.3281" style="stroke:#181818;stroke-width:1;"/><text fill="#000000" font-family="sans-serif" font-size="13" lengthAdjust="spacing" textLength="186.2275" x="281.6011" y="351.4717">displayError("Name is required")</text></g><g class="message" data-participant-1="User" data-participant-2="TagDetailPage"><polygon fill="#181818" points="247.6011,432.6797,257.6011,436.6797,247.6011,440.6797,251.6011,436.6797" style="stroke:#181818;stroke-width:1;"/><line style="stroke:#181818;stroke-width:1;" x1="52.8413" x2="253.6011" y1="436.6797" y2="436.6797"/><text fill="#000000" font-family="sans-serif" font-size="13" lengthAdjust="spacing" textLength="177.7598" x="59.8413" y="431.8232">saveChanges(tagID, newData)</text></g><g class="message" data-participant-1="TagDetailPage" data-participant-2="TagDetailPage"><line style="stroke:#181818;stroke-width:1;" x1="274.6011" x2="316.6011" y1="467.0313" y2="467.0313"/><line style="stroke:#181818;stroke-width:1;" x1="316.6011" x2="316.6011" y1="467.0313" y2="480.0313"/><line style="stroke:#181818;stroke-width:1;" x1="275.6011" x2="316.6011" y1="480.0313" y2="480.0313"/><polygon fill="#181818" points="285.6011,476.0313,275.6011,480.0313,285.6011,484.0313,281.6011,480.0313" style="stroke:#181818;stroke-width:1;"/><text fill="#000000" font-family="sans-serif" font-size="13" lengthAdjust="spacing" textLength="171.2344" x="281.6011" y="462.1748">validateForm(newData.name)</text></g><g class="message" data-participant-1="TagDetailPage" data-participant-2="TagController"><polygon fill="#181818" points="491.6113,536.3828,501.6113,540.3828,491.6113,544.3828,495.6113,540.3828" style="stroke:#181818;stroke-width:1;"/><line style="stroke:#181818;stroke-width:1;" x1="269.6011" x2="497.6113" y1="540.3828" y2="540.3828"/><text fill="#000000" font-family="sans-serif" font-size="13" lengthAdjust="spacing" textLength="208.1016" x="276.6011" y="535.5264">processUpdateTag(tagID, newData)</text></g><g class="message" data-participant-1="TagController" data-participant-2="TagRepository"><polygon fill="#181818" points="658.6348,566.7344,668.6348,570.7344,658.6348,574.7344,662.6348,570.7344" style="stroke:#181818;stroke-width:1;"/><line style="stroke:#181818;stroke-width:1;" x1="513.6113" x2="664.6348" y1="570.7344" y2="570.7344"/><text fill="#000000" font-family="sans-serif" font-size="13" lengthAdjust="spacing" textLength="138.0234" x="520.6113" y="565.8779">update(tagID, newData)</text></g><g class="message" data-participant-1="TagRepository" data-participant-2="TagController"><polygon fill="#181818" points="524.6113,597.0859,514.6113,601.0859,524.6113,605.0859,520.6113,601.0859" style="stroke:#181818;stroke-width:1;"/><line style="stroke:#181818;stroke-width:1;stroke-dasharray:2,2;" x1="518.6113" x2="674.6348" y1="601.0859" y2="601.0859"/><text fill="#000000" font-family="sans-serif" font-size="13" lengthAdjust="spacing" textLength="76.6162" x="530.6113" y="596.2295">updateStatus</text></g><path d="M20,616.0859 L80.1709,616.0859 L80.1709,624.4375 L70.1709,634.4375 L20,634.4375 L20,616.0859" fill="#EEEEEE" style="stroke:#000000;stroke-width:1.5;"/><rect fill="none" height="436.3516" style="stroke:#000000;stroke-width:1.5;" width="721.9175" x="20" y="616.0859"/><text fill="#000000" font-family="sans-serif" font-size="13" font-weight="bold" lengthAdjust="spacing" textLength="15.1709" x="35" y="630.5811">alt</text><text fill="#000000" font-family="sans-serif" font-size="11" font-weight="bold" lengthAdjust="spacing" textLength="111.8906" x="95.1709" y="629.5049">[name already exists]</text><g class="message" data-participant-1="TagController" data-participant-2="TagDetailPage"><polygon fill="#181818" points="280.6011,652.7891,270.6011,656.7891,280.6011,660.7891,276.6011,656.7891" style="stroke:#181818;stroke-width:1;"/><line style="stroke:#181818;stroke-width:1;stroke-dasharray:2,2;" x1="274.6011" x2="507.6113" y1="656.7891" y2="656.7891"/><text fill="#000000" font-family="sans-serif" font-size="13" lengthAdjust="spacing" textLength="163.103" x="286.6011" y="651.9326">error("Name already exists")</text></g><g class="message" data-participant-1="TagDetailPage" data-participant-2="TagDetailPage"><line style="stroke:#181818;stroke-width:1;" x1="274.6011" x2="316.6011" y1="687.1406" y2="687.1406"/><line style="stroke:#181818;stroke-width:1;" x1="316.6011" x2="316.6011" y1="687.1406" y2="700.1406"/><line style="stroke:#181818;stroke-width:1;" x1="275.6011" x2="316.6011" y1="700.1406" y2="700.1406"/><polygon fill="#181818" points="285.6011,696.1406,275.6011,700.1406,285.6011,704.1406,281.6011,700.1406" style="stroke:#181818;stroke-width:1;"/><text fill="#000000" font-family="sans-serif" font-size="13" lengthAdjust="spacing" textLength="205.0103" x="281.6011" y="682.2842">displayError("Name already exists")</text></g><line style="stroke:#000000;stroke-width:1;stroke-dasharray:2,2;" x1="20" x2="741.9175" y1="739.1406" y2="739.1406"/><text fill="#000000" font-family="sans-serif" font-size="11" font-weight="bold" lengthAdjust="spacing" textLength="163.1792" x="25" y="750.5596">[name is unique or unchanged]</text><g class="message" data-participant-1="User" data-participant-2="TagDetailPage"><polygon fill="#181818" points="247.6011,772.3281,257.6011,776.3281,247.6011,780.3281,251.6011,776.3281" style="stroke:#181818;stroke-width:1;"/><line style="stroke:#181818;stroke-width:1;" x1="52.8413" x2="253.6011" y1="776.3281" y2="776.3281"/><text fill="#000000" font-family="sans-serif" font-size="13" lengthAdjust="spacing" textLength="177.7598" x="59.8413" y="771.4717">saveChanges(tagID, newData)</text></g><g class="message" data-participant-1="TagDetailPage" data-participant-2="TagDetailPage"><line style="stroke:#181818;stroke-width:1;" x1="274.6011" x2="316.6011" y1="806.6797" y2="806.6797"/><line style="stroke:#181818;stroke-width:1;" x1="316.6011" x2="316.6011" y1="806.6797" y2="819.6797"/><line style="stroke:#181818;stroke-width:1;" x1="275.6011" x2="316.6011" y1="819.6797" y2="819.6797"/><polygon fill="#181818" points="285.6011,815.6797,275.6011,819.6797,285.6011,823.6797,281.6011,819.6797" style="stroke:#181818;stroke-width:1;"/><text fill="#000000" font-family="sans-serif" font-size="13" lengthAdjust="spacing" textLength="171.2344" x="281.6011" y="801.8232">validateForm(newData.name)</text></g><g class="message" data-participant-1="TagDetailPage" data-participant-2="TagController"><polygon fill="#181818" points="491.6113,876.0313,501.6113,880.0313,491.6113,884.0313,495.6113,880.0313" style="stroke:#181818;stroke-width:1;"/><line style="stroke:#181818;stroke-width:1;" x1="269.6011" x2="497.6113" y1="880.0313" y2="880.0313"/><text fill="#000000" font-family="sans-serif" font-size="13" lengthAdjust="spacing" textLength="208.1016" x="276.6011" y="875.1748">processUpdateTag(tagID, newData)</text></g><g class="message" data-participant-1="TagController" data-participant-2="TagRepository"><polygon fill="#181818" points="658.6348,906.3828,668.6348,910.3828,658.6348,914.3828,662.6348,910.3828" style="stroke:#181818;stroke-width:1;"/><line style="stroke:#181818;stroke-width:1;" x1="513.6113" x2="664.6348" y1="910.3828" y2="910.3828"/><text fill="#000000" font-family="sans-serif" font-size="13" lengthAdjust="spacing" textLength="138.0234" x="520.6113" y="905.5264">update(tagID, newData)</text></g><g class="message" data-participant-1="TagRepository" data-participant-2="TagController"><polygon fill="#181818" points="524.6113,936.7344,514.6113,940.7344,524.6113,944.7344,520.6113,940.7344" style="stroke:#181818;stroke-width:1;"/><line style="stroke:#181818;stroke-width:1;stroke-dasharray:2,2;" x1="518.6113" x2="674.6348" y1="940.7344" y2="940.7344"/><text fill="#000000" font-family="sans-serif" font-size="13" lengthAdjust="spacing" textLength="76.6162" x="530.6113" y="935.8779">updateStatus</text></g><g class="message" data-participant-1="TagController" data-participant-2="TagDetailPage"><polygon fill="#181818" points="280.6011,967.0859,270.6011,971.0859,280.6011,975.0859,276.6011,971.0859" style="stroke:#181818;stroke-width:1;"/><line style="stroke:#181818;stroke-width:1;stroke-dasharray:2,2;" x1="274.6011" x2="507.6113" y1="971.0859" y2="971.0859"/><text fill="#000000" font-family="sans-serif" font-size="13" lengthAdjust="spacing" textLength="45.5317" x="286.6011" y="966.2295">tagData</text></g><g class="message" data-participant-1="TagDetailPage" data-participant-2="TagDetailPage"><line style="stroke:#181818;stroke-width:1;" x1="274.6011" x2="316.6011" y1="1001.4375" y2="1001.4375"/><line style="stroke:#181818;stroke-width:1;" x1="316.6011" x2="316.6011" y1="1001.4375" y2="1014.4375"/><line style="stroke:#181818;stroke-width:1;" x1="275.6011" x2="316.6011" y1="1014.4375" y2="1014.4375"/><polygon fill="#181818" points="285.6011,1010.4375,275.6011,1014.4375,285.6011,1018.4375,281.6011,1014.4375" style="stroke:#181818;stroke-width:1;"/><text fill="#000000" font-family="sans-serif" font-size="13" lengthAdjust="spacing" textLength="84.5317" x="281.6011" y="996.5811">reloadDetails()</text></g><!--SRC=[hLJBKiCW5Dtp5NUwIZFM3t3XfjKPDuxZumDkmsrbf121LFltGj8sH9CqZSsAmEMSm-KSDYZKok2684qjJrEuuyB1AwxPk-04AwtTKdypXfdJ1YPfUWDlbaoQJW1jEMHBNIYEPbUj-gqBSYZa4wvfNzQOOvbMpcXvB9zN__A8sfXZf9nmDVWpvTeABsPNLzTpZ0L9CBjjSi8DP59a7-5moJGSHcpHqIzXhBcd1OGBcqlS1PXxRJOzK5qoB6vf_evgJJPnk7vON86YhmKwd0xWtw8KtBELvFjzryhVNgSGJbqATUxyzPeD25N2Cl3Vu0uOeqqoUGp64HOCVHR249zCIvGEoh3KgOTKfM1CumOfx-dTMCrTlBLxFMzkT4RMlkM1t2-sgey98kyV62B0Yg5sl6SeIkYJk55Azh0Hogn5UONxuj0LjgKHSUfABkaWzDCF327V0NqBwwgTBUTekIAANDK4sHlhhuYeMOU2cF1iCtVIzbYWroDb1KbBLMzyM0ebFWi2_vmMAYiTpOymOzr_YGJyvvHz6ivFGqyYEinqLYXE16DaE4u7P5W8lE8WzRJVHnZUaDJ8gocRNExQXrNw9_u7]--></g></svg>