<svg xmlns="http://www.w3.org/2000/svg" xmlns:xlink="http://www.w3.org/1999/xlink" contentStyleType="text/css" data-diagram-type="SEQUENCE" height="1094px" preserveAspectRatio="none" style="width:901px;height:1094px;background:#FFFFFF;" version="1.1" viewBox="0 0 901 1094" width="901px" zoomAndPan="magnify"><defs/><g><rect fill="#FFFFFF" height="1073.0469" style="stroke:#181818;stroke-width:1.5;" width="890.1279" x="5" y="15"/><path d="M130.165,15 L130.165,25.6094 L120.165,35.6094 L5,35.6094" fill="none" style="stroke:#181818;stroke-width:1.5;"/><text fill="#000000" font-family="sans-serif" font-size="14" font-weight="bold" lengthAdjust="spacing" textLength="16.3379" x="8" y="30.5332">sd</text><text fill="#000000" font-family="sans-serif" font-size="14" lengthAdjust="spacing" textLength="94.9375" x="28.2275" y="30.5332">Edit Tag Group</text><g><title>... TagGroupDetailPage..</title><rect fill="#FFFFFF" height="906.8672" style="stroke:#181818;stroke-width:1;" width="10" x="290.7319" y="153.5703"/></g><g><title>... TagGroupDetailPage..</title><rect fill="#FFFFFF" height="845.5156" style="stroke:#181818;stroke-width:1;" width="10" x="295.7319" y="191.9219"/></g><g><title>... TagGroupDetailPage..</title><rect fill="#FFFFFF" height="28" style="stroke:#181818;stroke-width:1;" width="10" x="300.7319" y="265.625"/></g><g><title>... TagGroupDetailPage..</title><rect fill="#FFFFFF" height="28" style="stroke:#181818;stroke-width:1;" width="10" x="300.7319" y="364.3281"/></g><g><title>... TagGroupDetailPage..</title><rect fill="#FFFFFF" height="28" style="stroke:#181818;stroke-width:1;" width="10" x="300.7319" y="475.0313"/></g><g><title>... TagGroupDetailPage..</title><rect fill="#FFFFFF" height="28" style="stroke:#181818;stroke-width:1;" width="10" x="300.7319" y="695.1406"/></g><g><title>... TagGroupDetailPage..</title><rect fill="#FFFFFF" height="28" style="stroke:#181818;stroke-width:1;" width="10" x="300.7319" y="814.6797"/></g><g><title>... TagGroupDetailPage..</title><rect fill="#FFFFFF" height="28" style="stroke:#181818;stroke-width:1;" width="10" x="300.7319" y="1009.4375"/></g><g><title>... TagGroupController..</title><rect fill="#FFFFFF" height="116.4063" style="stroke:#181818;stroke-width:1;" width="10" x="582.6943" y="540.3828"/></g><g><title>... TagGroupController..</title><rect fill="#FFFFFF" height="91.0547" style="stroke:#181818;stroke-width:1;" width="10" x="582.6943" y="880.0313"/></g><g><title>... TagGroupRepository..</title><rect fill="#FFFFFF" height="30.3516" style="stroke:#181818;stroke-width:1;" width="10" x="785.8486" y="570.7344"/></g><g><title>... TagGroupRepository..</title><rect fill="#FFFFFF" height="30.3516" style="stroke:#181818;stroke-width:1;" width="10" x="785.8486" y="910.3828"/></g><rect fill="none" height="91.7031" style="stroke:#000000;stroke-width:1.5;" width="321.7378" x="209.2217" y="315.625"/><rect fill="none" height="436.3516" style="stroke:#000000;stroke-width:1.5;" width="858.1279" x="20" y="616.0859"/><g><title>... User..</title><rect fill="#000000" fill-opacity="0.00000" height="948.2188" width="8" x="48.8413" y="121.2188"/><line style="stroke:#181818;stroke-width:0.5;stroke-dasharray:5,5;" x1="52" x2="52" y1="121.2188" y2="1069.4375"/></g><g><title>... TagGroupDetailPage..</title><rect fill="#000000" fill-opacity="0.00000" height="948.2188" width="8" x="291.7319" y="121.2188"/><line style="stroke:#181818;stroke-width:0.5;stroke-dasharray:5,5;" x1="295.2217" x2="295.2217" y1="121.2188" y2="1069.4375"/></g><g><title>... TagGroupController..</title><rect fill="#000000" fill-opacity="0.00000" height="948.2188" width="8" x="583.6943" y="121.2188"/><line style="stroke:#181818;stroke-width:0.5;stroke-dasharray:5,5;" x1="587.5322" x2="587.5322" y1="121.2188" y2="1069.4375"/></g><g><title>... TagGroupRepository..</title><rect fill="#000000" fill-opacity="0.00000" height="948.2188" width="8" x="786.8486" y="121.2188"/><line style="stroke:#181818;stroke-width:0.5;stroke-dasharray:5,5;" x1="790.5693" x2="790.5693" y1="121.2188" y2="1069.4375"/></g><g class="participant participant-head" data-participant="User"><text fill="#000000" font-family="sans-serif" font-size="14" font-weight="bold" lengthAdjust="spacing" textLength="39.6826" x="30" y="118.1426">: User</text><ellipse cx="52.8413" cy="52.1094" fill="#E2E2F0" rx="8" ry="8" style="stroke:#181818;stroke-width:0.5;"/><path d="M52.8413,60.1094 L52.8413,87.1094 M39.8413,68.1094 L65.8413,68.1094 M52.8413,87.1094 L39.8413,102.1094 M52.8413,87.1094 L65.8413,102.1094" fill="none" style="stroke:#181818;stroke-width:0.5;"/></g><g class="participant participant-head" data-participant="TagGroupDetailPage"><text fill="#000000" font-family="sans-serif" font-size="14" font-weight="bold" lengthAdjust="spacing" textLength="147.0205" x="219.2217" y="118.1426">: TagGroupDetailPage</text><path d="M275.2319,75.6094 L275.2319,99.6094 M275.2319,87.6094 L292.2319,87.6094" fill="none" style="stroke:#181818;stroke-width:0.5;"/><ellipse cx="304.2319" cy="87.6094" fill="#E2E2F0" rx="12" ry="12" style="stroke:#181818;stroke-width:0.5;"/></g><g class="participant participant-head" data-participant="TagGroupController"><text fill="#000000" font-family="sans-serif" font-size="14" font-weight="bold" lengthAdjust="spacing" textLength="142.3242" x="513.5322" y="118.1426">: TagGroupController</text><ellipse cx="587.6943" cy="87.6094" fill="#E2E2F0" rx="12" ry="12" style="stroke:#181818;stroke-width:0.5;"/><polygon fill="#181818" points="583.6943,75.6094,589.6943,70.6094,587.6943,75.6094,589.6943,80.6094,583.6943,75.6094" style="stroke:#181818;stroke-width:1;"/></g><g class="participant participant-head" data-participant="TagGroupRepository"><text fill="#000000" font-family="sans-serif" font-size="14" font-weight="bold" lengthAdjust="spacing" textLength="148.5586" x="713.5693" y="118.1426">: TagGroupRepository</text><ellipse cx="790.8486" cy="87.6094" fill="#E2E2F0" rx="12" ry="12" style="stroke:#181818;stroke-width:0.5;"/><line style="stroke:#181818;stroke-width:0.5;" x1="778.8486" x2="802.8486" y1="101.6094" y2="101.6094"/></g><g><title>... TagGroupDetailPage..</title><rect fill="#FFFFFF" height="906.8672" style="stroke:#181818;stroke-width:1;" width="10" x="290.7319" y="153.5703"/></g><g><title>... TagGroupDetailPage..</title><rect fill="#FFFFFF" height="845.5156" style="stroke:#181818;stroke-width:1;" width="10" x="295.7319" y="191.9219"/></g><g><title>... TagGroupDetailPage..</title><rect fill="#FFFFFF" height="28" style="stroke:#181818;stroke-width:1;" width="10" x="300.7319" y="265.625"/></g><g><title>... TagGroupDetailPage..</title><rect fill="#FFFFFF" height="28" style="stroke:#181818;stroke-width:1;" width="10" x="300.7319" y="364.3281"/></g><g><title>... TagGroupDetailPage..</title><rect fill="#FFFFFF" height="28" style="stroke:#181818;stroke-width:1;" width="10" x="300.7319" y="475.0313"/></g><g><title>... TagGroupDetailPage..</title><rect fill="#FFFFFF" height="28" style="stroke:#181818;stroke-width:1;" width="10" x="300.7319" y="695.1406"/></g><g><title>... TagGroupDetailPage..</title><rect fill="#FFFFFF" height="28" style="stroke:#181818;stroke-width:1;" width="10" x="300.7319" y="814.6797"/></g><g><title>... TagGroupDetailPage..</title><rect fill="#FFFFFF" height="28" style="stroke:#181818;stroke-width:1;" width="10" x="300.7319" y="1009.4375"/></g><g><title>... TagGroupController..</title><rect fill="#FFFFFF" height="116.4063" style="stroke:#181818;stroke-width:1;" width="10" x="582.6943" y="540.3828"/></g><g><title>... TagGroupController..</title><rect fill="#FFFFFF" height="91.0547" style="stroke:#181818;stroke-width:1;" width="10" x="582.6943" y="880.0313"/></g><g><title>... TagGroupRepository..</title><rect fill="#FFFFFF" height="30.3516" style="stroke:#181818;stroke-width:1;" width="10" x="785.8486" y="570.7344"/></g><g><title>... TagGroupRepository..</title><rect fill="#FFFFFF" height="30.3516" style="stroke:#181818;stroke-width:1;" width="10" x="785.8486" y="910.3828"/></g><g class="message" data-participant-1="User" data-participant-2="TagGroupDetailPage"><polygon fill="#181818" points="278.7319,149.5703,288.7319,153.5703,278.7319,157.5703,282.7319,153.5703" style="stroke:#181818;stroke-width:1;"/><line style="stroke:#181818;stroke-width:1;" x1="52.8413" x2="284.7319" y1="153.5703" y2="153.5703"/><text fill="#000000" font-family="sans-serif" font-size="13" lengthAdjust="spacing" textLength="56.3354" x="59.8413" y="148.7139">clickEdit()</text></g><g class="message" data-participant-1="TagGroupDetailPage" data-participant-2="TagGroupDetailPage"><line style="stroke:#181818;stroke-width:1;" x1="300.7319" x2="347.7319" y1="178.9219" y2="178.9219"/><line style="stroke:#181818;stroke-width:1;" x1="347.7319" x2="347.7319" y1="178.9219" y2="191.9219"/><line style="stroke:#181818;stroke-width:1;" x1="306.7319" x2="347.7319" y1="191.9219" y2="191.9219"/><polygon fill="#181818" points="316.7319,187.9219,306.7319,191.9219,316.7319,195.9219,312.7319,191.9219" style="stroke:#181818;stroke-width:1;"/><text fill="#000000" font-family="sans-serif" font-size="13" lengthAdjust="spacing" textLength="101.8545" x="312.7319" y="174.0654">displayEditForm()</text></g><g class="message" data-participant-1="User" data-participant-2="TagGroupDetailPage"><polygon fill="#181818" points="283.7319,223.2734,293.7319,227.2734,283.7319,231.2734,287.7319,227.2734" style="stroke:#181818;stroke-width:1;"/><line style="stroke:#181818;stroke-width:1;" x1="52.8413" x2="289.7319" y1="227.2734" y2="227.2734"/><text fill="#000000" font-family="sans-serif" font-size="13" lengthAdjust="spacing" textLength="213.8906" x="59.8413" y="222.417">saveChanges(tagGroupID, newData)</text></g><g class="message" data-participant-1="TagGroupDetailPage" data-participant-2="TagGroupDetailPage"><line style="stroke:#181818;stroke-width:1;" x1="310.7319" x2="352.7319" y1="257.625" y2="257.625"/><line style="stroke:#181818;stroke-width:1;" x1="352.7319" x2="352.7319" y1="257.625" y2="270.625"/><line style="stroke:#181818;stroke-width:1;" x1="311.7319" x2="352.7319" y1="270.625" y2="270.625"/><polygon fill="#181818" points="321.7319,266.625,311.7319,270.625,321.7319,274.625,317.7319,270.625" style="stroke:#181818;stroke-width:1;"/><text fill="#000000" font-family="sans-serif" font-size="13" lengthAdjust="spacing" textLength="171.2344" x="317.7319" y="252.7686">validateForm(newData.name)</text></g><path d="M209.2217,315.625 L274.4326,315.625 L274.4326,323.9766 L264.4326,333.9766 L209.2217,333.9766 L209.2217,315.625" fill="#EEEEEE" style="stroke:#000000;stroke-width:1.5;"/><rect fill="none" height="91.7031" style="stroke:#000000;stroke-width:1.5;" width="321.7378" x="209.2217" y="315.625"/><text fill="#000000" font-family="sans-serif" font-size="13" font-weight="bold" lengthAdjust="spacing" textLength="20.2109" x="224.2217" y="330.1201">opt</text><text fill="#000000" font-family="sans-serif" font-size="11" font-weight="bold" lengthAdjust="spacing" textLength="69.6685" x="289.4326" y="329.0439">[form invalid]</text><g class="message" data-participant-1="TagGroupDetailPage" data-participant-2="TagGroupDetailPage"><line style="stroke:#181818;stroke-width:1;" x1="310.7319" x2="352.7319" y1="356.3281" y2="356.3281"/><line style="stroke:#181818;stroke-width:1;" x1="352.7319" x2="352.7319" y1="356.3281" y2="369.3281"/><line style="stroke:#181818;stroke-width:1;" x1="311.7319" x2="352.7319" y1="369.3281" y2="369.3281"/><polygon fill="#181818" points="321.7319,365.3281,311.7319,369.3281,321.7319,373.3281,317.7319,369.3281" style="stroke:#181818;stroke-width:1;"/><text fill="#000000" font-family="sans-serif" font-size="13" lengthAdjust="spacing" textLength="186.2275" x="317.7319" y="351.4717">displayError("Name is required")</text></g><g class="message" data-participant-1="User" data-participant-2="TagGroupDetailPage"><polygon fill="#181818" points="283.7319,432.6797,293.7319,436.6797,283.7319,440.6797,287.7319,436.6797" style="stroke:#181818;stroke-width:1;"/><line style="stroke:#181818;stroke-width:1;" x1="52.8413" x2="289.7319" y1="436.6797" y2="436.6797"/><text fill="#000000" font-family="sans-serif" font-size="13" lengthAdjust="spacing" textLength="213.8906" x="59.8413" y="431.8232">saveChanges(tagGroupID, newData)</text></g><g class="message" data-participant-1="TagGroupDetailPage" data-participant-2="TagGroupDetailPage"><line style="stroke:#181818;stroke-width:1;" x1="310.7319" x2="352.7319" y1="467.0313" y2="467.0313"/><line style="stroke:#181818;stroke-width:1;" x1="352.7319" x2="352.7319" y1="467.0313" y2="480.0313"/><line style="stroke:#181818;stroke-width:1;" x1="311.7319" x2="352.7319" y1="480.0313" y2="480.0313"/><polygon fill="#181818" points="321.7319,476.0313,311.7319,480.0313,321.7319,484.0313,317.7319,480.0313" style="stroke:#181818;stroke-width:1;"/><text fill="#000000" font-family="sans-serif" font-size="13" lengthAdjust="spacing" textLength="171.2344" x="317.7319" y="462.1748">validateForm(newData.name)</text></g><g class="message" data-participant-1="TagGroupDetailPage" data-participant-2="TagGroupController"><polygon fill="#181818" points="570.6943,536.3828,580.6943,540.3828,570.6943,544.3828,574.6943,540.3828" style="stroke:#181818;stroke-width:1;"/><line style="stroke:#181818;stroke-width:1;" x1="305.7319" x2="576.6943" y1="540.3828" y2="540.3828"/><text fill="#000000" font-family="sans-serif" font-size="13" lengthAdjust="spacing" textLength="257.9624" x="312.7319" y="535.5264">processUpdateGroup(tagGroupID, newData)</text></g><g class="message" data-participant-1="TagGroupController" data-participant-2="TagGroupRepository"><polygon fill="#181818" points="773.8486,566.7344,783.8486,570.7344,773.8486,574.7344,777.8486,570.7344" style="stroke:#181818;stroke-width:1;"/><line style="stroke:#181818;stroke-width:1;" x1="592.6943" x2="779.8486" y1="570.7344" y2="570.7344"/><text fill="#000000" font-family="sans-serif" font-size="13" lengthAdjust="spacing" textLength="174.1543" x="599.6943" y="565.8779">update(tagGroupID, newData)</text></g><g class="message" data-participant-1="TagGroupRepository" data-participant-2="TagGroupController"><polygon fill="#181818" points="603.6943,597.0859,593.6943,601.0859,603.6943,605.0859,599.6943,601.0859" style="stroke:#181818;stroke-width:1;"/><line style="stroke:#181818;stroke-width:1;stroke-dasharray:2,2;" x1="597.6943" x2="789.8486" y1="601.0859" y2="601.0859"/><text fill="#000000" font-family="sans-serif" font-size="13" lengthAdjust="spacing" textLength="76.6162" x="609.6943" y="596.2295">updateStatus</text></g><path d="M20,616.0859 L80.1709,616.0859 L80.1709,624.4375 L70.1709,634.4375 L20,634.4375 L20,616.0859" fill="#EEEEEE" style="stroke:#000000;stroke-width:1.5;"/><rect fill="none" height="436.3516" style="stroke:#000000;stroke-width:1.5;" width="858.1279" x="20" y="616.0859"/><text fill="#000000" font-family="sans-serif" font-size="13" font-weight="bold" lengthAdjust="spacing" textLength="15.1709" x="35" y="630.5811">alt</text><text fill="#000000" font-family="sans-serif" font-size="11" font-weight="bold" lengthAdjust="spacing" textLength="111.8906" x="95.1709" y="629.5049">[name already exists]</text><g class="message" data-participant-1="TagGroupController" data-participant-2="TagGroupDetailPage"><polygon fill="#181818" points="316.7319,652.7891,306.7319,656.7891,316.7319,660.7891,312.7319,656.7891" style="stroke:#181818;stroke-width:1;"/><line style="stroke:#181818;stroke-width:1;stroke-dasharray:2,2;" x1="310.7319" x2="586.6943" y1="656.7891" y2="656.7891"/><text fill="#000000" font-family="sans-serif" font-size="13" lengthAdjust="spacing" textLength="163.103" x="322.7319" y="651.9326">error("Name already exists")</text></g><g class="message" data-participant-1="TagGroupDetailPage" data-participant-2="TagGroupDetailPage"><line style="stroke:#181818;stroke-width:1;" x1="310.7319" x2="352.7319" y1="687.1406" y2="687.1406"/><line style="stroke:#181818;stroke-width:1;" x1="352.7319" x2="352.7319" y1="687.1406" y2="700.1406"/><line style="stroke:#181818;stroke-width:1;" x1="311.7319" x2="352.7319" y1="700.1406" y2="700.1406"/><polygon fill="#181818" points="321.7319,696.1406,311.7319,700.1406,321.7319,704.1406,317.7319,700.1406" style="stroke:#181818;stroke-width:1;"/><text fill="#000000" font-family="sans-serif" font-size="13" lengthAdjust="spacing" textLength="205.0103" x="317.7319" y="682.2842">displayError("Name already exists")</text></g><line style="stroke:#000000;stroke-width:1;stroke-dasharray:2,2;" x1="20" x2="878.1279" y1="739.1406" y2="739.1406"/><text fill="#000000" font-family="sans-serif" font-size="11" font-weight="bold" lengthAdjust="spacing" textLength="163.1792" x="25" y="750.5596">[name is unique or unchanged]</text><g class="message" data-participant-1="User" data-participant-2="TagGroupDetailPage"><polygon fill="#181818" points="283.7319,772.3281,293.7319,776.3281,283.7319,780.3281,287.7319,776.3281" style="stroke:#181818;stroke-width:1;"/><line style="stroke:#181818;stroke-width:1;" x1="52.8413" x2="289.7319" y1="776.3281" y2="776.3281"/><text fill="#000000" font-family="sans-serif" font-size="13" lengthAdjust="spacing" textLength="213.8906" x="59.8413" y="771.4717">saveChanges(tagGroupID, newData)</text></g><g class="message" data-participant-1="TagGroupDetailPage" data-participant-2="TagGroupDetailPage"><line style="stroke:#181818;stroke-width:1;" x1="310.7319" x2="352.7319" y1="806.6797" y2="806.6797"/><line style="stroke:#181818;stroke-width:1;" x1="352.7319" x2="352.7319" y1="806.6797" y2="819.6797"/><line style="stroke:#181818;stroke-width:1;" x1="311.7319" x2="352.7319" y1="819.6797" y2="819.6797"/><polygon fill="#181818" points="321.7319,815.6797,311.7319,819.6797,321.7319,823.6797,317.7319,819.6797" style="stroke:#181818;stroke-width:1;"/><text fill="#000000" font-family="sans-serif" font-size="13" lengthAdjust="spacing" textLength="171.2344" x="317.7319" y="801.8232">validateForm(newData.name)</text></g><g class="message" data-participant-1="TagGroupDetailPage" data-participant-2="TagGroupController"><polygon fill="#181818" points="570.6943,876.0313,580.6943,880.0313,570.6943,884.0313,574.6943,880.0313" style="stroke:#181818;stroke-width:1;"/><line style="stroke:#181818;stroke-width:1;" x1="305.7319" x2="576.6943" y1="880.0313" y2="880.0313"/><text fill="#000000" font-family="sans-serif" font-size="13" lengthAdjust="spacing" textLength="257.9624" x="312.7319" y="875.1748">processUpdateGroup(tagGroupID, newData)</text></g><g class="message" data-participant-1="TagGroupController" data-participant-2="TagGroupRepository"><polygon fill="#181818" points="773.8486,906.3828,783.8486,910.3828,773.8486,914.3828,777.8486,910.3828" style="stroke:#181818;stroke-width:1;"/><line style="stroke:#181818;stroke-width:1;" x1="592.6943" x2="779.8486" y1="910.3828" y2="910.3828"/><text fill="#000000" font-family="sans-serif" font-size="13" lengthAdjust="spacing" textLength="174.1543" x="599.6943" y="905.5264">update(tagGroupID, newData)</text></g><g class="message" data-participant-1="TagGroupRepository" data-participant-2="TagGroupController"><polygon fill="#181818" points="603.6943,936.7344,593.6943,940.7344,603.6943,944.7344,599.6943,940.7344" style="stroke:#181818;stroke-width:1;"/><line style="stroke:#181818;stroke-width:1;stroke-dasharray:2,2;" x1="597.6943" x2="789.8486" y1="940.7344" y2="940.7344"/><text fill="#000000" font-family="sans-serif" font-size="13" lengthAdjust="spacing" textLength="76.6162" x="609.6943" y="935.8779">updateStatus</text></g><g class="message" data-participant-1="TagGroupController" data-participant-2="TagGroupDetailPage"><polygon fill="#181818" points="316.7319,967.0859,306.7319,971.0859,316.7319,975.0859,312.7319,971.0859" style="stroke:#181818;stroke-width:1;"/><line style="stroke:#181818;stroke-width:1;stroke-dasharray:2,2;" x1="310.7319" x2="586.6943" y1="971.0859" y2="971.0859"/><text fill="#000000" font-family="sans-serif" font-size="13" lengthAdjust="spacing" textLength="81.6626" x="322.7319" y="966.2295">tagGroupData</text></g><g class="message" data-participant-1="TagGroupDetailPage" data-participant-2="TagGroupDetailPage"><line style="stroke:#181818;stroke-width:1;" x1="310.7319" x2="352.7319" y1="1001.4375" y2="1001.4375"/><line style="stroke:#181818;stroke-width:1;" x1="352.7319" x2="352.7319" y1="1001.4375" y2="1014.4375"/><line style="stroke:#181818;stroke-width:1;" x1="311.7319" x2="352.7319" y1="1014.4375" y2="1014.4375"/><polygon fill="#181818" points="321.7319,1010.4375,311.7319,1014.4375,321.7319,1018.4375,317.7319,1014.4375" style="stroke:#181818;stroke-width:1;"/><text fill="#000000" font-family="sans-serif" font-size="13" lengthAdjust="spacing" textLength="84.5317" x="317.7319" y="996.5811">reloadDetails()</text></g><!--SRC=[jPLBKiCm38RtFeMcgpO37805cnOODWm3z00YLei7rmwsK-ZjiPsMke-yMiWg4ydwVodwaWKADJEu8CWooxCCRhbmy8fpk3UwBDYxu0GphTsR_cOCSwSD3BBi6gQMJ9OD06syPM-wL1pDgehw0l7yX1mA-OHpMkSU1bYkbJDQxXuSLm_bhyXXW95omkq9FbEXhV0kLtldjW76Wc6ul3bY1guXboB_25COZaA_OecEZjbcHqxNrUJ25X9NeUgTDeksoet-B2vf_8vgJdRerWaFamjGz3L1XwDUnfOe1VSsegjrXIlbrw7P8QT6_xfmVcVC0eIA0WpyTSAuZD5cE7WCsoai6FeiXI4-6CLwJGv2lCKZgMZhl57tQwjXsEtzDBVJFk0jDzv9ONHErawBO2U6Q_ixz9KGkAERA2IwM-wyRXa5UsWbrAPIIT7BkXuhhHU7hhHr2v5-5AA-T11UYBynX7m5z2siguxNjLhtjYdPtjrowmMkyPICTvDre7yQGxKksZQh0qwRD9AMgX5wOaibFai2_yieLHuvuh-9PuFNTo3DzFtH7BhvEfd5DXwRzlH49BjWUJQQ7V7iY-2cgT1DH-JEOiwGrCYhHtRu7tlL8zt_u7u0]--></g></svg>