<svg xmlns="http://www.w3.org/2000/svg" xmlns:xlink="http://www.w3.org/1999/xlink" contentStyleType="text/css" data-diagram-type="SEQUENCE" height="825px" preserveAspectRatio="none" style="width:803px;height:825px;background:#FFFFFF;" version="1.1" viewBox="0 0 803 825" width="803px" zoomAndPan="magnify"><defs/><g><rect fill="#FFFFFF" height="804.5859" style="stroke:#181818;stroke-width:1.5;" width="792.2896" x="5" y="15"/><path d="M141.6699,15 L141.6699,25.6094 L131.6699,35.6094 L5,35.6094" fill="none" style="stroke:#181818;stroke-width:1.5;"/><text fill="#000000" font-family="sans-serif" font-size="14" lengthAdjust="spacing" textLength="4.9697" x="8" y="30.5332">"</text><text fill="#000000" font-family="sans-serif" font-size="14" font-weight="bold" lengthAdjust="spacing" textLength="16.3379" x="12.9697" y="30.5332">sd</text><text fill="#000000" font-family="sans-serif" font-size="14" lengthAdjust="spacing" textLength="101.4727" x="33.1973" y="30.5332">UbahTagGroup"</text><g><title>... TagGroupPage..</title><rect fill="#FFFFFF" height="638.4063" style="stroke:#181818;stroke-width:1;" width="10" x="275.7319" y="153.5703"/></g><g><title>... TagGroupPage..</title><rect fill="#FFFFFF" height="28" style="stroke:#181818;stroke-width:1;" width="10" x="280.7319" y="191.9219"/></g><g><title>... TagGroupPage..</title><rect fill="#FFFFFF" height="28" style="stroke:#181818;stroke-width:1;" width="10" x="280.7319" y="295.625"/></g><g><title>... TagGroupPage..</title><rect fill="#FFFFFF" height="28" style="stroke:#181818;stroke-width:1;" width="10" x="280.7319" y="394.3281"/></g><g><title>... TagGroupPage..</title><rect fill="#FFFFFF" height="28" style="stroke:#181818;stroke-width:1;" width="10" x="280.7319" y="621.4375"/></g><g><title>... TagGroupPage..</title><rect fill="#FFFFFF" height="28" style="stroke:#181818;stroke-width:1;" width="10" x="280.7319" y="740.9766"/></g><g><title>... TagGroupController..</title><rect fill="#FFFFFF" height="235.9453" style="stroke:#181818;stroke-width:1;" width="10" x="537.418" y="466.6797"/></g><g><title>... TagGroup..</title><rect fill="#FFFFFF" height="30.3516" style="stroke:#181818;stroke-width:1;" width="10" x="740.5723" y="497.0313"/></g><rect fill="none" height="91.7031" style="stroke:#000000;stroke-width:1.5;" width="282.5576" x="213.2837" y="345.625"/><rect fill="none" height="241.5938" style="stroke:#000000;stroke-width:1.5;" width="413.2964" x="213.2837" y="542.3828"/><g><title>... User..</title><rect fill="#000000" fill-opacity="0.00000" height="679.7578" width="8" x="33.8413" y="121.2188"/><line style="stroke:#181818;stroke-width:0.5;stroke-dasharray:5,5;" x1="37" x2="37" y1="121.2188" y2="800.9766"/></g><g><title>... TagGroupPage..</title><rect fill="#000000" fill-opacity="0.00000" height="679.7578" width="8" x="276.7319" y="121.2188"/><line style="stroke:#181818;stroke-width:0.5;stroke-dasharray:5,5;" x1="280.2837" x2="280.2837" y1="121.2188" y2="800.9766"/></g><g><title>... TagGroupController..</title><rect fill="#000000" fill-opacity="0.00000" height="679.7578" width="8" x="538.418" y="121.2188"/><line style="stroke:#181818;stroke-width:0.5;stroke-dasharray:5,5;" x1="542.2559" x2="542.2559" y1="121.2188" y2="800.9766"/></g><g><title>... TagGroup..</title><rect fill="#000000" fill-opacity="0.00000" height="679.7578" width="8" x="741.5723" y="121.2188"/><line style="stroke:#181818;stroke-width:0.5;stroke-dasharray:5,5;" x1="744.855" x2="744.855" y1="121.2188" y2="800.9766"/></g><g class="participant participant-head" data-participant="User"><text fill="#000000" font-family="sans-serif" font-size="14" font-weight="bold" lengthAdjust="spacing" textLength="39.6826" x="15" y="118.1426">: User</text><ellipse cx="37.8413" cy="52.1094" fill="#E2E2F0" rx="8" ry="8" style="stroke:#181818;stroke-width:0.5;"/><path d="M37.8413,60.1094 L37.8413,87.1094 M24.8413,68.1094 L50.8413,68.1094 M37.8413,87.1094 L24.8413,102.1094 M37.8413,87.1094 L50.8413,102.1094" fill="none" style="stroke:#181818;stroke-width:0.5;"/></g><g class="participant participant-head" data-participant="TagGroupDetailPage"><text fill="#000000" font-family="sans-serif" font-size="14" font-weight="bold" lengthAdjust="spacing" textLength="108.8965" x="223.2837" y="118.1426">: TagGroupPage</text><path d="M260.2319,75.6094 L260.2319,99.6094 M260.2319,87.6094 L277.2319,87.6094" fill="none" style="stroke:#181818;stroke-width:0.5;"/><ellipse cx="289.2319" cy="87.6094" fill="#E2E2F0" rx="12" ry="12" style="stroke:#181818;stroke-width:0.5;"/></g><g class="participant participant-head" data-participant="TagGroupController"><text fill="#000000" font-family="sans-serif" font-size="14" font-weight="bold" lengthAdjust="spacing" textLength="142.3242" x="468.2559" y="118.1426">: TagGroupController</text><ellipse cx="542.418" cy="87.6094" fill="#E2E2F0" rx="12" ry="12" style="stroke:#181818;stroke-width:0.5;"/><polygon fill="#181818" points="538.418,75.6094,544.418,70.6094,542.418,75.6094,544.418,80.6094,538.418,75.6094" style="stroke:#181818;stroke-width:1;"/></g><g class="participant participant-head" data-participant="TagGroupRepository"><text fill="#000000" font-family="sans-serif" font-size="14" font-weight="bold" lengthAdjust="spacing" textLength="75.4346" x="704.855" y="118.1426">: TagGroup</text><ellipse cx="745.5723" cy="87.6094" fill="#E2E2F0" rx="12" ry="12" style="stroke:#181818;stroke-width:0.5;"/><line style="stroke:#181818;stroke-width:0.5;" x1="733.5723" x2="757.5723" y1="101.6094" y2="101.6094"/></g><g><title>... TagGroupPage..</title><rect fill="#FFFFFF" height="638.4063" style="stroke:#181818;stroke-width:1;" width="10" x="275.7319" y="153.5703"/></g><g><title>... TagGroupPage..</title><rect fill="#FFFFFF" height="28" style="stroke:#181818;stroke-width:1;" width="10" x="280.7319" y="191.9219"/></g><g><title>... TagGroupPage..</title><rect fill="#FFFFFF" height="28" style="stroke:#181818;stroke-width:1;" width="10" x="280.7319" y="295.625"/></g><g><title>... TagGroupPage..</title><rect fill="#FFFFFF" height="28" style="stroke:#181818;stroke-width:1;" width="10" x="280.7319" y="394.3281"/></g><g><title>... TagGroupPage..</title><rect fill="#FFFFFF" height="28" style="stroke:#181818;stroke-width:1;" width="10" x="280.7319" y="621.4375"/></g><g><title>... TagGroupPage..</title><rect fill="#FFFFFF" height="28" style="stroke:#181818;stroke-width:1;" width="10" x="280.7319" y="740.9766"/></g><g><title>... TagGroupController..</title><rect fill="#FFFFFF" height="235.9453" style="stroke:#181818;stroke-width:1;" width="10" x="537.418" y="466.6797"/></g><g><title>... TagGroup..</title><rect fill="#FFFFFF" height="30.3516" style="stroke:#181818;stroke-width:1;" width="10" x="740.5723" y="497.0313"/></g><g class="message" data-participant-1="User" data-participant-2="TagGroupDetailPage"><polygon fill="#181818" points="263.7319,149.5703,273.7319,153.5703,263.7319,157.5703,267.7319,153.5703" style="stroke:#181818;stroke-width:1;"/><line style="stroke:#181818;stroke-width:1;" x1="37.8413" x2="269.7319" y1="153.5703" y2="153.5703"/><text fill="#000000" font-family="sans-serif" font-size="13" lengthAdjust="spacing" textLength="56.3354" x="44.8413" y="148.7139">clickEdit()</text></g><g class="message" data-participant-1="TagGroupDetailPage" data-participant-2="TagGroupDetailPage"><line style="stroke:#181818;stroke-width:1;" x1="290.7319" x2="332.7319" y1="183.9219" y2="183.9219"/><line style="stroke:#181818;stroke-width:1;" x1="332.7319" x2="332.7319" y1="183.9219" y2="196.9219"/><line style="stroke:#181818;stroke-width:1;" x1="291.7319" x2="332.7319" y1="196.9219" y2="196.9219"/><polygon fill="#181818" points="301.7319,192.9219,291.7319,196.9219,301.7319,200.9219,297.7319,196.9219" style="stroke:#181818;stroke-width:1;"/><text fill="#000000" font-family="sans-serif" font-size="13" lengthAdjust="spacing" textLength="101.8545" x="297.7319" y="179.0654">displayEditForm()</text></g><g class="message" data-participant-1="User" data-participant-2="TagGroupDetailPage"><polygon fill="#181818" points="263.7319,253.2734,273.7319,257.2734,263.7319,261.2734,267.7319,257.2734" style="stroke:#181818;stroke-width:1;"/><line style="stroke:#181818;stroke-width:1;" x1="37.8413" x2="269.7319" y1="257.2734" y2="257.2734"/><text fill="#000000" font-family="sans-serif" font-size="13" lengthAdjust="spacing" textLength="213.8906" x="44.8413" y="252.417">saveChanges(tagGroupID, newData)</text></g><g class="message" data-participant-1="TagGroupDetailPage" data-participant-2="TagGroupDetailPage"><line style="stroke:#181818;stroke-width:1;" x1="290.7319" x2="332.7319" y1="287.625" y2="287.625"/><line style="stroke:#181818;stroke-width:1;" x1="332.7319" x2="332.7319" y1="287.625" y2="300.625"/><line style="stroke:#181818;stroke-width:1;" x1="291.7319" x2="332.7319" y1="300.625" y2="300.625"/><polygon fill="#181818" points="301.7319,296.625,291.7319,300.625,301.7319,304.625,297.7319,300.625" style="stroke:#181818;stroke-width:1;"/><text fill="#000000" font-family="sans-serif" font-size="13" lengthAdjust="spacing" textLength="171.2344" x="297.7319" y="282.7686">validateForm(newData.name)</text></g><path d="M213.2837,345.625 L278.4946,345.625 L278.4946,353.9766 L268.4946,363.9766 L213.2837,363.9766 L213.2837,345.625" fill="#EEEEEE" style="stroke:#000000;stroke-width:1.5;"/><rect fill="none" height="91.7031" style="stroke:#000000;stroke-width:1.5;" width="282.5576" x="213.2837" y="345.625"/><text fill="#000000" font-family="sans-serif" font-size="13" font-weight="bold" lengthAdjust="spacing" textLength="20.2109" x="228.2837" y="360.1201">opt</text><text fill="#000000" font-family="sans-serif" font-size="11" font-weight="bold" lengthAdjust="spacing" textLength="69.6685" x="293.4946" y="359.0439">[form invalid]</text><g class="message" data-participant-1="TagGroupDetailPage" data-participant-2="TagGroupDetailPage"><line style="stroke:#181818;stroke-width:1;" x1="290.7319" x2="332.7319" y1="386.3281" y2="386.3281"/><line style="stroke:#181818;stroke-width:1;" x1="332.7319" x2="332.7319" y1="386.3281" y2="399.3281"/><line style="stroke:#181818;stroke-width:1;" x1="291.7319" x2="332.7319" y1="399.3281" y2="399.3281"/><polygon fill="#181818" points="301.7319,395.3281,291.7319,399.3281,301.7319,403.3281,297.7319,399.3281" style="stroke:#181818;stroke-width:1;"/><text fill="#000000" font-family="sans-serif" font-size="13" lengthAdjust="spacing" textLength="176.1094" x="297.7319" y="381.4717">showError("Name is required")</text></g><g class="message" data-participant-1="TagGroupDetailPage" data-participant-2="TagGroupController"><polygon fill="#181818" points="525.418,462.6797,535.418,466.6797,525.418,470.6797,529.418,466.6797" style="stroke:#181818;stroke-width:1;"/><line style="stroke:#181818;stroke-width:1;" x1="285.7319" x2="531.418" y1="466.6797" y2="466.6797"/><text fill="#000000" font-family="sans-serif" font-size="13" lengthAdjust="spacing" textLength="232.686" x="292.7319" y="461.8232">updateTagGroup(tagGroupID, newData)</text></g><g class="message" data-participant-1="TagGroupController" data-participant-2="TagGroupRepository"><polygon fill="#181818" points="728.5723,493.0313,738.5723,497.0313,728.5723,501.0313,732.5723,497.0313" style="stroke:#181818;stroke-width:1;"/><line style="stroke:#181818;stroke-width:1;" x1="547.418" x2="734.5723" y1="497.0313" y2="497.0313"/><text fill="#000000" font-family="sans-serif" font-size="13" lengthAdjust="spacing" textLength="174.1543" x="554.418" y="492.1748">update(tagGroupID, newData)</text></g><g class="message" data-participant-1="TagGroupRepository" data-participant-2="TagGroupController"><polygon fill="#181818" points="558.418,523.3828,548.418,527.3828,558.418,531.3828,554.418,527.3828" style="stroke:#181818;stroke-width:1;"/><line style="stroke:#181818;stroke-width:1;stroke-dasharray:2,2;" x1="552.418" x2="744.5723" y1="527.3828" y2="527.3828"/><text fill="#000000" font-family="sans-serif" font-size="13" lengthAdjust="spacing" textLength="76.6162" x="564.418" y="522.5264">updateStatus</text></g><path d="M213.2837,542.3828 L273.4546,542.3828 L273.4546,550.7344 L263.4546,560.7344 L213.2837,560.7344 L213.2837,542.3828" fill="#EEEEEE" style="stroke:#000000;stroke-width:1.5;"/><rect fill="none" height="241.5938" style="stroke:#000000;stroke-width:1.5;" width="413.2964" x="213.2837" y="542.3828"/><text fill="#000000" font-family="sans-serif" font-size="13" font-weight="bold" lengthAdjust="spacing" textLength="15.1709" x="228.2837" y="556.8779">alt</text><text fill="#000000" font-family="sans-serif" font-size="11" font-weight="bold" lengthAdjust="spacing" textLength="111.8906" x="288.4546" y="555.8018">[name already exists]</text><g class="message" data-participant-1="TagGroupController" data-participant-2="TagGroupDetailPage"><polygon fill="#181818" points="296.7319,579.0859,286.7319,583.0859,296.7319,587.0859,292.7319,583.0859" style="stroke:#181818;stroke-width:1;"/><line style="stroke:#181818;stroke-width:1;stroke-dasharray:2,2;" x1="290.7319" x2="536.418" y1="583.0859" y2="583.0859"/><text fill="#000000" font-family="sans-serif" font-size="13" lengthAdjust="spacing" textLength="158.0566" x="302.7319" y="578.2295">error "Name already exists"</text></g><g class="message" data-participant-1="TagGroupDetailPage" data-participant-2="TagGroupDetailPage"><line style="stroke:#181818;stroke-width:1;" x1="290.7319" x2="332.7319" y1="613.4375" y2="613.4375"/><line style="stroke:#181818;stroke-width:1;" x1="332.7319" x2="332.7319" y1="613.4375" y2="626.4375"/><line style="stroke:#181818;stroke-width:1;" x1="291.7319" x2="332.7319" y1="626.4375" y2="626.4375"/><polygon fill="#181818" points="301.7319,622.4375,291.7319,626.4375,301.7319,630.4375,297.7319,626.4375" style="stroke:#181818;stroke-width:1;"/><text fill="#000000" font-family="sans-serif" font-size="13" lengthAdjust="spacing" textLength="194.8921" x="297.7319" y="608.5811">showError("Name already exists")</text></g><line style="stroke:#000000;stroke-width:1;stroke-dasharray:2,2;" x1="213.2837" x2="626.5801" y1="665.4375" y2="665.4375"/><text fill="#000000" font-family="sans-serif" font-size="11" font-weight="bold" lengthAdjust="spacing" textLength="103.3022" x="218.2837" y="676.8564">[update successful]</text><g class="message" data-participant-1="TagGroupController" data-participant-2="TagGroupDetailPage"><polygon fill="#181818" points="296.7319,698.625,286.7319,702.625,296.7319,706.625,292.7319,702.625" style="stroke:#181818;stroke-width:1;"/><line style="stroke:#181818;stroke-width:1;stroke-dasharray:2,2;" x1="290.7319" x2="541.418" y1="702.625" y2="702.625"/><text fill="#000000" font-family="sans-serif" font-size="13" lengthAdjust="spacing" textLength="132.9834" x="302.7319" y="697.7686">updatedTagGroupData</text></g><g class="message" data-participant-1="TagGroupDetailPage" data-participant-2="TagGroupDetailPage"><line style="stroke:#181818;stroke-width:1;" x1="290.7319" x2="332.7319" y1="732.9766" y2="732.9766"/><line style="stroke:#181818;stroke-width:1;" x1="332.7319" x2="332.7319" y1="732.9766" y2="745.9766"/><line style="stroke:#181818;stroke-width:1;" x1="291.7319" x2="332.7319" y1="745.9766" y2="745.9766"/><polygon fill="#181818" points="301.7319,741.9766,291.7319,745.9766,301.7319,749.9766,297.7319,745.9766" style="stroke:#181818;stroke-width:1;"/><text fill="#000000" font-family="sans-serif" font-size="13" lengthAdjust="spacing" textLength="103.3335" x="297.7319" y="728.1201">reloadDetail(data)</text></g><!--SRC=[hLDDSu8m4BtdL-nmGgRs1tZeHMsdbqwdhJzW9Qjc6XAQ19L_NmAeO17BA2TcFzvxk_kIe50hWmb144MMHn4ibhZvmlMBqLaQCBOHd62bjLlgFMCOEsrywGGMbamK1O2s_6LBdIcE9g-o1uHtN5DTTGZDoA6GFi5YhPpHijqohOBo2FytmKWvuN9eDvwLVr2ghIZqvenvXJ1-wj004uYbYB_dNBXmv0SKMtJKfPPrT5_2vCAc4dEF-gnDSWMPKozlhtgBMvfkKAt9XgukU9qzWABT31sE1idUeXIya55ghX4ULM6Fc_Jhr1KMCWa8LH8mABu1gkn6x-R6Q1C6RzwgmeAXdqmOui6e1EkZz_b-WQJujIsTl5VeoLA_eqEgU-j_-1hkPHse3QwJSOzS_-HeMBu3RDm_pwT3bzckMpPV4ae7tX20qX3o76WlhBEjapR7kdHJylU4wfvjgE1MUvp1tSKXqbAz9h1P79ErgqmE7hf2uCTSSSLBv0sx35o78QcHLw6GbqQvonFv1G00]--></g></svg>